M48
; DRILL file {KiCad (5.1.9)-1} date 03/01/21 17:34:56
; FORMAT={-:-/ absolute / metric / decimal}
; #@! TF.CreationDate,2021-03-01T17:34:56+01:00
; #@! TF.GenerationSoftware,Kicad,Pcbnew,(5.1.9)-1
; #@! TF.FileFunction,Plated,1,2,PTH
FMAT,2
METRIC
T1C0.400
T2C0.550
T3C0.750
T4C1.000
T5C1.200
T6C2.000
T7C6.000
%
G90
G05
T1
X149.352Y-99.568
X149.86Y-84.582
X154.61Y-107.82
X154.62Y-104.648
X154.67Y-109.69
X155.702Y-81.788
X156.972Y-81.788
X157.07Y-86.51
X157.734Y-109.22
X159.512Y-81.788
X159.7Y-111.32
X160.274Y-108.204
X160.782Y-81.788
X162.06Y-90.34
X163.322Y-90.399
X168.482Y-98.2
X168.91Y-108.204
X169.482Y-94.7
X169.482Y-98.2
X169.482Y-101.45
X169.994Y-87.059
X170.232Y-95.45
X170.232Y-100.7
X171.958Y-82.55
X172.425Y-114.838
X173.482Y-93.2
X173.482Y-94.2
X173.482Y-102.2
X173.482Y-103.2
X173.482Y-108.966
X176.482Y-95.45
X176.482Y-100.7
X177.038Y-87.376
X177.232Y-94.7
X177.232Y-101.45
X177.482Y-98.2
X178.482Y-98.2
T2
X127.49Y-95.806
X127.49Y-97.076
X127.49Y-98.346
X172.212Y-89.662
X173.482Y-89.662
X174.752Y-89.662
T3
X121.412Y-110.332
X121.412Y-112.332
X121.412Y-114.332
X121.412Y-116.332
X157.988Y-93.218
X157.988Y-95.218
X157.988Y-97.218
X157.988Y-99.218
X157.988Y-101.218
X157.988Y-103.218
X157.988Y-105.218
X164.084Y-93.218
X164.084Y-95.218
X164.084Y-97.218
X164.084Y-99.218
X164.084Y-101.218
X164.084Y-103.218
X164.084Y-105.218
X176.784Y-110.332
X176.784Y-112.332
X176.784Y-114.332
X176.784Y-116.332
T4
X153.51Y-78.47
X159.56Y-78.425
X179.07Y-85.344
T5
X126.746Y-82.296
X126.746Y-92.202
X126.746Y-102.1
X126.746Y-112.014
X152.146Y-82.296
X152.146Y-92.202
X152.146Y-102.1
X152.146Y-112.014
T6
X121.788Y-98.2
T7
X173.482Y-98.2
T0
M30
