%TF.GenerationSoftware,KiCad,Pcbnew,(5.1.9)-1*%
%TF.CreationDate,2021-03-01T17:33:48+01:00*%
%TF.ProjectId,mod_cell_0_02,6d6f645f-6365-46c6-9c5f-305f30322e6b,0.02*%
%TF.SameCoordinates,Original*%
%TF.FileFunction,Paste,Top*%
%TF.FilePolarity,Positive*%
%FSLAX46Y46*%
G04 Gerber Fmt 4.6, Leading zero omitted, Abs format (unit mm)*
G04 Created by KiCad (PCBNEW (5.1.9)-1) date 2021-03-01 17:33:48*
%MOMM*%
%LPD*%
G01*
G04 APERTURE LIST*
%ADD10R,0.900000X0.800000*%
%ADD11R,2.500000X1.800000*%
G04 APERTURE END LIST*
%TO.C,R6*%
G36*
G01*
X162270000Y-79144999D02*
X162270000Y-80395001D01*
G75*
G02*
X162020001Y-80645000I-249999J0D01*
G01*
X161394999Y-80645000D01*
G75*
G02*
X161145000Y-80395001I0J249999D01*
G01*
X161145000Y-79144999D01*
G75*
G02*
X161394999Y-78895000I249999J0D01*
G01*
X162020001Y-78895000D01*
G75*
G02*
X162270000Y-79144999I0J-249999D01*
G01*
G37*
G36*
G01*
X165195000Y-79144999D02*
X165195000Y-80395001D01*
G75*
G02*
X164945001Y-80645000I-249999J0D01*
G01*
X164319999Y-80645000D01*
G75*
G02*
X164070000Y-80395001I0J249999D01*
G01*
X164070000Y-79144999D01*
G75*
G02*
X164319999Y-78895000I249999J0D01*
G01*
X164945001Y-78895000D01*
G75*
G02*
X165195000Y-79144999I0J-249999D01*
G01*
G37*
%TD*%
%TO.C,R5*%
G36*
G01*
X152755001Y-87140000D02*
X151504999Y-87140000D01*
G75*
G02*
X151255000Y-86890001I0J249999D01*
G01*
X151255000Y-86264999D01*
G75*
G02*
X151504999Y-86015000I249999J0D01*
G01*
X152755001Y-86015000D01*
G75*
G02*
X153005000Y-86264999I0J-249999D01*
G01*
X153005000Y-86890001D01*
G75*
G02*
X152755001Y-87140000I-249999J0D01*
G01*
G37*
G36*
G01*
X152755001Y-90065000D02*
X151504999Y-90065000D01*
G75*
G02*
X151255000Y-89815001I0J249999D01*
G01*
X151255000Y-89189999D01*
G75*
G02*
X151504999Y-88940000I249999J0D01*
G01*
X152755001Y-88940000D01*
G75*
G02*
X153005000Y-89189999I0J-249999D01*
G01*
X153005000Y-89815001D01*
G75*
G02*
X152755001Y-90065000I-249999J0D01*
G01*
G37*
%TD*%
D10*
%TO.C,Q2*%
X155420000Y-79210000D03*
X157420000Y-78260000D03*
X157420000Y-80160000D03*
%TD*%
%TO.C,Q1*%
X123174000Y-92202000D03*
X121174000Y-93152000D03*
X121174000Y-91252000D03*
%TD*%
%TO.C,C2*%
G36*
G01*
X154554000Y-113834000D02*
X154554000Y-112734000D01*
G75*
G02*
X154804000Y-112484000I250000J0D01*
G01*
X157804000Y-112484000D01*
G75*
G02*
X158054000Y-112734000I0J-250000D01*
G01*
X158054000Y-113834000D01*
G75*
G02*
X157804000Y-114084000I-250000J0D01*
G01*
X154804000Y-114084000D01*
G75*
G02*
X154554000Y-113834000I0J250000D01*
G01*
G37*
G36*
G01*
X159954000Y-113834000D02*
X159954000Y-112734000D01*
G75*
G02*
X160204000Y-112484000I250000J0D01*
G01*
X163204000Y-112484000D01*
G75*
G02*
X163454000Y-112734000I0J-250000D01*
G01*
X163454000Y-113834000D01*
G75*
G02*
X163204000Y-114084000I-250000J0D01*
G01*
X160204000Y-114084000D01*
G75*
G02*
X159954000Y-113834000I0J250000D01*
G01*
G37*
%TD*%
%TO.C,C1*%
G36*
G01*
X167901000Y-116957000D02*
X167901000Y-115707000D01*
G75*
G02*
X168151000Y-115457000I250000J0D01*
G01*
X168901000Y-115457000D01*
G75*
G02*
X169151000Y-115707000I0J-250000D01*
G01*
X169151000Y-116957000D01*
G75*
G02*
X168901000Y-117207000I-250000J0D01*
G01*
X168151000Y-117207000D01*
G75*
G02*
X167901000Y-116957000I0J250000D01*
G01*
G37*
G36*
G01*
X170701000Y-116957000D02*
X170701000Y-115707000D01*
G75*
G02*
X170951000Y-115457000I250000J0D01*
G01*
X171701000Y-115457000D01*
G75*
G02*
X171951000Y-115707000I0J-250000D01*
G01*
X171951000Y-116957000D01*
G75*
G02*
X171701000Y-117207000I-250000J0D01*
G01*
X170951000Y-117207000D01*
G75*
G02*
X170701000Y-116957000I0J250000D01*
G01*
G37*
%TD*%
%TO.C,C3*%
G36*
G01*
X168161000Y-89271000D02*
X168161000Y-88021000D01*
G75*
G02*
X168411000Y-87771000I250000J0D01*
G01*
X169161000Y-87771000D01*
G75*
G02*
X169411000Y-88021000I0J-250000D01*
G01*
X169411000Y-89271000D01*
G75*
G02*
X169161000Y-89521000I-250000J0D01*
G01*
X168411000Y-89521000D01*
G75*
G02*
X168161000Y-89271000I0J250000D01*
G01*
G37*
G36*
G01*
X165361000Y-89271000D02*
X165361000Y-88021000D01*
G75*
G02*
X165611000Y-87771000I250000J0D01*
G01*
X166361000Y-87771000D01*
G75*
G02*
X166611000Y-88021000I0J-250000D01*
G01*
X166611000Y-89271000D01*
G75*
G02*
X166361000Y-89521000I-250000J0D01*
G01*
X165611000Y-89521000D01*
G75*
G02*
X165361000Y-89271000I0J250000D01*
G01*
G37*
%TD*%
%TO.C,D1*%
G36*
G01*
X170551000Y-82289000D02*
X169301000Y-82289000D01*
G75*
G02*
X169051000Y-82039000I0J250000D01*
G01*
X169051000Y-81289000D01*
G75*
G02*
X169301000Y-81039000I250000J0D01*
G01*
X170551000Y-81039000D01*
G75*
G02*
X170801000Y-81289000I0J-250000D01*
G01*
X170801000Y-82039000D01*
G75*
G02*
X170551000Y-82289000I-250000J0D01*
G01*
G37*
G36*
G01*
X170551000Y-79489000D02*
X169301000Y-79489000D01*
G75*
G02*
X169051000Y-79239000I0J250000D01*
G01*
X169051000Y-78489000D01*
G75*
G02*
X169301000Y-78239000I250000J0D01*
G01*
X170551000Y-78239000D01*
G75*
G02*
X170801000Y-78489000I0J-250000D01*
G01*
X170801000Y-79239000D01*
G75*
G02*
X170551000Y-79489000I-250000J0D01*
G01*
G37*
%TD*%
%TO.C,D2*%
G36*
G01*
X177155000Y-79489000D02*
X175905000Y-79489000D01*
G75*
G02*
X175655000Y-79239000I0J250000D01*
G01*
X175655000Y-78489000D01*
G75*
G02*
X175905000Y-78239000I250000J0D01*
G01*
X177155000Y-78239000D01*
G75*
G02*
X177405000Y-78489000I0J-250000D01*
G01*
X177405000Y-79239000D01*
G75*
G02*
X177155000Y-79489000I-250000J0D01*
G01*
G37*
G36*
G01*
X177155000Y-82289000D02*
X175905000Y-82289000D01*
G75*
G02*
X175655000Y-82039000I0J250000D01*
G01*
X175655000Y-81289000D01*
G75*
G02*
X175905000Y-81039000I250000J0D01*
G01*
X177155000Y-81039000D01*
G75*
G02*
X177405000Y-81289000I0J-250000D01*
G01*
X177405000Y-82039000D01*
G75*
G02*
X177155000Y-82289000I-250000J0D01*
G01*
G37*
%TD*%
%TO.C,D3*%
G36*
G01*
X123691000Y-81417000D02*
X123691000Y-82667000D01*
G75*
G02*
X123441000Y-82917000I-250000J0D01*
G01*
X122691000Y-82917000D01*
G75*
G02*
X122441000Y-82667000I0J250000D01*
G01*
X122441000Y-81417000D01*
G75*
G02*
X122691000Y-81167000I250000J0D01*
G01*
X123441000Y-81167000D01*
G75*
G02*
X123691000Y-81417000I0J-250000D01*
G01*
G37*
G36*
G01*
X120891000Y-81417000D02*
X120891000Y-82667000D01*
G75*
G02*
X120641000Y-82917000I-250000J0D01*
G01*
X119891000Y-82917000D01*
G75*
G02*
X119641000Y-82667000I0J250000D01*
G01*
X119641000Y-81417000D01*
G75*
G02*
X119891000Y-81167000I250000J0D01*
G01*
X120641000Y-81167000D01*
G75*
G02*
X120891000Y-81417000I0J-250000D01*
G01*
G37*
%TD*%
D11*
%TO.C,D4*%
X120428000Y-105664000D03*
X124428000Y-105664000D03*
%TD*%
%TO.C,F1*%
G36*
G01*
X179695000Y-91433000D02*
X178445000Y-91433000D01*
G75*
G02*
X178195000Y-91183000I0J250000D01*
G01*
X178195000Y-90433000D01*
G75*
G02*
X178445000Y-90183000I250000J0D01*
G01*
X179695000Y-90183000D01*
G75*
G02*
X179945000Y-90433000I0J-250000D01*
G01*
X179945000Y-91183000D01*
G75*
G02*
X179695000Y-91433000I-250000J0D01*
G01*
G37*
G36*
G01*
X179695000Y-88633000D02*
X178445000Y-88633000D01*
G75*
G02*
X178195000Y-88383000I0J250000D01*
G01*
X178195000Y-87633000D01*
G75*
G02*
X178445000Y-87383000I250000J0D01*
G01*
X179695000Y-87383000D01*
G75*
G02*
X179945000Y-87633000I0J-250000D01*
G01*
X179945000Y-88383000D01*
G75*
G02*
X179695000Y-88633000I-250000J0D01*
G01*
G37*
%TD*%
%TO.C,IC1*%
G36*
G01*
X165206000Y-110259000D02*
X165206000Y-109959000D01*
G75*
G02*
X165356000Y-109809000I150000J0D01*
G01*
X167006000Y-109809000D01*
G75*
G02*
X167156000Y-109959000I0J-150000D01*
G01*
X167156000Y-110259000D01*
G75*
G02*
X167006000Y-110409000I-150000J0D01*
G01*
X165356000Y-110409000D01*
G75*
G02*
X165206000Y-110259000I0J150000D01*
G01*
G37*
G36*
G01*
X165206000Y-111529000D02*
X165206000Y-111229000D01*
G75*
G02*
X165356000Y-111079000I150000J0D01*
G01*
X167006000Y-111079000D01*
G75*
G02*
X167156000Y-111229000I0J-150000D01*
G01*
X167156000Y-111529000D01*
G75*
G02*
X167006000Y-111679000I-150000J0D01*
G01*
X165356000Y-111679000D01*
G75*
G02*
X165206000Y-111529000I0J150000D01*
G01*
G37*
G36*
G01*
X165206000Y-112799000D02*
X165206000Y-112499000D01*
G75*
G02*
X165356000Y-112349000I150000J0D01*
G01*
X167006000Y-112349000D01*
G75*
G02*
X167156000Y-112499000I0J-150000D01*
G01*
X167156000Y-112799000D01*
G75*
G02*
X167006000Y-112949000I-150000J0D01*
G01*
X165356000Y-112949000D01*
G75*
G02*
X165206000Y-112799000I0J150000D01*
G01*
G37*
G36*
G01*
X165206000Y-114069000D02*
X165206000Y-113769000D01*
G75*
G02*
X165356000Y-113619000I150000J0D01*
G01*
X167006000Y-113619000D01*
G75*
G02*
X167156000Y-113769000I0J-150000D01*
G01*
X167156000Y-114069000D01*
G75*
G02*
X167006000Y-114219000I-150000J0D01*
G01*
X165356000Y-114219000D01*
G75*
G02*
X165206000Y-114069000I0J150000D01*
G01*
G37*
G36*
G01*
X170156000Y-114069000D02*
X170156000Y-113769000D01*
G75*
G02*
X170306000Y-113619000I150000J0D01*
G01*
X171956000Y-113619000D01*
G75*
G02*
X172106000Y-113769000I0J-150000D01*
G01*
X172106000Y-114069000D01*
G75*
G02*
X171956000Y-114219000I-150000J0D01*
G01*
X170306000Y-114219000D01*
G75*
G02*
X170156000Y-114069000I0J150000D01*
G01*
G37*
G36*
G01*
X170156000Y-112799000D02*
X170156000Y-112499000D01*
G75*
G02*
X170306000Y-112349000I150000J0D01*
G01*
X171956000Y-112349000D01*
G75*
G02*
X172106000Y-112499000I0J-150000D01*
G01*
X172106000Y-112799000D01*
G75*
G02*
X171956000Y-112949000I-150000J0D01*
G01*
X170306000Y-112949000D01*
G75*
G02*
X170156000Y-112799000I0J150000D01*
G01*
G37*
G36*
G01*
X170156000Y-111529000D02*
X170156000Y-111229000D01*
G75*
G02*
X170306000Y-111079000I150000J0D01*
G01*
X171956000Y-111079000D01*
G75*
G02*
X172106000Y-111229000I0J-150000D01*
G01*
X172106000Y-111529000D01*
G75*
G02*
X171956000Y-111679000I-150000J0D01*
G01*
X170306000Y-111679000D01*
G75*
G02*
X170156000Y-111529000I0J150000D01*
G01*
G37*
G36*
G01*
X170156000Y-110259000D02*
X170156000Y-109959000D01*
G75*
G02*
X170306000Y-109809000I150000J0D01*
G01*
X171956000Y-109809000D01*
G75*
G02*
X172106000Y-109959000I0J-150000D01*
G01*
X172106000Y-110259000D01*
G75*
G02*
X171956000Y-110409000I-150000J0D01*
G01*
X170306000Y-110409000D01*
G75*
G02*
X170156000Y-110259000I0J150000D01*
G01*
G37*
%TD*%
%TO.C,R1*%
G36*
G01*
X169659000Y-105547000D02*
X169659000Y-106797000D01*
G75*
G02*
X169409000Y-107047000I-250000J0D01*
G01*
X168659000Y-107047000D01*
G75*
G02*
X168409000Y-106797000I0J250000D01*
G01*
X168409000Y-105547000D01*
G75*
G02*
X168659000Y-105297000I250000J0D01*
G01*
X169409000Y-105297000D01*
G75*
G02*
X169659000Y-105547000I0J-250000D01*
G01*
G37*
G36*
G01*
X172459000Y-105547000D02*
X172459000Y-106797000D01*
G75*
G02*
X172209000Y-107047000I-250000J0D01*
G01*
X171459000Y-107047000D01*
G75*
G02*
X171209000Y-106797000I0J250000D01*
G01*
X171209000Y-105547000D01*
G75*
G02*
X171459000Y-105297000I250000J0D01*
G01*
X172209000Y-105297000D01*
G75*
G02*
X172459000Y-105547000I0J-250000D01*
G01*
G37*
%TD*%
%TO.C,R2*%
G36*
G01*
X173743000Y-106797000D02*
X173743000Y-105547000D01*
G75*
G02*
X173993000Y-105297000I250000J0D01*
G01*
X174743000Y-105297000D01*
G75*
G02*
X174993000Y-105547000I0J-250000D01*
G01*
X174993000Y-106797000D01*
G75*
G02*
X174743000Y-107047000I-250000J0D01*
G01*
X173993000Y-107047000D01*
G75*
G02*
X173743000Y-106797000I0J250000D01*
G01*
G37*
G36*
G01*
X176543000Y-106797000D02*
X176543000Y-105547000D01*
G75*
G02*
X176793000Y-105297000I250000J0D01*
G01*
X177543000Y-105297000D01*
G75*
G02*
X177793000Y-105547000I0J-250000D01*
G01*
X177793000Y-106797000D01*
G75*
G02*
X177543000Y-107047000I-250000J0D01*
G01*
X176793000Y-107047000D01*
G75*
G02*
X176543000Y-106797000I0J250000D01*
G01*
G37*
%TD*%
%TO.C,R3*%
G36*
G01*
X167757000Y-82289000D02*
X166507000Y-82289000D01*
G75*
G02*
X166257000Y-82039000I0J250000D01*
G01*
X166257000Y-81289000D01*
G75*
G02*
X166507000Y-81039000I250000J0D01*
G01*
X167757000Y-81039000D01*
G75*
G02*
X168007000Y-81289000I0J-250000D01*
G01*
X168007000Y-82039000D01*
G75*
G02*
X167757000Y-82289000I-250000J0D01*
G01*
G37*
G36*
G01*
X167757000Y-79489000D02*
X166507000Y-79489000D01*
G75*
G02*
X166257000Y-79239000I0J250000D01*
G01*
X166257000Y-78489000D01*
G75*
G02*
X166507000Y-78239000I250000J0D01*
G01*
X167757000Y-78239000D01*
G75*
G02*
X168007000Y-78489000I0J-250000D01*
G01*
X168007000Y-79239000D01*
G75*
G02*
X167757000Y-79489000I-250000J0D01*
G01*
G37*
%TD*%
%TO.C,R4*%
G36*
G01*
X174361000Y-79489000D02*
X173111000Y-79489000D01*
G75*
G02*
X172861000Y-79239000I0J250000D01*
G01*
X172861000Y-78489000D01*
G75*
G02*
X173111000Y-78239000I250000J0D01*
G01*
X174361000Y-78239000D01*
G75*
G02*
X174611000Y-78489000I0J-250000D01*
G01*
X174611000Y-79239000D01*
G75*
G02*
X174361000Y-79489000I-250000J0D01*
G01*
G37*
G36*
G01*
X174361000Y-82289000D02*
X173111000Y-82289000D01*
G75*
G02*
X172861000Y-82039000I0J250000D01*
G01*
X172861000Y-81289000D01*
G75*
G02*
X173111000Y-81039000I250000J0D01*
G01*
X174361000Y-81039000D01*
G75*
G02*
X174611000Y-81289000I0J-250000D01*
G01*
X174611000Y-82039000D01*
G75*
G02*
X174361000Y-82289000I-250000J0D01*
G01*
G37*
%TD*%
%TO.C,R7*%
G36*
G01*
X123691000Y-78369000D02*
X123691000Y-79619000D01*
G75*
G02*
X123441000Y-79869000I-250000J0D01*
G01*
X122691000Y-79869000D01*
G75*
G02*
X122441000Y-79619000I0J250000D01*
G01*
X122441000Y-78369000D01*
G75*
G02*
X122691000Y-78119000I250000J0D01*
G01*
X123441000Y-78119000D01*
G75*
G02*
X123691000Y-78369000I0J-250000D01*
G01*
G37*
G36*
G01*
X120891000Y-78369000D02*
X120891000Y-79619000D01*
G75*
G02*
X120641000Y-79869000I-250000J0D01*
G01*
X119891000Y-79869000D01*
G75*
G02*
X119641000Y-79619000I0J250000D01*
G01*
X119641000Y-78369000D01*
G75*
G02*
X119891000Y-78119000I250000J0D01*
G01*
X120641000Y-78119000D01*
G75*
G02*
X120891000Y-78369000I0J-250000D01*
G01*
G37*
%TD*%
%TO.C,R8*%
G36*
G01*
X119641000Y-85461000D02*
X119641000Y-84211000D01*
G75*
G02*
X119891000Y-83961000I250000J0D01*
G01*
X120641000Y-83961000D01*
G75*
G02*
X120891000Y-84211000I0J-250000D01*
G01*
X120891000Y-85461000D01*
G75*
G02*
X120641000Y-85711000I-250000J0D01*
G01*
X119891000Y-85711000D01*
G75*
G02*
X119641000Y-85461000I0J250000D01*
G01*
G37*
G36*
G01*
X122441000Y-85461000D02*
X122441000Y-84211000D01*
G75*
G02*
X122691000Y-83961000I250000J0D01*
G01*
X123441000Y-83961000D01*
G75*
G02*
X123691000Y-84211000I0J-250000D01*
G01*
X123691000Y-85461000D01*
G75*
G02*
X123441000Y-85711000I-250000J0D01*
G01*
X122691000Y-85711000D01*
G75*
G02*
X122441000Y-85461000I0J250000D01*
G01*
G37*
%TD*%
%TO.C,R9*%
G36*
G01*
X120891000Y-87513000D02*
X120891000Y-88763000D01*
G75*
G02*
X120641000Y-89013000I-250000J0D01*
G01*
X119891000Y-89013000D01*
G75*
G02*
X119641000Y-88763000I0J250000D01*
G01*
X119641000Y-87513000D01*
G75*
G02*
X119891000Y-87263000I250000J0D01*
G01*
X120641000Y-87263000D01*
G75*
G02*
X120891000Y-87513000I0J-250000D01*
G01*
G37*
G36*
G01*
X123691000Y-87513000D02*
X123691000Y-88763000D01*
G75*
G02*
X123441000Y-89013000I-250000J0D01*
G01*
X122691000Y-89013000D01*
G75*
G02*
X122441000Y-88763000I0J250000D01*
G01*
X122441000Y-87513000D01*
G75*
G02*
X122691000Y-87263000I250000J0D01*
G01*
X123441000Y-87263000D01*
G75*
G02*
X123691000Y-87513000I0J-250000D01*
G01*
G37*
%TD*%
%TO.C,SW1*%
G36*
G01*
X170394000Y-84290000D02*
X170394000Y-85890000D01*
G75*
G02*
X170194000Y-86090000I-200000J0D01*
G01*
X169794000Y-86090000D01*
G75*
G02*
X169594000Y-85890000I0J200000D01*
G01*
X169594000Y-84290000D01*
G75*
G02*
X169794000Y-84090000I200000J0D01*
G01*
X170194000Y-84090000D01*
G75*
G02*
X170394000Y-84290000I0J-200000D01*
G01*
G37*
G36*
G01*
X166194000Y-84290000D02*
X166194000Y-85890000D01*
G75*
G02*
X165994000Y-86090000I-200000J0D01*
G01*
X165594000Y-86090000D01*
G75*
G02*
X165394000Y-85890000I0J200000D01*
G01*
X165394000Y-84290000D01*
G75*
G02*
X165594000Y-84090000I200000J0D01*
G01*
X165994000Y-84090000D01*
G75*
G02*
X166194000Y-84290000I0J-200000D01*
G01*
G37*
%TD*%
%TO.C,SW2*%
G36*
G01*
X176452000Y-85890000D02*
X176452000Y-84290000D01*
G75*
G02*
X176652000Y-84090000I200000J0D01*
G01*
X177052000Y-84090000D01*
G75*
G02*
X177252000Y-84290000I0J-200000D01*
G01*
X177252000Y-85890000D01*
G75*
G02*
X177052000Y-86090000I-200000J0D01*
G01*
X176652000Y-86090000D01*
G75*
G02*
X176452000Y-85890000I0J200000D01*
G01*
G37*
G36*
G01*
X172252000Y-85890000D02*
X172252000Y-84290000D01*
G75*
G02*
X172452000Y-84090000I200000J0D01*
G01*
X172852000Y-84090000D01*
G75*
G02*
X173052000Y-84290000I0J-200000D01*
G01*
X173052000Y-85890000D01*
G75*
G02*
X172852000Y-86090000I-200000J0D01*
G01*
X172452000Y-86090000D01*
G75*
G02*
X172252000Y-85890000I0J200000D01*
G01*
G37*
%TD*%
%TO.C,U3*%
G36*
G01*
X163172000Y-82656000D02*
X163472000Y-82656000D01*
G75*
G02*
X163622000Y-82806000I0J-150000D01*
G01*
X163622000Y-84456000D01*
G75*
G02*
X163472000Y-84606000I-150000J0D01*
G01*
X163172000Y-84606000D01*
G75*
G02*
X163022000Y-84456000I0J150000D01*
G01*
X163022000Y-82806000D01*
G75*
G02*
X163172000Y-82656000I150000J0D01*
G01*
G37*
G36*
G01*
X161902000Y-82656000D02*
X162202000Y-82656000D01*
G75*
G02*
X162352000Y-82806000I0J-150000D01*
G01*
X162352000Y-84456000D01*
G75*
G02*
X162202000Y-84606000I-150000J0D01*
G01*
X161902000Y-84606000D01*
G75*
G02*
X161752000Y-84456000I0J150000D01*
G01*
X161752000Y-82806000D01*
G75*
G02*
X161902000Y-82656000I150000J0D01*
G01*
G37*
G36*
G01*
X160632000Y-82656000D02*
X160932000Y-82656000D01*
G75*
G02*
X161082000Y-82806000I0J-150000D01*
G01*
X161082000Y-84456000D01*
G75*
G02*
X160932000Y-84606000I-150000J0D01*
G01*
X160632000Y-84606000D01*
G75*
G02*
X160482000Y-84456000I0J150000D01*
G01*
X160482000Y-82806000D01*
G75*
G02*
X160632000Y-82656000I150000J0D01*
G01*
G37*
G36*
G01*
X159362000Y-82656000D02*
X159662000Y-82656000D01*
G75*
G02*
X159812000Y-82806000I0J-150000D01*
G01*
X159812000Y-84456000D01*
G75*
G02*
X159662000Y-84606000I-150000J0D01*
G01*
X159362000Y-84606000D01*
G75*
G02*
X159212000Y-84456000I0J150000D01*
G01*
X159212000Y-82806000D01*
G75*
G02*
X159362000Y-82656000I150000J0D01*
G01*
G37*
G36*
G01*
X158092000Y-82656000D02*
X158392000Y-82656000D01*
G75*
G02*
X158542000Y-82806000I0J-150000D01*
G01*
X158542000Y-84456000D01*
G75*
G02*
X158392000Y-84606000I-150000J0D01*
G01*
X158092000Y-84606000D01*
G75*
G02*
X157942000Y-84456000I0J150000D01*
G01*
X157942000Y-82806000D01*
G75*
G02*
X158092000Y-82656000I150000J0D01*
G01*
G37*
G36*
G01*
X156822000Y-82656000D02*
X157122000Y-82656000D01*
G75*
G02*
X157272000Y-82806000I0J-150000D01*
G01*
X157272000Y-84456000D01*
G75*
G02*
X157122000Y-84606000I-150000J0D01*
G01*
X156822000Y-84606000D01*
G75*
G02*
X156672000Y-84456000I0J150000D01*
G01*
X156672000Y-82806000D01*
G75*
G02*
X156822000Y-82656000I150000J0D01*
G01*
G37*
G36*
G01*
X155552000Y-82656000D02*
X155852000Y-82656000D01*
G75*
G02*
X156002000Y-82806000I0J-150000D01*
G01*
X156002000Y-84456000D01*
G75*
G02*
X155852000Y-84606000I-150000J0D01*
G01*
X155552000Y-84606000D01*
G75*
G02*
X155402000Y-84456000I0J150000D01*
G01*
X155402000Y-82806000D01*
G75*
G02*
X155552000Y-82656000I150000J0D01*
G01*
G37*
G36*
G01*
X155552000Y-87606000D02*
X155852000Y-87606000D01*
G75*
G02*
X156002000Y-87756000I0J-150000D01*
G01*
X156002000Y-89406000D01*
G75*
G02*
X155852000Y-89556000I-150000J0D01*
G01*
X155552000Y-89556000D01*
G75*
G02*
X155402000Y-89406000I0J150000D01*
G01*
X155402000Y-87756000D01*
G75*
G02*
X155552000Y-87606000I150000J0D01*
G01*
G37*
G36*
G01*
X156822000Y-87606000D02*
X157122000Y-87606000D01*
G75*
G02*
X157272000Y-87756000I0J-150000D01*
G01*
X157272000Y-89406000D01*
G75*
G02*
X157122000Y-89556000I-150000J0D01*
G01*
X156822000Y-89556000D01*
G75*
G02*
X156672000Y-89406000I0J150000D01*
G01*
X156672000Y-87756000D01*
G75*
G02*
X156822000Y-87606000I150000J0D01*
G01*
G37*
G36*
G01*
X158092000Y-87606000D02*
X158392000Y-87606000D01*
G75*
G02*
X158542000Y-87756000I0J-150000D01*
G01*
X158542000Y-89406000D01*
G75*
G02*
X158392000Y-89556000I-150000J0D01*
G01*
X158092000Y-89556000D01*
G75*
G02*
X157942000Y-89406000I0J150000D01*
G01*
X157942000Y-87756000D01*
G75*
G02*
X158092000Y-87606000I150000J0D01*
G01*
G37*
G36*
G01*
X159362000Y-87606000D02*
X159662000Y-87606000D01*
G75*
G02*
X159812000Y-87756000I0J-150000D01*
G01*
X159812000Y-89406000D01*
G75*
G02*
X159662000Y-89556000I-150000J0D01*
G01*
X159362000Y-89556000D01*
G75*
G02*
X159212000Y-89406000I0J150000D01*
G01*
X159212000Y-87756000D01*
G75*
G02*
X159362000Y-87606000I150000J0D01*
G01*
G37*
G36*
G01*
X160632000Y-87606000D02*
X160932000Y-87606000D01*
G75*
G02*
X161082000Y-87756000I0J-150000D01*
G01*
X161082000Y-89406000D01*
G75*
G02*
X160932000Y-89556000I-150000J0D01*
G01*
X160632000Y-89556000D01*
G75*
G02*
X160482000Y-89406000I0J150000D01*
G01*
X160482000Y-87756000D01*
G75*
G02*
X160632000Y-87606000I150000J0D01*
G01*
G37*
G36*
G01*
X161902000Y-87606000D02*
X162202000Y-87606000D01*
G75*
G02*
X162352000Y-87756000I0J-150000D01*
G01*
X162352000Y-89406000D01*
G75*
G02*
X162202000Y-89556000I-150000J0D01*
G01*
X161902000Y-89556000D01*
G75*
G02*
X161752000Y-89406000I0J150000D01*
G01*
X161752000Y-87756000D01*
G75*
G02*
X161902000Y-87606000I150000J0D01*
G01*
G37*
G36*
G01*
X163172000Y-87606000D02*
X163472000Y-87606000D01*
G75*
G02*
X163622000Y-87756000I0J-150000D01*
G01*
X163622000Y-89406000D01*
G75*
G02*
X163472000Y-89556000I-150000J0D01*
G01*
X163172000Y-89556000D01*
G75*
G02*
X163022000Y-89406000I0J150000D01*
G01*
X163022000Y-87756000D01*
G75*
G02*
X163172000Y-87606000I150000J0D01*
G01*
G37*
%TD*%
M02*
