%TF.GenerationSoftware,KiCad,Pcbnew,(5.1.9)-1*%
%TF.CreationDate,2021-03-01T17:33:48+01:00*%
%TF.ProjectId,mod_cell_0_02,6d6f645f-6365-46c6-9c5f-305f30322e6b,0.02*%
%TF.SameCoordinates,Original*%
%TF.FileFunction,Legend,Top*%
%TF.FilePolarity,Positive*%
%FSLAX46Y46*%
G04 Gerber Fmt 4.6, Leading zero omitted, Abs format (unit mm)*
G04 Created by KiCad (PCBNEW (5.1.9)-1) date 2021-03-01 17:33:48*
%MOMM*%
%LPD*%
G01*
G04 APERTURE LIST*
%ADD10C,0.150000*%
%ADD11C,0.400000*%
%ADD12C,0.120000*%
%ADD13C,0.100000*%
G04 APERTURE END LIST*
D10*
X141173509Y-118482537D02*
X141121128Y-118534918D01*
X140963985Y-118587299D01*
X140859223Y-118587299D01*
X140702080Y-118534918D01*
X140597319Y-118430156D01*
X140544938Y-118325394D01*
X140492557Y-118115870D01*
X140492557Y-117958727D01*
X140544938Y-117749203D01*
X140597319Y-117644441D01*
X140702080Y-117539680D01*
X140859223Y-117487299D01*
X140963985Y-117487299D01*
X141121128Y-117539680D01*
X141173509Y-117592060D01*
X142063985Y-118534918D02*
X141959223Y-118587299D01*
X141749700Y-118587299D01*
X141644938Y-118534918D01*
X141592557Y-118430156D01*
X141592557Y-118011108D01*
X141644938Y-117906346D01*
X141749700Y-117853965D01*
X141959223Y-117853965D01*
X142063985Y-117906346D01*
X142116366Y-118011108D01*
X142116366Y-118115870D01*
X141592557Y-118220632D01*
X142744938Y-118587299D02*
X142640176Y-118534918D01*
X142587795Y-118430156D01*
X142587795Y-117487299D01*
X143321128Y-118587299D02*
X143216366Y-118534918D01*
X143163985Y-118430156D01*
X143163985Y-117487299D01*
X144578271Y-118587299D02*
X144578271Y-117853965D01*
X144578271Y-117958727D02*
X144630652Y-117906346D01*
X144735414Y-117853965D01*
X144892557Y-117853965D01*
X144997319Y-117906346D01*
X145049700Y-118011108D01*
X145049700Y-118587299D01*
X145049700Y-118011108D02*
X145102080Y-117906346D01*
X145206842Y-117853965D01*
X145363985Y-117853965D01*
X145468747Y-117906346D01*
X145521128Y-118011108D01*
X145521128Y-118587299D01*
X146202080Y-118587299D02*
X146097319Y-118534918D01*
X146044938Y-118482537D01*
X145992557Y-118377775D01*
X145992557Y-118063489D01*
X146044938Y-117958727D01*
X146097319Y-117906346D01*
X146202080Y-117853965D01*
X146359223Y-117853965D01*
X146463985Y-117906346D01*
X146516366Y-117958727D01*
X146568747Y-118063489D01*
X146568747Y-118377775D01*
X146516366Y-118482537D01*
X146463985Y-118534918D01*
X146359223Y-118587299D01*
X146202080Y-118587299D01*
X147511604Y-118587299D02*
X147511604Y-117487299D01*
X147511604Y-118534918D02*
X147406842Y-118587299D01*
X147197319Y-118587299D01*
X147092557Y-118534918D01*
X147040176Y-118482537D01*
X146987795Y-118377775D01*
X146987795Y-118063489D01*
X147040176Y-117958727D01*
X147092557Y-117906346D01*
X147197319Y-117853965D01*
X147406842Y-117853965D01*
X147511604Y-117906346D01*
X148035414Y-118482537D02*
X148087795Y-118534918D01*
X148035414Y-118587299D01*
X147983033Y-118534918D01*
X148035414Y-118482537D01*
X148035414Y-118587299D01*
X149292557Y-117853965D02*
X149554461Y-118587299D01*
X149816366Y-117853965D01*
X150654461Y-118534918D02*
X150549700Y-118587299D01*
X150340176Y-118587299D01*
X150235414Y-118534918D01*
X150183033Y-118430156D01*
X150183033Y-118011108D01*
X150235414Y-117906346D01*
X150340176Y-117853965D01*
X150549700Y-117853965D01*
X150654461Y-117906346D01*
X150706842Y-118011108D01*
X150706842Y-118115870D01*
X150183033Y-118220632D01*
X151178271Y-118587299D02*
X151178271Y-117853965D01*
X151178271Y-118063489D02*
X151230652Y-117958727D01*
X151283033Y-117906346D01*
X151387795Y-117853965D01*
X151492557Y-117853965D01*
X151859223Y-118482537D02*
X151911604Y-118534918D01*
X151859223Y-118587299D01*
X151806842Y-118534918D01*
X151859223Y-118482537D01*
X151859223Y-118587299D01*
X153168747Y-117592060D02*
X153221128Y-117539680D01*
X153325890Y-117487299D01*
X153587795Y-117487299D01*
X153692557Y-117539680D01*
X153744938Y-117592060D01*
X153797319Y-117696822D01*
X153797319Y-117801584D01*
X153744938Y-117958727D01*
X153116366Y-118587299D01*
X153797319Y-118587299D01*
X154268747Y-118482537D02*
X154321128Y-118534918D01*
X154268747Y-118587299D01*
X154216366Y-118534918D01*
X154268747Y-118482537D01*
X154268747Y-118587299D01*
X154792557Y-118587299D02*
X154792557Y-117487299D01*
X155263985Y-118587299D02*
X155263985Y-118011108D01*
X155211604Y-117906346D01*
X155106842Y-117853965D01*
X154949700Y-117853965D01*
X154844938Y-117906346D01*
X154792557Y-117958727D01*
X155787795Y-118482537D02*
X155840176Y-118534918D01*
X155787795Y-118587299D01*
X155735414Y-118534918D01*
X155787795Y-118482537D01*
X155787795Y-118587299D01*
X156521128Y-117487299D02*
X156625890Y-117487299D01*
X156730652Y-117539680D01*
X156783033Y-117592060D01*
X156835414Y-117696822D01*
X156887795Y-117906346D01*
X156887795Y-118168251D01*
X156835414Y-118377775D01*
X156783033Y-118482537D01*
X156730652Y-118534918D01*
X156625890Y-118587299D01*
X156521128Y-118587299D01*
X156416366Y-118534918D01*
X156363985Y-118482537D01*
X156311604Y-118377775D01*
X156259223Y-118168251D01*
X156259223Y-117906346D01*
X156311604Y-117696822D01*
X156363985Y-117592060D01*
X156416366Y-117539680D01*
X156521128Y-117487299D01*
X157359223Y-118482537D02*
X157411604Y-118534918D01*
X157359223Y-118587299D01*
X157306842Y-118534918D01*
X157359223Y-118482537D01*
X157359223Y-118587299D01*
X158092557Y-117487299D02*
X158197319Y-117487299D01*
X158302080Y-117539680D01*
X158354461Y-117592060D01*
X158406842Y-117696822D01*
X158459223Y-117906346D01*
X158459223Y-118168251D01*
X158406842Y-118377775D01*
X158354461Y-118482537D01*
X158302080Y-118534918D01*
X158197319Y-118587299D01*
X158092557Y-118587299D01*
X157987795Y-118534918D01*
X157935414Y-118482537D01*
X157883033Y-118377775D01*
X157830652Y-118168251D01*
X157830652Y-117906346D01*
X157883033Y-117696822D01*
X157935414Y-117592060D01*
X157987795Y-117539680D01*
X158092557Y-117487299D01*
X158878271Y-117592060D02*
X158930652Y-117539680D01*
X159035414Y-117487299D01*
X159297319Y-117487299D01*
X159402080Y-117539680D01*
X159454461Y-117592060D01*
X159506842Y-117696822D01*
X159506842Y-117801584D01*
X159454461Y-117958727D01*
X158825890Y-118587299D01*
X159506842Y-118587299D01*
X135642581Y-117964834D02*
X135821153Y-118024358D01*
X135880677Y-118083881D01*
X135940200Y-118202929D01*
X135940200Y-118381500D01*
X135880677Y-118500548D01*
X135821153Y-118560072D01*
X135702105Y-118619596D01*
X135225915Y-118619596D01*
X135225915Y-117369596D01*
X135642581Y-117369596D01*
X135761629Y-117429120D01*
X135821153Y-117488643D01*
X135880677Y-117607691D01*
X135880677Y-117726739D01*
X135821153Y-117845786D01*
X135761629Y-117905310D01*
X135642581Y-117964834D01*
X135225915Y-117964834D01*
X136475915Y-118619596D02*
X136475915Y-117369596D01*
X136892581Y-118262453D01*
X137309248Y-117369596D01*
X137309248Y-118619596D01*
X137844962Y-118560072D02*
X138023534Y-118619596D01*
X138321153Y-118619596D01*
X138440200Y-118560072D01*
X138499724Y-118500548D01*
X138559248Y-118381500D01*
X138559248Y-118262453D01*
X138499724Y-118143405D01*
X138440200Y-118083881D01*
X138321153Y-118024358D01*
X138083058Y-117964834D01*
X137964010Y-117905310D01*
X137904486Y-117845786D01*
X137844962Y-117726739D01*
X137844962Y-117607691D01*
X137904486Y-117488643D01*
X137964010Y-117429120D01*
X138083058Y-117369596D01*
X138380677Y-117369596D01*
X138559248Y-117429120D01*
X130100970Y-117441820D02*
X129989363Y-117382296D01*
X129810792Y-117382296D01*
X129624780Y-117441820D01*
X129490851Y-117560867D01*
X129416447Y-117679915D01*
X129327161Y-117918010D01*
X129304840Y-118096581D01*
X129334601Y-118334677D01*
X129379244Y-118453724D01*
X129483411Y-118572772D01*
X129654542Y-118632296D01*
X129773590Y-118632296D01*
X129959601Y-118572772D01*
X130026566Y-118513248D01*
X130078649Y-118096581D01*
X129840554Y-118096581D01*
X130547399Y-118632296D02*
X130651566Y-117798962D01*
X130621804Y-118037058D02*
X130696209Y-117918010D01*
X130763173Y-117858486D01*
X130889661Y-117798962D01*
X131008709Y-117798962D01*
X131804840Y-118572772D02*
X131678351Y-118632296D01*
X131440256Y-118632296D01*
X131328649Y-118572772D01*
X131284006Y-118453724D01*
X131343530Y-117977534D01*
X131417935Y-117858486D01*
X131544423Y-117798962D01*
X131782518Y-117798962D01*
X131894125Y-117858486D01*
X131938768Y-117977534D01*
X131923887Y-118096581D01*
X131313768Y-118215629D01*
X132876268Y-118572772D02*
X132749780Y-118632296D01*
X132511685Y-118632296D01*
X132400078Y-118572772D01*
X132355435Y-118453724D01*
X132414959Y-117977534D01*
X132489363Y-117858486D01*
X132615851Y-117798962D01*
X132853947Y-117798962D01*
X132965554Y-117858486D01*
X133010197Y-117977534D01*
X132995316Y-118096581D01*
X132385197Y-118215629D01*
X133568232Y-117798962D02*
X133464066Y-118632296D01*
X133553351Y-117918010D02*
X133620316Y-117858486D01*
X133746804Y-117798962D01*
X133925375Y-117798962D01*
X134036982Y-117858486D01*
X134081625Y-117977534D01*
X133999780Y-118632296D01*
D11*
X118958502Y-102535645D02*
X121244217Y-102535645D01*
X177662982Y-103815805D02*
X179948697Y-103815805D01*
X178805840Y-104958662D02*
X178805840Y-102672948D01*
D12*
%TO.C,R12*%
X128186000Y-102100380D02*
X129326000Y-102100380D01*
X150706000Y-102100380D02*
X149566000Y-102100380D01*
X129326000Y-106720380D02*
X149566000Y-106720380D01*
X129326000Y-97480380D02*
X129326000Y-106720380D01*
X149566000Y-97480380D02*
X129326000Y-97480380D01*
X149566000Y-106720380D02*
X149566000Y-97480380D01*
%TO.C,R6*%
X163897064Y-78860000D02*
X162442936Y-78860000D01*
X163897064Y-80680000D02*
X162442936Y-80680000D01*
%TO.C,R5*%
X153040000Y-88767064D02*
X153040000Y-87312936D01*
X151220000Y-88767064D02*
X151220000Y-87312936D01*
%TO.C,Q2*%
X155660000Y-77630000D02*
X157120000Y-77630000D01*
X155660000Y-80790000D02*
X157820000Y-80790000D01*
X155660000Y-80790000D02*
X155660000Y-79860000D01*
X155660000Y-77630000D02*
X155660000Y-78560000D01*
%TO.C,Q1*%
X122934000Y-93782000D02*
X121474000Y-93782000D01*
X122934000Y-90622000D02*
X120774000Y-90622000D01*
X122934000Y-90622000D02*
X122934000Y-91552000D01*
X122934000Y-93782000D02*
X122934000Y-92852000D01*
%TO.C,C2*%
X154960250Y-111042750D02*
X154960250Y-111830250D01*
X154566500Y-111436500D02*
X155354000Y-111436500D01*
X155594000Y-115629563D02*
X156658437Y-116694000D01*
X155594000Y-110938437D02*
X156658437Y-109874000D01*
X155594000Y-110938437D02*
X155594000Y-112224000D01*
X155594000Y-115629563D02*
X155594000Y-114344000D01*
X156658437Y-116694000D02*
X162414000Y-116694000D01*
X156658437Y-109874000D02*
X162414000Y-109874000D01*
X162414000Y-109874000D02*
X162414000Y-112224000D01*
X162414000Y-116694000D02*
X162414000Y-114344000D01*
%TO.C,J5*%
X160098000Y-90858000D02*
X158848000Y-90858000D01*
X160098000Y-92108000D02*
X160098000Y-90858000D01*
X155688000Y-104218000D02*
X156188000Y-104218000D01*
X156188000Y-104318000D02*
X155688000Y-104318000D01*
X156188000Y-104118000D02*
X156188000Y-104318000D01*
X155688000Y-104118000D02*
X156188000Y-104118000D01*
X155688000Y-102218000D02*
X156188000Y-102218000D01*
X156188000Y-102318000D02*
X155688000Y-102318000D01*
X156188000Y-102118000D02*
X156188000Y-102318000D01*
X155688000Y-102118000D02*
X156188000Y-102118000D01*
X155688000Y-100218000D02*
X156188000Y-100218000D01*
X156188000Y-100318000D02*
X155688000Y-100318000D01*
X156188000Y-100118000D02*
X156188000Y-100318000D01*
X155688000Y-100118000D02*
X156188000Y-100118000D01*
X155688000Y-98218000D02*
X156188000Y-98218000D01*
X156188000Y-98318000D02*
X155688000Y-98318000D01*
X156188000Y-98118000D02*
X156188000Y-98318000D01*
X155688000Y-98118000D02*
X156188000Y-98118000D01*
X155688000Y-96218000D02*
X156188000Y-96218000D01*
X156188000Y-96318000D02*
X155688000Y-96318000D01*
X156188000Y-96118000D02*
X156188000Y-96318000D01*
X155688000Y-96118000D02*
X156188000Y-96118000D01*
X155688000Y-94218000D02*
X156188000Y-94218000D01*
X156188000Y-94318000D02*
X155688000Y-94318000D01*
X156188000Y-94118000D02*
X156188000Y-94318000D01*
X155688000Y-94118000D02*
X156188000Y-94118000D01*
X157188000Y-107278000D02*
X157188000Y-106668000D01*
X158488000Y-107278000D02*
X158488000Y-106668000D01*
X157188000Y-91158000D02*
X157188000Y-91768000D01*
X158488000Y-91158000D02*
X158488000Y-91768000D01*
X159188000Y-104718000D02*
X159798000Y-104718000D01*
X159188000Y-106668000D02*
X159188000Y-104718000D01*
X155688000Y-106668000D02*
X159188000Y-106668000D01*
X155688000Y-91768000D02*
X155688000Y-106668000D01*
X159188000Y-91768000D02*
X155688000Y-91768000D01*
X159188000Y-93718000D02*
X159188000Y-91768000D01*
X159798000Y-93718000D02*
X159188000Y-93718000D01*
X159898000Y-92918000D02*
X159898000Y-92618000D01*
X159998000Y-92618000D02*
X159798000Y-92618000D01*
X159998000Y-92918000D02*
X159998000Y-92618000D01*
X159798000Y-92918000D02*
X159998000Y-92918000D01*
X159798000Y-107278000D02*
X159798000Y-91158000D01*
X155078000Y-107278000D02*
X159798000Y-107278000D01*
X155078000Y-91158000D02*
X155078000Y-107278000D01*
X159798000Y-91158000D02*
X155078000Y-91158000D01*
%TO.C,J2*%
X174974000Y-118392000D02*
X179694000Y-118392000D01*
X179694000Y-118392000D02*
X179694000Y-108272000D01*
X179694000Y-108272000D02*
X174974000Y-108272000D01*
X174974000Y-108272000D02*
X174974000Y-118392000D01*
X174974000Y-116632000D02*
X174774000Y-116632000D01*
X174774000Y-116632000D02*
X174774000Y-116932000D01*
X174774000Y-116932000D02*
X174974000Y-116932000D01*
X174874000Y-116632000D02*
X174874000Y-116932000D01*
X174974000Y-115832000D02*
X175584000Y-115832000D01*
X175584000Y-115832000D02*
X175584000Y-117782000D01*
X175584000Y-117782000D02*
X179084000Y-117782000D01*
X179084000Y-117782000D02*
X179084000Y-108882000D01*
X179084000Y-108882000D02*
X175584000Y-108882000D01*
X175584000Y-108882000D02*
X175584000Y-110832000D01*
X175584000Y-110832000D02*
X174974000Y-110832000D01*
X176284000Y-118392000D02*
X176284000Y-117782000D01*
X177584000Y-118392000D02*
X177584000Y-117782000D01*
X176284000Y-108272000D02*
X176284000Y-108882000D01*
X177584000Y-108272000D02*
X177584000Y-108882000D01*
X179084000Y-115432000D02*
X178584000Y-115432000D01*
X178584000Y-115432000D02*
X178584000Y-115232000D01*
X178584000Y-115232000D02*
X179084000Y-115232000D01*
X179084000Y-115332000D02*
X178584000Y-115332000D01*
X179084000Y-113432000D02*
X178584000Y-113432000D01*
X178584000Y-113432000D02*
X178584000Y-113232000D01*
X178584000Y-113232000D02*
X179084000Y-113232000D01*
X179084000Y-113332000D02*
X178584000Y-113332000D01*
X179084000Y-111432000D02*
X178584000Y-111432000D01*
X178584000Y-111432000D02*
X178584000Y-111232000D01*
X178584000Y-111232000D02*
X179084000Y-111232000D01*
X179084000Y-111332000D02*
X178584000Y-111332000D01*
X174674000Y-117442000D02*
X174674000Y-118692000D01*
X174674000Y-118692000D02*
X175924000Y-118692000D01*
%TO.C,J1*%
X119602000Y-118392000D02*
X124322000Y-118392000D01*
X124322000Y-118392000D02*
X124322000Y-108272000D01*
X124322000Y-108272000D02*
X119602000Y-108272000D01*
X119602000Y-108272000D02*
X119602000Y-118392000D01*
X119602000Y-116632000D02*
X119402000Y-116632000D01*
X119402000Y-116632000D02*
X119402000Y-116932000D01*
X119402000Y-116932000D02*
X119602000Y-116932000D01*
X119502000Y-116632000D02*
X119502000Y-116932000D01*
X119602000Y-115832000D02*
X120212000Y-115832000D01*
X120212000Y-115832000D02*
X120212000Y-117782000D01*
X120212000Y-117782000D02*
X123712000Y-117782000D01*
X123712000Y-117782000D02*
X123712000Y-108882000D01*
X123712000Y-108882000D02*
X120212000Y-108882000D01*
X120212000Y-108882000D02*
X120212000Y-110832000D01*
X120212000Y-110832000D02*
X119602000Y-110832000D01*
X120912000Y-118392000D02*
X120912000Y-117782000D01*
X122212000Y-118392000D02*
X122212000Y-117782000D01*
X120912000Y-108272000D02*
X120912000Y-108882000D01*
X122212000Y-108272000D02*
X122212000Y-108882000D01*
X123712000Y-115432000D02*
X123212000Y-115432000D01*
X123212000Y-115432000D02*
X123212000Y-115232000D01*
X123212000Y-115232000D02*
X123712000Y-115232000D01*
X123712000Y-115332000D02*
X123212000Y-115332000D01*
X123712000Y-113432000D02*
X123212000Y-113432000D01*
X123212000Y-113432000D02*
X123212000Y-113232000D01*
X123212000Y-113232000D02*
X123712000Y-113232000D01*
X123712000Y-113332000D02*
X123212000Y-113332000D01*
X123712000Y-111432000D02*
X123212000Y-111432000D01*
X123212000Y-111432000D02*
X123212000Y-111232000D01*
X123212000Y-111232000D02*
X123712000Y-111232000D01*
X123712000Y-111332000D02*
X123212000Y-111332000D01*
X119302000Y-117442000D02*
X119302000Y-118692000D01*
X119302000Y-118692000D02*
X120552000Y-118692000D01*
%TO.C,C1*%
X169323936Y-117242000D02*
X170528064Y-117242000D01*
X169323936Y-115422000D02*
X170528064Y-115422000D01*
%TO.C,C3*%
X166783936Y-87736000D02*
X167988064Y-87736000D01*
X166783936Y-89556000D02*
X167988064Y-89556000D01*
%TO.C,D1*%
X171061000Y-82549000D02*
X171061000Y-78664000D01*
X168791000Y-82549000D02*
X171061000Y-82549000D01*
X168791000Y-78664000D02*
X168791000Y-82549000D01*
%TO.C,D2*%
X175395000Y-78664000D02*
X175395000Y-82549000D01*
X175395000Y-82549000D02*
X177665000Y-82549000D01*
X177665000Y-82549000D02*
X177665000Y-78664000D01*
%TO.C,D3*%
X123951000Y-80907000D02*
X120066000Y-80907000D01*
X123951000Y-83177000D02*
X123951000Y-80907000D01*
X120066000Y-83177000D02*
X123951000Y-83177000D01*
%TO.C,D4*%
X119028000Y-104014000D02*
X124428000Y-104014000D01*
X119028000Y-107314000D02*
X124428000Y-107314000D01*
X119028000Y-104014000D02*
X119028000Y-107314000D01*
%TO.C,F1*%
X179980000Y-90010064D02*
X179980000Y-88805936D01*
X178160000Y-90010064D02*
X178160000Y-88805936D01*
%TO.C,IC1*%
X168656000Y-109454000D02*
X165206000Y-109454000D01*
X168656000Y-109454000D02*
X170606000Y-109454000D01*
X168656000Y-114574000D02*
X166706000Y-114574000D01*
X168656000Y-114574000D02*
X170606000Y-114574000D01*
%TO.C,J4*%
X165894000Y-91158000D02*
X161174000Y-91158000D01*
X161174000Y-91158000D02*
X161174000Y-107278000D01*
X161174000Y-107278000D02*
X165894000Y-107278000D01*
X165894000Y-107278000D02*
X165894000Y-91158000D01*
X165894000Y-92918000D02*
X166094000Y-92918000D01*
X166094000Y-92918000D02*
X166094000Y-92618000D01*
X166094000Y-92618000D02*
X165894000Y-92618000D01*
X165994000Y-92918000D02*
X165994000Y-92618000D01*
X165894000Y-93718000D02*
X165284000Y-93718000D01*
X165284000Y-93718000D02*
X165284000Y-91768000D01*
X165284000Y-91768000D02*
X161784000Y-91768000D01*
X161784000Y-91768000D02*
X161784000Y-106668000D01*
X161784000Y-106668000D02*
X165284000Y-106668000D01*
X165284000Y-106668000D02*
X165284000Y-104718000D01*
X165284000Y-104718000D02*
X165894000Y-104718000D01*
X164584000Y-91158000D02*
X164584000Y-91768000D01*
X163284000Y-91158000D02*
X163284000Y-91768000D01*
X164584000Y-107278000D02*
X164584000Y-106668000D01*
X163284000Y-107278000D02*
X163284000Y-106668000D01*
X161784000Y-94118000D02*
X162284000Y-94118000D01*
X162284000Y-94118000D02*
X162284000Y-94318000D01*
X162284000Y-94318000D02*
X161784000Y-94318000D01*
X161784000Y-94218000D02*
X162284000Y-94218000D01*
X161784000Y-96118000D02*
X162284000Y-96118000D01*
X162284000Y-96118000D02*
X162284000Y-96318000D01*
X162284000Y-96318000D02*
X161784000Y-96318000D01*
X161784000Y-96218000D02*
X162284000Y-96218000D01*
X161784000Y-98118000D02*
X162284000Y-98118000D01*
X162284000Y-98118000D02*
X162284000Y-98318000D01*
X162284000Y-98318000D02*
X161784000Y-98318000D01*
X161784000Y-98218000D02*
X162284000Y-98218000D01*
X161784000Y-100118000D02*
X162284000Y-100118000D01*
X162284000Y-100118000D02*
X162284000Y-100318000D01*
X162284000Y-100318000D02*
X161784000Y-100318000D01*
X161784000Y-100218000D02*
X162284000Y-100218000D01*
X161784000Y-102118000D02*
X162284000Y-102118000D01*
X162284000Y-102118000D02*
X162284000Y-102318000D01*
X162284000Y-102318000D02*
X161784000Y-102318000D01*
X161784000Y-102218000D02*
X162284000Y-102218000D01*
X161784000Y-104118000D02*
X162284000Y-104118000D01*
X162284000Y-104118000D02*
X162284000Y-104318000D01*
X162284000Y-104318000D02*
X161784000Y-104318000D01*
X161784000Y-104218000D02*
X162284000Y-104218000D01*
X166194000Y-92108000D02*
X166194000Y-90858000D01*
X166194000Y-90858000D02*
X164944000Y-90858000D01*
%TO.C,R1*%
X171036064Y-107082000D02*
X169831936Y-107082000D01*
X171036064Y-105262000D02*
X169831936Y-105262000D01*
%TO.C,R2*%
X175165936Y-107082000D02*
X176370064Y-107082000D01*
X175165936Y-105262000D02*
X176370064Y-105262000D01*
%TO.C,R3*%
X168042000Y-80866064D02*
X168042000Y-79661936D01*
X166222000Y-80866064D02*
X166222000Y-79661936D01*
%TO.C,R4*%
X172826000Y-80866064D02*
X172826000Y-79661936D01*
X174646000Y-80866064D02*
X174646000Y-79661936D01*
%TO.C,R7*%
X122268064Y-78084000D02*
X121063936Y-78084000D01*
X122268064Y-79904000D02*
X121063936Y-79904000D01*
%TO.C,R8*%
X121063936Y-85746000D02*
X122268064Y-85746000D01*
X121063936Y-83926000D02*
X122268064Y-83926000D01*
%TO.C,R9*%
X122268064Y-89048000D02*
X121063936Y-89048000D01*
X122268064Y-87228000D02*
X121063936Y-87228000D01*
%TO.C,R10*%
X149566000Y-86916000D02*
X149566000Y-77676000D01*
X149566000Y-77676000D02*
X129326000Y-77676000D01*
X129326000Y-77676000D02*
X129326000Y-86916000D01*
X129326000Y-86916000D02*
X149566000Y-86916000D01*
X150706000Y-82296000D02*
X149566000Y-82296000D01*
X128186000Y-82296000D02*
X129326000Y-82296000D01*
%TO.C,R11*%
X128186000Y-92202000D02*
X129326000Y-92202000D01*
X150706000Y-92202000D02*
X149566000Y-92202000D01*
X129326000Y-96822000D02*
X149566000Y-96822000D01*
X129326000Y-87582000D02*
X129326000Y-96822000D01*
X149566000Y-87582000D02*
X129326000Y-87582000D01*
X149566000Y-96822000D02*
X149566000Y-87582000D01*
%TO.C,R13*%
X149566000Y-116634000D02*
X149566000Y-107394000D01*
X149566000Y-107394000D02*
X129326000Y-107394000D01*
X129326000Y-107394000D02*
X129326000Y-116634000D01*
X129326000Y-116634000D02*
X149566000Y-116634000D01*
X150706000Y-112014000D02*
X149566000Y-112014000D01*
X128186000Y-112014000D02*
X129326000Y-112014000D01*
%TO.C,SW1*%
X169964000Y-86660000D02*
X165824000Y-86660000D01*
X165824000Y-83820000D02*
X165824000Y-83520000D01*
X165824000Y-83520000D02*
X169964000Y-83520000D01*
X169964000Y-86360000D02*
X169964000Y-86660000D01*
X169964000Y-83520000D02*
X169964000Y-83820000D01*
X165824000Y-86660000D02*
X165824000Y-86360000D01*
%TO.C,SW2*%
X176822000Y-83520000D02*
X176822000Y-83820000D01*
X172682000Y-86660000D02*
X172682000Y-86360000D01*
X172682000Y-83820000D02*
X172682000Y-83520000D01*
X176822000Y-86660000D02*
X172682000Y-86660000D01*
X176822000Y-86360000D02*
X176822000Y-86660000D01*
X172682000Y-83520000D02*
X176822000Y-83520000D01*
D13*
%TO.C,U1*%
X171132000Y-91262000D02*
X170982000Y-90962000D01*
X171432000Y-91262000D02*
X171132000Y-91262000D01*
X175832000Y-91262000D02*
X175532000Y-91262000D01*
X175832000Y-91262000D02*
X175982000Y-90962000D01*
D10*
X175432000Y-88112000D02*
G75*
G03*
X171582000Y-88062000I-1950000J-1900000D01*
G01*
D13*
%TO.C,U2*%
X129090220Y-94726260D02*
X128790220Y-94576260D01*
X129090220Y-94726260D02*
X129090220Y-95026260D01*
X129090220Y-99126260D02*
X129090220Y-99426260D01*
X129090220Y-99426260D02*
X128790220Y-99576260D01*
D10*
X125940220Y-95126260D02*
G75*
G03*
X125890220Y-98976260I1900000J-1950000D01*
G01*
D12*
%TO.C,U3*%
X163947000Y-86106000D02*
X163947000Y-82656000D01*
X163947000Y-86106000D02*
X163947000Y-88056000D01*
X155077000Y-86106000D02*
X155077000Y-84156000D01*
X155077000Y-86106000D02*
X155077000Y-88056000D01*
%TO.C,R12*%
D10*
X138828542Y-102537520D02*
X138495209Y-102061330D01*
X138257114Y-102537520D02*
X138257114Y-101537520D01*
X138638066Y-101537520D01*
X138733304Y-101585140D01*
X138780923Y-101632759D01*
X138828542Y-101727997D01*
X138828542Y-101870854D01*
X138780923Y-101966092D01*
X138733304Y-102013711D01*
X138638066Y-102061330D01*
X138257114Y-102061330D01*
X139780923Y-102537520D02*
X139209495Y-102537520D01*
X139495209Y-102537520D02*
X139495209Y-101537520D01*
X139399971Y-101680378D01*
X139304733Y-101775616D01*
X139209495Y-101823235D01*
X140161876Y-101632759D02*
X140209495Y-101585140D01*
X140304733Y-101537520D01*
X140542828Y-101537520D01*
X140638066Y-101585140D01*
X140685685Y-101632759D01*
X140733304Y-101727997D01*
X140733304Y-101823235D01*
X140685685Y-101966092D01*
X140114257Y-102537520D01*
X140733304Y-102537520D01*
%TO.C,R6*%
X163003333Y-82042380D02*
X162670000Y-81566190D01*
X162431904Y-82042380D02*
X162431904Y-81042380D01*
X162812857Y-81042380D01*
X162908095Y-81090000D01*
X162955714Y-81137619D01*
X163003333Y-81232857D01*
X163003333Y-81375714D01*
X162955714Y-81470952D01*
X162908095Y-81518571D01*
X162812857Y-81566190D01*
X162431904Y-81566190D01*
X163860476Y-81042380D02*
X163670000Y-81042380D01*
X163574761Y-81090000D01*
X163527142Y-81137619D01*
X163431904Y-81280476D01*
X163384285Y-81470952D01*
X163384285Y-81851904D01*
X163431904Y-81947142D01*
X163479523Y-81994761D01*
X163574761Y-82042380D01*
X163765238Y-82042380D01*
X163860476Y-81994761D01*
X163908095Y-81947142D01*
X163955714Y-81851904D01*
X163955714Y-81613809D01*
X163908095Y-81518571D01*
X163860476Y-81470952D01*
X163765238Y-81423333D01*
X163574761Y-81423333D01*
X163479523Y-81470952D01*
X163431904Y-81518571D01*
X163384285Y-81613809D01*
%TO.C,R5*%
X150762380Y-88206666D02*
X150286190Y-88540000D01*
X150762380Y-88778095D02*
X149762380Y-88778095D01*
X149762380Y-88397142D01*
X149810000Y-88301904D01*
X149857619Y-88254285D01*
X149952857Y-88206666D01*
X150095714Y-88206666D01*
X150190952Y-88254285D01*
X150238571Y-88301904D01*
X150286190Y-88397142D01*
X150286190Y-88778095D01*
X149762380Y-87301904D02*
X149762380Y-87778095D01*
X150238571Y-87825714D01*
X150190952Y-87778095D01*
X150143333Y-87682857D01*
X150143333Y-87444761D01*
X150190952Y-87349523D01*
X150238571Y-87301904D01*
X150333809Y-87254285D01*
X150571904Y-87254285D01*
X150667142Y-87301904D01*
X150714761Y-87349523D01*
X150762380Y-87444761D01*
X150762380Y-87682857D01*
X150714761Y-87778095D01*
X150667142Y-87825714D01*
%TO.C,Q2*%
X159162761Y-80811619D02*
X159067523Y-80764000D01*
X158972285Y-80668761D01*
X158829428Y-80525904D01*
X158734190Y-80478285D01*
X158638952Y-80478285D01*
X158686571Y-80716380D02*
X158591333Y-80668761D01*
X158496095Y-80573523D01*
X158448476Y-80383047D01*
X158448476Y-80049714D01*
X158496095Y-79859238D01*
X158591333Y-79764000D01*
X158686571Y-79716380D01*
X158877047Y-79716380D01*
X158972285Y-79764000D01*
X159067523Y-79859238D01*
X159115142Y-80049714D01*
X159115142Y-80383047D01*
X159067523Y-80573523D01*
X158972285Y-80668761D01*
X158877047Y-80716380D01*
X158686571Y-80716380D01*
X159496095Y-79811619D02*
X159543714Y-79764000D01*
X159638952Y-79716380D01*
X159877047Y-79716380D01*
X159972285Y-79764000D01*
X160019904Y-79811619D01*
X160067523Y-79906857D01*
X160067523Y-80002095D01*
X160019904Y-80144952D01*
X159448476Y-80716380D01*
X160067523Y-80716380D01*
%TO.C,Q1*%
X124110761Y-94527619D02*
X124015523Y-94480000D01*
X123920285Y-94384761D01*
X123777428Y-94241904D01*
X123682190Y-94194285D01*
X123586952Y-94194285D01*
X123634571Y-94432380D02*
X123539333Y-94384761D01*
X123444095Y-94289523D01*
X123396476Y-94099047D01*
X123396476Y-93765714D01*
X123444095Y-93575238D01*
X123539333Y-93480000D01*
X123634571Y-93432380D01*
X123825047Y-93432380D01*
X123920285Y-93480000D01*
X124015523Y-93575238D01*
X124063142Y-93765714D01*
X124063142Y-94099047D01*
X124015523Y-94289523D01*
X123920285Y-94384761D01*
X123825047Y-94432380D01*
X123634571Y-94432380D01*
X125015523Y-94432380D02*
X124444095Y-94432380D01*
X124729809Y-94432380D02*
X124729809Y-93432380D01*
X124634571Y-93575238D01*
X124539333Y-93670476D01*
X124444095Y-93718095D01*
%TO.C,J3*%
X173148666Y-90032380D02*
X173148666Y-90746666D01*
X173101047Y-90889523D01*
X173005809Y-90984761D01*
X172862952Y-91032380D01*
X172767714Y-91032380D01*
X173529619Y-90032380D02*
X174148666Y-90032380D01*
X173815333Y-90413333D01*
X173958190Y-90413333D01*
X174053428Y-90460952D01*
X174101047Y-90508571D01*
X174148666Y-90603809D01*
X174148666Y-90841904D01*
X174101047Y-90937142D01*
X174053428Y-90984761D01*
X173958190Y-91032380D01*
X173672476Y-91032380D01*
X173577238Y-90984761D01*
X173529619Y-90937142D01*
%TO.C,J6*%
X123618666Y-101052380D02*
X123618666Y-101766666D01*
X123571047Y-101909523D01*
X123475809Y-102004761D01*
X123332952Y-102052380D01*
X123237714Y-102052380D01*
X124523428Y-101052380D02*
X124332952Y-101052380D01*
X124237714Y-101100000D01*
X124190095Y-101147619D01*
X124094857Y-101290476D01*
X124047238Y-101480952D01*
X124047238Y-101861904D01*
X124094857Y-101957142D01*
X124142476Y-102004761D01*
X124237714Y-102052380D01*
X124428190Y-102052380D01*
X124523428Y-102004761D01*
X124571047Y-101957142D01*
X124618666Y-101861904D01*
X124618666Y-101623809D01*
X124571047Y-101528571D01*
X124523428Y-101480952D01*
X124428190Y-101433333D01*
X124237714Y-101433333D01*
X124142476Y-101480952D01*
X124094857Y-101528571D01*
X124047238Y-101623809D01*
%TO.C,C2*%
X158837333Y-109291142D02*
X158789714Y-109338761D01*
X158646857Y-109386380D01*
X158551619Y-109386380D01*
X158408761Y-109338761D01*
X158313523Y-109243523D01*
X158265904Y-109148285D01*
X158218285Y-108957809D01*
X158218285Y-108814952D01*
X158265904Y-108624476D01*
X158313523Y-108529238D01*
X158408761Y-108434000D01*
X158551619Y-108386380D01*
X158646857Y-108386380D01*
X158789714Y-108434000D01*
X158837333Y-108481619D01*
X159218285Y-108481619D02*
X159265904Y-108434000D01*
X159361142Y-108386380D01*
X159599238Y-108386380D01*
X159694476Y-108434000D01*
X159742095Y-108481619D01*
X159789714Y-108576857D01*
X159789714Y-108672095D01*
X159742095Y-108814952D01*
X159170666Y-109386380D01*
X159789714Y-109386380D01*
%TO.C,J5*%
X155154380Y-108791333D02*
X155868666Y-108791333D01*
X156011523Y-108838952D01*
X156106761Y-108934190D01*
X156154380Y-109077047D01*
X156154380Y-109172285D01*
X155154380Y-107838952D02*
X155154380Y-108315142D01*
X155630571Y-108362761D01*
X155582952Y-108315142D01*
X155535333Y-108219904D01*
X155535333Y-107981809D01*
X155582952Y-107886571D01*
X155630571Y-107838952D01*
X155725809Y-107791333D01*
X155963904Y-107791333D01*
X156059142Y-107838952D01*
X156106761Y-107886571D01*
X156154380Y-107981809D01*
X156154380Y-108219904D01*
X156106761Y-108315142D01*
X156059142Y-108362761D01*
%TO.C,J2*%
X173336380Y-113665333D02*
X174050666Y-113665333D01*
X174193523Y-113712952D01*
X174288761Y-113808190D01*
X174336380Y-113951047D01*
X174336380Y-114046285D01*
X173431619Y-113236761D02*
X173384000Y-113189142D01*
X173336380Y-113093904D01*
X173336380Y-112855809D01*
X173384000Y-112760571D01*
X173431619Y-112712952D01*
X173526857Y-112665333D01*
X173622095Y-112665333D01*
X173764952Y-112712952D01*
X174336380Y-113284380D01*
X174336380Y-112665333D01*
%TO.C,J1*%
X125493186Y-117590320D02*
X125493186Y-118304606D01*
X125445567Y-118447463D01*
X125350329Y-118542701D01*
X125207472Y-118590320D01*
X125112234Y-118590320D01*
X126493186Y-118590320D02*
X125921758Y-118590320D01*
X126207472Y-118590320D02*
X126207472Y-117590320D01*
X126112234Y-117733178D01*
X126016996Y-117828416D01*
X125921758Y-117876035D01*
%TO.C,C1*%
X173061333Y-116689142D02*
X173013714Y-116736761D01*
X172870857Y-116784380D01*
X172775619Y-116784380D01*
X172632761Y-116736761D01*
X172537523Y-116641523D01*
X172489904Y-116546285D01*
X172442285Y-116355809D01*
X172442285Y-116212952D01*
X172489904Y-116022476D01*
X172537523Y-115927238D01*
X172632761Y-115832000D01*
X172775619Y-115784380D01*
X172870857Y-115784380D01*
X173013714Y-115832000D01*
X173061333Y-115879619D01*
X174013714Y-116784380D02*
X173442285Y-116784380D01*
X173728000Y-116784380D02*
X173728000Y-115784380D01*
X173632761Y-115927238D01*
X173537523Y-116022476D01*
X173442285Y-116070095D01*
%TO.C,C3*%
X168037213Y-90890362D02*
X167989594Y-90937981D01*
X167846737Y-90985600D01*
X167751499Y-90985600D01*
X167608641Y-90937981D01*
X167513403Y-90842743D01*
X167465784Y-90747505D01*
X167418165Y-90557029D01*
X167418165Y-90414172D01*
X167465784Y-90223696D01*
X167513403Y-90128458D01*
X167608641Y-90033220D01*
X167751499Y-89985600D01*
X167846737Y-89985600D01*
X167989594Y-90033220D01*
X168037213Y-90080839D01*
X168370546Y-89985600D02*
X168989594Y-89985600D01*
X168656260Y-90366553D01*
X168799118Y-90366553D01*
X168894356Y-90414172D01*
X168941975Y-90461791D01*
X168989594Y-90557029D01*
X168989594Y-90795124D01*
X168941975Y-90890362D01*
X168894356Y-90937981D01*
X168799118Y-90985600D01*
X168513403Y-90985600D01*
X168418165Y-90937981D01*
X168370546Y-90890362D01*
%TO.C,D1*%
X168558380Y-81002095D02*
X167558380Y-81002095D01*
X167558380Y-80764000D01*
X167606000Y-80621142D01*
X167701238Y-80525904D01*
X167796476Y-80478285D01*
X167986952Y-80430666D01*
X168129809Y-80430666D01*
X168320285Y-80478285D01*
X168415523Y-80525904D01*
X168510761Y-80621142D01*
X168558380Y-80764000D01*
X168558380Y-81002095D01*
X168558380Y-79478285D02*
X168558380Y-80049714D01*
X168558380Y-79764000D02*
X167558380Y-79764000D01*
X167701238Y-79859238D01*
X167796476Y-79954476D01*
X167844095Y-80049714D01*
%TO.C,D2*%
X179057560Y-81055435D02*
X178057560Y-81055435D01*
X178057560Y-80817340D01*
X178105180Y-80674482D01*
X178200418Y-80579244D01*
X178295656Y-80531625D01*
X178486132Y-80484006D01*
X178628989Y-80484006D01*
X178819465Y-80531625D01*
X178914703Y-80579244D01*
X179009941Y-80674482D01*
X179057560Y-80817340D01*
X179057560Y-81055435D01*
X178152799Y-80103054D02*
X178105180Y-80055435D01*
X178057560Y-79960197D01*
X178057560Y-79722101D01*
X178105180Y-79626863D01*
X178152799Y-79579244D01*
X178248037Y-79531625D01*
X178343275Y-79531625D01*
X178486132Y-79579244D01*
X179057560Y-80150673D01*
X179057560Y-79531625D01*
%TO.C,D3*%
X124229904Y-80970380D02*
X124229904Y-79970380D01*
X124468000Y-79970380D01*
X124610857Y-80018000D01*
X124706095Y-80113238D01*
X124753714Y-80208476D01*
X124801333Y-80398952D01*
X124801333Y-80541809D01*
X124753714Y-80732285D01*
X124706095Y-80827523D01*
X124610857Y-80922761D01*
X124468000Y-80970380D01*
X124229904Y-80970380D01*
X125134666Y-79970380D02*
X125753714Y-79970380D01*
X125420380Y-80351333D01*
X125563238Y-80351333D01*
X125658476Y-80398952D01*
X125706095Y-80446571D01*
X125753714Y-80541809D01*
X125753714Y-80779904D01*
X125706095Y-80875142D01*
X125658476Y-80922761D01*
X125563238Y-80970380D01*
X125277523Y-80970380D01*
X125182285Y-80922761D01*
X125134666Y-80875142D01*
%TO.C,D4*%
X122652564Y-103614480D02*
X122652564Y-102614480D01*
X122890660Y-102614480D01*
X123033517Y-102662100D01*
X123128755Y-102757338D01*
X123176374Y-102852576D01*
X123223993Y-103043052D01*
X123223993Y-103185909D01*
X123176374Y-103376385D01*
X123128755Y-103471623D01*
X123033517Y-103566861D01*
X122890660Y-103614480D01*
X122652564Y-103614480D01*
X124081136Y-102947814D02*
X124081136Y-103614480D01*
X123843040Y-102566861D02*
X123604945Y-103281147D01*
X124223993Y-103281147D01*
%TO.C,F1*%
X178998571Y-93043333D02*
X178998571Y-93376666D01*
X179522380Y-93376666D02*
X178522380Y-93376666D01*
X178522380Y-92900476D01*
X179522380Y-91995714D02*
X179522380Y-92567142D01*
X179522380Y-92281428D02*
X178522380Y-92281428D01*
X178665238Y-92376666D01*
X178760476Y-92471904D01*
X178808095Y-92567142D01*
%TO.C,IC1*%
X166663809Y-108910380D02*
X166663809Y-107910380D01*
X167711428Y-108815142D02*
X167663809Y-108862761D01*
X167520952Y-108910380D01*
X167425714Y-108910380D01*
X167282857Y-108862761D01*
X167187619Y-108767523D01*
X167140000Y-108672285D01*
X167092380Y-108481809D01*
X167092380Y-108338952D01*
X167140000Y-108148476D01*
X167187619Y-108053238D01*
X167282857Y-107958000D01*
X167425714Y-107910380D01*
X167520952Y-107910380D01*
X167663809Y-107958000D01*
X167711428Y-108005619D01*
X168663809Y-108910380D02*
X168092380Y-108910380D01*
X168378095Y-108910380D02*
X168378095Y-107910380D01*
X168282857Y-108053238D01*
X168187619Y-108148476D01*
X168092380Y-108196095D01*
%TO.C,J4*%
X161504380Y-108791333D02*
X162218666Y-108791333D01*
X162361523Y-108838952D01*
X162456761Y-108934190D01*
X162504380Y-109077047D01*
X162504380Y-109172285D01*
X161837714Y-107886571D02*
X162504380Y-107886571D01*
X161456761Y-108124666D02*
X162171047Y-108362761D01*
X162171047Y-107743714D01*
%TO.C,R1*%
X170775333Y-108444380D02*
X170442000Y-107968190D01*
X170203904Y-108444380D02*
X170203904Y-107444380D01*
X170584857Y-107444380D01*
X170680095Y-107492000D01*
X170727714Y-107539619D01*
X170775333Y-107634857D01*
X170775333Y-107777714D01*
X170727714Y-107872952D01*
X170680095Y-107920571D01*
X170584857Y-107968190D01*
X170203904Y-107968190D01*
X171727714Y-108444380D02*
X171156285Y-108444380D01*
X171442000Y-108444380D02*
X171442000Y-107444380D01*
X171346761Y-107587238D01*
X171251523Y-107682476D01*
X171156285Y-107730095D01*
%TO.C,R2*%
X178921113Y-107383840D02*
X178587780Y-106907650D01*
X178349684Y-107383840D02*
X178349684Y-106383840D01*
X178730637Y-106383840D01*
X178825875Y-106431460D01*
X178873494Y-106479079D01*
X178921113Y-106574317D01*
X178921113Y-106717174D01*
X178873494Y-106812412D01*
X178825875Y-106860031D01*
X178730637Y-106907650D01*
X178349684Y-106907650D01*
X179302065Y-106479079D02*
X179349684Y-106431460D01*
X179444922Y-106383840D01*
X179683018Y-106383840D01*
X179778256Y-106431460D01*
X179825875Y-106479079D01*
X179873494Y-106574317D01*
X179873494Y-106669555D01*
X179825875Y-106812412D01*
X179254446Y-107383840D01*
X179873494Y-107383840D01*
%TO.C,R3*%
X165806380Y-82208666D02*
X165330190Y-82542000D01*
X165806380Y-82780095D02*
X164806380Y-82780095D01*
X164806380Y-82399142D01*
X164854000Y-82303904D01*
X164901619Y-82256285D01*
X164996857Y-82208666D01*
X165139714Y-82208666D01*
X165234952Y-82256285D01*
X165282571Y-82303904D01*
X165330190Y-82399142D01*
X165330190Y-82780095D01*
X164806380Y-81875333D02*
X164806380Y-81256285D01*
X165187333Y-81589619D01*
X165187333Y-81446761D01*
X165234952Y-81351523D01*
X165282571Y-81303904D01*
X165377809Y-81256285D01*
X165615904Y-81256285D01*
X165711142Y-81303904D01*
X165758761Y-81351523D01*
X165806380Y-81446761D01*
X165806380Y-81732476D01*
X165758761Y-81827714D01*
X165711142Y-81875333D01*
%TO.C,R4*%
X172368380Y-80430666D02*
X171892190Y-80764000D01*
X172368380Y-81002095D02*
X171368380Y-81002095D01*
X171368380Y-80621142D01*
X171416000Y-80525904D01*
X171463619Y-80478285D01*
X171558857Y-80430666D01*
X171701714Y-80430666D01*
X171796952Y-80478285D01*
X171844571Y-80525904D01*
X171892190Y-80621142D01*
X171892190Y-81002095D01*
X171701714Y-79573523D02*
X172368380Y-79573523D01*
X171320761Y-79811619D02*
X172035047Y-80049714D01*
X172035047Y-79430666D01*
%TO.C,R7*%
X124801333Y-78430380D02*
X124468000Y-77954190D01*
X124229904Y-78430380D02*
X124229904Y-77430380D01*
X124610857Y-77430380D01*
X124706095Y-77478000D01*
X124753714Y-77525619D01*
X124801333Y-77620857D01*
X124801333Y-77763714D01*
X124753714Y-77858952D01*
X124706095Y-77906571D01*
X124610857Y-77954190D01*
X124229904Y-77954190D01*
X125134666Y-77430380D02*
X125801333Y-77430380D01*
X125372761Y-78430380D01*
%TO.C,R8*%
X124293333Y-86812380D02*
X123960000Y-86336190D01*
X123721904Y-86812380D02*
X123721904Y-85812380D01*
X124102857Y-85812380D01*
X124198095Y-85860000D01*
X124245714Y-85907619D01*
X124293333Y-86002857D01*
X124293333Y-86145714D01*
X124245714Y-86240952D01*
X124198095Y-86288571D01*
X124102857Y-86336190D01*
X123721904Y-86336190D01*
X124864761Y-86240952D02*
X124769523Y-86193333D01*
X124721904Y-86145714D01*
X124674285Y-86050476D01*
X124674285Y-86002857D01*
X124721904Y-85907619D01*
X124769523Y-85860000D01*
X124864761Y-85812380D01*
X125055238Y-85812380D01*
X125150476Y-85860000D01*
X125198095Y-85907619D01*
X125245714Y-86002857D01*
X125245714Y-86050476D01*
X125198095Y-86145714D01*
X125150476Y-86193333D01*
X125055238Y-86240952D01*
X124864761Y-86240952D01*
X124769523Y-86288571D01*
X124721904Y-86336190D01*
X124674285Y-86431428D01*
X124674285Y-86621904D01*
X124721904Y-86717142D01*
X124769523Y-86764761D01*
X124864761Y-86812380D01*
X125055238Y-86812380D01*
X125150476Y-86764761D01*
X125198095Y-86717142D01*
X125245714Y-86621904D01*
X125245714Y-86431428D01*
X125198095Y-86336190D01*
X125150476Y-86288571D01*
X125055238Y-86240952D01*
%TO.C,R9*%
X124547333Y-90114380D02*
X124214000Y-89638190D01*
X123975904Y-90114380D02*
X123975904Y-89114380D01*
X124356857Y-89114380D01*
X124452095Y-89162000D01*
X124499714Y-89209619D01*
X124547333Y-89304857D01*
X124547333Y-89447714D01*
X124499714Y-89542952D01*
X124452095Y-89590571D01*
X124356857Y-89638190D01*
X123975904Y-89638190D01*
X125023523Y-90114380D02*
X125214000Y-90114380D01*
X125309238Y-90066761D01*
X125356857Y-90019142D01*
X125452095Y-89876285D01*
X125499714Y-89685809D01*
X125499714Y-89304857D01*
X125452095Y-89209619D01*
X125404476Y-89162000D01*
X125309238Y-89114380D01*
X125118761Y-89114380D01*
X125023523Y-89162000D01*
X124975904Y-89209619D01*
X124928285Y-89304857D01*
X124928285Y-89542952D01*
X124975904Y-89638190D01*
X125023523Y-89685809D01*
X125118761Y-89733428D01*
X125309238Y-89733428D01*
X125404476Y-89685809D01*
X125452095Y-89638190D01*
X125499714Y-89542952D01*
%TO.C,R10*%
X138828542Y-82758540D02*
X138495209Y-82282350D01*
X138257114Y-82758540D02*
X138257114Y-81758540D01*
X138638066Y-81758540D01*
X138733304Y-81806160D01*
X138780923Y-81853779D01*
X138828542Y-81949017D01*
X138828542Y-82091874D01*
X138780923Y-82187112D01*
X138733304Y-82234731D01*
X138638066Y-82282350D01*
X138257114Y-82282350D01*
X139780923Y-82758540D02*
X139209495Y-82758540D01*
X139495209Y-82758540D02*
X139495209Y-81758540D01*
X139399971Y-81901398D01*
X139304733Y-81996636D01*
X139209495Y-82044255D01*
X140399971Y-81758540D02*
X140495209Y-81758540D01*
X140590447Y-81806160D01*
X140638066Y-81853779D01*
X140685685Y-81949017D01*
X140733304Y-82139493D01*
X140733304Y-82377588D01*
X140685685Y-82568064D01*
X140638066Y-82663302D01*
X140590447Y-82710921D01*
X140495209Y-82758540D01*
X140399971Y-82758540D01*
X140304733Y-82710921D01*
X140257114Y-82663302D01*
X140209495Y-82568064D01*
X140161876Y-82377588D01*
X140161876Y-82139493D01*
X140209495Y-81949017D01*
X140257114Y-81853779D01*
X140304733Y-81806160D01*
X140399971Y-81758540D01*
%TO.C,R11*%
X138775202Y-92674700D02*
X138441869Y-92198510D01*
X138203774Y-92674700D02*
X138203774Y-91674700D01*
X138584726Y-91674700D01*
X138679964Y-91722320D01*
X138727583Y-91769939D01*
X138775202Y-91865177D01*
X138775202Y-92008034D01*
X138727583Y-92103272D01*
X138679964Y-92150891D01*
X138584726Y-92198510D01*
X138203774Y-92198510D01*
X139727583Y-92674700D02*
X139156155Y-92674700D01*
X139441869Y-92674700D02*
X139441869Y-91674700D01*
X139346631Y-91817558D01*
X139251393Y-91912796D01*
X139156155Y-91960415D01*
X140679964Y-92674700D02*
X140108536Y-92674700D01*
X140394250Y-92674700D02*
X140394250Y-91674700D01*
X140299012Y-91817558D01*
X140203774Y-91912796D01*
X140108536Y-91960415D01*
%TO.C,R13*%
X138828542Y-112481620D02*
X138495209Y-112005430D01*
X138257114Y-112481620D02*
X138257114Y-111481620D01*
X138638066Y-111481620D01*
X138733304Y-111529240D01*
X138780923Y-111576859D01*
X138828542Y-111672097D01*
X138828542Y-111814954D01*
X138780923Y-111910192D01*
X138733304Y-111957811D01*
X138638066Y-112005430D01*
X138257114Y-112005430D01*
X139780923Y-112481620D02*
X139209495Y-112481620D01*
X139495209Y-112481620D02*
X139495209Y-111481620D01*
X139399971Y-111624478D01*
X139304733Y-111719716D01*
X139209495Y-111767335D01*
X140114257Y-111481620D02*
X140733304Y-111481620D01*
X140399971Y-111862573D01*
X140542828Y-111862573D01*
X140638066Y-111910192D01*
X140685685Y-111957811D01*
X140733304Y-112053049D01*
X140733304Y-112291144D01*
X140685685Y-112386382D01*
X140638066Y-112434001D01*
X140542828Y-112481620D01*
X140257114Y-112481620D01*
X140161876Y-112434001D01*
X140114257Y-112386382D01*
%TO.C,SW1*%
X166639406Y-85413481D02*
X166782263Y-85461100D01*
X167020359Y-85461100D01*
X167115597Y-85413481D01*
X167163216Y-85365862D01*
X167210835Y-85270624D01*
X167210835Y-85175386D01*
X167163216Y-85080148D01*
X167115597Y-85032529D01*
X167020359Y-84984910D01*
X166829882Y-84937291D01*
X166734644Y-84889672D01*
X166687025Y-84842053D01*
X166639406Y-84746815D01*
X166639406Y-84651577D01*
X166687025Y-84556339D01*
X166734644Y-84508720D01*
X166829882Y-84461100D01*
X167067978Y-84461100D01*
X167210835Y-84508720D01*
X167544168Y-84461100D02*
X167782263Y-85461100D01*
X167972740Y-84746815D01*
X168163216Y-85461100D01*
X168401311Y-84461100D01*
X169306073Y-85461100D02*
X168734644Y-85461100D01*
X169020359Y-85461100D02*
X169020359Y-84461100D01*
X168925120Y-84603958D01*
X168829882Y-84699196D01*
X168734644Y-84746815D01*
%TO.C,SW2*%
X173370406Y-85413481D02*
X173513263Y-85461100D01*
X173751359Y-85461100D01*
X173846597Y-85413481D01*
X173894216Y-85365862D01*
X173941835Y-85270624D01*
X173941835Y-85175386D01*
X173894216Y-85080148D01*
X173846597Y-85032529D01*
X173751359Y-84984910D01*
X173560882Y-84937291D01*
X173465644Y-84889672D01*
X173418025Y-84842053D01*
X173370406Y-84746815D01*
X173370406Y-84651577D01*
X173418025Y-84556339D01*
X173465644Y-84508720D01*
X173560882Y-84461100D01*
X173798978Y-84461100D01*
X173941835Y-84508720D01*
X174275168Y-84461100D02*
X174513263Y-85461100D01*
X174703740Y-84746815D01*
X174894216Y-85461100D01*
X175132311Y-84461100D01*
X175465644Y-84556339D02*
X175513263Y-84508720D01*
X175608501Y-84461100D01*
X175846597Y-84461100D01*
X175941835Y-84508720D01*
X175989454Y-84556339D01*
X176037073Y-84651577D01*
X176037073Y-84746815D01*
X175989454Y-84889672D01*
X175418025Y-85461100D01*
X176037073Y-85461100D01*
%TO.C,U1*%
X175801115Y-88499700D02*
X175801115Y-89309224D01*
X175848734Y-89404462D01*
X175896353Y-89452081D01*
X175991591Y-89499700D01*
X176182067Y-89499700D01*
X176277305Y-89452081D01*
X176324924Y-89404462D01*
X176372543Y-89309224D01*
X176372543Y-88499700D01*
X177372543Y-89499700D02*
X176801115Y-89499700D01*
X177086829Y-89499700D02*
X177086829Y-88499700D01*
X176991591Y-88642558D01*
X176896353Y-88737796D01*
X176801115Y-88785415D01*
%TO.C,U2*%
X125344940Y-100555964D02*
X126154464Y-100555964D01*
X126249702Y-100508345D01*
X126297321Y-100460726D01*
X126344940Y-100365488D01*
X126344940Y-100175012D01*
X126297321Y-100079774D01*
X126249702Y-100032155D01*
X126154464Y-99984536D01*
X125344940Y-99984536D01*
X125440179Y-99555964D02*
X125392560Y-99508345D01*
X125344940Y-99413107D01*
X125344940Y-99175012D01*
X125392560Y-99079774D01*
X125440179Y-99032155D01*
X125535417Y-98984536D01*
X125630655Y-98984536D01*
X125773512Y-99032155D01*
X126344940Y-99603583D01*
X126344940Y-98984536D01*
%TO.C,U3*%
X158854235Y-85433920D02*
X158854235Y-86243444D01*
X158901854Y-86338682D01*
X158949473Y-86386301D01*
X159044711Y-86433920D01*
X159235187Y-86433920D01*
X159330425Y-86386301D01*
X159378044Y-86338682D01*
X159425663Y-86243444D01*
X159425663Y-85433920D01*
X159806616Y-85433920D02*
X160425663Y-85433920D01*
X160092330Y-85814873D01*
X160235187Y-85814873D01*
X160330425Y-85862492D01*
X160378044Y-85910111D01*
X160425663Y-86005349D01*
X160425663Y-86243444D01*
X160378044Y-86338682D01*
X160330425Y-86386301D01*
X160235187Y-86433920D01*
X159949473Y-86433920D01*
X159854235Y-86386301D01*
X159806616Y-86338682D01*
%TD*%
M02*
