%TF.GenerationSoftware,KiCad,Pcbnew,(5.1.9)-1*%
%TF.CreationDate,2021-03-01T17:33:47+01:00*%
%TF.ProjectId,mod_cell_0_02,6d6f645f-6365-46c6-9c5f-305f30322e6b,0.02*%
%TF.SameCoordinates,Original*%
%TF.FileFunction,Copper,L1,Top*%
%TF.FilePolarity,Positive*%
%FSLAX46Y46*%
G04 Gerber Fmt 4.6, Leading zero omitted, Abs format (unit mm)*
G04 Created by KiCad (PCBNEW (5.1.9)-1) date 2021-03-01 17:33:47*
%MOMM*%
%LPD*%
G01*
G04 APERTURE LIST*
%TA.AperFunction,ComponentPad*%
%ADD10C,2.400000*%
%TD*%
%TA.AperFunction,ComponentPad*%
%ADD11O,2.400000X2.400000*%
%TD*%
%TA.AperFunction,SMDPad,CuDef*%
%ADD12R,0.900000X0.800000*%
%TD*%
%TA.AperFunction,ComponentPad*%
%ADD13C,0.800000*%
%TD*%
%TA.AperFunction,ComponentPad*%
%ADD14C,12.000000*%
%TD*%
%TA.AperFunction,ComponentPad*%
%ADD15C,6.000000*%
%TD*%
%TA.AperFunction,ComponentPad*%
%ADD16O,1.750000X1.200000*%
%TD*%
%TA.AperFunction,SMDPad,CuDef*%
%ADD17R,2.500000X1.800000*%
%TD*%
%TA.AperFunction,ComponentPad*%
%ADD18O,1.000000X1.500000*%
%TD*%
%TA.AperFunction,ComponentPad*%
%ADD19R,1.000000X1.500000*%
%TD*%
%TA.AperFunction,ComponentPad*%
%ADD20R,1.500000X1.000000*%
%TD*%
%TA.AperFunction,ComponentPad*%
%ADD21O,1.500000X1.000000*%
%TD*%
%TA.AperFunction,ViaPad*%
%ADD22C,0.800000*%
%TD*%
%TA.AperFunction,ViaPad*%
%ADD23C,2.000000*%
%TD*%
%TA.AperFunction,Conductor*%
%ADD24C,0.406400*%
%TD*%
%TA.AperFunction,Conductor*%
%ADD25C,1.905000*%
%TD*%
%TA.AperFunction,Conductor*%
%ADD26C,1.270000*%
%TD*%
%TA.AperFunction,Conductor*%
%ADD27C,2.540000*%
%TD*%
G04 APERTURE END LIST*
D10*
%TO.P,R12,1*%
%TO.N,Net-(Q2-Pad3)*%
X152146000Y-102100380D03*
D11*
%TO.P,R12,2*%
%TO.N,Net-(D3-Pad1)*%
X126746000Y-102100380D03*
%TD*%
%TO.P,R6,2*%
%TO.N,Net-(Q2-Pad1)*%
%TA.AperFunction,SMDPad,CuDef*%
G36*
G01*
X162270000Y-79144999D02*
X162270000Y-80395001D01*
G75*
G02*
X162020001Y-80645000I-249999J0D01*
G01*
X161394999Y-80645000D01*
G75*
G02*
X161145000Y-80395001I0J249999D01*
G01*
X161145000Y-79144999D01*
G75*
G02*
X161394999Y-78895000I249999J0D01*
G01*
X162020001Y-78895000D01*
G75*
G02*
X162270000Y-79144999I0J-249999D01*
G01*
G37*
%TD.AperFunction*%
%TO.P,R6,1*%
%TO.N,Net-(C2-Pad1)*%
%TA.AperFunction,SMDPad,CuDef*%
G36*
G01*
X165195000Y-79144999D02*
X165195000Y-80395001D01*
G75*
G02*
X164945001Y-80645000I-249999J0D01*
G01*
X164319999Y-80645000D01*
G75*
G02*
X164070000Y-80395001I0J249999D01*
G01*
X164070000Y-79144999D01*
G75*
G02*
X164319999Y-78895000I249999J0D01*
G01*
X164945001Y-78895000D01*
G75*
G02*
X165195000Y-79144999I0J-249999D01*
G01*
G37*
%TD.AperFunction*%
%TD*%
%TO.P,R5,2*%
%TO.N,Net-(R5-Pad2)*%
%TA.AperFunction,SMDPad,CuDef*%
G36*
G01*
X152755001Y-87140000D02*
X151504999Y-87140000D01*
G75*
G02*
X151255000Y-86890001I0J249999D01*
G01*
X151255000Y-86264999D01*
G75*
G02*
X151504999Y-86015000I249999J0D01*
G01*
X152755001Y-86015000D01*
G75*
G02*
X153005000Y-86264999I0J-249999D01*
G01*
X153005000Y-86890001D01*
G75*
G02*
X152755001Y-87140000I-249999J0D01*
G01*
G37*
%TD.AperFunction*%
%TO.P,R5,1*%
%TO.N,Net-(Q2-Pad1)*%
%TA.AperFunction,SMDPad,CuDef*%
G36*
G01*
X152755001Y-90065000D02*
X151504999Y-90065000D01*
G75*
G02*
X151255000Y-89815001I0J249999D01*
G01*
X151255000Y-89189999D01*
G75*
G02*
X151504999Y-88940000I249999J0D01*
G01*
X152755001Y-88940000D01*
G75*
G02*
X153005000Y-89189999I0J-249999D01*
G01*
X153005000Y-89815001D01*
G75*
G02*
X152755001Y-90065000I-249999J0D01*
G01*
G37*
%TD.AperFunction*%
%TD*%
D12*
%TO.P,Q2,3*%
%TO.N,Net-(Q2-Pad3)*%
X155420000Y-79210000D03*
%TO.P,Q2,2*%
%TO.N,Net-(C2-Pad1)*%
X157420000Y-78260000D03*
%TO.P,Q2,1*%
%TO.N,Net-(Q2-Pad1)*%
X157420000Y-80160000D03*
%TD*%
%TO.P,Q1,3*%
%TO.N,Net-(D3-Pad1)*%
X123174000Y-92202000D03*
%TO.P,Q1,2*%
%TO.N,-BATT*%
X121174000Y-93152000D03*
%TO.P,Q1,1*%
%TO.N,Net-(Q1-Pad1)*%
X121174000Y-91252000D03*
%TD*%
D13*
%TO.P,J3,*%
%TO.N,*%
X176482000Y-95450000D03*
X170232000Y-95450000D03*
X170232000Y-100700000D03*
X177232000Y-94700000D03*
X169482000Y-101450000D03*
X169482000Y-94700000D03*
X177232000Y-101450000D03*
X176482000Y-100700000D03*
X169482000Y-98200000D03*
X173482000Y-93200000D03*
X173482000Y-94200000D03*
X173482000Y-103200000D03*
X173482000Y-102200000D03*
X178482000Y-98200000D03*
X177482000Y-98200000D03*
X168482000Y-98200000D03*
D14*
%TO.P,J3,1*%
%TO.N,+BATT*%
X173482000Y-98200000D03*
%TD*%
D15*
%TO.P,J6,1*%
%TO.N,-BATT*%
X121787920Y-98200000D03*
%TD*%
%TO.P,C2,1*%
%TO.N,Net-(C2-Pad1)*%
%TA.AperFunction,SMDPad,CuDef*%
G36*
G01*
X154554000Y-113834000D02*
X154554000Y-112734000D01*
G75*
G02*
X154804000Y-112484000I250000J0D01*
G01*
X157804000Y-112484000D01*
G75*
G02*
X158054000Y-112734000I0J-250000D01*
G01*
X158054000Y-113834000D01*
G75*
G02*
X157804000Y-114084000I-250000J0D01*
G01*
X154804000Y-114084000D01*
G75*
G02*
X154554000Y-113834000I0J250000D01*
G01*
G37*
%TD.AperFunction*%
%TO.P,C2,2*%
%TO.N,-BATT*%
%TA.AperFunction,SMDPad,CuDef*%
G36*
G01*
X159954000Y-113834000D02*
X159954000Y-112734000D01*
G75*
G02*
X160204000Y-112484000I250000J0D01*
G01*
X163204000Y-112484000D01*
G75*
G02*
X163454000Y-112734000I0J-250000D01*
G01*
X163454000Y-113834000D01*
G75*
G02*
X163204000Y-114084000I-250000J0D01*
G01*
X160204000Y-114084000D01*
G75*
G02*
X159954000Y-113834000I0J250000D01*
G01*
G37*
%TD.AperFunction*%
%TD*%
%TO.P,J5,1*%
%TO.N,vcc_tiny*%
%TA.AperFunction,ComponentPad*%
G36*
G01*
X157362999Y-92618000D02*
X158613001Y-92618000D01*
G75*
G02*
X158863000Y-92867999I0J-249999D01*
G01*
X158863000Y-93568001D01*
G75*
G02*
X158613001Y-93818000I-249999J0D01*
G01*
X157362999Y-93818000D01*
G75*
G02*
X157113000Y-93568001I0J249999D01*
G01*
X157113000Y-92867999D01*
G75*
G02*
X157362999Y-92618000I249999J0D01*
G01*
G37*
%TD.AperFunction*%
D16*
%TO.P,J5,2*%
%TO.N,sda_tiny*%
X157988000Y-95218000D03*
%TO.P,J5,3*%
%TO.N,scl_tiny*%
X157988000Y-97218000D03*
%TO.P,J5,4*%
%TO.N,spr_tiny*%
X157988000Y-99218000D03*
%TO.P,J5,5*%
%TO.N,rst_tiny*%
X157988000Y-101218000D03*
%TO.P,J5,6*%
%TO.N,msf_tiny*%
X157988000Y-103218000D03*
%TO.P,J5,7*%
%TO.N,gnd_tiny*%
X157988000Y-105218000D03*
%TD*%
%TO.P,J2,4*%
%TO.N,Net-(C1-Pad2)*%
X176784000Y-110332000D03*
%TO.P,J2,3*%
%TO.N,Net-(IC1-Pad6)*%
X176784000Y-112332000D03*
%TO.P,J2,2*%
%TO.N,Net-(IC1-Pad7)*%
X176784000Y-114332000D03*
%TO.P,J2,1*%
%TO.N,Net-(C1-Pad1)*%
%TA.AperFunction,ComponentPad*%
G36*
G01*
X177409001Y-116932000D02*
X176158999Y-116932000D01*
G75*
G02*
X175909000Y-116682001I0J249999D01*
G01*
X175909000Y-115981999D01*
G75*
G02*
X176158999Y-115732000I249999J0D01*
G01*
X177409001Y-115732000D01*
G75*
G02*
X177659000Y-115981999I0J-249999D01*
G01*
X177659000Y-116682001D01*
G75*
G02*
X177409001Y-116932000I-249999J0D01*
G01*
G37*
%TD.AperFunction*%
%TD*%
%TO.P,J1,4*%
%TO.N,Net-(C1-Pad2)*%
X121412000Y-110332000D03*
%TO.P,J1,3*%
%TO.N,Net-(IC1-Pad6)*%
X121412000Y-112332000D03*
%TO.P,J1,2*%
%TO.N,Net-(IC1-Pad7)*%
X121412000Y-114332000D03*
%TO.P,J1,1*%
%TO.N,Net-(C1-Pad1)*%
%TA.AperFunction,ComponentPad*%
G36*
G01*
X122037001Y-116932000D02*
X120786999Y-116932000D01*
G75*
G02*
X120537000Y-116682001I0J249999D01*
G01*
X120537000Y-115981999D01*
G75*
G02*
X120786999Y-115732000I249999J0D01*
G01*
X122037001Y-115732000D01*
G75*
G02*
X122287000Y-115981999I0J-249999D01*
G01*
X122287000Y-116682001D01*
G75*
G02*
X122037001Y-116932000I-249999J0D01*
G01*
G37*
%TD.AperFunction*%
%TD*%
%TO.P,C1,1*%
%TO.N,Net-(C1-Pad1)*%
%TA.AperFunction,SMDPad,CuDef*%
G36*
G01*
X167901000Y-116957000D02*
X167901000Y-115707000D01*
G75*
G02*
X168151000Y-115457000I250000J0D01*
G01*
X168901000Y-115457000D01*
G75*
G02*
X169151000Y-115707000I0J-250000D01*
G01*
X169151000Y-116957000D01*
G75*
G02*
X168901000Y-117207000I-250000J0D01*
G01*
X168151000Y-117207000D01*
G75*
G02*
X167901000Y-116957000I0J250000D01*
G01*
G37*
%TD.AperFunction*%
%TO.P,C1,2*%
%TO.N,Net-(C1-Pad2)*%
%TA.AperFunction,SMDPad,CuDef*%
G36*
G01*
X170701000Y-116957000D02*
X170701000Y-115707000D01*
G75*
G02*
X170951000Y-115457000I250000J0D01*
G01*
X171701000Y-115457000D01*
G75*
G02*
X171951000Y-115707000I0J-250000D01*
G01*
X171951000Y-116957000D01*
G75*
G02*
X171701000Y-117207000I-250000J0D01*
G01*
X170951000Y-117207000D01*
G75*
G02*
X170701000Y-116957000I0J250000D01*
G01*
G37*
%TD.AperFunction*%
%TD*%
%TO.P,C3,2*%
%TO.N,gnd_tiny*%
%TA.AperFunction,SMDPad,CuDef*%
G36*
G01*
X168161000Y-89271000D02*
X168161000Y-88021000D01*
G75*
G02*
X168411000Y-87771000I250000J0D01*
G01*
X169161000Y-87771000D01*
G75*
G02*
X169411000Y-88021000I0J-250000D01*
G01*
X169411000Y-89271000D01*
G75*
G02*
X169161000Y-89521000I-250000J0D01*
G01*
X168411000Y-89521000D01*
G75*
G02*
X168161000Y-89271000I0J250000D01*
G01*
G37*
%TD.AperFunction*%
%TO.P,C3,1*%
%TO.N,vcc_tiny*%
%TA.AperFunction,SMDPad,CuDef*%
G36*
G01*
X165361000Y-89271000D02*
X165361000Y-88021000D01*
G75*
G02*
X165611000Y-87771000I250000J0D01*
G01*
X166361000Y-87771000D01*
G75*
G02*
X166611000Y-88021000I0J-250000D01*
G01*
X166611000Y-89271000D01*
G75*
G02*
X166361000Y-89521000I-250000J0D01*
G01*
X165611000Y-89521000D01*
G75*
G02*
X165361000Y-89271000I0J250000D01*
G01*
G37*
%TD.AperFunction*%
%TD*%
%TO.P,D1,1*%
%TO.N,gnd_tiny*%
%TA.AperFunction,SMDPad,CuDef*%
G36*
G01*
X170551000Y-82289000D02*
X169301000Y-82289000D01*
G75*
G02*
X169051000Y-82039000I0J250000D01*
G01*
X169051000Y-81289000D01*
G75*
G02*
X169301000Y-81039000I250000J0D01*
G01*
X170551000Y-81039000D01*
G75*
G02*
X170801000Y-81289000I0J-250000D01*
G01*
X170801000Y-82039000D01*
G75*
G02*
X170551000Y-82289000I-250000J0D01*
G01*
G37*
%TD.AperFunction*%
%TO.P,D1,2*%
%TO.N,Net-(D1-Pad2)*%
%TA.AperFunction,SMDPad,CuDef*%
G36*
G01*
X170551000Y-79489000D02*
X169301000Y-79489000D01*
G75*
G02*
X169051000Y-79239000I0J250000D01*
G01*
X169051000Y-78489000D01*
G75*
G02*
X169301000Y-78239000I250000J0D01*
G01*
X170551000Y-78239000D01*
G75*
G02*
X170801000Y-78489000I0J-250000D01*
G01*
X170801000Y-79239000D01*
G75*
G02*
X170551000Y-79489000I-250000J0D01*
G01*
G37*
%TD.AperFunction*%
%TD*%
%TO.P,D2,2*%
%TO.N,Net-(D2-Pad2)*%
%TA.AperFunction,SMDPad,CuDef*%
G36*
G01*
X177155000Y-79489000D02*
X175905000Y-79489000D01*
G75*
G02*
X175655000Y-79239000I0J250000D01*
G01*
X175655000Y-78489000D01*
G75*
G02*
X175905000Y-78239000I250000J0D01*
G01*
X177155000Y-78239000D01*
G75*
G02*
X177405000Y-78489000I0J-250000D01*
G01*
X177405000Y-79239000D01*
G75*
G02*
X177155000Y-79489000I-250000J0D01*
G01*
G37*
%TD.AperFunction*%
%TO.P,D2,1*%
%TO.N,gnd_tiny*%
%TA.AperFunction,SMDPad,CuDef*%
G36*
G01*
X177155000Y-82289000D02*
X175905000Y-82289000D01*
G75*
G02*
X175655000Y-82039000I0J250000D01*
G01*
X175655000Y-81289000D01*
G75*
G02*
X175905000Y-81039000I250000J0D01*
G01*
X177155000Y-81039000D01*
G75*
G02*
X177405000Y-81289000I0J-250000D01*
G01*
X177405000Y-82039000D01*
G75*
G02*
X177155000Y-82289000I-250000J0D01*
G01*
G37*
%TD.AperFunction*%
%TD*%
%TO.P,D3,1*%
%TO.N,Net-(D3-Pad1)*%
%TA.AperFunction,SMDPad,CuDef*%
G36*
G01*
X123691000Y-81417000D02*
X123691000Y-82667000D01*
G75*
G02*
X123441000Y-82917000I-250000J0D01*
G01*
X122691000Y-82917000D01*
G75*
G02*
X122441000Y-82667000I0J250000D01*
G01*
X122441000Y-81417000D01*
G75*
G02*
X122691000Y-81167000I250000J0D01*
G01*
X123441000Y-81167000D01*
G75*
G02*
X123691000Y-81417000I0J-250000D01*
G01*
G37*
%TD.AperFunction*%
%TO.P,D3,2*%
%TO.N,Net-(D3-Pad2)*%
%TA.AperFunction,SMDPad,CuDef*%
G36*
G01*
X120891000Y-81417000D02*
X120891000Y-82667000D01*
G75*
G02*
X120641000Y-82917000I-250000J0D01*
G01*
X119891000Y-82917000D01*
G75*
G02*
X119641000Y-82667000I0J250000D01*
G01*
X119641000Y-81417000D01*
G75*
G02*
X119891000Y-81167000I250000J0D01*
G01*
X120641000Y-81167000D01*
G75*
G02*
X120891000Y-81417000I0J-250000D01*
G01*
G37*
%TD.AperFunction*%
%TD*%
D17*
%TO.P,D4,1*%
%TO.N,Net-(C1-Pad1)*%
X120428000Y-105664000D03*
%TO.P,D4,2*%
%TO.N,Net-(C1-Pad2)*%
X124428000Y-105664000D03*
%TD*%
%TO.P,F1,1*%
%TO.N,+BATT*%
%TA.AperFunction,SMDPad,CuDef*%
G36*
G01*
X179695000Y-91433000D02*
X178445000Y-91433000D01*
G75*
G02*
X178195000Y-91183000I0J250000D01*
G01*
X178195000Y-90433000D01*
G75*
G02*
X178445000Y-90183000I250000J0D01*
G01*
X179695000Y-90183000D01*
G75*
G02*
X179945000Y-90433000I0J-250000D01*
G01*
X179945000Y-91183000D01*
G75*
G02*
X179695000Y-91433000I-250000J0D01*
G01*
G37*
%TD.AperFunction*%
%TO.P,F1,2*%
%TO.N,Net-(C2-Pad1)*%
%TA.AperFunction,SMDPad,CuDef*%
G36*
G01*
X179695000Y-88633000D02*
X178445000Y-88633000D01*
G75*
G02*
X178195000Y-88383000I0J250000D01*
G01*
X178195000Y-87633000D01*
G75*
G02*
X178445000Y-87383000I250000J0D01*
G01*
X179695000Y-87383000D01*
G75*
G02*
X179945000Y-87633000I0J-250000D01*
G01*
X179945000Y-88383000D01*
G75*
G02*
X179695000Y-88633000I-250000J0D01*
G01*
G37*
%TD.AperFunction*%
%TD*%
%TO.P,IC1,1*%
%TO.N,Net-(C2-Pad1)*%
%TA.AperFunction,SMDPad,CuDef*%
G36*
G01*
X165206000Y-110259000D02*
X165206000Y-109959000D01*
G75*
G02*
X165356000Y-109809000I150000J0D01*
G01*
X167006000Y-109809000D01*
G75*
G02*
X167156000Y-109959000I0J-150000D01*
G01*
X167156000Y-110259000D01*
G75*
G02*
X167006000Y-110409000I-150000J0D01*
G01*
X165356000Y-110409000D01*
G75*
G02*
X165206000Y-110259000I0J150000D01*
G01*
G37*
%TD.AperFunction*%
%TO.P,IC1,2*%
%TO.N,sda_cel*%
%TA.AperFunction,SMDPad,CuDef*%
G36*
G01*
X165206000Y-111529000D02*
X165206000Y-111229000D01*
G75*
G02*
X165356000Y-111079000I150000J0D01*
G01*
X167006000Y-111079000D01*
G75*
G02*
X167156000Y-111229000I0J-150000D01*
G01*
X167156000Y-111529000D01*
G75*
G02*
X167006000Y-111679000I-150000J0D01*
G01*
X165356000Y-111679000D01*
G75*
G02*
X165206000Y-111529000I0J150000D01*
G01*
G37*
%TD.AperFunction*%
%TO.P,IC1,3*%
%TO.N,scl_cel*%
%TA.AperFunction,SMDPad,CuDef*%
G36*
G01*
X165206000Y-112799000D02*
X165206000Y-112499000D01*
G75*
G02*
X165356000Y-112349000I150000J0D01*
G01*
X167006000Y-112349000D01*
G75*
G02*
X167156000Y-112499000I0J-150000D01*
G01*
X167156000Y-112799000D01*
G75*
G02*
X167006000Y-112949000I-150000J0D01*
G01*
X165356000Y-112949000D01*
G75*
G02*
X165206000Y-112799000I0J150000D01*
G01*
G37*
%TD.AperFunction*%
%TO.P,IC1,4*%
%TO.N,-BATT*%
%TA.AperFunction,SMDPad,CuDef*%
G36*
G01*
X165206000Y-114069000D02*
X165206000Y-113769000D01*
G75*
G02*
X165356000Y-113619000I150000J0D01*
G01*
X167006000Y-113619000D01*
G75*
G02*
X167156000Y-113769000I0J-150000D01*
G01*
X167156000Y-114069000D01*
G75*
G02*
X167006000Y-114219000I-150000J0D01*
G01*
X165356000Y-114219000D01*
G75*
G02*
X165206000Y-114069000I0J150000D01*
G01*
G37*
%TD.AperFunction*%
%TO.P,IC1,5*%
%TO.N,Net-(C1-Pad2)*%
%TA.AperFunction,SMDPad,CuDef*%
G36*
G01*
X170156000Y-114069000D02*
X170156000Y-113769000D01*
G75*
G02*
X170306000Y-113619000I150000J0D01*
G01*
X171956000Y-113619000D01*
G75*
G02*
X172106000Y-113769000I0J-150000D01*
G01*
X172106000Y-114069000D01*
G75*
G02*
X171956000Y-114219000I-150000J0D01*
G01*
X170306000Y-114219000D01*
G75*
G02*
X170156000Y-114069000I0J150000D01*
G01*
G37*
%TD.AperFunction*%
%TO.P,IC1,6*%
%TO.N,Net-(IC1-Pad6)*%
%TA.AperFunction,SMDPad,CuDef*%
G36*
G01*
X170156000Y-112799000D02*
X170156000Y-112499000D01*
G75*
G02*
X170306000Y-112349000I150000J0D01*
G01*
X171956000Y-112349000D01*
G75*
G02*
X172106000Y-112499000I0J-150000D01*
G01*
X172106000Y-112799000D01*
G75*
G02*
X171956000Y-112949000I-150000J0D01*
G01*
X170306000Y-112949000D01*
G75*
G02*
X170156000Y-112799000I0J150000D01*
G01*
G37*
%TD.AperFunction*%
%TO.P,IC1,7*%
%TO.N,Net-(IC1-Pad7)*%
%TA.AperFunction,SMDPad,CuDef*%
G36*
G01*
X170156000Y-111529000D02*
X170156000Y-111229000D01*
G75*
G02*
X170306000Y-111079000I150000J0D01*
G01*
X171956000Y-111079000D01*
G75*
G02*
X172106000Y-111229000I0J-150000D01*
G01*
X172106000Y-111529000D01*
G75*
G02*
X171956000Y-111679000I-150000J0D01*
G01*
X170306000Y-111679000D01*
G75*
G02*
X170156000Y-111529000I0J150000D01*
G01*
G37*
%TD.AperFunction*%
%TO.P,IC1,8*%
%TO.N,Net-(C1-Pad1)*%
%TA.AperFunction,SMDPad,CuDef*%
G36*
G01*
X170156000Y-110259000D02*
X170156000Y-109959000D01*
G75*
G02*
X170306000Y-109809000I150000J0D01*
G01*
X171956000Y-109809000D01*
G75*
G02*
X172106000Y-109959000I0J-150000D01*
G01*
X172106000Y-110259000D01*
G75*
G02*
X171956000Y-110409000I-150000J0D01*
G01*
X170306000Y-110409000D01*
G75*
G02*
X170156000Y-110259000I0J150000D01*
G01*
G37*
%TD.AperFunction*%
%TD*%
D16*
%TO.P,J4,7*%
%TO.N,-BATT*%
X164084000Y-105218000D03*
%TO.P,J4,6*%
%TO.N,msf_cel*%
X164084000Y-103218000D03*
%TO.P,J4,5*%
%TO.N,Net-(J4-Pad5)*%
X164084000Y-101218000D03*
%TO.P,J4,4*%
%TO.N,Net-(J4-Pad4)*%
X164084000Y-99218000D03*
%TO.P,J4,3*%
%TO.N,scl_cel*%
X164084000Y-97218000D03*
%TO.P,J4,2*%
%TO.N,sda_cel*%
X164084000Y-95218000D03*
%TO.P,J4,1*%
%TO.N,Net-(C2-Pad1)*%
%TA.AperFunction,ComponentPad*%
G36*
G01*
X163458999Y-92618000D02*
X164709001Y-92618000D01*
G75*
G02*
X164959000Y-92867999I0J-249999D01*
G01*
X164959000Y-93568001D01*
G75*
G02*
X164709001Y-93818000I-249999J0D01*
G01*
X163458999Y-93818000D01*
G75*
G02*
X163209000Y-93568001I0J249999D01*
G01*
X163209000Y-92867999D01*
G75*
G02*
X163458999Y-92618000I249999J0D01*
G01*
G37*
%TD.AperFunction*%
%TD*%
%TO.P,R1,2*%
%TO.N,scl_cel*%
%TA.AperFunction,SMDPad,CuDef*%
G36*
G01*
X169659000Y-105547000D02*
X169659000Y-106797000D01*
G75*
G02*
X169409000Y-107047000I-250000J0D01*
G01*
X168659000Y-107047000D01*
G75*
G02*
X168409000Y-106797000I0J250000D01*
G01*
X168409000Y-105547000D01*
G75*
G02*
X168659000Y-105297000I250000J0D01*
G01*
X169409000Y-105297000D01*
G75*
G02*
X169659000Y-105547000I0J-250000D01*
G01*
G37*
%TD.AperFunction*%
%TO.P,R1,1*%
%TO.N,Net-(C2-Pad1)*%
%TA.AperFunction,SMDPad,CuDef*%
G36*
G01*
X172459000Y-105547000D02*
X172459000Y-106797000D01*
G75*
G02*
X172209000Y-107047000I-250000J0D01*
G01*
X171459000Y-107047000D01*
G75*
G02*
X171209000Y-106797000I0J250000D01*
G01*
X171209000Y-105547000D01*
G75*
G02*
X171459000Y-105297000I250000J0D01*
G01*
X172209000Y-105297000D01*
G75*
G02*
X172459000Y-105547000I0J-250000D01*
G01*
G37*
%TD.AperFunction*%
%TD*%
%TO.P,R2,1*%
%TO.N,Net-(C2-Pad1)*%
%TA.AperFunction,SMDPad,CuDef*%
G36*
G01*
X173743000Y-106797000D02*
X173743000Y-105547000D01*
G75*
G02*
X173993000Y-105297000I250000J0D01*
G01*
X174743000Y-105297000D01*
G75*
G02*
X174993000Y-105547000I0J-250000D01*
G01*
X174993000Y-106797000D01*
G75*
G02*
X174743000Y-107047000I-250000J0D01*
G01*
X173993000Y-107047000D01*
G75*
G02*
X173743000Y-106797000I0J250000D01*
G01*
G37*
%TD.AperFunction*%
%TO.P,R2,2*%
%TO.N,sda_cel*%
%TA.AperFunction,SMDPad,CuDef*%
G36*
G01*
X176543000Y-106797000D02*
X176543000Y-105547000D01*
G75*
G02*
X176793000Y-105297000I250000J0D01*
G01*
X177543000Y-105297000D01*
G75*
G02*
X177793000Y-105547000I0J-250000D01*
G01*
X177793000Y-106797000D01*
G75*
G02*
X177543000Y-107047000I-250000J0D01*
G01*
X176793000Y-107047000D01*
G75*
G02*
X176543000Y-106797000I0J250000D01*
G01*
G37*
%TD.AperFunction*%
%TD*%
%TO.P,R3,1*%
%TO.N,Net-(R3-Pad1)*%
%TA.AperFunction,SMDPad,CuDef*%
G36*
G01*
X167757000Y-82289000D02*
X166507000Y-82289000D01*
G75*
G02*
X166257000Y-82039000I0J250000D01*
G01*
X166257000Y-81289000D01*
G75*
G02*
X166507000Y-81039000I250000J0D01*
G01*
X167757000Y-81039000D01*
G75*
G02*
X168007000Y-81289000I0J-250000D01*
G01*
X168007000Y-82039000D01*
G75*
G02*
X167757000Y-82289000I-250000J0D01*
G01*
G37*
%TD.AperFunction*%
%TO.P,R3,2*%
%TO.N,Net-(D1-Pad2)*%
%TA.AperFunction,SMDPad,CuDef*%
G36*
G01*
X167757000Y-79489000D02*
X166507000Y-79489000D01*
G75*
G02*
X166257000Y-79239000I0J250000D01*
G01*
X166257000Y-78489000D01*
G75*
G02*
X166507000Y-78239000I250000J0D01*
G01*
X167757000Y-78239000D01*
G75*
G02*
X168007000Y-78489000I0J-250000D01*
G01*
X168007000Y-79239000D01*
G75*
G02*
X167757000Y-79489000I-250000J0D01*
G01*
G37*
%TD.AperFunction*%
%TD*%
%TO.P,R4,2*%
%TO.N,Net-(D2-Pad2)*%
%TA.AperFunction,SMDPad,CuDef*%
G36*
G01*
X174361000Y-79489000D02*
X173111000Y-79489000D01*
G75*
G02*
X172861000Y-79239000I0J250000D01*
G01*
X172861000Y-78489000D01*
G75*
G02*
X173111000Y-78239000I250000J0D01*
G01*
X174361000Y-78239000D01*
G75*
G02*
X174611000Y-78489000I0J-250000D01*
G01*
X174611000Y-79239000D01*
G75*
G02*
X174361000Y-79489000I-250000J0D01*
G01*
G37*
%TD.AperFunction*%
%TO.P,R4,1*%
%TO.N,Net-(R4-Pad1)*%
%TA.AperFunction,SMDPad,CuDef*%
G36*
G01*
X174361000Y-82289000D02*
X173111000Y-82289000D01*
G75*
G02*
X172861000Y-82039000I0J250000D01*
G01*
X172861000Y-81289000D01*
G75*
G02*
X173111000Y-81039000I250000J0D01*
G01*
X174361000Y-81039000D01*
G75*
G02*
X174611000Y-81289000I0J-250000D01*
G01*
X174611000Y-82039000D01*
G75*
G02*
X174361000Y-82289000I-250000J0D01*
G01*
G37*
%TD.AperFunction*%
%TD*%
%TO.P,R7,1*%
%TO.N,Net-(Q2-Pad3)*%
%TA.AperFunction,SMDPad,CuDef*%
G36*
G01*
X123691000Y-78369000D02*
X123691000Y-79619000D01*
G75*
G02*
X123441000Y-79869000I-250000J0D01*
G01*
X122691000Y-79869000D01*
G75*
G02*
X122441000Y-79619000I0J250000D01*
G01*
X122441000Y-78369000D01*
G75*
G02*
X122691000Y-78119000I250000J0D01*
G01*
X123441000Y-78119000D01*
G75*
G02*
X123691000Y-78369000I0J-250000D01*
G01*
G37*
%TD.AperFunction*%
%TO.P,R7,2*%
%TO.N,Net-(D3-Pad2)*%
%TA.AperFunction,SMDPad,CuDef*%
G36*
G01*
X120891000Y-78369000D02*
X120891000Y-79619000D01*
G75*
G02*
X120641000Y-79869000I-250000J0D01*
G01*
X119891000Y-79869000D01*
G75*
G02*
X119641000Y-79619000I0J250000D01*
G01*
X119641000Y-78369000D01*
G75*
G02*
X119891000Y-78119000I250000J0D01*
G01*
X120641000Y-78119000D01*
G75*
G02*
X120891000Y-78369000I0J-250000D01*
G01*
G37*
%TD.AperFunction*%
%TD*%
%TO.P,R8,1*%
%TO.N,Net-(Q1-Pad1)*%
%TA.AperFunction,SMDPad,CuDef*%
G36*
G01*
X119641000Y-85461000D02*
X119641000Y-84211000D01*
G75*
G02*
X119891000Y-83961000I250000J0D01*
G01*
X120641000Y-83961000D01*
G75*
G02*
X120891000Y-84211000I0J-250000D01*
G01*
X120891000Y-85461000D01*
G75*
G02*
X120641000Y-85711000I-250000J0D01*
G01*
X119891000Y-85711000D01*
G75*
G02*
X119641000Y-85461000I0J250000D01*
G01*
G37*
%TD.AperFunction*%
%TO.P,R8,2*%
%TO.N,msf_cel*%
%TA.AperFunction,SMDPad,CuDef*%
G36*
G01*
X122441000Y-85461000D02*
X122441000Y-84211000D01*
G75*
G02*
X122691000Y-83961000I250000J0D01*
G01*
X123441000Y-83961000D01*
G75*
G02*
X123691000Y-84211000I0J-250000D01*
G01*
X123691000Y-85461000D01*
G75*
G02*
X123441000Y-85711000I-250000J0D01*
G01*
X122691000Y-85711000D01*
G75*
G02*
X122441000Y-85461000I0J250000D01*
G01*
G37*
%TD.AperFunction*%
%TD*%
%TO.P,R9,2*%
%TO.N,-BATT*%
%TA.AperFunction,SMDPad,CuDef*%
G36*
G01*
X120891000Y-87513000D02*
X120891000Y-88763000D01*
G75*
G02*
X120641000Y-89013000I-250000J0D01*
G01*
X119891000Y-89013000D01*
G75*
G02*
X119641000Y-88763000I0J250000D01*
G01*
X119641000Y-87513000D01*
G75*
G02*
X119891000Y-87263000I250000J0D01*
G01*
X120641000Y-87263000D01*
G75*
G02*
X120891000Y-87513000I0J-250000D01*
G01*
G37*
%TD.AperFunction*%
%TO.P,R9,1*%
%TO.N,Net-(Q1-Pad1)*%
%TA.AperFunction,SMDPad,CuDef*%
G36*
G01*
X123691000Y-87513000D02*
X123691000Y-88763000D01*
G75*
G02*
X123441000Y-89013000I-250000J0D01*
G01*
X122691000Y-89013000D01*
G75*
G02*
X122441000Y-88763000I0J250000D01*
G01*
X122441000Y-87513000D01*
G75*
G02*
X122691000Y-87263000I250000J0D01*
G01*
X123441000Y-87263000D01*
G75*
G02*
X123691000Y-87513000I0J-250000D01*
G01*
G37*
%TD.AperFunction*%
%TD*%
D11*
%TO.P,R10,2*%
%TO.N,Net-(D3-Pad1)*%
X126746000Y-82296000D03*
D10*
%TO.P,R10,1*%
%TO.N,Net-(Q2-Pad3)*%
X152146000Y-82296000D03*
%TD*%
%TO.P,R11,1*%
%TO.N,Net-(Q2-Pad3)*%
X152146000Y-92202000D03*
D11*
%TO.P,R11,2*%
%TO.N,Net-(D3-Pad1)*%
X126746000Y-92202000D03*
%TD*%
%TO.P,R13,2*%
%TO.N,Net-(D3-Pad1)*%
X126746000Y-112014000D03*
D10*
%TO.P,R13,1*%
%TO.N,Net-(Q2-Pad3)*%
X152146000Y-112014000D03*
%TD*%
%TO.P,SW1,1*%
%TO.N,gnd_tiny*%
%TA.AperFunction,SMDPad,CuDef*%
G36*
G01*
X170394000Y-84290000D02*
X170394000Y-85890000D01*
G75*
G02*
X170194000Y-86090000I-200000J0D01*
G01*
X169794000Y-86090000D01*
G75*
G02*
X169594000Y-85890000I0J200000D01*
G01*
X169594000Y-84290000D01*
G75*
G02*
X169794000Y-84090000I200000J0D01*
G01*
X170194000Y-84090000D01*
G75*
G02*
X170394000Y-84290000I0J-200000D01*
G01*
G37*
%TD.AperFunction*%
%TO.P,SW1,2*%
%TO.N,Net-(SW1-Pad2)*%
%TA.AperFunction,SMDPad,CuDef*%
G36*
G01*
X166194000Y-84290000D02*
X166194000Y-85890000D01*
G75*
G02*
X165994000Y-86090000I-200000J0D01*
G01*
X165594000Y-86090000D01*
G75*
G02*
X165394000Y-85890000I0J200000D01*
G01*
X165394000Y-84290000D01*
G75*
G02*
X165594000Y-84090000I200000J0D01*
G01*
X165994000Y-84090000D01*
G75*
G02*
X166194000Y-84290000I0J-200000D01*
G01*
G37*
%TD.AperFunction*%
%TD*%
%TO.P,SW2,2*%
%TO.N,Net-(SW2-Pad2)*%
%TA.AperFunction,SMDPad,CuDef*%
G36*
G01*
X176452000Y-85890000D02*
X176452000Y-84290000D01*
G75*
G02*
X176652000Y-84090000I200000J0D01*
G01*
X177052000Y-84090000D01*
G75*
G02*
X177252000Y-84290000I0J-200000D01*
G01*
X177252000Y-85890000D01*
G75*
G02*
X177052000Y-86090000I-200000J0D01*
G01*
X176652000Y-86090000D01*
G75*
G02*
X176452000Y-85890000I0J200000D01*
G01*
G37*
%TD.AperFunction*%
%TO.P,SW2,1*%
%TO.N,gnd_tiny*%
%TA.AperFunction,SMDPad,CuDef*%
G36*
G01*
X172252000Y-85890000D02*
X172252000Y-84290000D01*
G75*
G02*
X172452000Y-84090000I200000J0D01*
G01*
X172852000Y-84090000D01*
G75*
G02*
X173052000Y-84290000I0J-200000D01*
G01*
X173052000Y-85890000D01*
G75*
G02*
X172852000Y-86090000I-200000J0D01*
G01*
X172452000Y-86090000D01*
G75*
G02*
X172252000Y-85890000I0J200000D01*
G01*
G37*
%TD.AperFunction*%
%TD*%
D18*
%TO.P,U1,2*%
%TO.N,Net-(U1-Pad2)*%
X173482000Y-89662000D03*
%TO.P,U1,3*%
%TO.N,gnd_tiny*%
X174752000Y-89662000D03*
D19*
%TO.P,U1,1*%
%TO.N,vcc_tiny*%
X172212000Y-89662000D03*
%TD*%
D20*
%TO.P,U2,1*%
%TO.N,vcc_tiny*%
X127490220Y-98346260D03*
D21*
%TO.P,U2,3*%
%TO.N,gnd_tiny*%
X127490220Y-95806260D03*
%TO.P,U2,2*%
%TO.N,Net-(U2-Pad2)*%
X127490220Y-97076260D03*
%TD*%
%TO.P,U3,1*%
%TO.N,vcc_tiny*%
%TA.AperFunction,SMDPad,CuDef*%
G36*
G01*
X163172000Y-82656000D02*
X163472000Y-82656000D01*
G75*
G02*
X163622000Y-82806000I0J-150000D01*
G01*
X163622000Y-84456000D01*
G75*
G02*
X163472000Y-84606000I-150000J0D01*
G01*
X163172000Y-84606000D01*
G75*
G02*
X163022000Y-84456000I0J150000D01*
G01*
X163022000Y-82806000D01*
G75*
G02*
X163172000Y-82656000I150000J0D01*
G01*
G37*
%TD.AperFunction*%
%TO.P,U3,2*%
%TO.N,Net-(R3-Pad1)*%
%TA.AperFunction,SMDPad,CuDef*%
G36*
G01*
X161902000Y-82656000D02*
X162202000Y-82656000D01*
G75*
G02*
X162352000Y-82806000I0J-150000D01*
G01*
X162352000Y-84456000D01*
G75*
G02*
X162202000Y-84606000I-150000J0D01*
G01*
X161902000Y-84606000D01*
G75*
G02*
X161752000Y-84456000I0J150000D01*
G01*
X161752000Y-82806000D01*
G75*
G02*
X161902000Y-82656000I150000J0D01*
G01*
G37*
%TD.AperFunction*%
%TO.P,U3,3*%
%TO.N,Net-(R4-Pad1)*%
%TA.AperFunction,SMDPad,CuDef*%
G36*
G01*
X160632000Y-82656000D02*
X160932000Y-82656000D01*
G75*
G02*
X161082000Y-82806000I0J-150000D01*
G01*
X161082000Y-84456000D01*
G75*
G02*
X160932000Y-84606000I-150000J0D01*
G01*
X160632000Y-84606000D01*
G75*
G02*
X160482000Y-84456000I0J150000D01*
G01*
X160482000Y-82806000D01*
G75*
G02*
X160632000Y-82656000I150000J0D01*
G01*
G37*
%TD.AperFunction*%
%TO.P,U3,4*%
%TO.N,rst_tiny*%
%TA.AperFunction,SMDPad,CuDef*%
G36*
G01*
X159362000Y-82656000D02*
X159662000Y-82656000D01*
G75*
G02*
X159812000Y-82806000I0J-150000D01*
G01*
X159812000Y-84456000D01*
G75*
G02*
X159662000Y-84606000I-150000J0D01*
G01*
X159362000Y-84606000D01*
G75*
G02*
X159212000Y-84456000I0J150000D01*
G01*
X159212000Y-82806000D01*
G75*
G02*
X159362000Y-82656000I150000J0D01*
G01*
G37*
%TD.AperFunction*%
%TO.P,U3,5*%
%TO.N,msf_tiny*%
%TA.AperFunction,SMDPad,CuDef*%
G36*
G01*
X158092000Y-82656000D02*
X158392000Y-82656000D01*
G75*
G02*
X158542000Y-82806000I0J-150000D01*
G01*
X158542000Y-84456000D01*
G75*
G02*
X158392000Y-84606000I-150000J0D01*
G01*
X158092000Y-84606000D01*
G75*
G02*
X157942000Y-84456000I0J150000D01*
G01*
X157942000Y-82806000D01*
G75*
G02*
X158092000Y-82656000I150000J0D01*
G01*
G37*
%TD.AperFunction*%
%TO.P,U3,6*%
%TO.N,Net-(SW2-Pad2)*%
%TA.AperFunction,SMDPad,CuDef*%
G36*
G01*
X156822000Y-82656000D02*
X157122000Y-82656000D01*
G75*
G02*
X157272000Y-82806000I0J-150000D01*
G01*
X157272000Y-84456000D01*
G75*
G02*
X157122000Y-84606000I-150000J0D01*
G01*
X156822000Y-84606000D01*
G75*
G02*
X156672000Y-84456000I0J150000D01*
G01*
X156672000Y-82806000D01*
G75*
G02*
X156822000Y-82656000I150000J0D01*
G01*
G37*
%TD.AperFunction*%
%TO.P,U3,7*%
%TO.N,sda_tiny*%
%TA.AperFunction,SMDPad,CuDef*%
G36*
G01*
X155552000Y-82656000D02*
X155852000Y-82656000D01*
G75*
G02*
X156002000Y-82806000I0J-150000D01*
G01*
X156002000Y-84456000D01*
G75*
G02*
X155852000Y-84606000I-150000J0D01*
G01*
X155552000Y-84606000D01*
G75*
G02*
X155402000Y-84456000I0J150000D01*
G01*
X155402000Y-82806000D01*
G75*
G02*
X155552000Y-82656000I150000J0D01*
G01*
G37*
%TD.AperFunction*%
%TO.P,U3,8*%
%TO.N,spr_tiny*%
%TA.AperFunction,SMDPad,CuDef*%
G36*
G01*
X155552000Y-87606000D02*
X155852000Y-87606000D01*
G75*
G02*
X156002000Y-87756000I0J-150000D01*
G01*
X156002000Y-89406000D01*
G75*
G02*
X155852000Y-89556000I-150000J0D01*
G01*
X155552000Y-89556000D01*
G75*
G02*
X155402000Y-89406000I0J150000D01*
G01*
X155402000Y-87756000D01*
G75*
G02*
X155552000Y-87606000I150000J0D01*
G01*
G37*
%TD.AperFunction*%
%TO.P,U3,9*%
%TO.N,scl_tiny*%
%TA.AperFunction,SMDPad,CuDef*%
G36*
G01*
X156822000Y-87606000D02*
X157122000Y-87606000D01*
G75*
G02*
X157272000Y-87756000I0J-150000D01*
G01*
X157272000Y-89406000D01*
G75*
G02*
X157122000Y-89556000I-150000J0D01*
G01*
X156822000Y-89556000D01*
G75*
G02*
X156672000Y-89406000I0J150000D01*
G01*
X156672000Y-87756000D01*
G75*
G02*
X156822000Y-87606000I150000J0D01*
G01*
G37*
%TD.AperFunction*%
%TO.P,U3,10*%
%TO.N,Net-(SW1-Pad2)*%
%TA.AperFunction,SMDPad,CuDef*%
G36*
G01*
X158092000Y-87606000D02*
X158392000Y-87606000D01*
G75*
G02*
X158542000Y-87756000I0J-150000D01*
G01*
X158542000Y-89406000D01*
G75*
G02*
X158392000Y-89556000I-150000J0D01*
G01*
X158092000Y-89556000D01*
G75*
G02*
X157942000Y-89406000I0J150000D01*
G01*
X157942000Y-87756000D01*
G75*
G02*
X158092000Y-87606000I150000J0D01*
G01*
G37*
%TD.AperFunction*%
%TO.P,U3,11*%
%TO.N,Net-(U1-Pad2)*%
%TA.AperFunction,SMDPad,CuDef*%
G36*
G01*
X159362000Y-87606000D02*
X159662000Y-87606000D01*
G75*
G02*
X159812000Y-87756000I0J-150000D01*
G01*
X159812000Y-89406000D01*
G75*
G02*
X159662000Y-89556000I-150000J0D01*
G01*
X159362000Y-89556000D01*
G75*
G02*
X159212000Y-89406000I0J150000D01*
G01*
X159212000Y-87756000D01*
G75*
G02*
X159362000Y-87606000I150000J0D01*
G01*
G37*
%TD.AperFunction*%
%TO.P,U3,12*%
%TO.N,Net-(U2-Pad2)*%
%TA.AperFunction,SMDPad,CuDef*%
G36*
G01*
X160632000Y-87606000D02*
X160932000Y-87606000D01*
G75*
G02*
X161082000Y-87756000I0J-150000D01*
G01*
X161082000Y-89406000D01*
G75*
G02*
X160932000Y-89556000I-150000J0D01*
G01*
X160632000Y-89556000D01*
G75*
G02*
X160482000Y-89406000I0J150000D01*
G01*
X160482000Y-87756000D01*
G75*
G02*
X160632000Y-87606000I150000J0D01*
G01*
G37*
%TD.AperFunction*%
%TO.P,U3,13*%
%TO.N,Net-(R5-Pad2)*%
%TA.AperFunction,SMDPad,CuDef*%
G36*
G01*
X161902000Y-87606000D02*
X162202000Y-87606000D01*
G75*
G02*
X162352000Y-87756000I0J-150000D01*
G01*
X162352000Y-89406000D01*
G75*
G02*
X162202000Y-89556000I-150000J0D01*
G01*
X161902000Y-89556000D01*
G75*
G02*
X161752000Y-89406000I0J150000D01*
G01*
X161752000Y-87756000D01*
G75*
G02*
X161902000Y-87606000I150000J0D01*
G01*
G37*
%TD.AperFunction*%
%TO.P,U3,14*%
%TO.N,gnd_tiny*%
%TA.AperFunction,SMDPad,CuDef*%
G36*
G01*
X163172000Y-87606000D02*
X163472000Y-87606000D01*
G75*
G02*
X163622000Y-87756000I0J-150000D01*
G01*
X163622000Y-89406000D01*
G75*
G02*
X163472000Y-89556000I-150000J0D01*
G01*
X163172000Y-89556000D01*
G75*
G02*
X163022000Y-89406000I0J150000D01*
G01*
X163022000Y-87756000D01*
G75*
G02*
X163172000Y-87606000I150000J0D01*
G01*
G37*
%TD.AperFunction*%
%TD*%
D22*
%TO.N,Net-(C1-Pad2)*%
X172425360Y-114838480D03*
D23*
%TO.N,Net-(C2-Pad1)*%
X179070000Y-85344000D03*
D22*
X168910000Y-108204000D03*
X159700000Y-111320000D03*
D23*
X159560000Y-78425000D03*
D22*
%TO.N,gnd_tiny*%
X163322000Y-90398600D03*
X169994000Y-87059080D03*
%TO.N,vcc_tiny*%
X157734000Y-109220000D03*
X154670000Y-109690000D03*
%TO.N,sda_cel*%
X173482000Y-108966000D03*
%TO.N,msf_cel*%
X154620000Y-104648000D03*
%TO.N,sda_tiny*%
X155702000Y-81788000D03*
%TO.N,rst_tiny*%
X159512000Y-81788000D03*
%TO.N,msf_tiny*%
X149860000Y-84582000D03*
X149352000Y-99568000D03*
%TO.N,Net-(R4-Pad1)*%
X171958000Y-82550000D03*
X160782000Y-81788000D03*
%TO.N,Net-(SW2-Pad2)*%
X156972000Y-81788000D03*
X177038000Y-87376000D03*
%TO.N,Net-(U2-Pad2)*%
X160274000Y-108204000D03*
X154610000Y-107820000D03*
D23*
%TO.N,Net-(Q2-Pad3)*%
X153510000Y-78470000D03*
D22*
%TO.N,Net-(R5-Pad2)*%
X162060000Y-90340000D03*
X157070000Y-86510000D03*
%TD*%
D24*
%TO.N,Net-(C1-Pad1)*%
X176276000Y-116840000D02*
X176784000Y-116332000D01*
X168526000Y-116332000D02*
X168526000Y-117980000D01*
X168526000Y-117980000D02*
X168910000Y-118364000D01*
X174752000Y-118364000D02*
X176784000Y-116332000D01*
X168910000Y-118364000D02*
X174752000Y-118364000D01*
X171131000Y-110109000D02*
X170053000Y-110109000D01*
X168526000Y-111636000D02*
X168526000Y-116332000D01*
X170053000Y-110109000D02*
X168526000Y-111636000D01*
X120428000Y-105664000D02*
X120428000Y-106902000D01*
X120428000Y-106902000D02*
X119634000Y-107696000D01*
X119634000Y-107696000D02*
X119634000Y-116332000D01*
X119634000Y-116332000D02*
X121412000Y-116332000D01*
%TO.N,Net-(C1-Pad2)*%
X121412000Y-110332000D02*
X121412000Y-110236000D01*
X124428000Y-107220000D02*
X124428000Y-105664000D01*
X121412000Y-110236000D02*
X124428000Y-107220000D01*
X171131000Y-116137000D02*
X171326000Y-116332000D01*
X171131000Y-113919000D02*
X171131000Y-116137000D01*
X171505880Y-113919000D02*
X172425360Y-114838480D01*
X171131000Y-113919000D02*
X171505880Y-113919000D01*
%TO.N,Net-(C2-Pad1)*%
X174368000Y-106172000D02*
X171834000Y-106172000D01*
X171834000Y-106550000D02*
X171834000Y-106172000D01*
X171834000Y-106172000D02*
X171834000Y-107058000D01*
X171834000Y-107058000D02*
X170942000Y-107950000D01*
X170942000Y-107950000D02*
X169164000Y-107950000D01*
X167005000Y-110109000D02*
X166181000Y-110109000D01*
X169164000Y-107950000D02*
X168910000Y-108204000D01*
X168910000Y-108204000D02*
X167005000Y-110109000D01*
D25*
X179070000Y-85344000D02*
X179070000Y-88008000D01*
D24*
X156304000Y-113284000D02*
X156304000Y-112824000D01*
X156936000Y-113284000D02*
X156304000Y-113284000D01*
X159700000Y-111320000D02*
X156936000Y-113284000D01*
X171834000Y-106172000D02*
X171812000Y-106172000D01*
X171812000Y-106172000D02*
X169990000Y-104350000D01*
X169990000Y-104350000D02*
X166880000Y-104350000D01*
X166880000Y-104350000D02*
X166630000Y-104100000D01*
X166630000Y-104100000D02*
X166630000Y-93780000D01*
X166068000Y-93218000D02*
X164084000Y-93218000D01*
X166630000Y-93780000D02*
X166068000Y-93218000D01*
D26*
X157585000Y-78425000D02*
X157420000Y-78260000D01*
X159560000Y-78425000D02*
X157585000Y-78425000D01*
D24*
X159560000Y-78425000D02*
X159885000Y-78425000D01*
X159885000Y-78425000D02*
X160570000Y-77740000D01*
X160570000Y-77740000D02*
X164190000Y-77740000D01*
X164632500Y-78182500D02*
X164632500Y-79770000D01*
X164190000Y-77740000D02*
X164632500Y-78182500D01*
%TO.N,-BATT*%
X166181000Y-113919000D02*
X163957000Y-113919000D01*
X163322000Y-113284000D02*
X161704000Y-113284000D01*
X163957000Y-113919000D02*
X163322000Y-113284000D01*
X162560000Y-112428000D02*
X161704000Y-113284000D01*
X164084000Y-105218000D02*
X164084000Y-105410000D01*
X162560000Y-106934000D02*
X162560000Y-112428000D01*
X164084000Y-105410000D02*
X162560000Y-106934000D01*
X123952000Y-98298000D02*
X125476000Y-99822000D01*
X121620280Y-98270060D02*
X123952000Y-98298000D01*
X125476000Y-99822000D02*
X128270000Y-99822000D01*
X128270000Y-99822000D02*
X129794000Y-101346000D01*
X129794000Y-101346000D02*
X129794000Y-116332000D01*
X161704000Y-115896000D02*
X161704000Y-113284000D01*
X161268000Y-116332000D02*
X161704000Y-115896000D01*
X148820000Y-116264000D02*
X148752000Y-116332000D01*
X148752000Y-116332000D02*
X161268000Y-116332000D01*
X144950000Y-116330000D02*
X144948000Y-116332000D01*
X129794000Y-116332000D02*
X144948000Y-116332000D01*
X145610000Y-116170000D02*
X145448000Y-116332000D01*
X145448000Y-116332000D02*
X148752000Y-116332000D01*
X144948000Y-116332000D02*
X145448000Y-116332000D01*
D26*
X120060000Y-96472080D02*
X121787920Y-98200000D01*
X121174000Y-97586080D02*
X121787920Y-98200000D01*
X121174000Y-93152000D02*
X121174000Y-97586080D01*
D24*
X121174000Y-93152000D02*
X119446000Y-93152000D01*
X119446000Y-93152000D02*
X119380000Y-93086000D01*
X119380000Y-89024000D02*
X120266000Y-88138000D01*
X119380000Y-93086000D02*
X119380000Y-89024000D01*
%TO.N,gnd_tiny*%
X176530000Y-81664000D02*
X176530000Y-82042000D01*
X173482000Y-85090000D02*
X172652000Y-85090000D01*
X176530000Y-82042000D02*
X173482000Y-85090000D01*
X172652000Y-85090000D02*
X169994000Y-85090000D01*
X169994000Y-81732000D02*
X169926000Y-81664000D01*
X169994000Y-85090000D02*
X169994000Y-81732000D01*
X169994000Y-87438000D02*
X168786000Y-88646000D01*
X169994000Y-85090000D02*
X169994000Y-87059080D01*
X172652000Y-85090000D02*
X173228000Y-85090000D01*
X173228000Y-85090000D02*
X174752000Y-86614000D01*
X174752000Y-86614000D02*
X174752000Y-89662000D01*
X161490000Y-110340000D02*
X156410000Y-110340000D01*
X163322000Y-90398600D02*
X163322000Y-88581000D01*
X169994000Y-87059080D02*
X169994000Y-87438000D01*
X161544000Y-107442000D02*
X161490000Y-110340000D01*
X162306000Y-105664000D02*
X161544000Y-107442000D01*
X162306000Y-92202000D02*
X162306000Y-105664000D01*
X163322000Y-91272360D02*
X162392360Y-92202000D01*
X162392360Y-92202000D02*
X162306000Y-92202000D01*
X163322000Y-90398600D02*
X163322000Y-91272360D01*
X156410000Y-110340000D02*
X156455744Y-106163744D01*
X157042256Y-106163744D02*
X157988000Y-105218000D01*
X156455744Y-106163744D02*
X157042256Y-106163744D01*
X128300480Y-94996000D02*
X127490220Y-95806260D01*
X148581744Y-106163744D02*
X137414000Y-94996000D01*
X137414000Y-94996000D02*
X128300480Y-94996000D01*
X156455744Y-106163744D02*
X148581744Y-106163744D01*
%TO.N,vcc_tiny*%
X172212000Y-89662000D02*
X170688000Y-89662000D01*
X170688000Y-89662000D02*
X170688000Y-89916000D01*
X170688000Y-89916000D02*
X170180000Y-90424000D01*
X170180000Y-90424000D02*
X166878000Y-90424000D01*
X165986000Y-89532000D02*
X165986000Y-88646000D01*
X166878000Y-90424000D02*
X165986000Y-89532000D01*
X165986000Y-88646000D02*
X165862000Y-88646000D01*
X165986000Y-88268000D02*
X165986000Y-88646000D01*
X163322000Y-83631000D02*
X164019000Y-83631000D01*
X167894000Y-83058000D02*
X167894000Y-86360000D01*
X164592000Y-83058000D02*
X167894000Y-83058000D01*
X164019000Y-83631000D02*
X164592000Y-83058000D01*
X167894000Y-86360000D02*
X165986000Y-88268000D01*
X157988000Y-93218000D02*
X159004000Y-93218000D01*
X159004000Y-93218000D02*
X159766000Y-93980000D01*
X159766000Y-93980000D02*
X159766000Y-105918000D01*
X159766000Y-105918000D02*
X157734000Y-108966000D01*
X127490220Y-98346260D02*
X129588260Y-98346260D01*
X129588260Y-98346260D02*
X130556000Y-99314000D01*
X130556000Y-99314000D02*
X135382000Y-99314000D01*
X145758000Y-109690000D02*
X154670000Y-109690000D01*
X135382000Y-99314000D02*
X145758000Y-109690000D01*
%TO.N,Net-(D1-Pad2)*%
X169926000Y-78864000D02*
X167132000Y-78864000D01*
%TO.N,Net-(D2-Pad2)*%
X176530000Y-78864000D02*
X173736000Y-78864000D01*
D26*
%TO.N,Net-(D3-Pad1)*%
X123174000Y-92202000D02*
X126746000Y-92202000D01*
D24*
X126492000Y-82042000D02*
X126746000Y-82296000D01*
X123066000Y-82042000D02*
X126492000Y-82042000D01*
%TO.N,Net-(D3-Pad2)*%
X120266000Y-78994000D02*
X120266000Y-82042000D01*
%TO.N,sda_cel*%
X177168000Y-106172000D02*
X177038000Y-106172000D01*
X177168000Y-106172000D02*
X176530000Y-106172000D01*
X176784000Y-106172000D02*
X173990000Y-108966000D01*
X167513000Y-111379000D02*
X166181000Y-111379000D01*
X173990000Y-108966000D02*
X173482000Y-108966000D01*
X169926000Y-108966000D02*
X167513000Y-111379000D01*
X173482000Y-108966000D02*
X169926000Y-108966000D01*
%TO.N,scl_cel*%
X165227000Y-112649000D02*
X166181000Y-112649000D01*
X163830000Y-107696000D02*
X163830000Y-111252000D01*
X163830000Y-111252000D02*
X165227000Y-112649000D01*
X165872000Y-106172000D02*
X165820000Y-106120000D01*
X169034000Y-106172000D02*
X165872000Y-106172000D01*
X165820000Y-106120000D02*
X165820000Y-106390000D01*
X164514000Y-107696000D02*
X163830000Y-107696000D01*
X165820000Y-106390000D02*
X164514000Y-107696000D01*
X164148000Y-97282000D02*
X164084000Y-97218000D01*
X165820000Y-106120000D02*
X165820000Y-97300000D01*
X164166000Y-97300000D02*
X164084000Y-97218000D01*
X165820000Y-97300000D02*
X164166000Y-97300000D01*
%TO.N,Net-(IC1-Pad6)*%
X176467000Y-112649000D02*
X176784000Y-112332000D01*
X171131000Y-112649000D02*
X176467000Y-112649000D01*
%TO.N,Net-(IC1-Pad7)*%
X121069100Y-113750840D02*
X121147320Y-113750840D01*
X171131000Y-111379000D02*
X172847000Y-111379000D01*
X172847000Y-111379000D02*
X175514000Y-108712000D01*
X175514000Y-108712000D02*
X178816000Y-108712000D01*
X178816000Y-108712000D02*
X178816000Y-114300000D01*
X176816000Y-114300000D02*
X176784000Y-114332000D01*
X178816000Y-114300000D02*
X176816000Y-114300000D01*
%TO.N,msf_cel*%
X154620000Y-104648000D02*
X149860000Y-104648000D01*
X130048000Y-84836000D02*
X123066000Y-84836000D01*
X149860000Y-104648000D02*
X130048000Y-84836000D01*
%TO.N,sda_tiny*%
X155702000Y-83631000D02*
X155702000Y-81788000D01*
%TO.N,scl_tiny*%
X157924000Y-97282000D02*
X157988000Y-97218000D01*
X155956000Y-97282000D02*
X157924000Y-97282000D01*
X155956000Y-91694000D02*
X155956000Y-97282000D01*
X156972000Y-88581000D02*
X156972000Y-90678000D01*
X156972000Y-90678000D02*
X155956000Y-91694000D01*
%TO.N,spr_tiny*%
X155702000Y-88581000D02*
X155702000Y-89662000D01*
X155702000Y-89662000D02*
X154686000Y-90678000D01*
X154686000Y-90678000D02*
X154686000Y-99314000D01*
X157892000Y-99314000D02*
X157988000Y-99218000D01*
X154686000Y-99314000D02*
X157892000Y-99314000D01*
%TO.N,rst_tiny*%
X159512000Y-83631000D02*
X159512000Y-81788000D01*
%TO.N,msf_tiny*%
X156558000Y-103218000D02*
X157988000Y-103218000D01*
X154658000Y-85248000D02*
X153800000Y-84582000D01*
X158242000Y-85248000D02*
X154658000Y-85248000D01*
X158242000Y-83631000D02*
X158242000Y-85248000D01*
X153800000Y-84582000D02*
X149860000Y-84582000D01*
X152908000Y-99568000D02*
X153035000Y-99695000D01*
X149352000Y-99568000D02*
X152908000Y-99568000D01*
X153035000Y-99695000D02*
X156558000Y-103218000D01*
%TO.N,Net-(Q1-Pad1)*%
X121174000Y-91252000D02*
X121174000Y-91170000D01*
X123066000Y-89278000D02*
X123066000Y-88138000D01*
X121174000Y-91170000D02*
X123066000Y-89278000D01*
X123066000Y-88138000D02*
X123066000Y-88014000D01*
X120266000Y-85214000D02*
X120266000Y-84836000D01*
X123066000Y-88014000D02*
X120266000Y-85214000D01*
%TO.N,Net-(R3-Pad1)*%
X162052000Y-81794000D02*
X162052000Y-83631000D01*
X167132000Y-81664000D02*
X162182000Y-81664000D01*
X162182000Y-81664000D02*
X162052000Y-81794000D01*
%TO.N,Net-(R4-Pad1)*%
X160782000Y-83631000D02*
X160782000Y-81788000D01*
X172844000Y-81664000D02*
X171958000Y-82550000D01*
X173736000Y-81664000D02*
X172844000Y-81664000D01*
%TO.N,Net-(SW1-Pad2)*%
X158242000Y-88581000D02*
X158242000Y-87376000D01*
X165794000Y-85090000D02*
X165794000Y-85158000D01*
X165794000Y-85158000D02*
X165354000Y-85598000D01*
X160020000Y-85598000D02*
X158242000Y-87376000D01*
X165354000Y-85598000D02*
X160020000Y-85598000D01*
%TO.N,Net-(SW2-Pad2)*%
X156972000Y-83631000D02*
X156972000Y-81788000D01*
X176852000Y-87190000D02*
X177038000Y-87376000D01*
X176852000Y-85090000D02*
X176852000Y-87190000D01*
%TO.N,Net-(U1-Pad2)*%
X159512000Y-87606000D02*
X159512000Y-88581000D01*
X163322000Y-86614000D02*
X160504000Y-86614000D01*
X160504000Y-86614000D02*
X159512000Y-87606000D01*
X164592000Y-90170000D02*
X164592000Y-87884000D01*
X165862000Y-91440000D02*
X164592000Y-90170000D01*
X173482000Y-89662000D02*
X173482000Y-90932000D01*
X173482000Y-90932000D02*
X173228000Y-91186000D01*
X173228000Y-91186000D02*
X170688000Y-91186000D01*
X170688000Y-91186000D02*
X170434000Y-91440000D01*
X170434000Y-91440000D02*
X165862000Y-91440000D01*
X163322000Y-86614000D02*
X164592000Y-87884000D01*
%TO.N,Net-(U2-Pad2)*%
X160782000Y-89916000D02*
X161036000Y-90170000D01*
X160782000Y-88581000D02*
X160782000Y-89916000D01*
X161036000Y-90170000D02*
X161036000Y-106172000D01*
X161036000Y-106172000D02*
X160274000Y-106934000D01*
X160274000Y-106934000D02*
X160274000Y-108204000D01*
X154610000Y-107820000D02*
X147190000Y-107820000D01*
X147190000Y-107820000D02*
X136398000Y-97028000D01*
X127538480Y-97028000D02*
X127490220Y-97076260D01*
X136398000Y-97028000D02*
X127538480Y-97028000D01*
D27*
%TO.N,+BATT*%
X173482000Y-98298000D02*
X173482000Y-98044000D01*
D25*
X179070000Y-91186000D02*
X179070000Y-92834000D01*
X173482000Y-98200000D02*
X173482000Y-97340420D01*
X173482000Y-98200000D02*
X173482000Y-96949260D01*
X179070000Y-92834000D02*
X173482000Y-98298000D01*
D26*
%TO.N,Net-(Q2-Pad3)*%
X155420000Y-79210000D02*
X155420000Y-79180000D01*
X154680000Y-78470000D02*
X155420000Y-79210000D01*
X153510000Y-78470000D02*
X154680000Y-78470000D01*
D24*
X123066000Y-78994000D02*
X123952000Y-78994000D01*
X124476000Y-78470000D02*
X153510000Y-78470000D01*
X123952000Y-78994000D02*
X124476000Y-78470000D01*
%TO.N,Net-(Q2-Pad1)*%
X161707500Y-79770000D02*
X161360000Y-79770000D01*
X160970000Y-80160000D02*
X157420000Y-80160000D01*
X161360000Y-79770000D02*
X160970000Y-80160000D01*
X157420000Y-80160000D02*
X157120000Y-80460000D01*
X154090000Y-80600000D02*
X156980000Y-80600000D01*
X154090000Y-80540000D02*
X154090000Y-80600000D01*
X156980000Y-80600000D02*
X157420000Y-80160000D01*
X153640000Y-80090000D02*
X154090000Y-80540000D01*
X147828000Y-89340000D02*
X147828000Y-80090000D01*
X147990500Y-89502500D02*
X147828000Y-89340000D01*
X147828000Y-80090000D02*
X153640000Y-80090000D01*
X152130000Y-89502500D02*
X147990500Y-89502500D01*
%TO.N,Net-(R5-Pad2)*%
X162052000Y-90332000D02*
X162060000Y-90340000D01*
X162052000Y-88581000D02*
X162052000Y-90332000D01*
X152197500Y-86510000D02*
X152130000Y-86577500D01*
X157070000Y-86510000D02*
X152197500Y-86510000D01*
%TD*%
M02*
