G04 #@! TF.GenerationSoftware,KiCad,Pcbnew,(5.1.9)-1*
G04 #@! TF.CreationDate,2021-03-29T18:58:07+02:00*
G04 #@! TF.ProjectId,Interface_board_1,496e7465-7266-4616-9365-5f626f617264,4.h.0.01*
G04 #@! TF.SameCoordinates,Original*
G04 #@! TF.FileFunction,Legend,Top*
G04 #@! TF.FilePolarity,Positive*
%FSLAX46Y46*%
G04 Gerber Fmt 4.6, Leading zero omitted, Abs format (unit mm)*
G04 Created by KiCad (PCBNEW (5.1.9)-1) date 2021-03-29 18:58:07*
%MOMM*%
%LPD*%
G01*
G04 APERTURE LIST*
%ADD10C,0.150000*%
%ADD11C,0.120000*%
G04 APERTURE END LIST*
D10*
X194614285Y-127060000D02*
X194519047Y-127012380D01*
X194376190Y-127012380D01*
X194233333Y-127060000D01*
X194138095Y-127155238D01*
X194090476Y-127250476D01*
X194042857Y-127440952D01*
X194042857Y-127583809D01*
X194090476Y-127774285D01*
X194138095Y-127869523D01*
X194233333Y-127964761D01*
X194376190Y-128012380D01*
X194471428Y-128012380D01*
X194614285Y-127964761D01*
X194661904Y-127917142D01*
X194661904Y-127583809D01*
X194471428Y-127583809D01*
X195090476Y-128012380D02*
X195090476Y-127345714D01*
X195090476Y-127536190D02*
X195138095Y-127440952D01*
X195185714Y-127393333D01*
X195280952Y-127345714D01*
X195376190Y-127345714D01*
X196090476Y-127964761D02*
X195995238Y-128012380D01*
X195804761Y-128012380D01*
X195709523Y-127964761D01*
X195661904Y-127869523D01*
X195661904Y-127488571D01*
X195709523Y-127393333D01*
X195804761Y-127345714D01*
X195995238Y-127345714D01*
X196090476Y-127393333D01*
X196138095Y-127488571D01*
X196138095Y-127583809D01*
X195661904Y-127679047D01*
X196947619Y-127964761D02*
X196852380Y-128012380D01*
X196661904Y-128012380D01*
X196566666Y-127964761D01*
X196519047Y-127869523D01*
X196519047Y-127488571D01*
X196566666Y-127393333D01*
X196661904Y-127345714D01*
X196852380Y-127345714D01*
X196947619Y-127393333D01*
X196995238Y-127488571D01*
X196995238Y-127583809D01*
X196519047Y-127679047D01*
X197423809Y-127345714D02*
X197423809Y-128012380D01*
X197423809Y-127440952D02*
X197471428Y-127393333D01*
X197566666Y-127345714D01*
X197709523Y-127345714D01*
X197804761Y-127393333D01*
X197852380Y-127488571D01*
X197852380Y-128012380D01*
X199423809Y-127488571D02*
X199566666Y-127536190D01*
X199614285Y-127583809D01*
X199661904Y-127679047D01*
X199661904Y-127821904D01*
X199614285Y-127917142D01*
X199566666Y-127964761D01*
X199471428Y-128012380D01*
X199090476Y-128012380D01*
X199090476Y-127012380D01*
X199423809Y-127012380D01*
X199519047Y-127060000D01*
X199566666Y-127107619D01*
X199614285Y-127202857D01*
X199614285Y-127298095D01*
X199566666Y-127393333D01*
X199519047Y-127440952D01*
X199423809Y-127488571D01*
X199090476Y-127488571D01*
X200090476Y-128012380D02*
X200090476Y-127012380D01*
X200423809Y-127726666D01*
X200757142Y-127012380D01*
X200757142Y-128012380D01*
X201185714Y-127964761D02*
X201328571Y-128012380D01*
X201566666Y-128012380D01*
X201661904Y-127964761D01*
X201709523Y-127917142D01*
X201757142Y-127821904D01*
X201757142Y-127726666D01*
X201709523Y-127631428D01*
X201661904Y-127583809D01*
X201566666Y-127536190D01*
X201376190Y-127488571D01*
X201280952Y-127440952D01*
X201233333Y-127393333D01*
X201185714Y-127298095D01*
X201185714Y-127202857D01*
X201233333Y-127107619D01*
X201280952Y-127060000D01*
X201376190Y-127012380D01*
X201614285Y-127012380D01*
X201757142Y-127060000D01*
X192614285Y-129662380D02*
X192614285Y-128662380D01*
X193090476Y-128995714D02*
X193090476Y-129662380D01*
X193090476Y-129090952D02*
X193138095Y-129043333D01*
X193233333Y-128995714D01*
X193376190Y-128995714D01*
X193471428Y-129043333D01*
X193519047Y-129138571D01*
X193519047Y-129662380D01*
X194376190Y-129614761D02*
X194280952Y-129662380D01*
X194090476Y-129662380D01*
X193995238Y-129614761D01*
X193947619Y-129519523D01*
X193947619Y-129138571D01*
X193995238Y-129043333D01*
X194090476Y-128995714D01*
X194280952Y-128995714D01*
X194376190Y-129043333D01*
X194423809Y-129138571D01*
X194423809Y-129233809D01*
X193947619Y-129329047D01*
X194852380Y-129662380D02*
X194852380Y-128995714D01*
X194852380Y-129186190D02*
X194900000Y-129090952D01*
X194947619Y-129043333D01*
X195042857Y-128995714D01*
X195138095Y-128995714D01*
X195328571Y-128995714D02*
X195709523Y-128995714D01*
X195471428Y-129662380D02*
X195471428Y-128805238D01*
X195519047Y-128710000D01*
X195614285Y-128662380D01*
X195709523Y-128662380D01*
X196471428Y-129662380D02*
X196471428Y-129138571D01*
X196423809Y-129043333D01*
X196328571Y-128995714D01*
X196138095Y-128995714D01*
X196042857Y-129043333D01*
X196471428Y-129614761D02*
X196376190Y-129662380D01*
X196138095Y-129662380D01*
X196042857Y-129614761D01*
X195995238Y-129519523D01*
X195995238Y-129424285D01*
X196042857Y-129329047D01*
X196138095Y-129281428D01*
X196376190Y-129281428D01*
X196471428Y-129233809D01*
X197376190Y-129614761D02*
X197280952Y-129662380D01*
X197090476Y-129662380D01*
X196995238Y-129614761D01*
X196947619Y-129567142D01*
X196900000Y-129471904D01*
X196900000Y-129186190D01*
X196947619Y-129090952D01*
X196995238Y-129043333D01*
X197090476Y-128995714D01*
X197280952Y-128995714D01*
X197376190Y-129043333D01*
X198185714Y-129614761D02*
X198090476Y-129662380D01*
X197900000Y-129662380D01*
X197804761Y-129614761D01*
X197757142Y-129519523D01*
X197757142Y-129138571D01*
X197804761Y-129043333D01*
X197900000Y-128995714D01*
X198090476Y-128995714D01*
X198185714Y-129043333D01*
X198233333Y-129138571D01*
X198233333Y-129233809D01*
X197757142Y-129329047D01*
X199423809Y-129662380D02*
X199423809Y-128662380D01*
X199423809Y-129043333D02*
X199519047Y-128995714D01*
X199709523Y-128995714D01*
X199804761Y-129043333D01*
X199852380Y-129090952D01*
X199900000Y-129186190D01*
X199900000Y-129471904D01*
X199852380Y-129567142D01*
X199804761Y-129614761D01*
X199709523Y-129662380D01*
X199519047Y-129662380D01*
X199423809Y-129614761D01*
X200471428Y-129662380D02*
X200376190Y-129614761D01*
X200328571Y-129567142D01*
X200280952Y-129471904D01*
X200280952Y-129186190D01*
X200328571Y-129090952D01*
X200376190Y-129043333D01*
X200471428Y-128995714D01*
X200614285Y-128995714D01*
X200709523Y-129043333D01*
X200757142Y-129090952D01*
X200804761Y-129186190D01*
X200804761Y-129471904D01*
X200757142Y-129567142D01*
X200709523Y-129614761D01*
X200614285Y-129662380D01*
X200471428Y-129662380D01*
X201661904Y-129662380D02*
X201661904Y-129138571D01*
X201614285Y-129043333D01*
X201519047Y-128995714D01*
X201328571Y-128995714D01*
X201233333Y-129043333D01*
X201661904Y-129614761D02*
X201566666Y-129662380D01*
X201328571Y-129662380D01*
X201233333Y-129614761D01*
X201185714Y-129519523D01*
X201185714Y-129424285D01*
X201233333Y-129329047D01*
X201328571Y-129281428D01*
X201566666Y-129281428D01*
X201661904Y-129233809D01*
X202138095Y-129662380D02*
X202138095Y-128995714D01*
X202138095Y-129186190D02*
X202185714Y-129090952D01*
X202233333Y-129043333D01*
X202328571Y-128995714D01*
X202423809Y-128995714D01*
X203185714Y-129662380D02*
X203185714Y-128662380D01*
X203185714Y-129614761D02*
X203090476Y-129662380D01*
X202900000Y-129662380D01*
X202804761Y-129614761D01*
X202757142Y-129567142D01*
X202709523Y-129471904D01*
X202709523Y-129186190D01*
X202757142Y-129090952D01*
X202804761Y-129043333D01*
X202900000Y-128995714D01*
X203090476Y-128995714D01*
X203185714Y-129043333D01*
X193614285Y-130645714D02*
X193852380Y-131312380D01*
X194090476Y-130645714D01*
X194852380Y-131264761D02*
X194757142Y-131312380D01*
X194566666Y-131312380D01*
X194471428Y-131264761D01*
X194423809Y-131169523D01*
X194423809Y-130788571D01*
X194471428Y-130693333D01*
X194566666Y-130645714D01*
X194757142Y-130645714D01*
X194852380Y-130693333D01*
X194900000Y-130788571D01*
X194900000Y-130883809D01*
X194423809Y-130979047D01*
X195328571Y-131312380D02*
X195328571Y-130645714D01*
X195328571Y-130836190D02*
X195376190Y-130740952D01*
X195423809Y-130693333D01*
X195519047Y-130645714D01*
X195614285Y-130645714D01*
X195947619Y-131217142D02*
X195995238Y-131264761D01*
X195947619Y-131312380D01*
X195900000Y-131264761D01*
X195947619Y-131217142D01*
X195947619Y-131312380D01*
X196852380Y-130645714D02*
X196852380Y-131312380D01*
X196614285Y-130264761D02*
X196376190Y-130979047D01*
X196995238Y-130979047D01*
X197376190Y-131217142D02*
X197423809Y-131264761D01*
X197376190Y-131312380D01*
X197328571Y-131264761D01*
X197376190Y-131217142D01*
X197376190Y-131312380D01*
X197852380Y-131312380D02*
X197852380Y-130312380D01*
X198280952Y-131312380D02*
X198280952Y-130788571D01*
X198233333Y-130693333D01*
X198138095Y-130645714D01*
X197995238Y-130645714D01*
X197900000Y-130693333D01*
X197852380Y-130740952D01*
X198757142Y-131217142D02*
X198804761Y-131264761D01*
X198757142Y-131312380D01*
X198709523Y-131264761D01*
X198757142Y-131217142D01*
X198757142Y-131312380D01*
X199423809Y-130312380D02*
X199519047Y-130312380D01*
X199614285Y-130360000D01*
X199661904Y-130407619D01*
X199709523Y-130502857D01*
X199757142Y-130693333D01*
X199757142Y-130931428D01*
X199709523Y-131121904D01*
X199661904Y-131217142D01*
X199614285Y-131264761D01*
X199519047Y-131312380D01*
X199423809Y-131312380D01*
X199328571Y-131264761D01*
X199280952Y-131217142D01*
X199233333Y-131121904D01*
X199185714Y-130931428D01*
X199185714Y-130693333D01*
X199233333Y-130502857D01*
X199280952Y-130407619D01*
X199328571Y-130360000D01*
X199423809Y-130312380D01*
X200185714Y-131217142D02*
X200233333Y-131264761D01*
X200185714Y-131312380D01*
X200138095Y-131264761D01*
X200185714Y-131217142D01*
X200185714Y-131312380D01*
X200852380Y-130312380D02*
X200947619Y-130312380D01*
X201042857Y-130360000D01*
X201090476Y-130407619D01*
X201138095Y-130502857D01*
X201185714Y-130693333D01*
X201185714Y-130931428D01*
X201138095Y-131121904D01*
X201090476Y-131217142D01*
X201042857Y-131264761D01*
X200947619Y-131312380D01*
X200852380Y-131312380D01*
X200757142Y-131264761D01*
X200709523Y-131217142D01*
X200661904Y-131121904D01*
X200614285Y-130931428D01*
X200614285Y-130693333D01*
X200661904Y-130502857D01*
X200709523Y-130407619D01*
X200757142Y-130360000D01*
X200852380Y-130312380D01*
X202138095Y-131312380D02*
X201566666Y-131312380D01*
X201852380Y-131312380D02*
X201852380Y-130312380D01*
X201757142Y-130455238D01*
X201661904Y-130550476D01*
X201566666Y-130598095D01*
X149867054Y-101605601D02*
X149867054Y-99605601D01*
X149867054Y-100557982D02*
X151009911Y-100557982D01*
X151009911Y-101605601D02*
X151009911Y-99605601D01*
X153105149Y-101415125D02*
X153009911Y-101510363D01*
X152724197Y-101605601D01*
X152533720Y-101605601D01*
X152248006Y-101510363D01*
X152057530Y-101319887D01*
X151962292Y-101129411D01*
X151867054Y-100748459D01*
X151867054Y-100462744D01*
X151962292Y-100081792D01*
X152057530Y-99891316D01*
X152248006Y-99700840D01*
X152533720Y-99605601D01*
X152724197Y-99605601D01*
X153009911Y-99700840D01*
X153105149Y-99796078D01*
X153962292Y-100843697D02*
X155486101Y-100843697D01*
X156819435Y-99605601D02*
X157009911Y-99605601D01*
X157200387Y-99700840D01*
X157295625Y-99796078D01*
X157390863Y-99986554D01*
X157486101Y-100367506D01*
X157486101Y-100843697D01*
X157390863Y-101224649D01*
X157295625Y-101415125D01*
X157200387Y-101510363D01*
X157009911Y-101605601D01*
X156819435Y-101605601D01*
X156628959Y-101510363D01*
X156533720Y-101415125D01*
X156438482Y-101224649D01*
X156343244Y-100843697D01*
X156343244Y-100367506D01*
X156438482Y-99986554D01*
X156533720Y-99796078D01*
X156628959Y-99700840D01*
X156819435Y-99605601D01*
X159295625Y-99605601D02*
X158343244Y-99605601D01*
X158248006Y-100557982D01*
X158343244Y-100462744D01*
X158533720Y-100367506D01*
X159009911Y-100367506D01*
X159200387Y-100462744D01*
X159295625Y-100557982D01*
X159390863Y-100748459D01*
X159390863Y-101224649D01*
X159295625Y-101415125D01*
X159200387Y-101510363D01*
X159009911Y-101605601D01*
X158533720Y-101605601D01*
X158343244Y-101510363D01*
X158248006Y-101415125D01*
X161771816Y-101605601D02*
X161771816Y-99605601D01*
X162438482Y-101034173D01*
X163105149Y-99605601D01*
X163105149Y-101605601D01*
X164343244Y-101605601D02*
X164152768Y-101510363D01*
X164057530Y-101415125D01*
X163962292Y-101224649D01*
X163962292Y-100653220D01*
X164057530Y-100462744D01*
X164152768Y-100367506D01*
X164343244Y-100272268D01*
X164628959Y-100272268D01*
X164819435Y-100367506D01*
X164914673Y-100462744D01*
X165009911Y-100653220D01*
X165009911Y-101224649D01*
X164914673Y-101415125D01*
X164819435Y-101510363D01*
X164628959Y-101605601D01*
X164343244Y-101605601D01*
X166724197Y-101605601D02*
X166724197Y-99605601D01*
X166724197Y-101510363D02*
X166533720Y-101605601D01*
X166152768Y-101605601D01*
X165962292Y-101510363D01*
X165867054Y-101415125D01*
X165771816Y-101224649D01*
X165771816Y-100653220D01*
X165867054Y-100462744D01*
X165962292Y-100367506D01*
X166152768Y-100272268D01*
X166533720Y-100272268D01*
X166724197Y-100367506D01*
X168533720Y-100272268D02*
X168533720Y-101605601D01*
X167676578Y-100272268D02*
X167676578Y-101319887D01*
X167771816Y-101510363D01*
X167962292Y-101605601D01*
X168248006Y-101605601D01*
X168438482Y-101510363D01*
X168533720Y-101415125D01*
X169771816Y-101605601D02*
X169581340Y-101510363D01*
X169486101Y-101319887D01*
X169486101Y-99605601D01*
X171295625Y-101510363D02*
X171105149Y-101605601D01*
X170724197Y-101605601D01*
X170533720Y-101510363D01*
X170438482Y-101319887D01*
X170438482Y-100557982D01*
X170533720Y-100367506D01*
X170724197Y-100272268D01*
X171105149Y-100272268D01*
X171295625Y-100367506D01*
X171390863Y-100557982D01*
X171390863Y-100748459D01*
X170438482Y-100938935D01*
X138536680Y-89816940D02*
X138572240Y-89816940D01*
X138572240Y-89809320D02*
X138536680Y-89816940D01*
X140710920Y-111968280D02*
X140746480Y-89847420D01*
X185755280Y-111947960D02*
X140779500Y-111947960D01*
X185760360Y-90035380D02*
X185823860Y-112110520D01*
X140868400Y-89870280D02*
X185745120Y-89905840D01*
X176146199Y-84857554D02*
X176146199Y-84286125D01*
X176146199Y-84571840D02*
X177146199Y-84571840D01*
X177003341Y-84476601D01*
X176908103Y-84381363D01*
X176860484Y-84286125D01*
D11*
X147368940Y-115732476D02*
X147368940Y-116936604D01*
X145548940Y-115732476D02*
X145548940Y-116936604D01*
X145349340Y-122275800D02*
X145349340Y-126160800D01*
X145349340Y-126160800D02*
X147619340Y-126160800D01*
X147619340Y-126160800D02*
X147619340Y-122275800D01*
X103959020Y-107559160D02*
X94539020Y-107559160D01*
X94539020Y-107559160D02*
X94539020Y-130179160D01*
X94539020Y-130179160D02*
X103959020Y-130179160D01*
X103959020Y-107559160D02*
X103959020Y-109069160D01*
X103959020Y-130179160D02*
X103959020Y-128669160D01*
X103959020Y-111169160D02*
X103959020Y-112569160D01*
X103959020Y-114669160D02*
X103959020Y-116069160D01*
X103959020Y-118169160D02*
X103959020Y-119569160D01*
X103959020Y-121669160D02*
X103959020Y-123069160D01*
X103959020Y-125169160D02*
X103959020Y-126569160D01*
X97849020Y-107559160D02*
X97849020Y-130179160D01*
X105249020Y-110419160D02*
X104649020Y-110119160D01*
X104649020Y-110119160D02*
X105249020Y-109819160D01*
X105249020Y-109819160D02*
X105249020Y-110419160D01*
X103966640Y-83741580D02*
X94546640Y-83741580D01*
X94546640Y-83741580D02*
X94546640Y-106361580D01*
X94546640Y-106361580D02*
X103966640Y-106361580D01*
X103966640Y-83741580D02*
X103966640Y-85251580D01*
X103966640Y-106361580D02*
X103966640Y-104851580D01*
X103966640Y-87351580D02*
X103966640Y-88751580D01*
X103966640Y-90851580D02*
X103966640Y-92251580D01*
X103966640Y-94351580D02*
X103966640Y-95751580D01*
X103966640Y-97851580D02*
X103966640Y-99251580D01*
X103966640Y-101351580D02*
X103966640Y-102751580D01*
X97856640Y-83741580D02*
X97856640Y-106361580D01*
X105256640Y-86601580D02*
X104656640Y-86301580D01*
X104656640Y-86301580D02*
X105256640Y-86001580D01*
X105256640Y-86001580D02*
X105256640Y-86601580D01*
X154515280Y-114467520D02*
X154515280Y-115397520D01*
X154515280Y-117627520D02*
X154515280Y-116697520D01*
X154515280Y-117627520D02*
X156675280Y-117627520D01*
X154515280Y-114467520D02*
X155975280Y-114467520D01*
X175574840Y-124343700D02*
X176504840Y-124343700D01*
X178734840Y-124343700D02*
X177804840Y-124343700D01*
X178734840Y-124343700D02*
X178734840Y-122183700D01*
X175574840Y-124343700D02*
X175574840Y-122883700D01*
X196471540Y-93221500D02*
X197581540Y-93221500D01*
X197581540Y-93221500D02*
X197581540Y-94551500D01*
X186381540Y-93221500D02*
X186381540Y-108581500D01*
X186381540Y-108581500D02*
X195011540Y-108581500D01*
X195011540Y-93221500D02*
X195011540Y-108581500D01*
X186381540Y-93221500D02*
X195011540Y-93221500D01*
X186381540Y-105981500D02*
X195011540Y-105981500D01*
X186381540Y-103441500D02*
X195011540Y-103441500D01*
X186381540Y-100901500D02*
X195011540Y-100901500D01*
X186381540Y-98361500D02*
X195011540Y-98361500D01*
X186381540Y-95821500D02*
X195011540Y-95821500D01*
X195011540Y-107611500D02*
X195421540Y-107611500D01*
X195011540Y-106891500D02*
X195421540Y-106891500D01*
X195011540Y-105071500D02*
X195421540Y-105071500D01*
X195011540Y-104351500D02*
X195421540Y-104351500D01*
X195011540Y-102531500D02*
X195421540Y-102531500D01*
X195011540Y-101811500D02*
X195421540Y-101811500D01*
X195011540Y-99991500D02*
X195421540Y-99991500D01*
X195011540Y-99271500D02*
X195421540Y-99271500D01*
X195011540Y-97451500D02*
X195421540Y-97451500D01*
X195011540Y-96731500D02*
X195421540Y-96731500D01*
X195011540Y-94911500D02*
X195361540Y-94911500D01*
X195011540Y-94191500D02*
X195361540Y-94191500D01*
X186381540Y-95703400D02*
X195011540Y-95703400D01*
X186381540Y-95585305D02*
X195011540Y-95585305D01*
X186381540Y-95467210D02*
X195011540Y-95467210D01*
X186381540Y-95349115D02*
X195011540Y-95349115D01*
X186381540Y-95231020D02*
X195011540Y-95231020D01*
X186381540Y-95112925D02*
X195011540Y-95112925D01*
X186381540Y-94994830D02*
X195011540Y-94994830D01*
X186381540Y-94876735D02*
X195011540Y-94876735D01*
X186381540Y-94758640D02*
X195011540Y-94758640D01*
X186381540Y-94640545D02*
X195011540Y-94640545D01*
X186381540Y-94522450D02*
X195011540Y-94522450D01*
X186381540Y-94404355D02*
X195011540Y-94404355D01*
X186381540Y-94286260D02*
X195011540Y-94286260D01*
X186381540Y-94168165D02*
X195011540Y-94168165D01*
X186381540Y-94050070D02*
X195011540Y-94050070D01*
X186381540Y-93931975D02*
X195011540Y-93931975D01*
X186381540Y-93813880D02*
X195011540Y-93813880D01*
X186381540Y-93695785D02*
X195011540Y-93695785D01*
X186381540Y-93577690D02*
X195011540Y-93577690D01*
X186381540Y-93459595D02*
X195011540Y-93459595D01*
X186381540Y-93341500D02*
X195011540Y-93341500D01*
X135841740Y-105654160D02*
X139291740Y-105654160D01*
X135841740Y-105654160D02*
X133891740Y-105654160D01*
X135841740Y-95534160D02*
X137791740Y-95534160D01*
X135841740Y-95534160D02*
X133891740Y-95534160D01*
X161536380Y-118305900D02*
X158086380Y-118305900D01*
X161536380Y-118305900D02*
X163486380Y-118305900D01*
X161536380Y-123425900D02*
X159586380Y-123425900D01*
X161536380Y-123425900D02*
X163486380Y-123425900D01*
X184743580Y-121167200D02*
X186393580Y-121167200D01*
X184743580Y-113427200D02*
X184743580Y-121167200D01*
X190043580Y-113427200D02*
X184743580Y-113427200D01*
X190043580Y-121167200D02*
X190043580Y-113427200D01*
X188393580Y-121167200D02*
X190043580Y-121167200D01*
X186393580Y-121167200D02*
G75*
G02*
X188393580Y-121167200I1000000J0D01*
G01*
X161810000Y-88450000D02*
X161810000Y-88150000D01*
X165950000Y-85310000D02*
X165950000Y-85610000D01*
X165950000Y-88150000D02*
X165950000Y-88450000D01*
X161810000Y-85310000D02*
X165950000Y-85310000D01*
X161810000Y-85610000D02*
X161810000Y-85310000D01*
X165950000Y-88450000D02*
X161810000Y-88450000D01*
X202400000Y-122892064D02*
X202400000Y-121687936D01*
X200580000Y-122892064D02*
X200580000Y-121687936D01*
X153536060Y-124477864D02*
X153536060Y-123273736D01*
X151716060Y-124477864D02*
X151716060Y-123273736D01*
X195754360Y-121670996D02*
X195754360Y-122875124D01*
X197574360Y-121670996D02*
X197574360Y-122875124D01*
X169669376Y-125222680D02*
X170873504Y-125222680D01*
X169669376Y-123402680D02*
X170873504Y-123402680D01*
X160814936Y-127435020D02*
X162019064Y-127435020D01*
X160814936Y-125615020D02*
X162019064Y-125615020D01*
X195510520Y-114665676D02*
X195510520Y-115869804D01*
X197330520Y-114665676D02*
X197330520Y-115869804D01*
X188711216Y-124637820D02*
X189915344Y-124637820D01*
X188711216Y-122817820D02*
X189915344Y-122817820D01*
X184408624Y-122777180D02*
X183204496Y-122777180D01*
X184408624Y-124597180D02*
X183204496Y-124597180D01*
X128102064Y-96090000D02*
X126897936Y-96090000D01*
X128102064Y-97910000D02*
X126897936Y-97910000D01*
X116102064Y-96090000D02*
X114897936Y-96090000D01*
X116102064Y-97910000D02*
X114897936Y-97910000D01*
X128102064Y-110090000D02*
X126897936Y-110090000D01*
X128102064Y-111910000D02*
X126897936Y-111910000D01*
X116102064Y-110090000D02*
X114897936Y-110090000D01*
X116102064Y-111910000D02*
X114897936Y-111910000D01*
X128102064Y-124090000D02*
X126897936Y-124090000D01*
X128102064Y-125910000D02*
X126897936Y-125910000D01*
X116102064Y-124090000D02*
X114897936Y-124090000D01*
X116102064Y-125910000D02*
X114897936Y-125910000D01*
X128300000Y-95090000D02*
X121640000Y-95100000D01*
X121640000Y-95100000D02*
X121640000Y-94600000D01*
X121640000Y-93000000D02*
X121640000Y-91600000D01*
X121640000Y-90000000D02*
X121640000Y-89200000D01*
X121640000Y-87600000D02*
X121640000Y-87000000D01*
X121640000Y-85400000D02*
X121640000Y-84900000D01*
X121640000Y-84900000D02*
X128340000Y-84900000D01*
X128340000Y-84900000D02*
X128340000Y-85400000D01*
X128340000Y-87000000D02*
X128340000Y-87600000D01*
X128340000Y-89200000D02*
X128340000Y-90000000D01*
X128300000Y-91690000D02*
X128300000Y-93090000D01*
X128300000Y-95090000D02*
X128300000Y-94590000D01*
X128300000Y-94590000D02*
X128900000Y-94590000D01*
X128300000Y-93090000D02*
X128900000Y-93090000D01*
X116300000Y-95090000D02*
X109640000Y-95100000D01*
X109640000Y-95100000D02*
X109640000Y-94600000D01*
X109640000Y-93000000D02*
X109640000Y-91600000D01*
X109640000Y-90000000D02*
X109640000Y-89200000D01*
X109640000Y-87600000D02*
X109640000Y-87000000D01*
X109640000Y-85400000D02*
X109640000Y-84900000D01*
X109640000Y-84900000D02*
X116340000Y-84900000D01*
X116340000Y-84900000D02*
X116340000Y-85400000D01*
X116340000Y-87000000D02*
X116340000Y-87600000D01*
X116340000Y-89200000D02*
X116340000Y-90000000D01*
X116300000Y-91690000D02*
X116300000Y-93090000D01*
X116300000Y-95090000D02*
X116300000Y-94590000D01*
X116300000Y-94590000D02*
X116900000Y-94590000D01*
X116300000Y-93090000D02*
X116900000Y-93090000D01*
X128300000Y-109090000D02*
X121640000Y-109100000D01*
X121640000Y-109100000D02*
X121640000Y-108600000D01*
X121640000Y-107000000D02*
X121640000Y-105600000D01*
X121640000Y-104000000D02*
X121640000Y-103200000D01*
X121640000Y-101600000D02*
X121640000Y-101000000D01*
X121640000Y-99400000D02*
X121640000Y-98900000D01*
X121640000Y-98900000D02*
X128340000Y-98900000D01*
X128340000Y-98900000D02*
X128340000Y-99400000D01*
X128340000Y-101000000D02*
X128340000Y-101600000D01*
X128340000Y-103200000D02*
X128340000Y-104000000D01*
X128300000Y-105690000D02*
X128300000Y-107090000D01*
X128300000Y-109090000D02*
X128300000Y-108590000D01*
X128300000Y-108590000D02*
X128900000Y-108590000D01*
X128300000Y-107090000D02*
X128900000Y-107090000D01*
X116300000Y-109090000D02*
X109640000Y-109100000D01*
X109640000Y-109100000D02*
X109640000Y-108600000D01*
X109640000Y-107000000D02*
X109640000Y-105600000D01*
X109640000Y-104000000D02*
X109640000Y-103200000D01*
X109640000Y-101600000D02*
X109640000Y-101000000D01*
X109640000Y-99400000D02*
X109640000Y-98900000D01*
X109640000Y-98900000D02*
X116340000Y-98900000D01*
X116340000Y-98900000D02*
X116340000Y-99400000D01*
X116340000Y-101000000D02*
X116340000Y-101600000D01*
X116340000Y-103200000D02*
X116340000Y-104000000D01*
X116300000Y-105690000D02*
X116300000Y-107090000D01*
X116300000Y-109090000D02*
X116300000Y-108590000D01*
X116300000Y-108590000D02*
X116900000Y-108590000D01*
X116300000Y-107090000D02*
X116900000Y-107090000D01*
X128300000Y-123090000D02*
X121640000Y-123100000D01*
X121640000Y-123100000D02*
X121640000Y-122600000D01*
X121640000Y-121000000D02*
X121640000Y-119600000D01*
X121640000Y-118000000D02*
X121640000Y-117200000D01*
X121640000Y-115600000D02*
X121640000Y-115000000D01*
X121640000Y-113400000D02*
X121640000Y-112900000D01*
X121640000Y-112900000D02*
X128340000Y-112900000D01*
X128340000Y-112900000D02*
X128340000Y-113400000D01*
X128340000Y-115000000D02*
X128340000Y-115600000D01*
X128340000Y-117200000D02*
X128340000Y-118000000D01*
X128300000Y-119690000D02*
X128300000Y-121090000D01*
X128300000Y-123090000D02*
X128300000Y-122590000D01*
X128300000Y-122590000D02*
X128900000Y-122590000D01*
X128300000Y-121090000D02*
X128900000Y-121090000D01*
X116300000Y-123090000D02*
X109640000Y-123100000D01*
X109640000Y-123100000D02*
X109640000Y-122600000D01*
X109640000Y-121000000D02*
X109640000Y-119600000D01*
X109640000Y-118000000D02*
X109640000Y-117200000D01*
X109640000Y-115600000D02*
X109640000Y-115000000D01*
X109640000Y-113400000D02*
X109640000Y-112900000D01*
X109640000Y-112900000D02*
X116340000Y-112900000D01*
X116340000Y-112900000D02*
X116340000Y-113400000D01*
X116340000Y-115000000D02*
X116340000Y-115600000D01*
X116340000Y-117200000D02*
X116340000Y-118000000D01*
X116300000Y-119690000D02*
X116300000Y-121090000D01*
X116300000Y-123090000D02*
X116300000Y-122590000D01*
X116300000Y-122590000D02*
X116900000Y-122590000D01*
X116300000Y-121090000D02*
X116900000Y-121090000D01*
X142267780Y-119722360D02*
X142277780Y-126382360D01*
X142277780Y-126382360D02*
X141777780Y-126382360D01*
X140177780Y-126382360D02*
X138777780Y-126382360D01*
X137177780Y-126382360D02*
X136377780Y-126382360D01*
X134777780Y-126382360D02*
X134177780Y-126382360D01*
X132577780Y-126382360D02*
X132077780Y-126382360D01*
X132077780Y-126382360D02*
X132077780Y-119682360D01*
X132077780Y-119682360D02*
X132577780Y-119682360D01*
X134177780Y-119682360D02*
X134777780Y-119682360D01*
X136377780Y-119682360D02*
X137177780Y-119682360D01*
X138867780Y-119722360D02*
X140267780Y-119722360D01*
X142267780Y-119722360D02*
X141767780Y-119722360D01*
X141767780Y-119722360D02*
X141767780Y-119122360D01*
X140267780Y-119722360D02*
X140267780Y-119122360D01*
X202786280Y-109551680D02*
X201571280Y-109551680D01*
X206746280Y-109491680D02*
X209006280Y-109491680D01*
X206746280Y-108991680D02*
X209006280Y-108991680D01*
X205146280Y-104391680D02*
X205146280Y-103391680D01*
X206746280Y-104391680D02*
X205146280Y-104391680D01*
X206746280Y-103391680D02*
X206746280Y-104391680D01*
X205146280Y-103391680D02*
X206746280Y-103391680D01*
X205146280Y-108991680D02*
X205146280Y-109991680D01*
X206746280Y-108991680D02*
X205146280Y-108991680D01*
X206746280Y-109991680D02*
X206746280Y-108991680D01*
X205146280Y-109991680D02*
X206746280Y-109991680D01*
X202786280Y-102631680D02*
X202786280Y-103551680D01*
X202786280Y-110751680D02*
X202786280Y-109831680D01*
X204646280Y-105191680D02*
X209006280Y-105191680D01*
X204646280Y-108191680D02*
X204646280Y-105191680D01*
X209006280Y-108191680D02*
X204646280Y-108191680D01*
X202786280Y-103551680D02*
X202786280Y-103831680D01*
X201186280Y-103551680D02*
X202786280Y-103551680D01*
X201186280Y-102631680D02*
X201186280Y-103551680D01*
X209006280Y-102631680D02*
X201186280Y-102631680D01*
X209006280Y-110751680D02*
X209006280Y-102631680D01*
X201186280Y-110751680D02*
X209006280Y-110751680D01*
X201186280Y-109831680D02*
X201186280Y-110751680D01*
X202786280Y-109831680D02*
X201186280Y-109831680D01*
X202786280Y-109551680D02*
X202786280Y-109831680D01*
X202717700Y-99909840D02*
X201502700Y-99909840D01*
X206677700Y-99849840D02*
X208937700Y-99849840D01*
X206677700Y-99349840D02*
X208937700Y-99349840D01*
X205077700Y-94749840D02*
X205077700Y-93749840D01*
X206677700Y-94749840D02*
X205077700Y-94749840D01*
X206677700Y-93749840D02*
X206677700Y-94749840D01*
X205077700Y-93749840D02*
X206677700Y-93749840D01*
X205077700Y-99349840D02*
X205077700Y-100349840D01*
X206677700Y-99349840D02*
X205077700Y-99349840D01*
X206677700Y-100349840D02*
X206677700Y-99349840D01*
X205077700Y-100349840D02*
X206677700Y-100349840D01*
X202717700Y-92989840D02*
X202717700Y-93909840D01*
X202717700Y-101109840D02*
X202717700Y-100189840D01*
X204577700Y-95549840D02*
X208937700Y-95549840D01*
X204577700Y-98549840D02*
X204577700Y-95549840D01*
X208937700Y-98549840D02*
X204577700Y-98549840D01*
X202717700Y-93909840D02*
X202717700Y-94189840D01*
X201117700Y-93909840D02*
X202717700Y-93909840D01*
X201117700Y-92989840D02*
X201117700Y-93909840D01*
X208937700Y-92989840D02*
X201117700Y-92989840D01*
X208937700Y-101109840D02*
X208937700Y-92989840D01*
X201117700Y-101109840D02*
X208937700Y-101109840D01*
X201117700Y-100189840D02*
X201117700Y-101109840D01*
X202717700Y-100189840D02*
X201117700Y-100189840D01*
X202717700Y-99909840D02*
X202717700Y-100189840D01*
X202727860Y-89653320D02*
X201512860Y-89653320D01*
X206687860Y-89593320D02*
X208947860Y-89593320D01*
X206687860Y-89093320D02*
X208947860Y-89093320D01*
X205087860Y-82493320D02*
X205087860Y-81493320D01*
X206687860Y-82493320D02*
X205087860Y-82493320D01*
X206687860Y-81493320D02*
X206687860Y-82493320D01*
X205087860Y-81493320D02*
X206687860Y-81493320D01*
X205087860Y-89093320D02*
X205087860Y-90093320D01*
X206687860Y-89093320D02*
X205087860Y-89093320D01*
X206687860Y-90093320D02*
X206687860Y-89093320D01*
X205087860Y-90093320D02*
X206687860Y-90093320D01*
X202727860Y-80733320D02*
X202727860Y-81653320D01*
X202727860Y-90853320D02*
X202727860Y-89933320D01*
X204587860Y-83293320D02*
X208947860Y-83293320D01*
X204587860Y-88293320D02*
X204587860Y-83293320D01*
X208947860Y-88293320D02*
X204587860Y-88293320D01*
X202727860Y-81653320D02*
X202727860Y-81933320D01*
X201127860Y-81653320D02*
X202727860Y-81653320D01*
X201127860Y-80733320D02*
X201127860Y-81653320D01*
X208947860Y-80733320D02*
X201127860Y-80733320D01*
X208947860Y-90853320D02*
X208947860Y-80733320D01*
X201127860Y-90853320D02*
X208947860Y-90853320D01*
X201127860Y-89933320D02*
X201127860Y-90853320D01*
X202727860Y-89933320D02*
X201127860Y-89933320D01*
X202727860Y-89653320D02*
X202727860Y-89933320D01*
X180670480Y-113380920D02*
X176785480Y-113380920D01*
X180670480Y-115650920D02*
X180670480Y-113380920D01*
X176785480Y-115650920D02*
X180670480Y-115650920D01*
X200390040Y-112982740D02*
X200390040Y-116867740D01*
X202660040Y-112982740D02*
X200390040Y-112982740D01*
X202660040Y-116867740D02*
X202660040Y-112982740D01*
X149268560Y-114118120D02*
X149268560Y-118003120D01*
X151538560Y-114118120D02*
X149268560Y-114118120D01*
X151538560Y-118003120D02*
X151538560Y-114118120D01*
X120215000Y-98135000D02*
X124100000Y-98135000D01*
X120215000Y-95865000D02*
X120215000Y-98135000D01*
X124100000Y-95865000D02*
X120215000Y-95865000D01*
X108215000Y-98135000D02*
X112100000Y-98135000D01*
X108215000Y-95865000D02*
X108215000Y-98135000D01*
X112100000Y-95865000D02*
X108215000Y-95865000D01*
X120215000Y-112135000D02*
X124100000Y-112135000D01*
X120215000Y-109865000D02*
X120215000Y-112135000D01*
X124100000Y-109865000D02*
X120215000Y-109865000D01*
X108215000Y-112135000D02*
X112100000Y-112135000D01*
X108215000Y-109865000D02*
X108215000Y-112135000D01*
X112100000Y-109865000D02*
X108215000Y-109865000D01*
X120215000Y-126135000D02*
X124100000Y-126135000D01*
X120215000Y-123865000D02*
X120215000Y-126135000D01*
X124100000Y-123865000D02*
X120215000Y-123865000D01*
X108215000Y-126135000D02*
X112100000Y-126135000D01*
X108215000Y-123865000D02*
X108215000Y-126135000D01*
X112100000Y-123865000D02*
X108215000Y-123865000D01*
X162318784Y-114535540D02*
X161114656Y-114535540D01*
X162318784Y-116355540D02*
X161114656Y-116355540D01*
X167964150Y-121777830D02*
X168751650Y-121777830D01*
X168357900Y-122171580D02*
X168357900Y-121384080D01*
X172550963Y-121144080D02*
X173615400Y-120079643D01*
X167859837Y-121144080D02*
X166795400Y-120079643D01*
X167859837Y-121144080D02*
X169145400Y-121144080D01*
X172550963Y-121144080D02*
X171265400Y-121144080D01*
X173615400Y-120079643D02*
X173615400Y-114324080D01*
X166795400Y-120079643D02*
X166795400Y-114324080D01*
X166795400Y-114324080D02*
X169145400Y-114324080D01*
X173615400Y-114324080D02*
X171265400Y-114324080D01*
X178987544Y-119434040D02*
X177783416Y-119434040D01*
X178987544Y-117614040D02*
X177783416Y-117614040D01*
X146357936Y-87720000D02*
X147562064Y-87720000D01*
X146357936Y-85900000D02*
X147562064Y-85900000D01*
X153992064Y-85980000D02*
X152787936Y-85980000D01*
X153992064Y-87800000D02*
X152787936Y-87800000D01*
X180379320Y-82373420D02*
X180379320Y-84723420D01*
X180379320Y-89193420D02*
X180379320Y-86843420D01*
X186134883Y-89193420D02*
X180379320Y-89193420D01*
X186134883Y-82373420D02*
X180379320Y-82373420D01*
X187199320Y-83437857D02*
X187199320Y-84723420D01*
X187199320Y-88128983D02*
X187199320Y-86843420D01*
X187199320Y-88128983D02*
X186134883Y-89193420D01*
X187199320Y-83437857D02*
X186134883Y-82373420D01*
X188226820Y-87630920D02*
X187439320Y-87630920D01*
X187833070Y-88024670D02*
X187833070Y-87237170D01*
X176080000Y-85320000D02*
X176080000Y-85620000D01*
X171940000Y-88460000D02*
X171940000Y-88160000D01*
X171940000Y-85620000D02*
X171940000Y-85320000D01*
X176080000Y-88460000D02*
X171940000Y-88460000D01*
X176080000Y-88160000D02*
X176080000Y-88460000D01*
X171940000Y-85320000D02*
X176080000Y-85320000D01*
D10*
X178148580Y-83581840D02*
X178148580Y-80481840D01*
X176598580Y-83581840D02*
X178148580Y-83581840D01*
X175328580Y-80761840D02*
X175328580Y-83301840D01*
X178148580Y-80481840D02*
X176598580Y-80481840D01*
X157548580Y-83301840D02*
X175328580Y-83301840D01*
X157548580Y-80761840D02*
X157548580Y-83301840D01*
X175328580Y-80761840D02*
X157548580Y-80761840D01*
X155288580Y-83581840D02*
X155288580Y-80481840D01*
X153738580Y-83581840D02*
X155288580Y-83581840D01*
X152468580Y-80761840D02*
X152468580Y-83301840D01*
X155288580Y-80481840D02*
X153738580Y-80481840D01*
X134688580Y-83301840D02*
X152468580Y-83301840D01*
X134688580Y-80761840D02*
X134688580Y-83301840D01*
X152468580Y-80761840D02*
X134688580Y-80761840D01*
X132428580Y-83581840D02*
X132428580Y-80481840D01*
X130878580Y-83581840D02*
X132428580Y-83581840D01*
X129608580Y-80761840D02*
X129608580Y-83301840D01*
X132428580Y-80481840D02*
X130878580Y-80481840D01*
X111828580Y-83301840D02*
X129608580Y-83301840D01*
X111828580Y-80761840D02*
X111828580Y-83301840D01*
X129608580Y-80761840D02*
X111828580Y-80761840D01*
X187292580Y-131841840D02*
X187292580Y-128741840D01*
X185742580Y-131841840D02*
X187292580Y-131841840D01*
X184472580Y-129021840D02*
X184472580Y-131561840D01*
X187292580Y-128741840D02*
X185742580Y-128741840D01*
X161612580Y-131561840D02*
X184472580Y-131561840D01*
X161612580Y-129021840D02*
X161612580Y-131561840D01*
X184472580Y-129021840D02*
X161612580Y-129021840D01*
X160368580Y-131841840D02*
X160368580Y-128741840D01*
X158818580Y-131841840D02*
X160368580Y-131841840D01*
X157548580Y-129021840D02*
X157548580Y-131561840D01*
X160368580Y-128741840D02*
X158818580Y-128741840D01*
X139768580Y-131561840D02*
X157548580Y-131561840D01*
X139768580Y-129021840D02*
X139768580Y-131561840D01*
X157548580Y-129021840D02*
X139768580Y-129021840D01*
X137508580Y-131841840D02*
X137508580Y-128741840D01*
X135958580Y-131841840D02*
X137508580Y-131841840D01*
X134688580Y-129021840D02*
X134688580Y-131561840D01*
X137508580Y-128741840D02*
X135958580Y-128741840D01*
X116908580Y-131561840D02*
X134688580Y-131561840D01*
X116908580Y-129021840D02*
X116908580Y-131561840D01*
X134688580Y-129021840D02*
X116908580Y-129021840D01*
X192854580Y-82031840D02*
G75*
G03*
X192854580Y-82031840I-2286000J0D01*
G01*
X140784580Y-87111840D02*
G75*
G03*
X140784580Y-87111840I-2286000J0D01*
G01*
X110304580Y-82031840D02*
G75*
G03*
X110304580Y-82031840I-2286000J0D01*
G01*
X191584580Y-130291840D02*
G75*
G03*
X191584580Y-130291840I-2286000J0D01*
G01*
X140784580Y-115051840D02*
G75*
G03*
X140784580Y-115051840I-2286000J0D01*
G01*
X116654580Y-130291840D02*
G75*
G03*
X116654580Y-130291840I-2286000J0D01*
G01*
X144862380Y-116501206D02*
X144386190Y-116834540D01*
X144862380Y-117072635D02*
X143862380Y-117072635D01*
X143862380Y-116691682D01*
X143910000Y-116596444D01*
X143957619Y-116548825D01*
X144052857Y-116501206D01*
X144195714Y-116501206D01*
X144290952Y-116548825D01*
X144338571Y-116596444D01*
X144386190Y-116691682D01*
X144386190Y-117072635D01*
X143862380Y-115882159D02*
X143862380Y-115786920D01*
X143910000Y-115691682D01*
X143957619Y-115644063D01*
X144052857Y-115596444D01*
X144243333Y-115548825D01*
X144481428Y-115548825D01*
X144671904Y-115596444D01*
X144767142Y-115644063D01*
X144814761Y-115691682D01*
X144862380Y-115786920D01*
X144862380Y-115882159D01*
X144814761Y-115977397D01*
X144767142Y-116025016D01*
X144671904Y-116072635D01*
X144481428Y-116120254D01*
X144243333Y-116120254D01*
X144052857Y-116072635D01*
X143957619Y-116025016D01*
X143910000Y-115977397D01*
X143862380Y-115882159D01*
X145116720Y-124613895D02*
X144116720Y-124613895D01*
X144116720Y-124375800D01*
X144164340Y-124232942D01*
X144259578Y-124137704D01*
X144354816Y-124090085D01*
X144545292Y-124042466D01*
X144688149Y-124042466D01*
X144878625Y-124090085D01*
X144973863Y-124137704D01*
X145069101Y-124232942D01*
X145116720Y-124375800D01*
X145116720Y-124613895D01*
X144116720Y-123423419D02*
X144116720Y-123328180D01*
X144164340Y-123232942D01*
X144211959Y-123185323D01*
X144307197Y-123137704D01*
X144497673Y-123090085D01*
X144735768Y-123090085D01*
X144926244Y-123137704D01*
X145021482Y-123185323D01*
X145069101Y-123232942D01*
X145116720Y-123328180D01*
X145116720Y-123423419D01*
X145069101Y-123518657D01*
X145021482Y-123566276D01*
X144926244Y-123613895D01*
X144735768Y-123661514D01*
X144497673Y-123661514D01*
X144307197Y-123613895D01*
X144211959Y-123566276D01*
X144164340Y-123518657D01*
X144116720Y-123423419D01*
X102042380Y-132073333D02*
X102756666Y-132073333D01*
X102899523Y-132120952D01*
X102994761Y-132216190D01*
X103042380Y-132359047D01*
X103042380Y-132454285D01*
X102042380Y-131168571D02*
X102042380Y-131359047D01*
X102090000Y-131454285D01*
X102137619Y-131501904D01*
X102280476Y-131597142D01*
X102470952Y-131644761D01*
X102851904Y-131644761D01*
X102947142Y-131597142D01*
X102994761Y-131549523D01*
X103042380Y-131454285D01*
X103042380Y-131263809D01*
X102994761Y-131168571D01*
X102947142Y-131120952D01*
X102851904Y-131073333D01*
X102613809Y-131073333D01*
X102518571Y-131120952D01*
X102470952Y-131168571D01*
X102423333Y-131263809D01*
X102423333Y-131454285D01*
X102470952Y-131549523D01*
X102518571Y-131597142D01*
X102613809Y-131644761D01*
X101912380Y-82463333D02*
X102626666Y-82463333D01*
X102769523Y-82510952D01*
X102864761Y-82606190D01*
X102912380Y-82749047D01*
X102912380Y-82844285D01*
X101912380Y-81510952D02*
X101912380Y-81987142D01*
X102388571Y-82034761D01*
X102340952Y-81987142D01*
X102293333Y-81891904D01*
X102293333Y-81653809D01*
X102340952Y-81558571D01*
X102388571Y-81510952D01*
X102483809Y-81463333D01*
X102721904Y-81463333D01*
X102817142Y-81510952D01*
X102864761Y-81558571D01*
X102912380Y-81653809D01*
X102912380Y-81891904D01*
X102864761Y-81987142D01*
X102817142Y-82034761D01*
X155180041Y-119095139D02*
X155084803Y-119047520D01*
X154989565Y-118952281D01*
X154846708Y-118809424D01*
X154751470Y-118761805D01*
X154656232Y-118761805D01*
X154703851Y-118999900D02*
X154608613Y-118952281D01*
X154513375Y-118857043D01*
X154465756Y-118666567D01*
X154465756Y-118333234D01*
X154513375Y-118142758D01*
X154608613Y-118047520D01*
X154703851Y-117999900D01*
X154894327Y-117999900D01*
X154989565Y-118047520D01*
X155084803Y-118142758D01*
X155132422Y-118333234D01*
X155132422Y-118666567D01*
X155084803Y-118857043D01*
X154989565Y-118952281D01*
X154894327Y-118999900D01*
X154703851Y-118999900D01*
X155513375Y-118095139D02*
X155560994Y-118047520D01*
X155656232Y-117999900D01*
X155894327Y-117999900D01*
X155989565Y-118047520D01*
X156037184Y-118095139D01*
X156084803Y-118190377D01*
X156084803Y-118285615D01*
X156037184Y-118428472D01*
X155465756Y-118999900D01*
X156084803Y-118999900D01*
X175067619Y-123695238D02*
X175020000Y-123790476D01*
X174924761Y-123885714D01*
X174781904Y-124028571D01*
X174734285Y-124123809D01*
X174734285Y-124219047D01*
X174972380Y-124171428D02*
X174924761Y-124266666D01*
X174829523Y-124361904D01*
X174639047Y-124409523D01*
X174305714Y-124409523D01*
X174115238Y-124361904D01*
X174020000Y-124266666D01*
X173972380Y-124171428D01*
X173972380Y-123980952D01*
X174020000Y-123885714D01*
X174115238Y-123790476D01*
X174305714Y-123742857D01*
X174639047Y-123742857D01*
X174829523Y-123790476D01*
X174924761Y-123885714D01*
X174972380Y-123980952D01*
X174972380Y-124171428D01*
X174972380Y-122790476D02*
X174972380Y-123361904D01*
X174972380Y-123076190D02*
X173972380Y-123076190D01*
X174115238Y-123171428D01*
X174210476Y-123266666D01*
X174258095Y-123361904D01*
X191758206Y-91233880D02*
X191758206Y-91948166D01*
X191710587Y-92091023D01*
X191615349Y-92186261D01*
X191472492Y-92233880D01*
X191377254Y-92233880D01*
X192662968Y-91567214D02*
X192662968Y-92233880D01*
X192424873Y-91186261D02*
X192186778Y-91900547D01*
X192805825Y-91900547D01*
X135079835Y-105946540D02*
X135079835Y-106756064D01*
X135127454Y-106851302D01*
X135175073Y-106898921D01*
X135270311Y-106946540D01*
X135460787Y-106946540D01*
X135556025Y-106898921D01*
X135603644Y-106851302D01*
X135651263Y-106756064D01*
X135651263Y-105946540D01*
X136032216Y-105946540D02*
X136651263Y-105946540D01*
X136317930Y-106327493D01*
X136460787Y-106327493D01*
X136556025Y-106375112D01*
X136603644Y-106422731D01*
X136651263Y-106517969D01*
X136651263Y-106756064D01*
X136603644Y-106851302D01*
X136556025Y-106898921D01*
X136460787Y-106946540D01*
X136175073Y-106946540D01*
X136079835Y-106898921D01*
X136032216Y-106851302D01*
X160774475Y-116918280D02*
X160774475Y-117727804D01*
X160822094Y-117823042D01*
X160869713Y-117870661D01*
X160964951Y-117918280D01*
X161155427Y-117918280D01*
X161250665Y-117870661D01*
X161298284Y-117823042D01*
X161345903Y-117727804D01*
X161345903Y-116918280D01*
X161774475Y-117013519D02*
X161822094Y-116965900D01*
X161917332Y-116918280D01*
X162155427Y-116918280D01*
X162250665Y-116965900D01*
X162298284Y-117013519D01*
X162345903Y-117108757D01*
X162345903Y-117203995D01*
X162298284Y-117346852D01*
X161726856Y-117918280D01*
X162345903Y-117918280D01*
X187028095Y-111742380D02*
X187028095Y-112551904D01*
X187075714Y-112647142D01*
X187123333Y-112694761D01*
X187218571Y-112742380D01*
X187409047Y-112742380D01*
X187504285Y-112694761D01*
X187551904Y-112647142D01*
X187599523Y-112551904D01*
X187599523Y-111742380D01*
X188599523Y-112742380D02*
X188028095Y-112742380D01*
X188313809Y-112742380D02*
X188313809Y-111742380D01*
X188218571Y-111885238D01*
X188123333Y-111980476D01*
X188028095Y-112028095D01*
X162546666Y-89534761D02*
X162689523Y-89582380D01*
X162927619Y-89582380D01*
X163022857Y-89534761D01*
X163070476Y-89487142D01*
X163118095Y-89391904D01*
X163118095Y-89296666D01*
X163070476Y-89201428D01*
X163022857Y-89153809D01*
X162927619Y-89106190D01*
X162737142Y-89058571D01*
X162641904Y-89010952D01*
X162594285Y-88963333D01*
X162546666Y-88868095D01*
X162546666Y-88772857D01*
X162594285Y-88677619D01*
X162641904Y-88630000D01*
X162737142Y-88582380D01*
X162975238Y-88582380D01*
X163118095Y-88630000D01*
X163451428Y-88582380D02*
X163689523Y-89582380D01*
X163880000Y-88868095D01*
X164070476Y-89582380D01*
X164308571Y-88582380D01*
X164641904Y-88677619D02*
X164689523Y-88630000D01*
X164784761Y-88582380D01*
X165022857Y-88582380D01*
X165118095Y-88630000D01*
X165165714Y-88677619D01*
X165213333Y-88772857D01*
X165213333Y-88868095D01*
X165165714Y-89010952D01*
X164594285Y-89582380D01*
X165213333Y-89582380D01*
X200122380Y-122932857D02*
X199646190Y-123266190D01*
X200122380Y-123504285D02*
X199122380Y-123504285D01*
X199122380Y-123123333D01*
X199170000Y-123028095D01*
X199217619Y-122980476D01*
X199312857Y-122932857D01*
X199455714Y-122932857D01*
X199550952Y-122980476D01*
X199598571Y-123028095D01*
X199646190Y-123123333D01*
X199646190Y-123504285D01*
X200122380Y-121980476D02*
X200122380Y-122551904D01*
X200122380Y-122266190D02*
X199122380Y-122266190D01*
X199265238Y-122361428D01*
X199360476Y-122456666D01*
X199408095Y-122551904D01*
X199122380Y-121075714D02*
X199122380Y-121551904D01*
X199598571Y-121599523D01*
X199550952Y-121551904D01*
X199503333Y-121456666D01*
X199503333Y-121218571D01*
X199550952Y-121123333D01*
X199598571Y-121075714D01*
X199693809Y-121028095D01*
X199931904Y-121028095D01*
X200027142Y-121075714D01*
X200074761Y-121123333D01*
X200122380Y-121218571D01*
X200122380Y-121456666D01*
X200074761Y-121551904D01*
X200027142Y-121599523D01*
X151258440Y-124518657D02*
X150782250Y-124851990D01*
X151258440Y-125090085D02*
X150258440Y-125090085D01*
X150258440Y-124709133D01*
X150306060Y-124613895D01*
X150353679Y-124566276D01*
X150448917Y-124518657D01*
X150591774Y-124518657D01*
X150687012Y-124566276D01*
X150734631Y-124613895D01*
X150782250Y-124709133D01*
X150782250Y-125090085D01*
X151258440Y-123566276D02*
X151258440Y-124137704D01*
X151258440Y-123851990D02*
X150258440Y-123851990D01*
X150401298Y-123947228D01*
X150496536Y-124042466D01*
X150544155Y-124137704D01*
X150591774Y-122709133D02*
X151258440Y-122709133D01*
X150210821Y-122947228D02*
X150925107Y-123185323D01*
X150925107Y-122566276D01*
X194962380Y-122812857D02*
X194486190Y-123146190D01*
X194962380Y-123384285D02*
X193962380Y-123384285D01*
X193962380Y-123003333D01*
X194010000Y-122908095D01*
X194057619Y-122860476D01*
X194152857Y-122812857D01*
X194295714Y-122812857D01*
X194390952Y-122860476D01*
X194438571Y-122908095D01*
X194486190Y-123003333D01*
X194486190Y-123384285D01*
X194962380Y-121860476D02*
X194962380Y-122431904D01*
X194962380Y-122146190D02*
X193962380Y-122146190D01*
X194105238Y-122241428D01*
X194200476Y-122336666D01*
X194248095Y-122431904D01*
X193962380Y-121527142D02*
X193962380Y-120908095D01*
X194343333Y-121241428D01*
X194343333Y-121098571D01*
X194390952Y-121003333D01*
X194438571Y-120955714D01*
X194533809Y-120908095D01*
X194771904Y-120908095D01*
X194867142Y-120955714D01*
X194914761Y-121003333D01*
X194962380Y-121098571D01*
X194962380Y-121384285D01*
X194914761Y-121479523D01*
X194867142Y-121527142D01*
X169597142Y-126762380D02*
X169263809Y-126286190D01*
X169025714Y-126762380D02*
X169025714Y-125762380D01*
X169406666Y-125762380D01*
X169501904Y-125810000D01*
X169549523Y-125857619D01*
X169597142Y-125952857D01*
X169597142Y-126095714D01*
X169549523Y-126190952D01*
X169501904Y-126238571D01*
X169406666Y-126286190D01*
X169025714Y-126286190D01*
X170549523Y-126762380D02*
X169978095Y-126762380D01*
X170263809Y-126762380D02*
X170263809Y-125762380D01*
X170168571Y-125905238D01*
X170073333Y-126000476D01*
X169978095Y-126048095D01*
X170930476Y-125857619D02*
X170978095Y-125810000D01*
X171073333Y-125762380D01*
X171311428Y-125762380D01*
X171406666Y-125810000D01*
X171454285Y-125857619D01*
X171501904Y-125952857D01*
X171501904Y-126048095D01*
X171454285Y-126190952D01*
X170882857Y-126762380D01*
X171501904Y-126762380D01*
X160774142Y-125157400D02*
X160440809Y-124681210D01*
X160202714Y-125157400D02*
X160202714Y-124157400D01*
X160583666Y-124157400D01*
X160678904Y-124205020D01*
X160726523Y-124252639D01*
X160774142Y-124347877D01*
X160774142Y-124490734D01*
X160726523Y-124585972D01*
X160678904Y-124633591D01*
X160583666Y-124681210D01*
X160202714Y-124681210D01*
X161726523Y-125157400D02*
X161155095Y-125157400D01*
X161440809Y-125157400D02*
X161440809Y-124157400D01*
X161345571Y-124300258D01*
X161250333Y-124395496D01*
X161155095Y-124443115D01*
X162678904Y-125157400D02*
X162107476Y-125157400D01*
X162393190Y-125157400D02*
X162393190Y-124157400D01*
X162297952Y-124300258D01*
X162202714Y-124395496D01*
X162107476Y-124443115D01*
X194732380Y-115142857D02*
X194256190Y-115476190D01*
X194732380Y-115714285D02*
X193732380Y-115714285D01*
X193732380Y-115333333D01*
X193780000Y-115238095D01*
X193827619Y-115190476D01*
X193922857Y-115142857D01*
X194065714Y-115142857D01*
X194160952Y-115190476D01*
X194208571Y-115238095D01*
X194256190Y-115333333D01*
X194256190Y-115714285D01*
X194732380Y-114190476D02*
X194732380Y-114761904D01*
X194732380Y-114476190D02*
X193732380Y-114476190D01*
X193875238Y-114571428D01*
X193970476Y-114666666D01*
X194018095Y-114761904D01*
X193732380Y-113571428D02*
X193732380Y-113476190D01*
X193780000Y-113380952D01*
X193827619Y-113333333D01*
X193922857Y-113285714D01*
X194113333Y-113238095D01*
X194351428Y-113238095D01*
X194541904Y-113285714D01*
X194637142Y-113333333D01*
X194684761Y-113380952D01*
X194732380Y-113476190D01*
X194732380Y-113571428D01*
X194684761Y-113666666D01*
X194637142Y-113714285D01*
X194541904Y-113761904D01*
X194351428Y-113809523D01*
X194113333Y-113809523D01*
X193922857Y-113761904D01*
X193827619Y-113714285D01*
X193780000Y-113666666D01*
X193732380Y-113571428D01*
X189143333Y-125892380D02*
X188810000Y-125416190D01*
X188571904Y-125892380D02*
X188571904Y-124892380D01*
X188952857Y-124892380D01*
X189048095Y-124940000D01*
X189095714Y-124987619D01*
X189143333Y-125082857D01*
X189143333Y-125225714D01*
X189095714Y-125320952D01*
X189048095Y-125368571D01*
X188952857Y-125416190D01*
X188571904Y-125416190D01*
X189619523Y-125892380D02*
X189810000Y-125892380D01*
X189905238Y-125844761D01*
X189952857Y-125797142D01*
X190048095Y-125654285D01*
X190095714Y-125463809D01*
X190095714Y-125082857D01*
X190048095Y-124987619D01*
X190000476Y-124940000D01*
X189905238Y-124892380D01*
X189714761Y-124892380D01*
X189619523Y-124940000D01*
X189571904Y-124987619D01*
X189524285Y-125082857D01*
X189524285Y-125320952D01*
X189571904Y-125416190D01*
X189619523Y-125463809D01*
X189714761Y-125511428D01*
X189905238Y-125511428D01*
X190000476Y-125463809D01*
X190048095Y-125416190D01*
X190095714Y-125320952D01*
X183639893Y-125959560D02*
X183306560Y-125483370D01*
X183068464Y-125959560D02*
X183068464Y-124959560D01*
X183449417Y-124959560D01*
X183544655Y-125007180D01*
X183592274Y-125054799D01*
X183639893Y-125150037D01*
X183639893Y-125292894D01*
X183592274Y-125388132D01*
X183544655Y-125435751D01*
X183449417Y-125483370D01*
X183068464Y-125483370D01*
X184211321Y-125388132D02*
X184116083Y-125340513D01*
X184068464Y-125292894D01*
X184020845Y-125197656D01*
X184020845Y-125150037D01*
X184068464Y-125054799D01*
X184116083Y-125007180D01*
X184211321Y-124959560D01*
X184401798Y-124959560D01*
X184497036Y-125007180D01*
X184544655Y-125054799D01*
X184592274Y-125150037D01*
X184592274Y-125197656D01*
X184544655Y-125292894D01*
X184497036Y-125340513D01*
X184401798Y-125388132D01*
X184211321Y-125388132D01*
X184116083Y-125435751D01*
X184068464Y-125483370D01*
X184020845Y-125578608D01*
X184020845Y-125769084D01*
X184068464Y-125864322D01*
X184116083Y-125911941D01*
X184211321Y-125959560D01*
X184401798Y-125959560D01*
X184497036Y-125911941D01*
X184544655Y-125864322D01*
X184592274Y-125769084D01*
X184592274Y-125578608D01*
X184544655Y-125483370D01*
X184497036Y-125435751D01*
X184401798Y-125388132D01*
X130653333Y-96392380D02*
X130320000Y-95916190D01*
X130081904Y-96392380D02*
X130081904Y-95392380D01*
X130462857Y-95392380D01*
X130558095Y-95440000D01*
X130605714Y-95487619D01*
X130653333Y-95582857D01*
X130653333Y-95725714D01*
X130605714Y-95820952D01*
X130558095Y-95868571D01*
X130462857Y-95916190D01*
X130081904Y-95916190D01*
X131510476Y-95392380D02*
X131320000Y-95392380D01*
X131224761Y-95440000D01*
X131177142Y-95487619D01*
X131081904Y-95630476D01*
X131034285Y-95820952D01*
X131034285Y-96201904D01*
X131081904Y-96297142D01*
X131129523Y-96344761D01*
X131224761Y-96392380D01*
X131415238Y-96392380D01*
X131510476Y-96344761D01*
X131558095Y-96297142D01*
X131605714Y-96201904D01*
X131605714Y-95963809D01*
X131558095Y-95868571D01*
X131510476Y-95820952D01*
X131415238Y-95773333D01*
X131224761Y-95773333D01*
X131129523Y-95820952D01*
X131081904Y-95868571D01*
X131034285Y-95963809D01*
X118553333Y-98532380D02*
X118220000Y-98056190D01*
X117981904Y-98532380D02*
X117981904Y-97532380D01*
X118362857Y-97532380D01*
X118458095Y-97580000D01*
X118505714Y-97627619D01*
X118553333Y-97722857D01*
X118553333Y-97865714D01*
X118505714Y-97960952D01*
X118458095Y-98008571D01*
X118362857Y-98056190D01*
X117981904Y-98056190D01*
X119458095Y-97532380D02*
X118981904Y-97532380D01*
X118934285Y-98008571D01*
X118981904Y-97960952D01*
X119077142Y-97913333D01*
X119315238Y-97913333D01*
X119410476Y-97960952D01*
X119458095Y-98008571D01*
X119505714Y-98103809D01*
X119505714Y-98341904D01*
X119458095Y-98437142D01*
X119410476Y-98484761D01*
X119315238Y-98532380D01*
X119077142Y-98532380D01*
X118981904Y-98484761D01*
X118934285Y-98437142D01*
X130613333Y-111502380D02*
X130280000Y-111026190D01*
X130041904Y-111502380D02*
X130041904Y-110502380D01*
X130422857Y-110502380D01*
X130518095Y-110550000D01*
X130565714Y-110597619D01*
X130613333Y-110692857D01*
X130613333Y-110835714D01*
X130565714Y-110930952D01*
X130518095Y-110978571D01*
X130422857Y-111026190D01*
X130041904Y-111026190D01*
X131470476Y-110835714D02*
X131470476Y-111502380D01*
X131232380Y-110454761D02*
X130994285Y-111169047D01*
X131613333Y-111169047D01*
X118583333Y-112382380D02*
X118250000Y-111906190D01*
X118011904Y-112382380D02*
X118011904Y-111382380D01*
X118392857Y-111382380D01*
X118488095Y-111430000D01*
X118535714Y-111477619D01*
X118583333Y-111572857D01*
X118583333Y-111715714D01*
X118535714Y-111810952D01*
X118488095Y-111858571D01*
X118392857Y-111906190D01*
X118011904Y-111906190D01*
X118916666Y-111382380D02*
X119535714Y-111382380D01*
X119202380Y-111763333D01*
X119345238Y-111763333D01*
X119440476Y-111810952D01*
X119488095Y-111858571D01*
X119535714Y-111953809D01*
X119535714Y-112191904D01*
X119488095Y-112287142D01*
X119440476Y-112334761D01*
X119345238Y-112382380D01*
X119059523Y-112382380D01*
X118964285Y-112334761D01*
X118916666Y-112287142D01*
X130633333Y-126032380D02*
X130300000Y-125556190D01*
X130061904Y-126032380D02*
X130061904Y-125032380D01*
X130442857Y-125032380D01*
X130538095Y-125080000D01*
X130585714Y-125127619D01*
X130633333Y-125222857D01*
X130633333Y-125365714D01*
X130585714Y-125460952D01*
X130538095Y-125508571D01*
X130442857Y-125556190D01*
X130061904Y-125556190D01*
X131014285Y-125127619D02*
X131061904Y-125080000D01*
X131157142Y-125032380D01*
X131395238Y-125032380D01*
X131490476Y-125080000D01*
X131538095Y-125127619D01*
X131585714Y-125222857D01*
X131585714Y-125318095D01*
X131538095Y-125460952D01*
X130966666Y-126032380D01*
X131585714Y-126032380D01*
X115333333Y-127272380D02*
X115000000Y-126796190D01*
X114761904Y-127272380D02*
X114761904Y-126272380D01*
X115142857Y-126272380D01*
X115238095Y-126320000D01*
X115285714Y-126367619D01*
X115333333Y-126462857D01*
X115333333Y-126605714D01*
X115285714Y-126700952D01*
X115238095Y-126748571D01*
X115142857Y-126796190D01*
X114761904Y-126796190D01*
X116285714Y-127272380D02*
X115714285Y-127272380D01*
X116000000Y-127272380D02*
X116000000Y-126272380D01*
X115904761Y-126415238D01*
X115809523Y-126510476D01*
X115714285Y-126558095D01*
X119662380Y-91898095D02*
X118662380Y-91898095D01*
X119662380Y-91326666D02*
X119090952Y-91755238D01*
X118662380Y-91326666D02*
X119233809Y-91898095D01*
X118662380Y-90469523D02*
X118662380Y-90660000D01*
X118710000Y-90755238D01*
X118757619Y-90802857D01*
X118900476Y-90898095D01*
X119090952Y-90945714D01*
X119471904Y-90945714D01*
X119567142Y-90898095D01*
X119614761Y-90850476D01*
X119662380Y-90755238D01*
X119662380Y-90564761D01*
X119614761Y-90469523D01*
X119567142Y-90421904D01*
X119471904Y-90374285D01*
X119233809Y-90374285D01*
X119138571Y-90421904D01*
X119090952Y-90469523D01*
X119043333Y-90564761D01*
X119043333Y-90755238D01*
X119090952Y-90850476D01*
X119138571Y-90898095D01*
X119233809Y-90945714D01*
X107822380Y-91828095D02*
X106822380Y-91828095D01*
X107822380Y-91256666D02*
X107250952Y-91685238D01*
X106822380Y-91256666D02*
X107393809Y-91828095D01*
X106822380Y-90351904D02*
X106822380Y-90828095D01*
X107298571Y-90875714D01*
X107250952Y-90828095D01*
X107203333Y-90732857D01*
X107203333Y-90494761D01*
X107250952Y-90399523D01*
X107298571Y-90351904D01*
X107393809Y-90304285D01*
X107631904Y-90304285D01*
X107727142Y-90351904D01*
X107774761Y-90399523D01*
X107822380Y-90494761D01*
X107822380Y-90732857D01*
X107774761Y-90828095D01*
X107727142Y-90875714D01*
X119992380Y-106948095D02*
X118992380Y-106948095D01*
X119992380Y-106376666D02*
X119420952Y-106805238D01*
X118992380Y-106376666D02*
X119563809Y-106948095D01*
X119325714Y-105519523D02*
X119992380Y-105519523D01*
X118944761Y-105757619D02*
X119659047Y-105995714D01*
X119659047Y-105376666D01*
X107692380Y-104988095D02*
X106692380Y-104988095D01*
X107692380Y-104416666D02*
X107120952Y-104845238D01*
X106692380Y-104416666D02*
X107263809Y-104988095D01*
X106692380Y-104083333D02*
X106692380Y-103464285D01*
X107073333Y-103797619D01*
X107073333Y-103654761D01*
X107120952Y-103559523D01*
X107168571Y-103511904D01*
X107263809Y-103464285D01*
X107501904Y-103464285D01*
X107597142Y-103511904D01*
X107644761Y-103559523D01*
X107692380Y-103654761D01*
X107692380Y-103940476D01*
X107644761Y-104035714D01*
X107597142Y-104083333D01*
X119792380Y-118668095D02*
X118792380Y-118668095D01*
X119792380Y-118096666D02*
X119220952Y-118525238D01*
X118792380Y-118096666D02*
X119363809Y-118668095D01*
X118887619Y-117715714D02*
X118840000Y-117668095D01*
X118792380Y-117572857D01*
X118792380Y-117334761D01*
X118840000Y-117239523D01*
X118887619Y-117191904D01*
X118982857Y-117144285D01*
X119078095Y-117144285D01*
X119220952Y-117191904D01*
X119792380Y-117763333D01*
X119792380Y-117144285D01*
X107752380Y-118728095D02*
X106752380Y-118728095D01*
X107752380Y-118156666D02*
X107180952Y-118585238D01*
X106752380Y-118156666D02*
X107323809Y-118728095D01*
X107752380Y-117204285D02*
X107752380Y-117775714D01*
X107752380Y-117490000D02*
X106752380Y-117490000D01*
X106895238Y-117585238D01*
X106990476Y-117680476D01*
X107038095Y-117775714D01*
X131572380Y-123598095D02*
X130572380Y-123598095D01*
X131572380Y-123026666D02*
X131000952Y-123455238D01*
X130572380Y-123026666D02*
X131143809Y-123598095D01*
X130572380Y-122407619D02*
X130572380Y-122312380D01*
X130620000Y-122217142D01*
X130667619Y-122169523D01*
X130762857Y-122121904D01*
X130953333Y-122074285D01*
X131191428Y-122074285D01*
X131381904Y-122121904D01*
X131477142Y-122169523D01*
X131524761Y-122217142D01*
X131572380Y-122312380D01*
X131572380Y-122407619D01*
X131524761Y-122502857D01*
X131477142Y-122550476D01*
X131381904Y-122598095D01*
X131191428Y-122645714D01*
X130953333Y-122645714D01*
X130762857Y-122598095D01*
X130667619Y-122550476D01*
X130620000Y-122502857D01*
X130572380Y-122407619D01*
X199548660Y-107025013D02*
X200262946Y-107025013D01*
X200405803Y-107072632D01*
X200501041Y-107167870D01*
X200548660Y-107310727D01*
X200548660Y-107405965D01*
X199548660Y-106644060D02*
X199548660Y-106025013D01*
X199929613Y-106358346D01*
X199929613Y-106215489D01*
X199977232Y-106120251D01*
X200024851Y-106072632D01*
X200120089Y-106025013D01*
X200358184Y-106025013D01*
X200453422Y-106072632D01*
X200501041Y-106120251D01*
X200548660Y-106215489D01*
X200548660Y-106501203D01*
X200501041Y-106596441D01*
X200453422Y-106644060D01*
X199480080Y-97383173D02*
X200194366Y-97383173D01*
X200337223Y-97430792D01*
X200432461Y-97526030D01*
X200480080Y-97668887D01*
X200480080Y-97764125D01*
X199575319Y-96954601D02*
X199527700Y-96906982D01*
X199480080Y-96811744D01*
X199480080Y-96573649D01*
X199527700Y-96478411D01*
X199575319Y-96430792D01*
X199670557Y-96383173D01*
X199765795Y-96383173D01*
X199908652Y-96430792D01*
X200480080Y-97002220D01*
X200480080Y-96383173D01*
X199490240Y-86126653D02*
X200204526Y-86126653D01*
X200347383Y-86174272D01*
X200442621Y-86269510D01*
X200490240Y-86412367D01*
X200490240Y-86507605D01*
X200490240Y-85126653D02*
X200490240Y-85698081D01*
X200490240Y-85412367D02*
X199490240Y-85412367D01*
X199633098Y-85507605D01*
X199728336Y-85602843D01*
X199775955Y-85698081D01*
X177171194Y-116788300D02*
X177171194Y-115788300D01*
X177409289Y-115788300D01*
X177552146Y-115835920D01*
X177647384Y-115931158D01*
X177695003Y-116026396D01*
X177742622Y-116216872D01*
X177742622Y-116359729D01*
X177695003Y-116550205D01*
X177647384Y-116645443D01*
X177552146Y-116740681D01*
X177409289Y-116788300D01*
X177171194Y-116788300D01*
X178695003Y-116788300D02*
X178123575Y-116788300D01*
X178409289Y-116788300D02*
X178409289Y-115788300D01*
X178314051Y-115931158D01*
X178218813Y-116026396D01*
X178123575Y-116074015D01*
X179314051Y-115788300D02*
X179409289Y-115788300D01*
X179504527Y-115835920D01*
X179552146Y-115883539D01*
X179599765Y-115978777D01*
X179647384Y-116169253D01*
X179647384Y-116407348D01*
X179599765Y-116597824D01*
X179552146Y-116693062D01*
X179504527Y-116740681D01*
X179409289Y-116788300D01*
X179314051Y-116788300D01*
X179218813Y-116740681D01*
X179171194Y-116693062D01*
X179123575Y-116597824D01*
X179075956Y-116407348D01*
X179075956Y-116169253D01*
X179123575Y-115978777D01*
X179171194Y-115883539D01*
X179218813Y-115835920D01*
X179314051Y-115788300D01*
X199922380Y-116018095D02*
X198922380Y-116018095D01*
X198922380Y-115780000D01*
X198970000Y-115637142D01*
X199065238Y-115541904D01*
X199160476Y-115494285D01*
X199350952Y-115446666D01*
X199493809Y-115446666D01*
X199684285Y-115494285D01*
X199779523Y-115541904D01*
X199874761Y-115637142D01*
X199922380Y-115780000D01*
X199922380Y-116018095D01*
X199922380Y-114970476D02*
X199922380Y-114780000D01*
X199874761Y-114684761D01*
X199827142Y-114637142D01*
X199684285Y-114541904D01*
X199493809Y-114494285D01*
X199112857Y-114494285D01*
X199017619Y-114541904D01*
X198970000Y-114589523D01*
X198922380Y-114684761D01*
X198922380Y-114875238D01*
X198970000Y-114970476D01*
X199017619Y-115018095D01*
X199112857Y-115065714D01*
X199350952Y-115065714D01*
X199446190Y-115018095D01*
X199493809Y-114970476D01*
X199541428Y-114875238D01*
X199541428Y-114684761D01*
X199493809Y-114589523D01*
X199446190Y-114541904D01*
X199350952Y-114494285D01*
X148952380Y-117118095D02*
X147952380Y-117118095D01*
X147952380Y-116880000D01*
X148000000Y-116737142D01*
X148095238Y-116641904D01*
X148190476Y-116594285D01*
X148380952Y-116546666D01*
X148523809Y-116546666D01*
X148714285Y-116594285D01*
X148809523Y-116641904D01*
X148904761Y-116737142D01*
X148952380Y-116880000D01*
X148952380Y-117118095D01*
X148380952Y-115975238D02*
X148333333Y-116070476D01*
X148285714Y-116118095D01*
X148190476Y-116165714D01*
X148142857Y-116165714D01*
X148047619Y-116118095D01*
X148000000Y-116070476D01*
X147952380Y-115975238D01*
X147952380Y-115784761D01*
X148000000Y-115689523D01*
X148047619Y-115641904D01*
X148142857Y-115594285D01*
X148190476Y-115594285D01*
X148285714Y-115641904D01*
X148333333Y-115689523D01*
X148380952Y-115784761D01*
X148380952Y-115975238D01*
X148428571Y-116070476D01*
X148476190Y-116118095D01*
X148571428Y-116165714D01*
X148761904Y-116165714D01*
X148857142Y-116118095D01*
X148904761Y-116070476D01*
X148952380Y-115975238D01*
X148952380Y-115784761D01*
X148904761Y-115689523D01*
X148857142Y-115641904D01*
X148761904Y-115594285D01*
X148571428Y-115594285D01*
X148476190Y-115641904D01*
X148428571Y-115689523D01*
X148380952Y-115784761D01*
X118471904Y-96582380D02*
X118471904Y-95582380D01*
X118710000Y-95582380D01*
X118852857Y-95630000D01*
X118948095Y-95725238D01*
X118995714Y-95820476D01*
X119043333Y-96010952D01*
X119043333Y-96153809D01*
X118995714Y-96344285D01*
X118948095Y-96439523D01*
X118852857Y-96534761D01*
X118710000Y-96582380D01*
X118471904Y-96582380D01*
X119900476Y-95582380D02*
X119710000Y-95582380D01*
X119614761Y-95630000D01*
X119567142Y-95677619D01*
X119471904Y-95820476D01*
X119424285Y-96010952D01*
X119424285Y-96391904D01*
X119471904Y-96487142D01*
X119519523Y-96534761D01*
X119614761Y-96582380D01*
X119805238Y-96582380D01*
X119900476Y-96534761D01*
X119948095Y-96487142D01*
X119995714Y-96391904D01*
X119995714Y-96153809D01*
X119948095Y-96058571D01*
X119900476Y-96010952D01*
X119805238Y-95963333D01*
X119614761Y-95963333D01*
X119519523Y-96010952D01*
X119471904Y-96058571D01*
X119424285Y-96153809D01*
X106331904Y-97502380D02*
X106331904Y-96502380D01*
X106570000Y-96502380D01*
X106712857Y-96550000D01*
X106808095Y-96645238D01*
X106855714Y-96740476D01*
X106903333Y-96930952D01*
X106903333Y-97073809D01*
X106855714Y-97264285D01*
X106808095Y-97359523D01*
X106712857Y-97454761D01*
X106570000Y-97502380D01*
X106331904Y-97502380D01*
X107808095Y-96502380D02*
X107331904Y-96502380D01*
X107284285Y-96978571D01*
X107331904Y-96930952D01*
X107427142Y-96883333D01*
X107665238Y-96883333D01*
X107760476Y-96930952D01*
X107808095Y-96978571D01*
X107855714Y-97073809D01*
X107855714Y-97311904D01*
X107808095Y-97407142D01*
X107760476Y-97454761D01*
X107665238Y-97502380D01*
X107427142Y-97502380D01*
X107331904Y-97454761D01*
X107284285Y-97407142D01*
X118361904Y-110512380D02*
X118361904Y-109512380D01*
X118600000Y-109512380D01*
X118742857Y-109560000D01*
X118838095Y-109655238D01*
X118885714Y-109750476D01*
X118933333Y-109940952D01*
X118933333Y-110083809D01*
X118885714Y-110274285D01*
X118838095Y-110369523D01*
X118742857Y-110464761D01*
X118600000Y-110512380D01*
X118361904Y-110512380D01*
X119790476Y-109845714D02*
X119790476Y-110512380D01*
X119552380Y-109464761D02*
X119314285Y-110179047D01*
X119933333Y-110179047D01*
X106291904Y-111522380D02*
X106291904Y-110522380D01*
X106530000Y-110522380D01*
X106672857Y-110570000D01*
X106768095Y-110665238D01*
X106815714Y-110760476D01*
X106863333Y-110950952D01*
X106863333Y-111093809D01*
X106815714Y-111284285D01*
X106768095Y-111379523D01*
X106672857Y-111474761D01*
X106530000Y-111522380D01*
X106291904Y-111522380D01*
X107196666Y-110522380D02*
X107815714Y-110522380D01*
X107482380Y-110903333D01*
X107625238Y-110903333D01*
X107720476Y-110950952D01*
X107768095Y-110998571D01*
X107815714Y-111093809D01*
X107815714Y-111331904D01*
X107768095Y-111427142D01*
X107720476Y-111474761D01*
X107625238Y-111522380D01*
X107339523Y-111522380D01*
X107244285Y-111474761D01*
X107196666Y-111427142D01*
X118361904Y-125362380D02*
X118361904Y-124362380D01*
X118600000Y-124362380D01*
X118742857Y-124410000D01*
X118838095Y-124505238D01*
X118885714Y-124600476D01*
X118933333Y-124790952D01*
X118933333Y-124933809D01*
X118885714Y-125124285D01*
X118838095Y-125219523D01*
X118742857Y-125314761D01*
X118600000Y-125362380D01*
X118361904Y-125362380D01*
X119314285Y-124457619D02*
X119361904Y-124410000D01*
X119457142Y-124362380D01*
X119695238Y-124362380D01*
X119790476Y-124410000D01*
X119838095Y-124457619D01*
X119885714Y-124552857D01*
X119885714Y-124648095D01*
X119838095Y-124790952D01*
X119266666Y-125362380D01*
X119885714Y-125362380D01*
X106331904Y-125522380D02*
X106331904Y-124522380D01*
X106570000Y-124522380D01*
X106712857Y-124570000D01*
X106808095Y-124665238D01*
X106855714Y-124760476D01*
X106903333Y-124950952D01*
X106903333Y-125093809D01*
X106855714Y-125284285D01*
X106808095Y-125379523D01*
X106712857Y-125474761D01*
X106570000Y-125522380D01*
X106331904Y-125522380D01*
X107855714Y-125522380D02*
X107284285Y-125522380D01*
X107570000Y-125522380D02*
X107570000Y-124522380D01*
X107474761Y-124665238D01*
X107379523Y-124760476D01*
X107284285Y-124808095D01*
X161703333Y-113707142D02*
X161655714Y-113754761D01*
X161512857Y-113802380D01*
X161417619Y-113802380D01*
X161274761Y-113754761D01*
X161179523Y-113659523D01*
X161131904Y-113564285D01*
X161084285Y-113373809D01*
X161084285Y-113230952D01*
X161131904Y-113040476D01*
X161179523Y-112945238D01*
X161274761Y-112850000D01*
X161417619Y-112802380D01*
X161512857Y-112802380D01*
X161655714Y-112850000D01*
X161703333Y-112897619D01*
X162560476Y-112802380D02*
X162370000Y-112802380D01*
X162274761Y-112850000D01*
X162227142Y-112897619D01*
X162131904Y-113040476D01*
X162084285Y-113230952D01*
X162084285Y-113611904D01*
X162131904Y-113707142D01*
X162179523Y-113754761D01*
X162274761Y-113802380D01*
X162465238Y-113802380D01*
X162560476Y-113754761D01*
X162608095Y-113707142D01*
X162655714Y-113611904D01*
X162655714Y-113373809D01*
X162608095Y-113278571D01*
X162560476Y-113230952D01*
X162465238Y-113183333D01*
X162274761Y-113183333D01*
X162179523Y-113230952D01*
X162131904Y-113278571D01*
X162084285Y-113373809D01*
X166277142Y-117236666D02*
X166324761Y-117284285D01*
X166372380Y-117427142D01*
X166372380Y-117522380D01*
X166324761Y-117665238D01*
X166229523Y-117760476D01*
X166134285Y-117808095D01*
X165943809Y-117855714D01*
X165800952Y-117855714D01*
X165610476Y-117808095D01*
X165515238Y-117760476D01*
X165420000Y-117665238D01*
X165372380Y-117522380D01*
X165372380Y-117427142D01*
X165420000Y-117284285D01*
X165467619Y-117236666D01*
X165372380Y-116331904D02*
X165372380Y-116808095D01*
X165848571Y-116855714D01*
X165800952Y-116808095D01*
X165753333Y-116712857D01*
X165753333Y-116474761D01*
X165800952Y-116379523D01*
X165848571Y-116331904D01*
X165943809Y-116284285D01*
X166181904Y-116284285D01*
X166277142Y-116331904D01*
X166324761Y-116379523D01*
X166372380Y-116474761D01*
X166372380Y-116712857D01*
X166324761Y-116808095D01*
X166277142Y-116855714D01*
X178218813Y-120701182D02*
X178171194Y-120748801D01*
X178028337Y-120796420D01*
X177933099Y-120796420D01*
X177790241Y-120748801D01*
X177695003Y-120653563D01*
X177647384Y-120558325D01*
X177599765Y-120367849D01*
X177599765Y-120224992D01*
X177647384Y-120034516D01*
X177695003Y-119939278D01*
X177790241Y-119844040D01*
X177933099Y-119796420D01*
X178028337Y-119796420D01*
X178171194Y-119844040D01*
X178218813Y-119891659D01*
X179075956Y-120129754D02*
X179075956Y-120796420D01*
X178837860Y-119748801D02*
X178599765Y-120463087D01*
X179218813Y-120463087D01*
X146683333Y-89157142D02*
X146635714Y-89204761D01*
X146492857Y-89252380D01*
X146397619Y-89252380D01*
X146254761Y-89204761D01*
X146159523Y-89109523D01*
X146111904Y-89014285D01*
X146064285Y-88823809D01*
X146064285Y-88680952D01*
X146111904Y-88490476D01*
X146159523Y-88395238D01*
X146254761Y-88300000D01*
X146397619Y-88252380D01*
X146492857Y-88252380D01*
X146635714Y-88300000D01*
X146683333Y-88347619D01*
X147016666Y-88252380D02*
X147635714Y-88252380D01*
X147302380Y-88633333D01*
X147445238Y-88633333D01*
X147540476Y-88680952D01*
X147588095Y-88728571D01*
X147635714Y-88823809D01*
X147635714Y-89061904D01*
X147588095Y-89157142D01*
X147540476Y-89204761D01*
X147445238Y-89252380D01*
X147159523Y-89252380D01*
X147064285Y-89204761D01*
X147016666Y-89157142D01*
X153223333Y-89067142D02*
X153175714Y-89114761D01*
X153032857Y-89162380D01*
X152937619Y-89162380D01*
X152794761Y-89114761D01*
X152699523Y-89019523D01*
X152651904Y-88924285D01*
X152604285Y-88733809D01*
X152604285Y-88590952D01*
X152651904Y-88400476D01*
X152699523Y-88305238D01*
X152794761Y-88210000D01*
X152937619Y-88162380D01*
X153032857Y-88162380D01*
X153175714Y-88210000D01*
X153223333Y-88257619D01*
X153604285Y-88257619D02*
X153651904Y-88210000D01*
X153747142Y-88162380D01*
X153985238Y-88162380D01*
X154080476Y-88210000D01*
X154128095Y-88257619D01*
X154175714Y-88352857D01*
X154175714Y-88448095D01*
X154128095Y-88590952D01*
X153556666Y-89162380D01*
X154175714Y-89162380D01*
X183603333Y-81567142D02*
X183555714Y-81614761D01*
X183412857Y-81662380D01*
X183317619Y-81662380D01*
X183174761Y-81614761D01*
X183079523Y-81519523D01*
X183031904Y-81424285D01*
X182984285Y-81233809D01*
X182984285Y-81090952D01*
X183031904Y-80900476D01*
X183079523Y-80805238D01*
X183174761Y-80710000D01*
X183317619Y-80662380D01*
X183412857Y-80662380D01*
X183555714Y-80710000D01*
X183603333Y-80757619D01*
X184555714Y-81662380D02*
X183984285Y-81662380D01*
X184270000Y-81662380D02*
X184270000Y-80662380D01*
X184174761Y-80805238D01*
X184079523Y-80900476D01*
X183984285Y-80948095D01*
X172776666Y-89564761D02*
X172919523Y-89612380D01*
X173157619Y-89612380D01*
X173252857Y-89564761D01*
X173300476Y-89517142D01*
X173348095Y-89421904D01*
X173348095Y-89326666D01*
X173300476Y-89231428D01*
X173252857Y-89183809D01*
X173157619Y-89136190D01*
X172967142Y-89088571D01*
X172871904Y-89040952D01*
X172824285Y-88993333D01*
X172776666Y-88898095D01*
X172776666Y-88802857D01*
X172824285Y-88707619D01*
X172871904Y-88660000D01*
X172967142Y-88612380D01*
X173205238Y-88612380D01*
X173348095Y-88660000D01*
X173681428Y-88612380D02*
X173919523Y-89612380D01*
X174110000Y-88898095D01*
X174300476Y-89612380D01*
X174538571Y-88612380D01*
X175443333Y-89612380D02*
X174871904Y-89612380D01*
X175157619Y-89612380D02*
X175157619Y-88612380D01*
X175062380Y-88755238D01*
X174967142Y-88850476D01*
X174871904Y-88898095D01*
X166970484Y-85278220D02*
X166970484Y-84278220D01*
X167351437Y-84278220D01*
X167446675Y-84325840D01*
X167494294Y-84373459D01*
X167541913Y-84468697D01*
X167541913Y-84611554D01*
X167494294Y-84706792D01*
X167446675Y-84754411D01*
X167351437Y-84802030D01*
X166970484Y-84802030D01*
X167922865Y-84373459D02*
X167970484Y-84325840D01*
X168065722Y-84278220D01*
X168303818Y-84278220D01*
X168399056Y-84325840D01*
X168446675Y-84373459D01*
X168494294Y-84468697D01*
X168494294Y-84563935D01*
X168446675Y-84706792D01*
X167875246Y-85278220D01*
X168494294Y-85278220D01*
X144110484Y-85024220D02*
X144110484Y-84024220D01*
X144491437Y-84024220D01*
X144586675Y-84071840D01*
X144634294Y-84119459D01*
X144681913Y-84214697D01*
X144681913Y-84357554D01*
X144634294Y-84452792D01*
X144586675Y-84500411D01*
X144491437Y-84548030D01*
X144110484Y-84548030D01*
X145015246Y-84024220D02*
X145634294Y-84024220D01*
X145300960Y-84405173D01*
X145443818Y-84405173D01*
X145539056Y-84452792D01*
X145586675Y-84500411D01*
X145634294Y-84595649D01*
X145634294Y-84833744D01*
X145586675Y-84928982D01*
X145539056Y-84976601D01*
X145443818Y-85024220D01*
X145158103Y-85024220D01*
X145062865Y-84976601D01*
X145015246Y-84928982D01*
X121250484Y-85278220D02*
X121250484Y-84278220D01*
X121631437Y-84278220D01*
X121726675Y-84325840D01*
X121774294Y-84373459D01*
X121821913Y-84468697D01*
X121821913Y-84611554D01*
X121774294Y-84706792D01*
X121726675Y-84754411D01*
X121631437Y-84802030D01*
X121250484Y-84802030D01*
X122679056Y-84611554D02*
X122679056Y-85278220D01*
X122440960Y-84230601D02*
X122202865Y-84944887D01*
X122821913Y-84944887D01*
X173574484Y-127950220D02*
X173574484Y-126950220D01*
X173955437Y-126950220D01*
X174050675Y-126997840D01*
X174098294Y-127045459D01*
X174145913Y-127140697D01*
X174145913Y-127283554D01*
X174098294Y-127378792D01*
X174050675Y-127426411D01*
X173955437Y-127474030D01*
X173574484Y-127474030D01*
X175050675Y-126950220D02*
X174574484Y-126950220D01*
X174526865Y-127426411D01*
X174574484Y-127378792D01*
X174669722Y-127331173D01*
X174907818Y-127331173D01*
X175003056Y-127378792D01*
X175050675Y-127426411D01*
X175098294Y-127521649D01*
X175098294Y-127759744D01*
X175050675Y-127854982D01*
X175003056Y-127902601D01*
X174907818Y-127950220D01*
X174669722Y-127950220D01*
X174574484Y-127902601D01*
X174526865Y-127854982D01*
X149190484Y-127950220D02*
X149190484Y-126950220D01*
X149571437Y-126950220D01*
X149666675Y-126997840D01*
X149714294Y-127045459D01*
X149761913Y-127140697D01*
X149761913Y-127283554D01*
X149714294Y-127378792D01*
X149666675Y-127426411D01*
X149571437Y-127474030D01*
X149190484Y-127474030D01*
X150619056Y-126950220D02*
X150428580Y-126950220D01*
X150333341Y-126997840D01*
X150285722Y-127045459D01*
X150190484Y-127188316D01*
X150142865Y-127378792D01*
X150142865Y-127759744D01*
X150190484Y-127854982D01*
X150238103Y-127902601D01*
X150333341Y-127950220D01*
X150523818Y-127950220D01*
X150619056Y-127902601D01*
X150666675Y-127854982D01*
X150714294Y-127759744D01*
X150714294Y-127521649D01*
X150666675Y-127426411D01*
X150619056Y-127378792D01*
X150523818Y-127331173D01*
X150333341Y-127331173D01*
X150238103Y-127378792D01*
X150190484Y-127426411D01*
X150142865Y-127521649D01*
X126330484Y-127950220D02*
X126330484Y-126950220D01*
X126711437Y-126950220D01*
X126806675Y-126997840D01*
X126854294Y-127045459D01*
X126901913Y-127140697D01*
X126901913Y-127283554D01*
X126854294Y-127378792D01*
X126806675Y-127426411D01*
X126711437Y-127474030D01*
X126330484Y-127474030D01*
X127235246Y-126950220D02*
X127901913Y-126950220D01*
X127473341Y-127950220D01*
M02*
