G04 #@! TF.GenerationSoftware,KiCad,Pcbnew,(5.1.9)-1*
G04 #@! TF.CreationDate,2021-03-29T18:58:07+02:00*
G04 #@! TF.ProjectId,Interface_board_1,496e7465-7266-4616-9365-5f626f617264,4.h.0.01*
G04 #@! TF.SameCoordinates,Original*
G04 #@! TF.FileFunction,Copper,L2,Bot*
G04 #@! TF.FilePolarity,Positive*
%FSLAX46Y46*%
G04 Gerber Fmt 4.6, Leading zero omitted, Abs format (unit mm)*
G04 Created by KiCad (PCBNEW (5.1.9)-1) date 2021-03-29 18:58:07*
%MOMM*%
%LPD*%
G01*
G04 APERTURE LIST*
G04 #@! TA.AperFunction,ComponentPad*
%ADD10O,3.600000X1.800000*%
G04 #@! TD*
G04 #@! TA.AperFunction,ComponentPad*
%ADD11O,1.700000X1.700000*%
G04 #@! TD*
G04 #@! TA.AperFunction,ComponentPad*
%ADD12R,1.700000X1.700000*%
G04 #@! TD*
G04 #@! TA.AperFunction,ComponentPad*
%ADD13O,1.600000X1.600000*%
G04 #@! TD*
G04 #@! TA.AperFunction,ComponentPad*
%ADD14R,1.600000X1.600000*%
G04 #@! TD*
G04 #@! TA.AperFunction,ComponentPad*
%ADD15O,1.750000X1.200000*%
G04 #@! TD*
G04 #@! TA.AperFunction,ComponentPad*
%ADD16O,1.727200X2.032000*%
G04 #@! TD*
G04 #@! TA.AperFunction,ComponentPad*
%ADD17C,4.064000*%
G04 #@! TD*
G04 #@! TA.AperFunction,ViaPad*
%ADD18C,0.600000*%
G04 #@! TD*
G04 #@! TA.AperFunction,ViaPad*
%ADD19C,1.800000*%
G04 #@! TD*
G04 #@! TA.AperFunction,ViaPad*
%ADD20C,0.762000*%
G04 #@! TD*
G04 #@! TA.AperFunction,Conductor*
%ADD21C,0.406400*%
G04 #@! TD*
G04 #@! TA.AperFunction,Conductor*
%ADD22C,0.635000*%
G04 #@! TD*
G04 #@! TA.AperFunction,Conductor*
%ADD23C,1.270000*%
G04 #@! TD*
G04 APERTURE END LIST*
D10*
X102649020Y-127619160D03*
X102649020Y-124119160D03*
X102649020Y-120619160D03*
X102649020Y-117119160D03*
X102649020Y-113619160D03*
G04 #@! TA.AperFunction,ComponentPad*
G36*
G01*
X101099020Y-109219160D02*
X104199020Y-109219160D01*
G75*
G02*
X104449020Y-109469160I0J-250000D01*
G01*
X104449020Y-110769160D01*
G75*
G02*
X104199020Y-111019160I-250000J0D01*
G01*
X101099020Y-111019160D01*
G75*
G02*
X100849020Y-110769160I0J250000D01*
G01*
X100849020Y-109469160D01*
G75*
G02*
X101099020Y-109219160I250000J0D01*
G01*
G37*
G04 #@! TD.AperFunction*
X102656640Y-103801580D03*
X102656640Y-100301580D03*
X102656640Y-96801580D03*
X102656640Y-93301580D03*
X102656640Y-89801580D03*
G04 #@! TA.AperFunction,ComponentPad*
G36*
G01*
X101106640Y-85401580D02*
X104206640Y-85401580D01*
G75*
G02*
X104456640Y-85651580I0J-250000D01*
G01*
X104456640Y-86951580D01*
G75*
G02*
X104206640Y-87201580I-250000J0D01*
G01*
X101106640Y-87201580D01*
G75*
G02*
X100856640Y-86951580I0J250000D01*
G01*
X100856640Y-85651580D01*
G75*
G02*
X101106640Y-85401580I250000J0D01*
G01*
G37*
G04 #@! TD.AperFunction*
D11*
X196471540Y-107251500D03*
X196471540Y-104711500D03*
X196471540Y-102171500D03*
X196471540Y-99631500D03*
X196471540Y-97091500D03*
D12*
X196471540Y-94551500D03*
D13*
X183583580Y-119837200D03*
X191203580Y-114757200D03*
X183583580Y-117297200D03*
X191203580Y-117297200D03*
X183583580Y-114757200D03*
D14*
X191203580Y-119837200D03*
D15*
X202646280Y-104691680D03*
X202646280Y-106691680D03*
G04 #@! TA.AperFunction,ComponentPad*
G36*
G01*
X203271281Y-109291680D02*
X202021279Y-109291680D01*
G75*
G02*
X201771280Y-109041681I0J249999D01*
G01*
X201771280Y-108341679D01*
G75*
G02*
X202021279Y-108091680I249999J0D01*
G01*
X203271281Y-108091680D01*
G75*
G02*
X203521280Y-108341679I0J-249999D01*
G01*
X203521280Y-109041681D01*
G75*
G02*
X203271281Y-109291680I-249999J0D01*
G01*
G37*
G04 #@! TD.AperFunction*
X202577700Y-95049840D03*
X202577700Y-97049840D03*
G04 #@! TA.AperFunction,ComponentPad*
G36*
G01*
X203202701Y-99649840D02*
X201952699Y-99649840D01*
G75*
G02*
X201702700Y-99399841I0J249999D01*
G01*
X201702700Y-98699839D01*
G75*
G02*
X201952699Y-98449840I249999J0D01*
G01*
X203202701Y-98449840D01*
G75*
G02*
X203452700Y-98699839I0J-249999D01*
G01*
X203452700Y-99399841D01*
G75*
G02*
X203202701Y-99649840I-249999J0D01*
G01*
G37*
G04 #@! TD.AperFunction*
X202587860Y-82793320D03*
X202587860Y-84793320D03*
X202587860Y-86793320D03*
G04 #@! TA.AperFunction,ComponentPad*
G36*
G01*
X203212861Y-89393320D02*
X201962859Y-89393320D01*
G75*
G02*
X201712860Y-89143321I0J249999D01*
G01*
X201712860Y-88443319D01*
G75*
G02*
X201962859Y-88193320I249999J0D01*
G01*
X203212861Y-88193320D01*
G75*
G02*
X203462860Y-88443319I0J-249999D01*
G01*
X203462860Y-89143321D01*
G75*
G02*
X203212861Y-89393320I-249999J0D01*
G01*
G37*
G04 #@! TD.AperFunction*
D16*
X176598580Y-82031840D03*
X174058580Y-82031840D03*
X171518580Y-82031840D03*
X168978580Y-82031840D03*
X166438580Y-82031840D03*
X163898580Y-82031840D03*
X161358580Y-82031840D03*
X158818580Y-82031840D03*
X153738580Y-82031840D03*
X151198580Y-82031840D03*
X148658580Y-82031840D03*
X146118580Y-82031840D03*
X143578580Y-82031840D03*
X141038580Y-82031840D03*
X138498580Y-82031840D03*
X135958580Y-82031840D03*
X130878580Y-82031840D03*
X128338580Y-82031840D03*
X125798580Y-82031840D03*
X123258580Y-82031840D03*
X120718580Y-82031840D03*
X118178580Y-82031840D03*
X115638580Y-82031840D03*
X113098580Y-82031840D03*
X185742580Y-130291840D03*
X183202580Y-130291840D03*
X180662580Y-130291840D03*
X178122580Y-130291840D03*
X175582580Y-130291840D03*
X173042580Y-130291840D03*
X170502580Y-130291840D03*
X167962580Y-130291840D03*
X165422580Y-130291840D03*
X162882580Y-130291840D03*
X158818580Y-130291840D03*
X156278580Y-130291840D03*
X153738580Y-130291840D03*
X151198580Y-130291840D03*
X148658580Y-130291840D03*
X146118580Y-130291840D03*
X143578580Y-130291840D03*
X141038580Y-130291840D03*
X135958580Y-130291840D03*
X133418580Y-130291840D03*
X130878580Y-130291840D03*
X128338580Y-130291840D03*
X125798580Y-130291840D03*
X123258580Y-130291840D03*
X120718580Y-130291840D03*
X118178580Y-130291840D03*
D17*
X190568580Y-82031840D03*
X138498580Y-87111840D03*
X108018580Y-82031840D03*
X189298580Y-130291840D03*
X138498580Y-115051840D03*
X114368580Y-130291840D03*
D18*
X167800000Y-89220000D03*
X178150000Y-86890000D03*
X197520000Y-111900000D03*
X166630000Y-118480000D03*
X193950000Y-116680000D03*
X156542740Y-120103900D03*
X165272720Y-125943360D03*
X166357300Y-123654820D03*
X165031420Y-115465860D03*
X158810000Y-86280000D03*
X200590000Y-92050000D03*
X190240000Y-88390000D03*
X197280000Y-110000000D03*
X161060000Y-90910000D03*
X167949880Y-126570740D03*
D19*
X119159020Y-102466140D03*
X119118380Y-100195380D03*
X113129060Y-90261440D03*
X119171720Y-88371680D03*
X119138700Y-86177120D03*
X135630920Y-121724420D03*
X131411980Y-120520460D03*
X125023880Y-114147600D03*
X113002060Y-104475280D03*
D18*
X173060000Y-127280000D03*
X173070000Y-122290000D03*
X173070000Y-112360000D03*
X178250000Y-107050000D03*
X196710000Y-126660000D03*
X154891740Y-97442020D03*
X153446480Y-98706940D03*
X152123140Y-99969320D03*
X150677880Y-101234240D03*
X149293580Y-102499160D03*
X147909280Y-103764080D03*
X146583400Y-105029000D03*
X186550000Y-121190000D03*
X133261100Y-106563160D03*
X111760000Y-120650000D03*
X131069080Y-102539800D03*
X112014000Y-108204000D03*
X135488680Y-101208840D03*
X123698000Y-107950000D03*
X131064000Y-100076000D03*
X111760000Y-93726000D03*
X130810000Y-94996000D03*
X123952000Y-93726000D03*
X133314440Y-94251780D03*
X136316720Y-124322840D03*
D20*
X134642860Y-109212380D03*
D21*
X202646280Y-104691680D02*
X201931680Y-104691680D01*
X201931680Y-104691680D02*
X199330000Y-102090000D01*
X199330000Y-102090000D02*
X199330000Y-99720000D01*
X199241500Y-99631500D02*
X196471540Y-99631500D01*
X199330000Y-99720000D02*
X199241500Y-99631500D01*
X161358580Y-82031840D02*
X163898580Y-82031840D01*
X163898580Y-85318580D02*
X167800000Y-89220000D01*
X163898580Y-82031840D02*
X163898580Y-85318580D01*
X195966680Y-82793320D02*
X202587860Y-82793320D01*
X192510000Y-86250000D02*
X195966680Y-82793320D01*
X189280000Y-86250000D02*
X192510000Y-86250000D01*
X186310000Y-89220000D02*
X189280000Y-86250000D01*
X179050000Y-89220000D02*
X179050000Y-87790000D01*
X179050000Y-87790000D02*
X178150000Y-86890000D01*
X167800000Y-89220000D02*
X179050000Y-89220000D01*
X179050000Y-89220000D02*
X186310000Y-89220000D01*
X180970000Y-124610000D02*
X202130000Y-124610000D01*
X202130000Y-124610000D02*
X202646280Y-124093720D01*
X197520000Y-111900000D02*
X202522560Y-111900000D01*
X202522560Y-111900000D02*
X202646280Y-112023720D01*
X202646280Y-112023720D02*
X202646280Y-108691680D01*
X202646280Y-124093720D02*
X202646280Y-112023720D01*
X166630000Y-118480000D02*
X168880000Y-120730000D01*
X168880000Y-120730000D02*
X180020000Y-120730000D01*
X180970000Y-121680000D02*
X180020000Y-120730000D01*
X180970000Y-124610000D02*
X180970000Y-121680000D01*
X202577700Y-99049840D02*
X201009840Y-99049840D01*
X201009840Y-99049840D02*
X199051500Y-97091500D01*
X199051500Y-97091500D02*
X199051500Y-97048500D01*
X202431180Y-88950000D02*
X202587860Y-88793320D01*
X198841500Y-97091500D02*
X198841500Y-89008500D01*
X199051500Y-97091500D02*
X198841500Y-97091500D01*
X198841500Y-97091500D02*
X196471540Y-97091500D01*
X199056680Y-88793320D02*
X202587860Y-88793320D01*
X198841500Y-89008500D02*
X199056680Y-88793320D01*
X188770000Y-111780000D02*
X186830000Y-113720000D01*
X193220000Y-111780000D02*
X188770000Y-111780000D01*
X193390000Y-116120000D02*
X193390000Y-111950000D01*
X186830000Y-113720000D02*
X186770000Y-117030000D01*
X193390000Y-111950000D02*
X193220000Y-111780000D01*
X193950000Y-116680000D02*
X193390000Y-116120000D01*
X183850780Y-117030000D02*
X183583580Y-117297200D01*
X186770000Y-117030000D02*
X183850780Y-117030000D01*
X156542740Y-120103900D02*
X156542740Y-122692160D01*
X156542740Y-122692160D02*
X157505400Y-123654820D01*
X157505400Y-123654820D02*
X158892240Y-123654820D01*
X161180780Y-125943360D02*
X165272720Y-125943360D01*
X158892240Y-123654820D02*
X161180780Y-125943360D01*
X166357300Y-123654820D02*
X161660840Y-123654820D01*
X161660840Y-123654820D02*
X160637220Y-122631200D01*
X160637220Y-119860060D02*
X165031420Y-115465860D01*
X160637220Y-122631200D02*
X160637220Y-119860060D01*
X158810000Y-86280000D02*
X158800000Y-82050420D01*
X158800000Y-82050420D02*
X158818580Y-82031840D01*
D22*
X118178580Y-130291840D02*
X118178580Y-126161800D01*
X118178580Y-126161800D02*
X118501160Y-125839220D01*
X118501160Y-125839220D02*
X141838680Y-125839220D01*
X141838680Y-125839220D02*
X143187420Y-124490480D01*
X143187420Y-124490480D02*
X143187420Y-93091000D01*
X143187420Y-93091000D02*
X188546740Y-93091000D01*
X196844420Y-84793320D02*
X202587860Y-84793320D01*
X188546740Y-93091000D02*
X196844420Y-84793320D01*
X190154560Y-94927420D02*
X198288660Y-86793320D01*
X144873980Y-94927420D02*
X190154560Y-94927420D01*
X198288660Y-86793320D02*
X202587860Y-86793320D01*
X121051320Y-127525780D02*
X143685260Y-127525780D01*
X120718580Y-130291840D02*
X120718580Y-127858520D01*
X143685260Y-127525780D02*
X144873980Y-126337060D01*
X120718580Y-127858520D02*
X121051320Y-127525780D01*
X144873980Y-126337060D02*
X144873980Y-94927420D01*
D21*
X202577700Y-97049840D02*
X201589840Y-97049840D01*
X200590000Y-96050000D02*
X200590000Y-92050000D01*
X201589840Y-97049840D02*
X200590000Y-96050000D01*
X153738580Y-82031840D02*
X153738580Y-89081420D01*
X153738580Y-89081420D02*
X153857160Y-89200000D01*
X153857160Y-89200000D02*
X163220000Y-89200000D01*
X163220000Y-89200000D02*
X165110000Y-91090000D01*
X187540000Y-91090000D02*
X190240000Y-88390000D01*
X165110000Y-91090000D02*
X187540000Y-91090000D01*
X201568320Y-106691680D02*
X202646280Y-106691680D01*
X200080000Y-108180000D02*
X201568320Y-106691680D01*
X200080000Y-110000000D02*
X200080000Y-108180000D01*
X197280000Y-110000000D02*
X200080000Y-110000000D01*
X151198580Y-82031840D02*
X151198580Y-90658580D01*
X151450000Y-90910000D02*
X161060000Y-90910000D01*
X151198580Y-90658580D02*
X151450000Y-90910000D01*
X167949880Y-126570740D02*
X167949880Y-122249880D01*
X167949880Y-122249880D02*
X165970000Y-120270000D01*
X165970000Y-120270000D02*
X163920000Y-120270000D01*
X163920000Y-120270000D02*
X163920000Y-119130000D01*
X163920000Y-119130000D02*
X163980000Y-119130000D01*
X180938500Y-102171500D02*
X196471540Y-102171500D01*
X163980000Y-119130000D02*
X180938500Y-102171500D01*
D23*
X119159020Y-102466140D02*
X105923080Y-102466140D01*
X104587640Y-103801580D02*
X102656640Y-103801580D01*
X105923080Y-102466140D02*
X104587640Y-103801580D01*
X102762840Y-100195380D02*
X102656640Y-100301580D01*
X119118380Y-100195380D02*
X102762840Y-100195380D01*
X113129060Y-90261440D02*
X113129060Y-91815920D01*
X113129060Y-91815920D02*
X107995720Y-91815920D01*
X107995720Y-91815920D02*
X106070400Y-93741240D01*
X106070400Y-93741240D02*
X106070400Y-96644460D01*
X102813760Y-96644460D02*
X102656640Y-96801580D01*
X106070400Y-96644460D02*
X102813760Y-96644460D01*
X105112940Y-89801580D02*
X102656640Y-89801580D01*
X119171720Y-88371680D02*
X106542840Y-88371680D01*
X106542840Y-88371680D02*
X105112940Y-89801580D01*
X102748080Y-86210140D02*
X102656640Y-86301580D01*
X102781100Y-86177120D02*
X102656640Y-86301580D01*
X119138700Y-86177120D02*
X102781100Y-86177120D01*
X133817360Y-121724420D02*
X135630920Y-121724420D01*
X131836160Y-123705620D02*
X133817360Y-121724420D01*
X115443000Y-123705620D02*
X131836160Y-123705620D01*
X102649020Y-127619160D02*
X111529460Y-127619160D01*
X111529460Y-127619160D02*
X115443000Y-123705620D01*
X131411980Y-120520460D02*
X130462020Y-121470420D01*
X130462020Y-121470420D02*
X113827560Y-121470420D01*
X113827560Y-121470420D02*
X111165640Y-124132340D01*
X102662200Y-124132340D02*
X102649020Y-124119160D01*
X111165640Y-124132340D02*
X102662200Y-124132340D01*
X102561641Y-116681831D02*
X102386666Y-116856806D01*
X105606269Y-116681831D02*
X102561641Y-116681831D01*
X125023880Y-114147600D02*
X108137960Y-114150140D01*
X108137960Y-114150140D02*
X105606269Y-116681831D01*
X113002060Y-104475280D02*
X113002060Y-105986580D01*
X113002060Y-105986580D02*
X112803940Y-106184700D01*
X112803940Y-106184700D02*
X106867960Y-106184700D01*
X106867960Y-106184700D02*
X106669840Y-106382820D01*
X106669840Y-106382820D02*
X106669840Y-112486440D01*
X105537120Y-113619160D02*
X102649020Y-113619160D01*
X106669840Y-112486440D02*
X105537120Y-113619160D01*
D21*
X173070000Y-122290000D02*
X173060000Y-127280000D01*
X178250000Y-107180000D02*
X178250000Y-107050000D01*
X173070000Y-112360000D02*
X178250000Y-107180000D01*
X165422580Y-130291840D02*
X165422580Y-128332580D01*
X165422580Y-128332580D02*
X165625160Y-128130000D01*
X165625160Y-128130000D02*
X186130000Y-128130000D01*
X186130000Y-128130000D02*
X187600000Y-126660000D01*
X187600000Y-126660000D02*
X196710000Y-126660000D01*
X196670000Y-126620000D02*
X196710000Y-126660000D01*
X162882580Y-130291840D02*
X162882580Y-127708660D01*
X162882580Y-127708660D02*
X162839400Y-127665480D01*
X162839400Y-127665480D02*
X160492440Y-127665480D01*
X160492440Y-127665480D02*
X157904180Y-125077220D01*
X157904180Y-125077220D02*
X156397960Y-125077220D01*
X154891740Y-123571000D02*
X154891740Y-97442020D01*
X156397960Y-125077220D02*
X154891740Y-123571000D01*
X158818580Y-130291840D02*
X158818580Y-128341120D01*
X158818580Y-128341120D02*
X156878020Y-126400560D01*
X156878020Y-126400560D02*
X155313380Y-126400560D01*
X153446480Y-124533660D02*
X153446480Y-98706940D01*
X155313380Y-126400560D02*
X153446480Y-124533660D01*
X156278580Y-130291840D02*
X156278580Y-127909320D01*
X156278580Y-127909320D02*
X156154120Y-127784860D01*
X156154120Y-127784860D02*
X154531060Y-127784860D01*
X152123140Y-125376940D02*
X152123140Y-99969320D01*
X154531060Y-127784860D02*
X152123140Y-125376940D01*
X153738580Y-130291840D02*
X153738580Y-129161540D01*
X150677880Y-126100840D02*
X150677880Y-101234240D01*
X153738580Y-129161540D02*
X150677880Y-126100840D01*
X151198580Y-130291840D02*
X151198580Y-128785620D01*
X149293580Y-126880620D02*
X149293580Y-102499160D01*
X151198580Y-128785620D02*
X149293580Y-126880620D01*
X148658580Y-130291840D02*
X148658580Y-127993140D01*
X147909280Y-127243840D02*
X147909280Y-103764080D01*
X148658580Y-127993140D02*
X147909280Y-127243840D01*
X146118580Y-130291840D02*
X146118580Y-127828040D01*
X146583400Y-127363220D02*
X146583400Y-105029000D01*
X146118580Y-127828040D02*
X146583400Y-127363220D01*
X196420040Y-104660000D02*
X196471540Y-104711500D01*
X193780000Y-110130000D02*
X193780000Y-104660000D01*
X193780000Y-104660000D02*
X196420040Y-104660000D01*
X195490000Y-122950000D02*
X190530000Y-122950000D01*
X188770000Y-121190000D02*
X186550000Y-121190000D01*
X190530000Y-122950000D02*
X188770000Y-121190000D01*
X195490000Y-122950000D02*
X195490000Y-110180000D01*
X195440000Y-110130000D02*
X193780000Y-110130000D01*
X195490000Y-110180000D02*
X195440000Y-110130000D01*
X118930420Y-119806720D02*
X120045480Y-118691660D01*
X120045480Y-118691660D02*
X128361440Y-118691660D01*
X128361440Y-118691660D02*
X133192520Y-113860580D01*
X133192520Y-106631740D02*
X133261100Y-106563160D01*
X133192520Y-113860580D02*
X133192520Y-106631740D01*
X112603280Y-119806720D02*
X111760000Y-120650000D01*
X118930420Y-119806720D02*
X112603280Y-119806720D01*
X125780800Y-106250740D02*
X116078000Y-106250740D01*
X129491740Y-102539800D02*
X125780800Y-106250740D01*
X131069080Y-102539800D02*
X129491740Y-102539800D01*
X116078000Y-106250740D02*
X115745260Y-106250740D01*
X113792000Y-108204000D02*
X112014000Y-108204000D01*
X115745260Y-106250740D02*
X113792000Y-108204000D01*
X130103880Y-103906320D02*
X135407400Y-103906320D01*
X135488680Y-103825040D02*
X135488680Y-101208840D01*
X135407400Y-103906320D02*
X135488680Y-103825040D01*
X130103880Y-103906320D02*
X130027680Y-103906320D01*
X125984000Y-107950000D02*
X123698000Y-107950000D01*
X130027680Y-103906320D02*
X125984000Y-107950000D01*
X131064000Y-100076000D02*
X131064000Y-99568000D01*
X131064000Y-99568000D02*
X129032000Y-97536000D01*
X129032000Y-97536000D02*
X129032000Y-95758000D01*
X129032000Y-95758000D02*
X122428000Y-95758000D01*
X120396000Y-93726000D02*
X111760000Y-93726000D01*
X122428000Y-95758000D02*
X120396000Y-93726000D01*
X130810000Y-94996000D02*
X130302000Y-94488000D01*
X124714000Y-94488000D02*
X123952000Y-93726000D01*
X130302000Y-94488000D02*
X124714000Y-94488000D01*
D22*
X133314440Y-94251780D02*
X137269220Y-98206560D01*
X137269220Y-98206560D02*
X137269220Y-106586020D01*
X137269220Y-106586020D02*
X134642860Y-109212380D01*
X134642860Y-109212380D02*
X134642860Y-117096540D01*
X134642860Y-117096540D02*
X138666220Y-121119900D01*
X138666220Y-121973340D02*
X136316720Y-124322840D01*
X138666220Y-121119900D02*
X138666220Y-121973340D01*
M02*
