G04 #@! TF.GenerationSoftware,KiCad,Pcbnew,(5.1.9)-1*
G04 #@! TF.CreationDate,2021-03-29T18:58:07+02:00*
G04 #@! TF.ProjectId,Interface_board_1,496e7465-7266-4616-9365-5f626f617264,4.h.0.01*
G04 #@! TF.SameCoordinates,Original*
G04 #@! TF.FileFunction,Paste,Top*
G04 #@! TF.FilePolarity,Positive*
%FSLAX46Y46*%
G04 Gerber Fmt 4.6, Leading zero omitted, Abs format (unit mm)*
G04 Created by KiCad (PCBNEW (5.1.9)-1) date 2021-03-29 18:58:07*
%MOMM*%
%LPD*%
G01*
G04 APERTURE LIST*
%ADD10R,0.900000X0.800000*%
%ADD11R,0.800000X0.900000*%
%ADD12R,1.800000X0.800000*%
%ADD13R,0.800000X1.800000*%
G04 APERTURE END LIST*
G36*
G01*
X145833940Y-117109540D02*
X147083940Y-117109540D01*
G75*
G02*
X147333940Y-117359540I0J-250000D01*
G01*
X147333940Y-118109540D01*
G75*
G02*
X147083940Y-118359540I-250000J0D01*
G01*
X145833940Y-118359540D01*
G75*
G02*
X145583940Y-118109540I0J250000D01*
G01*
X145583940Y-117359540D01*
G75*
G02*
X145833940Y-117109540I250000J0D01*
G01*
G37*
G36*
G01*
X145833940Y-114309540D02*
X147083940Y-114309540D01*
G75*
G02*
X147333940Y-114559540I0J-250000D01*
G01*
X147333940Y-115309540D01*
G75*
G02*
X147083940Y-115559540I-250000J0D01*
G01*
X145833940Y-115559540D01*
G75*
G02*
X145583940Y-115309540I0J250000D01*
G01*
X145583940Y-114559540D01*
G75*
G02*
X145833940Y-114309540I250000J0D01*
G01*
G37*
G36*
G01*
X147109340Y-123100800D02*
X145859340Y-123100800D01*
G75*
G02*
X145609340Y-122850800I0J250000D01*
G01*
X145609340Y-122100800D01*
G75*
G02*
X145859340Y-121850800I250000J0D01*
G01*
X147109340Y-121850800D01*
G75*
G02*
X147359340Y-122100800I0J-250000D01*
G01*
X147359340Y-122850800D01*
G75*
G02*
X147109340Y-123100800I-250000J0D01*
G01*
G37*
G36*
G01*
X147109340Y-125900800D02*
X145859340Y-125900800D01*
G75*
G02*
X145609340Y-125650800I0J250000D01*
G01*
X145609340Y-124900800D01*
G75*
G02*
X145859340Y-124650800I250000J0D01*
G01*
X147109340Y-124650800D01*
G75*
G02*
X147359340Y-124900800I0J-250000D01*
G01*
X147359340Y-125650800D01*
G75*
G02*
X147109340Y-125900800I-250000J0D01*
G01*
G37*
D10*
X154275280Y-116047520D03*
X156275280Y-115097520D03*
X156275280Y-116997520D03*
D11*
X177154840Y-124583700D03*
X176204840Y-122583700D03*
X178104840Y-122583700D03*
G36*
G01*
X134341740Y-104889160D02*
X134341740Y-105189160D01*
G75*
G02*
X134191740Y-105339160I-150000J0D01*
G01*
X132541740Y-105339160D01*
G75*
G02*
X132391740Y-105189160I0J150000D01*
G01*
X132391740Y-104889160D01*
G75*
G02*
X132541740Y-104739160I150000J0D01*
G01*
X134191740Y-104739160D01*
G75*
G02*
X134341740Y-104889160I0J-150000D01*
G01*
G37*
G36*
G01*
X134341740Y-103619160D02*
X134341740Y-103919160D01*
G75*
G02*
X134191740Y-104069160I-150000J0D01*
G01*
X132541740Y-104069160D01*
G75*
G02*
X132391740Y-103919160I0J150000D01*
G01*
X132391740Y-103619160D01*
G75*
G02*
X132541740Y-103469160I150000J0D01*
G01*
X134191740Y-103469160D01*
G75*
G02*
X134341740Y-103619160I0J-150000D01*
G01*
G37*
G36*
G01*
X134341740Y-102349160D02*
X134341740Y-102649160D01*
G75*
G02*
X134191740Y-102799160I-150000J0D01*
G01*
X132541740Y-102799160D01*
G75*
G02*
X132391740Y-102649160I0J150000D01*
G01*
X132391740Y-102349160D01*
G75*
G02*
X132541740Y-102199160I150000J0D01*
G01*
X134191740Y-102199160D01*
G75*
G02*
X134341740Y-102349160I0J-150000D01*
G01*
G37*
G36*
G01*
X134341740Y-101079160D02*
X134341740Y-101379160D01*
G75*
G02*
X134191740Y-101529160I-150000J0D01*
G01*
X132541740Y-101529160D01*
G75*
G02*
X132391740Y-101379160I0J150000D01*
G01*
X132391740Y-101079160D01*
G75*
G02*
X132541740Y-100929160I150000J0D01*
G01*
X134191740Y-100929160D01*
G75*
G02*
X134341740Y-101079160I0J-150000D01*
G01*
G37*
G36*
G01*
X134341740Y-99809160D02*
X134341740Y-100109160D01*
G75*
G02*
X134191740Y-100259160I-150000J0D01*
G01*
X132541740Y-100259160D01*
G75*
G02*
X132391740Y-100109160I0J150000D01*
G01*
X132391740Y-99809160D01*
G75*
G02*
X132541740Y-99659160I150000J0D01*
G01*
X134191740Y-99659160D01*
G75*
G02*
X134341740Y-99809160I0J-150000D01*
G01*
G37*
G36*
G01*
X134341740Y-98539160D02*
X134341740Y-98839160D01*
G75*
G02*
X134191740Y-98989160I-150000J0D01*
G01*
X132541740Y-98989160D01*
G75*
G02*
X132391740Y-98839160I0J150000D01*
G01*
X132391740Y-98539160D01*
G75*
G02*
X132541740Y-98389160I150000J0D01*
G01*
X134191740Y-98389160D01*
G75*
G02*
X134341740Y-98539160I0J-150000D01*
G01*
G37*
G36*
G01*
X134341740Y-97269160D02*
X134341740Y-97569160D01*
G75*
G02*
X134191740Y-97719160I-150000J0D01*
G01*
X132541740Y-97719160D01*
G75*
G02*
X132391740Y-97569160I0J150000D01*
G01*
X132391740Y-97269160D01*
G75*
G02*
X132541740Y-97119160I150000J0D01*
G01*
X134191740Y-97119160D01*
G75*
G02*
X134341740Y-97269160I0J-150000D01*
G01*
G37*
G36*
G01*
X134341740Y-95999160D02*
X134341740Y-96299160D01*
G75*
G02*
X134191740Y-96449160I-150000J0D01*
G01*
X132541740Y-96449160D01*
G75*
G02*
X132391740Y-96299160I0J150000D01*
G01*
X132391740Y-95999160D01*
G75*
G02*
X132541740Y-95849160I150000J0D01*
G01*
X134191740Y-95849160D01*
G75*
G02*
X134341740Y-95999160I0J-150000D01*
G01*
G37*
G36*
G01*
X139291740Y-95999160D02*
X139291740Y-96299160D01*
G75*
G02*
X139141740Y-96449160I-150000J0D01*
G01*
X137491740Y-96449160D01*
G75*
G02*
X137341740Y-96299160I0J150000D01*
G01*
X137341740Y-95999160D01*
G75*
G02*
X137491740Y-95849160I150000J0D01*
G01*
X139141740Y-95849160D01*
G75*
G02*
X139291740Y-95999160I0J-150000D01*
G01*
G37*
G36*
G01*
X139291740Y-97269160D02*
X139291740Y-97569160D01*
G75*
G02*
X139141740Y-97719160I-150000J0D01*
G01*
X137491740Y-97719160D01*
G75*
G02*
X137341740Y-97569160I0J150000D01*
G01*
X137341740Y-97269160D01*
G75*
G02*
X137491740Y-97119160I150000J0D01*
G01*
X139141740Y-97119160D01*
G75*
G02*
X139291740Y-97269160I0J-150000D01*
G01*
G37*
G36*
G01*
X139291740Y-98539160D02*
X139291740Y-98839160D01*
G75*
G02*
X139141740Y-98989160I-150000J0D01*
G01*
X137491740Y-98989160D01*
G75*
G02*
X137341740Y-98839160I0J150000D01*
G01*
X137341740Y-98539160D01*
G75*
G02*
X137491740Y-98389160I150000J0D01*
G01*
X139141740Y-98389160D01*
G75*
G02*
X139291740Y-98539160I0J-150000D01*
G01*
G37*
G36*
G01*
X139291740Y-99809160D02*
X139291740Y-100109160D01*
G75*
G02*
X139141740Y-100259160I-150000J0D01*
G01*
X137491740Y-100259160D01*
G75*
G02*
X137341740Y-100109160I0J150000D01*
G01*
X137341740Y-99809160D01*
G75*
G02*
X137491740Y-99659160I150000J0D01*
G01*
X139141740Y-99659160D01*
G75*
G02*
X139291740Y-99809160I0J-150000D01*
G01*
G37*
G36*
G01*
X139291740Y-101079160D02*
X139291740Y-101379160D01*
G75*
G02*
X139141740Y-101529160I-150000J0D01*
G01*
X137491740Y-101529160D01*
G75*
G02*
X137341740Y-101379160I0J150000D01*
G01*
X137341740Y-101079160D01*
G75*
G02*
X137491740Y-100929160I150000J0D01*
G01*
X139141740Y-100929160D01*
G75*
G02*
X139291740Y-101079160I0J-150000D01*
G01*
G37*
G36*
G01*
X139291740Y-102349160D02*
X139291740Y-102649160D01*
G75*
G02*
X139141740Y-102799160I-150000J0D01*
G01*
X137491740Y-102799160D01*
G75*
G02*
X137341740Y-102649160I0J150000D01*
G01*
X137341740Y-102349160D01*
G75*
G02*
X137491740Y-102199160I150000J0D01*
G01*
X139141740Y-102199160D01*
G75*
G02*
X139291740Y-102349160I0J-150000D01*
G01*
G37*
G36*
G01*
X139291740Y-103619160D02*
X139291740Y-103919160D01*
G75*
G02*
X139141740Y-104069160I-150000J0D01*
G01*
X137491740Y-104069160D01*
G75*
G02*
X137341740Y-103919160I0J150000D01*
G01*
X137341740Y-103619160D01*
G75*
G02*
X137491740Y-103469160I150000J0D01*
G01*
X139141740Y-103469160D01*
G75*
G02*
X139291740Y-103619160I0J-150000D01*
G01*
G37*
G36*
G01*
X139291740Y-104889160D02*
X139291740Y-105189160D01*
G75*
G02*
X139141740Y-105339160I-150000J0D01*
G01*
X137491740Y-105339160D01*
G75*
G02*
X137341740Y-105189160I0J150000D01*
G01*
X137341740Y-104889160D01*
G75*
G02*
X137491740Y-104739160I150000J0D01*
G01*
X139141740Y-104739160D01*
G75*
G02*
X139291740Y-104889160I0J-150000D01*
G01*
G37*
G36*
G01*
X163036380Y-119110900D02*
X163036380Y-118810900D01*
G75*
G02*
X163186380Y-118660900I150000J0D01*
G01*
X164836380Y-118660900D01*
G75*
G02*
X164986380Y-118810900I0J-150000D01*
G01*
X164986380Y-119110900D01*
G75*
G02*
X164836380Y-119260900I-150000J0D01*
G01*
X163186380Y-119260900D01*
G75*
G02*
X163036380Y-119110900I0J150000D01*
G01*
G37*
G36*
G01*
X163036380Y-120380900D02*
X163036380Y-120080900D01*
G75*
G02*
X163186380Y-119930900I150000J0D01*
G01*
X164836380Y-119930900D01*
G75*
G02*
X164986380Y-120080900I0J-150000D01*
G01*
X164986380Y-120380900D01*
G75*
G02*
X164836380Y-120530900I-150000J0D01*
G01*
X163186380Y-120530900D01*
G75*
G02*
X163036380Y-120380900I0J150000D01*
G01*
G37*
G36*
G01*
X163036380Y-121650900D02*
X163036380Y-121350900D01*
G75*
G02*
X163186380Y-121200900I150000J0D01*
G01*
X164836380Y-121200900D01*
G75*
G02*
X164986380Y-121350900I0J-150000D01*
G01*
X164986380Y-121650900D01*
G75*
G02*
X164836380Y-121800900I-150000J0D01*
G01*
X163186380Y-121800900D01*
G75*
G02*
X163036380Y-121650900I0J150000D01*
G01*
G37*
G36*
G01*
X163036380Y-122920900D02*
X163036380Y-122620900D01*
G75*
G02*
X163186380Y-122470900I150000J0D01*
G01*
X164836380Y-122470900D01*
G75*
G02*
X164986380Y-122620900I0J-150000D01*
G01*
X164986380Y-122920900D01*
G75*
G02*
X164836380Y-123070900I-150000J0D01*
G01*
X163186380Y-123070900D01*
G75*
G02*
X163036380Y-122920900I0J150000D01*
G01*
G37*
G36*
G01*
X158086380Y-122920900D02*
X158086380Y-122620900D01*
G75*
G02*
X158236380Y-122470900I150000J0D01*
G01*
X159886380Y-122470900D01*
G75*
G02*
X160036380Y-122620900I0J-150000D01*
G01*
X160036380Y-122920900D01*
G75*
G02*
X159886380Y-123070900I-150000J0D01*
G01*
X158236380Y-123070900D01*
G75*
G02*
X158086380Y-122920900I0J150000D01*
G01*
G37*
G36*
G01*
X158086380Y-121650900D02*
X158086380Y-121350900D01*
G75*
G02*
X158236380Y-121200900I150000J0D01*
G01*
X159886380Y-121200900D01*
G75*
G02*
X160036380Y-121350900I0J-150000D01*
G01*
X160036380Y-121650900D01*
G75*
G02*
X159886380Y-121800900I-150000J0D01*
G01*
X158236380Y-121800900D01*
G75*
G02*
X158086380Y-121650900I0J150000D01*
G01*
G37*
G36*
G01*
X158086380Y-120380900D02*
X158086380Y-120080900D01*
G75*
G02*
X158236380Y-119930900I150000J0D01*
G01*
X159886380Y-119930900D01*
G75*
G02*
X160036380Y-120080900I0J-150000D01*
G01*
X160036380Y-120380900D01*
G75*
G02*
X159886380Y-120530900I-150000J0D01*
G01*
X158236380Y-120530900D01*
G75*
G02*
X158086380Y-120380900I0J150000D01*
G01*
G37*
G36*
G01*
X158086380Y-119110900D02*
X158086380Y-118810900D01*
G75*
G02*
X158236380Y-118660900I150000J0D01*
G01*
X159886380Y-118660900D01*
G75*
G02*
X160036380Y-118810900I0J-150000D01*
G01*
X160036380Y-119110900D01*
G75*
G02*
X159886380Y-119260900I-150000J0D01*
G01*
X158236380Y-119260900D01*
G75*
G02*
X158086380Y-119110900I0J150000D01*
G01*
G37*
G36*
G01*
X166380000Y-86080000D02*
X166380000Y-87680000D01*
G75*
G02*
X166180000Y-87880000I-200000J0D01*
G01*
X165780000Y-87880000D01*
G75*
G02*
X165580000Y-87680000I0J200000D01*
G01*
X165580000Y-86080000D01*
G75*
G02*
X165780000Y-85880000I200000J0D01*
G01*
X166180000Y-85880000D01*
G75*
G02*
X166380000Y-86080000I0J-200000D01*
G01*
G37*
G36*
G01*
X162180000Y-86080000D02*
X162180000Y-87680000D01*
G75*
G02*
X161980000Y-87880000I-200000J0D01*
G01*
X161580000Y-87880000D01*
G75*
G02*
X161380000Y-87680000I0J200000D01*
G01*
X161380000Y-86080000D01*
G75*
G02*
X161580000Y-85880000I200000J0D01*
G01*
X161980000Y-85880000D01*
G75*
G02*
X162180000Y-86080000I0J-200000D01*
G01*
G37*
G36*
G01*
X202115000Y-121515000D02*
X200865000Y-121515000D01*
G75*
G02*
X200615000Y-121265000I0J250000D01*
G01*
X200615000Y-120515000D01*
G75*
G02*
X200865000Y-120265000I250000J0D01*
G01*
X202115000Y-120265000D01*
G75*
G02*
X202365000Y-120515000I0J-250000D01*
G01*
X202365000Y-121265000D01*
G75*
G02*
X202115000Y-121515000I-250000J0D01*
G01*
G37*
G36*
G01*
X202115000Y-124315000D02*
X200865000Y-124315000D01*
G75*
G02*
X200615000Y-124065000I0J250000D01*
G01*
X200615000Y-123315000D01*
G75*
G02*
X200865000Y-123065000I250000J0D01*
G01*
X202115000Y-123065000D01*
G75*
G02*
X202365000Y-123315000I0J-250000D01*
G01*
X202365000Y-124065000D01*
G75*
G02*
X202115000Y-124315000I-250000J0D01*
G01*
G37*
G36*
G01*
X153251060Y-123100800D02*
X152001060Y-123100800D01*
G75*
G02*
X151751060Y-122850800I0J250000D01*
G01*
X151751060Y-122100800D01*
G75*
G02*
X152001060Y-121850800I250000J0D01*
G01*
X153251060Y-121850800D01*
G75*
G02*
X153501060Y-122100800I0J-250000D01*
G01*
X153501060Y-122850800D01*
G75*
G02*
X153251060Y-123100800I-250000J0D01*
G01*
G37*
G36*
G01*
X153251060Y-125900800D02*
X152001060Y-125900800D01*
G75*
G02*
X151751060Y-125650800I0J250000D01*
G01*
X151751060Y-124900800D01*
G75*
G02*
X152001060Y-124650800I250000J0D01*
G01*
X153251060Y-124650800D01*
G75*
G02*
X153501060Y-124900800I0J-250000D01*
G01*
X153501060Y-125650800D01*
G75*
G02*
X153251060Y-125900800I-250000J0D01*
G01*
G37*
G36*
G01*
X196039360Y-123048060D02*
X197289360Y-123048060D01*
G75*
G02*
X197539360Y-123298060I0J-250000D01*
G01*
X197539360Y-124048060D01*
G75*
G02*
X197289360Y-124298060I-250000J0D01*
G01*
X196039360Y-124298060D01*
G75*
G02*
X195789360Y-124048060I0J250000D01*
G01*
X195789360Y-123298060D01*
G75*
G02*
X196039360Y-123048060I250000J0D01*
G01*
G37*
G36*
G01*
X196039360Y-120248060D02*
X197289360Y-120248060D01*
G75*
G02*
X197539360Y-120498060I0J-250000D01*
G01*
X197539360Y-121248060D01*
G75*
G02*
X197289360Y-121498060I-250000J0D01*
G01*
X196039360Y-121498060D01*
G75*
G02*
X195789360Y-121248060I0J250000D01*
G01*
X195789360Y-120498060D01*
G75*
G02*
X196039360Y-120248060I250000J0D01*
G01*
G37*
G36*
G01*
X171046440Y-124937680D02*
X171046440Y-123687680D01*
G75*
G02*
X171296440Y-123437680I250000J0D01*
G01*
X172046440Y-123437680D01*
G75*
G02*
X172296440Y-123687680I0J-250000D01*
G01*
X172296440Y-124937680D01*
G75*
G02*
X172046440Y-125187680I-250000J0D01*
G01*
X171296440Y-125187680D01*
G75*
G02*
X171046440Y-124937680I0J250000D01*
G01*
G37*
G36*
G01*
X168246440Y-124937680D02*
X168246440Y-123687680D01*
G75*
G02*
X168496440Y-123437680I250000J0D01*
G01*
X169246440Y-123437680D01*
G75*
G02*
X169496440Y-123687680I0J-250000D01*
G01*
X169496440Y-124937680D01*
G75*
G02*
X169246440Y-125187680I-250000J0D01*
G01*
X168496440Y-125187680D01*
G75*
G02*
X168246440Y-124937680I0J250000D01*
G01*
G37*
G36*
G01*
X162192000Y-127150020D02*
X162192000Y-125900020D01*
G75*
G02*
X162442000Y-125650020I250000J0D01*
G01*
X163192000Y-125650020D01*
G75*
G02*
X163442000Y-125900020I0J-250000D01*
G01*
X163442000Y-127150020D01*
G75*
G02*
X163192000Y-127400020I-250000J0D01*
G01*
X162442000Y-127400020D01*
G75*
G02*
X162192000Y-127150020I0J250000D01*
G01*
G37*
G36*
G01*
X159392000Y-127150020D02*
X159392000Y-125900020D01*
G75*
G02*
X159642000Y-125650020I250000J0D01*
G01*
X160392000Y-125650020D01*
G75*
G02*
X160642000Y-125900020I0J-250000D01*
G01*
X160642000Y-127150020D01*
G75*
G02*
X160392000Y-127400020I-250000J0D01*
G01*
X159642000Y-127400020D01*
G75*
G02*
X159392000Y-127150020I0J250000D01*
G01*
G37*
G36*
G01*
X195795520Y-116042740D02*
X197045520Y-116042740D01*
G75*
G02*
X197295520Y-116292740I0J-250000D01*
G01*
X197295520Y-117042740D01*
G75*
G02*
X197045520Y-117292740I-250000J0D01*
G01*
X195795520Y-117292740D01*
G75*
G02*
X195545520Y-117042740I0J250000D01*
G01*
X195545520Y-116292740D01*
G75*
G02*
X195795520Y-116042740I250000J0D01*
G01*
G37*
G36*
G01*
X195795520Y-113242740D02*
X197045520Y-113242740D01*
G75*
G02*
X197295520Y-113492740I0J-250000D01*
G01*
X197295520Y-114242740D01*
G75*
G02*
X197045520Y-114492740I-250000J0D01*
G01*
X195795520Y-114492740D01*
G75*
G02*
X195545520Y-114242740I0J250000D01*
G01*
X195545520Y-113492740D01*
G75*
G02*
X195795520Y-113242740I250000J0D01*
G01*
G37*
G36*
G01*
X190088280Y-124352820D02*
X190088280Y-123102820D01*
G75*
G02*
X190338280Y-122852820I250000J0D01*
G01*
X191088280Y-122852820D01*
G75*
G02*
X191338280Y-123102820I0J-250000D01*
G01*
X191338280Y-124352820D01*
G75*
G02*
X191088280Y-124602820I-250000J0D01*
G01*
X190338280Y-124602820D01*
G75*
G02*
X190088280Y-124352820I0J250000D01*
G01*
G37*
G36*
G01*
X187288280Y-124352820D02*
X187288280Y-123102820D01*
G75*
G02*
X187538280Y-122852820I250000J0D01*
G01*
X188288280Y-122852820D01*
G75*
G02*
X188538280Y-123102820I0J-250000D01*
G01*
X188538280Y-124352820D01*
G75*
G02*
X188288280Y-124602820I-250000J0D01*
G01*
X187538280Y-124602820D01*
G75*
G02*
X187288280Y-124352820I0J250000D01*
G01*
G37*
G36*
G01*
X183031560Y-123062180D02*
X183031560Y-124312180D01*
G75*
G02*
X182781560Y-124562180I-250000J0D01*
G01*
X182031560Y-124562180D01*
G75*
G02*
X181781560Y-124312180I0J250000D01*
G01*
X181781560Y-123062180D01*
G75*
G02*
X182031560Y-122812180I250000J0D01*
G01*
X182781560Y-122812180D01*
G75*
G02*
X183031560Y-123062180I0J-250000D01*
G01*
G37*
G36*
G01*
X185831560Y-123062180D02*
X185831560Y-124312180D01*
G75*
G02*
X185581560Y-124562180I-250000J0D01*
G01*
X184831560Y-124562180D01*
G75*
G02*
X184581560Y-124312180I0J250000D01*
G01*
X184581560Y-123062180D01*
G75*
G02*
X184831560Y-122812180I250000J0D01*
G01*
X185581560Y-122812180D01*
G75*
G02*
X185831560Y-123062180I0J-250000D01*
G01*
G37*
G36*
G01*
X126725000Y-96375000D02*
X126725000Y-97625000D01*
G75*
G02*
X126475000Y-97875000I-250000J0D01*
G01*
X125725000Y-97875000D01*
G75*
G02*
X125475000Y-97625000I0J250000D01*
G01*
X125475000Y-96375000D01*
G75*
G02*
X125725000Y-96125000I250000J0D01*
G01*
X126475000Y-96125000D01*
G75*
G02*
X126725000Y-96375000I0J-250000D01*
G01*
G37*
G36*
G01*
X129525000Y-96375000D02*
X129525000Y-97625000D01*
G75*
G02*
X129275000Y-97875000I-250000J0D01*
G01*
X128525000Y-97875000D01*
G75*
G02*
X128275000Y-97625000I0J250000D01*
G01*
X128275000Y-96375000D01*
G75*
G02*
X128525000Y-96125000I250000J0D01*
G01*
X129275000Y-96125000D01*
G75*
G02*
X129525000Y-96375000I0J-250000D01*
G01*
G37*
G36*
G01*
X114725000Y-96375000D02*
X114725000Y-97625000D01*
G75*
G02*
X114475000Y-97875000I-250000J0D01*
G01*
X113725000Y-97875000D01*
G75*
G02*
X113475000Y-97625000I0J250000D01*
G01*
X113475000Y-96375000D01*
G75*
G02*
X113725000Y-96125000I250000J0D01*
G01*
X114475000Y-96125000D01*
G75*
G02*
X114725000Y-96375000I0J-250000D01*
G01*
G37*
G36*
G01*
X117525000Y-96375000D02*
X117525000Y-97625000D01*
G75*
G02*
X117275000Y-97875000I-250000J0D01*
G01*
X116525000Y-97875000D01*
G75*
G02*
X116275000Y-97625000I0J250000D01*
G01*
X116275000Y-96375000D01*
G75*
G02*
X116525000Y-96125000I250000J0D01*
G01*
X117275000Y-96125000D01*
G75*
G02*
X117525000Y-96375000I0J-250000D01*
G01*
G37*
G36*
G01*
X126725000Y-110375000D02*
X126725000Y-111625000D01*
G75*
G02*
X126475000Y-111875000I-250000J0D01*
G01*
X125725000Y-111875000D01*
G75*
G02*
X125475000Y-111625000I0J250000D01*
G01*
X125475000Y-110375000D01*
G75*
G02*
X125725000Y-110125000I250000J0D01*
G01*
X126475000Y-110125000D01*
G75*
G02*
X126725000Y-110375000I0J-250000D01*
G01*
G37*
G36*
G01*
X129525000Y-110375000D02*
X129525000Y-111625000D01*
G75*
G02*
X129275000Y-111875000I-250000J0D01*
G01*
X128525000Y-111875000D01*
G75*
G02*
X128275000Y-111625000I0J250000D01*
G01*
X128275000Y-110375000D01*
G75*
G02*
X128525000Y-110125000I250000J0D01*
G01*
X129275000Y-110125000D01*
G75*
G02*
X129525000Y-110375000I0J-250000D01*
G01*
G37*
G36*
G01*
X114725000Y-110375000D02*
X114725000Y-111625000D01*
G75*
G02*
X114475000Y-111875000I-250000J0D01*
G01*
X113725000Y-111875000D01*
G75*
G02*
X113475000Y-111625000I0J250000D01*
G01*
X113475000Y-110375000D01*
G75*
G02*
X113725000Y-110125000I250000J0D01*
G01*
X114475000Y-110125000D01*
G75*
G02*
X114725000Y-110375000I0J-250000D01*
G01*
G37*
G36*
G01*
X117525000Y-110375000D02*
X117525000Y-111625000D01*
G75*
G02*
X117275000Y-111875000I-250000J0D01*
G01*
X116525000Y-111875000D01*
G75*
G02*
X116275000Y-111625000I0J250000D01*
G01*
X116275000Y-110375000D01*
G75*
G02*
X116525000Y-110125000I250000J0D01*
G01*
X117275000Y-110125000D01*
G75*
G02*
X117525000Y-110375000I0J-250000D01*
G01*
G37*
G36*
G01*
X126725000Y-124375000D02*
X126725000Y-125625000D01*
G75*
G02*
X126475000Y-125875000I-250000J0D01*
G01*
X125725000Y-125875000D01*
G75*
G02*
X125475000Y-125625000I0J250000D01*
G01*
X125475000Y-124375000D01*
G75*
G02*
X125725000Y-124125000I250000J0D01*
G01*
X126475000Y-124125000D01*
G75*
G02*
X126725000Y-124375000I0J-250000D01*
G01*
G37*
G36*
G01*
X129525000Y-124375000D02*
X129525000Y-125625000D01*
G75*
G02*
X129275000Y-125875000I-250000J0D01*
G01*
X128525000Y-125875000D01*
G75*
G02*
X128275000Y-125625000I0J250000D01*
G01*
X128275000Y-124375000D01*
G75*
G02*
X128525000Y-124125000I250000J0D01*
G01*
X129275000Y-124125000D01*
G75*
G02*
X129525000Y-124375000I0J-250000D01*
G01*
G37*
G36*
G01*
X114725000Y-124375000D02*
X114725000Y-125625000D01*
G75*
G02*
X114475000Y-125875000I-250000J0D01*
G01*
X113725000Y-125875000D01*
G75*
G02*
X113475000Y-125625000I0J250000D01*
G01*
X113475000Y-124375000D01*
G75*
G02*
X113725000Y-124125000I250000J0D01*
G01*
X114475000Y-124125000D01*
G75*
G02*
X114725000Y-124375000I0J-250000D01*
G01*
G37*
G36*
G01*
X117525000Y-124375000D02*
X117525000Y-125625000D01*
G75*
G02*
X117275000Y-125875000I-250000J0D01*
G01*
X116525000Y-125875000D01*
G75*
G02*
X116275000Y-125625000I0J250000D01*
G01*
X116275000Y-124375000D01*
G75*
G02*
X116525000Y-124125000I250000J0D01*
G01*
X117275000Y-124125000D01*
G75*
G02*
X117525000Y-124375000I0J-250000D01*
G01*
G37*
D12*
X128500000Y-93800000D03*
X128500000Y-90600000D03*
X128500000Y-88400000D03*
X128500000Y-86200000D03*
X121500000Y-86200000D03*
X121500000Y-88400000D03*
X121500000Y-90600000D03*
X121500000Y-93800000D03*
X116500000Y-93800000D03*
X116500000Y-90600000D03*
X116500000Y-88400000D03*
X116500000Y-86200000D03*
X109500000Y-86200000D03*
X109500000Y-88400000D03*
X109500000Y-90600000D03*
X109500000Y-93800000D03*
X128500000Y-107800000D03*
X128500000Y-104600000D03*
X128500000Y-102400000D03*
X128500000Y-100200000D03*
X121500000Y-100200000D03*
X121500000Y-102400000D03*
X121500000Y-104600000D03*
X121500000Y-107800000D03*
X116500000Y-107800000D03*
X116500000Y-104600000D03*
X116500000Y-102400000D03*
X116500000Y-100200000D03*
X109500000Y-100200000D03*
X109500000Y-102400000D03*
X109500000Y-104600000D03*
X109500000Y-107800000D03*
X128500000Y-121800000D03*
X128500000Y-118600000D03*
X128500000Y-116400000D03*
X128500000Y-114200000D03*
X121500000Y-114200000D03*
X121500000Y-116400000D03*
X121500000Y-118600000D03*
X121500000Y-121800000D03*
X116500000Y-121800000D03*
X116500000Y-118600000D03*
X116500000Y-116400000D03*
X116500000Y-114200000D03*
X109500000Y-114200000D03*
X109500000Y-116400000D03*
X109500000Y-118600000D03*
X109500000Y-121800000D03*
D13*
X140977780Y-119522360D03*
X137777780Y-119522360D03*
X135577780Y-119522360D03*
X133377780Y-119522360D03*
X133377780Y-126522360D03*
X135577780Y-126522360D03*
X137777780Y-126522360D03*
X140977780Y-126522360D03*
G36*
G01*
X177610480Y-113890920D02*
X177610480Y-115140920D01*
G75*
G02*
X177360480Y-115390920I-250000J0D01*
G01*
X176610480Y-115390920D01*
G75*
G02*
X176360480Y-115140920I0J250000D01*
G01*
X176360480Y-113890920D01*
G75*
G02*
X176610480Y-113640920I250000J0D01*
G01*
X177360480Y-113640920D01*
G75*
G02*
X177610480Y-113890920I0J-250000D01*
G01*
G37*
G36*
G01*
X180410480Y-113890920D02*
X180410480Y-115140920D01*
G75*
G02*
X180160480Y-115390920I-250000J0D01*
G01*
X179410480Y-115390920D01*
G75*
G02*
X179160480Y-115140920I0J250000D01*
G01*
X179160480Y-113890920D01*
G75*
G02*
X179410480Y-113640920I250000J0D01*
G01*
X180160480Y-113640920D01*
G75*
G02*
X180410480Y-113890920I0J-250000D01*
G01*
G37*
G36*
G01*
X200900040Y-116042740D02*
X202150040Y-116042740D01*
G75*
G02*
X202400040Y-116292740I0J-250000D01*
G01*
X202400040Y-117042740D01*
G75*
G02*
X202150040Y-117292740I-250000J0D01*
G01*
X200900040Y-117292740D01*
G75*
G02*
X200650040Y-117042740I0J250000D01*
G01*
X200650040Y-116292740D01*
G75*
G02*
X200900040Y-116042740I250000J0D01*
G01*
G37*
G36*
G01*
X200900040Y-113242740D02*
X202150040Y-113242740D01*
G75*
G02*
X202400040Y-113492740I0J-250000D01*
G01*
X202400040Y-114242740D01*
G75*
G02*
X202150040Y-114492740I-250000J0D01*
G01*
X200900040Y-114492740D01*
G75*
G02*
X200650040Y-114242740I0J250000D01*
G01*
X200650040Y-113492740D01*
G75*
G02*
X200900040Y-113242740I250000J0D01*
G01*
G37*
G36*
G01*
X149778560Y-117178120D02*
X151028560Y-117178120D01*
G75*
G02*
X151278560Y-117428120I0J-250000D01*
G01*
X151278560Y-118178120D01*
G75*
G02*
X151028560Y-118428120I-250000J0D01*
G01*
X149778560Y-118428120D01*
G75*
G02*
X149528560Y-118178120I0J250000D01*
G01*
X149528560Y-117428120D01*
G75*
G02*
X149778560Y-117178120I250000J0D01*
G01*
G37*
G36*
G01*
X149778560Y-114378120D02*
X151028560Y-114378120D01*
G75*
G02*
X151278560Y-114628120I0J-250000D01*
G01*
X151278560Y-115378120D01*
G75*
G02*
X151028560Y-115628120I-250000J0D01*
G01*
X149778560Y-115628120D01*
G75*
G02*
X149528560Y-115378120I0J250000D01*
G01*
X149528560Y-114628120D01*
G75*
G02*
X149778560Y-114378120I250000J0D01*
G01*
G37*
G36*
G01*
X123275000Y-97625000D02*
X123275000Y-96375000D01*
G75*
G02*
X123525000Y-96125000I250000J0D01*
G01*
X124275000Y-96125000D01*
G75*
G02*
X124525000Y-96375000I0J-250000D01*
G01*
X124525000Y-97625000D01*
G75*
G02*
X124275000Y-97875000I-250000J0D01*
G01*
X123525000Y-97875000D01*
G75*
G02*
X123275000Y-97625000I0J250000D01*
G01*
G37*
G36*
G01*
X120475000Y-97625000D02*
X120475000Y-96375000D01*
G75*
G02*
X120725000Y-96125000I250000J0D01*
G01*
X121475000Y-96125000D01*
G75*
G02*
X121725000Y-96375000I0J-250000D01*
G01*
X121725000Y-97625000D01*
G75*
G02*
X121475000Y-97875000I-250000J0D01*
G01*
X120725000Y-97875000D01*
G75*
G02*
X120475000Y-97625000I0J250000D01*
G01*
G37*
G36*
G01*
X111275000Y-97625000D02*
X111275000Y-96375000D01*
G75*
G02*
X111525000Y-96125000I250000J0D01*
G01*
X112275000Y-96125000D01*
G75*
G02*
X112525000Y-96375000I0J-250000D01*
G01*
X112525000Y-97625000D01*
G75*
G02*
X112275000Y-97875000I-250000J0D01*
G01*
X111525000Y-97875000D01*
G75*
G02*
X111275000Y-97625000I0J250000D01*
G01*
G37*
G36*
G01*
X108475000Y-97625000D02*
X108475000Y-96375000D01*
G75*
G02*
X108725000Y-96125000I250000J0D01*
G01*
X109475000Y-96125000D01*
G75*
G02*
X109725000Y-96375000I0J-250000D01*
G01*
X109725000Y-97625000D01*
G75*
G02*
X109475000Y-97875000I-250000J0D01*
G01*
X108725000Y-97875000D01*
G75*
G02*
X108475000Y-97625000I0J250000D01*
G01*
G37*
G36*
G01*
X123275000Y-111625000D02*
X123275000Y-110375000D01*
G75*
G02*
X123525000Y-110125000I250000J0D01*
G01*
X124275000Y-110125000D01*
G75*
G02*
X124525000Y-110375000I0J-250000D01*
G01*
X124525000Y-111625000D01*
G75*
G02*
X124275000Y-111875000I-250000J0D01*
G01*
X123525000Y-111875000D01*
G75*
G02*
X123275000Y-111625000I0J250000D01*
G01*
G37*
G36*
G01*
X120475000Y-111625000D02*
X120475000Y-110375000D01*
G75*
G02*
X120725000Y-110125000I250000J0D01*
G01*
X121475000Y-110125000D01*
G75*
G02*
X121725000Y-110375000I0J-250000D01*
G01*
X121725000Y-111625000D01*
G75*
G02*
X121475000Y-111875000I-250000J0D01*
G01*
X120725000Y-111875000D01*
G75*
G02*
X120475000Y-111625000I0J250000D01*
G01*
G37*
G36*
G01*
X111275000Y-111625000D02*
X111275000Y-110375000D01*
G75*
G02*
X111525000Y-110125000I250000J0D01*
G01*
X112275000Y-110125000D01*
G75*
G02*
X112525000Y-110375000I0J-250000D01*
G01*
X112525000Y-111625000D01*
G75*
G02*
X112275000Y-111875000I-250000J0D01*
G01*
X111525000Y-111875000D01*
G75*
G02*
X111275000Y-111625000I0J250000D01*
G01*
G37*
G36*
G01*
X108475000Y-111625000D02*
X108475000Y-110375000D01*
G75*
G02*
X108725000Y-110125000I250000J0D01*
G01*
X109475000Y-110125000D01*
G75*
G02*
X109725000Y-110375000I0J-250000D01*
G01*
X109725000Y-111625000D01*
G75*
G02*
X109475000Y-111875000I-250000J0D01*
G01*
X108725000Y-111875000D01*
G75*
G02*
X108475000Y-111625000I0J250000D01*
G01*
G37*
G36*
G01*
X123275000Y-125625000D02*
X123275000Y-124375000D01*
G75*
G02*
X123525000Y-124125000I250000J0D01*
G01*
X124275000Y-124125000D01*
G75*
G02*
X124525000Y-124375000I0J-250000D01*
G01*
X124525000Y-125625000D01*
G75*
G02*
X124275000Y-125875000I-250000J0D01*
G01*
X123525000Y-125875000D01*
G75*
G02*
X123275000Y-125625000I0J250000D01*
G01*
G37*
G36*
G01*
X120475000Y-125625000D02*
X120475000Y-124375000D01*
G75*
G02*
X120725000Y-124125000I250000J0D01*
G01*
X121475000Y-124125000D01*
G75*
G02*
X121725000Y-124375000I0J-250000D01*
G01*
X121725000Y-125625000D01*
G75*
G02*
X121475000Y-125875000I-250000J0D01*
G01*
X120725000Y-125875000D01*
G75*
G02*
X120475000Y-125625000I0J250000D01*
G01*
G37*
G36*
G01*
X111275000Y-125625000D02*
X111275000Y-124375000D01*
G75*
G02*
X111525000Y-124125000I250000J0D01*
G01*
X112275000Y-124125000D01*
G75*
G02*
X112525000Y-124375000I0J-250000D01*
G01*
X112525000Y-125625000D01*
G75*
G02*
X112275000Y-125875000I-250000J0D01*
G01*
X111525000Y-125875000D01*
G75*
G02*
X111275000Y-125625000I0J250000D01*
G01*
G37*
G36*
G01*
X108475000Y-125625000D02*
X108475000Y-124375000D01*
G75*
G02*
X108725000Y-124125000I250000J0D01*
G01*
X109475000Y-124125000D01*
G75*
G02*
X109725000Y-124375000I0J-250000D01*
G01*
X109725000Y-125625000D01*
G75*
G02*
X109475000Y-125875000I-250000J0D01*
G01*
X108725000Y-125875000D01*
G75*
G02*
X108475000Y-125625000I0J250000D01*
G01*
G37*
G36*
G01*
X160941720Y-114820540D02*
X160941720Y-116070540D01*
G75*
G02*
X160691720Y-116320540I-250000J0D01*
G01*
X159941720Y-116320540D01*
G75*
G02*
X159691720Y-116070540I0J250000D01*
G01*
X159691720Y-114820540D01*
G75*
G02*
X159941720Y-114570540I250000J0D01*
G01*
X160691720Y-114570540D01*
G75*
G02*
X160941720Y-114820540I0J-250000D01*
G01*
G37*
G36*
G01*
X163741720Y-114820540D02*
X163741720Y-116070540D01*
G75*
G02*
X163491720Y-116320540I-250000J0D01*
G01*
X162741720Y-116320540D01*
G75*
G02*
X162491720Y-116070540I0J250000D01*
G01*
X162491720Y-114820540D01*
G75*
G02*
X162741720Y-114570540I250000J0D01*
G01*
X163491720Y-114570540D01*
G75*
G02*
X163741720Y-114820540I0J-250000D01*
G01*
G37*
G36*
G01*
X170755400Y-116784080D02*
X169655400Y-116784080D01*
G75*
G02*
X169405400Y-116534080I0J250000D01*
G01*
X169405400Y-113534080D01*
G75*
G02*
X169655400Y-113284080I250000J0D01*
G01*
X170755400Y-113284080D01*
G75*
G02*
X171005400Y-113534080I0J-250000D01*
G01*
X171005400Y-116534080D01*
G75*
G02*
X170755400Y-116784080I-250000J0D01*
G01*
G37*
G36*
G01*
X170755400Y-122184080D02*
X169655400Y-122184080D01*
G75*
G02*
X169405400Y-121934080I0J250000D01*
G01*
X169405400Y-118934080D01*
G75*
G02*
X169655400Y-118684080I250000J0D01*
G01*
X170755400Y-118684080D01*
G75*
G02*
X171005400Y-118934080I0J-250000D01*
G01*
X171005400Y-121934080D01*
G75*
G02*
X170755400Y-122184080I-250000J0D01*
G01*
G37*
G36*
G01*
X180410480Y-117899040D02*
X180410480Y-119149040D01*
G75*
G02*
X180160480Y-119399040I-250000J0D01*
G01*
X179410480Y-119399040D01*
G75*
G02*
X179160480Y-119149040I0J250000D01*
G01*
X179160480Y-117899040D01*
G75*
G02*
X179410480Y-117649040I250000J0D01*
G01*
X180160480Y-117649040D01*
G75*
G02*
X180410480Y-117899040I0J-250000D01*
G01*
G37*
G36*
G01*
X177610480Y-117899040D02*
X177610480Y-119149040D01*
G75*
G02*
X177360480Y-119399040I-250000J0D01*
G01*
X176610480Y-119399040D01*
G75*
G02*
X176360480Y-119149040I0J250000D01*
G01*
X176360480Y-117899040D01*
G75*
G02*
X176610480Y-117649040I250000J0D01*
G01*
X177360480Y-117649040D01*
G75*
G02*
X177610480Y-117899040I0J-250000D01*
G01*
G37*
G36*
G01*
X147735000Y-87435000D02*
X147735000Y-86185000D01*
G75*
G02*
X147985000Y-85935000I250000J0D01*
G01*
X148735000Y-85935000D01*
G75*
G02*
X148985000Y-86185000I0J-250000D01*
G01*
X148985000Y-87435000D01*
G75*
G02*
X148735000Y-87685000I-250000J0D01*
G01*
X147985000Y-87685000D01*
G75*
G02*
X147735000Y-87435000I0J250000D01*
G01*
G37*
G36*
G01*
X144935000Y-87435000D02*
X144935000Y-86185000D01*
G75*
G02*
X145185000Y-85935000I250000J0D01*
G01*
X145935000Y-85935000D01*
G75*
G02*
X146185000Y-86185000I0J-250000D01*
G01*
X146185000Y-87435000D01*
G75*
G02*
X145935000Y-87685000I-250000J0D01*
G01*
X145185000Y-87685000D01*
G75*
G02*
X144935000Y-87435000I0J250000D01*
G01*
G37*
G36*
G01*
X152615000Y-86265000D02*
X152615000Y-87515000D01*
G75*
G02*
X152365000Y-87765000I-250000J0D01*
G01*
X151615000Y-87765000D01*
G75*
G02*
X151365000Y-87515000I0J250000D01*
G01*
X151365000Y-86265000D01*
G75*
G02*
X151615000Y-86015000I250000J0D01*
G01*
X152365000Y-86015000D01*
G75*
G02*
X152615000Y-86265000I0J-250000D01*
G01*
G37*
G36*
G01*
X155415000Y-86265000D02*
X155415000Y-87515000D01*
G75*
G02*
X155165000Y-87765000I-250000J0D01*
G01*
X154415000Y-87765000D01*
G75*
G02*
X154165000Y-87515000I0J250000D01*
G01*
X154165000Y-86265000D01*
G75*
G02*
X154415000Y-86015000I250000J0D01*
G01*
X155165000Y-86015000D01*
G75*
G02*
X155415000Y-86265000I0J-250000D01*
G01*
G37*
G36*
G01*
X188239320Y-85233420D02*
X188239320Y-86333420D01*
G75*
G02*
X187989320Y-86583420I-250000J0D01*
G01*
X184989320Y-86583420D01*
G75*
G02*
X184739320Y-86333420I0J250000D01*
G01*
X184739320Y-85233420D01*
G75*
G02*
X184989320Y-84983420I250000J0D01*
G01*
X187989320Y-84983420D01*
G75*
G02*
X188239320Y-85233420I0J-250000D01*
G01*
G37*
G36*
G01*
X182839320Y-85233420D02*
X182839320Y-86333420D01*
G75*
G02*
X182589320Y-86583420I-250000J0D01*
G01*
X179589320Y-86583420D01*
G75*
G02*
X179339320Y-86333420I0J250000D01*
G01*
X179339320Y-85233420D01*
G75*
G02*
X179589320Y-84983420I250000J0D01*
G01*
X182589320Y-84983420D01*
G75*
G02*
X182839320Y-85233420I0J-250000D01*
G01*
G37*
G36*
G01*
X171510000Y-87690000D02*
X171510000Y-86090000D01*
G75*
G02*
X171710000Y-85890000I200000J0D01*
G01*
X172110000Y-85890000D01*
G75*
G02*
X172310000Y-86090000I0J-200000D01*
G01*
X172310000Y-87690000D01*
G75*
G02*
X172110000Y-87890000I-200000J0D01*
G01*
X171710000Y-87890000D01*
G75*
G02*
X171510000Y-87690000I0J200000D01*
G01*
G37*
G36*
G01*
X175710000Y-87690000D02*
X175710000Y-86090000D01*
G75*
G02*
X175910000Y-85890000I200000J0D01*
G01*
X176310000Y-85890000D01*
G75*
G02*
X176510000Y-86090000I0J-200000D01*
G01*
X176510000Y-87690000D01*
G75*
G02*
X176310000Y-87890000I-200000J0D01*
G01*
X175910000Y-87890000D01*
G75*
G02*
X175710000Y-87690000I0J200000D01*
G01*
G37*
M02*
