G04 #@! TF.GenerationSoftware,KiCad,Pcbnew,(5.1.9)-1*
G04 #@! TF.CreationDate,2021-03-29T18:58:07+02:00*
G04 #@! TF.ProjectId,Interface_board_1,496e7465-7266-4616-9365-5f626f617264,4.h.0.01*
G04 #@! TF.SameCoordinates,Original*
G04 #@! TF.FileFunction,Other,ECO1*
%FSLAX46Y46*%
G04 Gerber Fmt 4.6, Leading zero omitted, Abs format (unit mm)*
G04 Created by KiCad (PCBNEW (5.1.9)-1) date 2021-03-29 18:58:07*
%MOMM*%
%LPD*%
G01*
G04 APERTURE LIST*
%ADD10C,0.150000*%
G04 APERTURE END LIST*
D10*
X219817619Y-102542792D02*
X219817619Y-102066601D01*
X219341428Y-102018982D01*
X219389047Y-102066601D01*
X219436666Y-102161840D01*
X219436666Y-102399935D01*
X219389047Y-102495173D01*
X219341428Y-102542792D01*
X219246190Y-102590411D01*
X219008095Y-102590411D01*
X218912857Y-102542792D01*
X218865238Y-102495173D01*
X218817619Y-102399935D01*
X218817619Y-102161840D01*
X218865238Y-102066601D01*
X218912857Y-102018982D01*
X219484285Y-103447554D02*
X218817619Y-103447554D01*
X219865238Y-103209459D02*
X219150952Y-102971363D01*
X219150952Y-103590411D01*
X218865238Y-104018982D02*
X218817619Y-104018982D01*
X218722380Y-103971363D01*
X218674761Y-103923744D01*
X219817619Y-104638030D02*
X219817619Y-104733268D01*
X219770000Y-104828506D01*
X219722380Y-104876125D01*
X219627142Y-104923744D01*
X219436666Y-104971363D01*
X219198571Y-104971363D01*
X219008095Y-104923744D01*
X218912857Y-104876125D01*
X218865238Y-104828506D01*
X218817619Y-104733268D01*
X218817619Y-104638030D01*
X218865238Y-104542792D01*
X218912857Y-104495173D01*
X219008095Y-104447554D01*
X219198571Y-104399935D01*
X219436666Y-104399935D01*
X219627142Y-104447554D01*
X219722380Y-104495173D01*
X219770000Y-104542792D01*
X219817619Y-104638030D01*
X219817619Y-105590411D02*
X219817619Y-105685649D01*
X219770000Y-105780887D01*
X219722380Y-105828506D01*
X219627142Y-105876125D01*
X219436666Y-105923744D01*
X219198571Y-105923744D01*
X219008095Y-105876125D01*
X218912857Y-105828506D01*
X218865238Y-105780887D01*
X218817619Y-105685649D01*
X218817619Y-105590411D01*
X218865238Y-105495173D01*
X218912857Y-105447554D01*
X219008095Y-105399935D01*
X219198571Y-105352316D01*
X219436666Y-105352316D01*
X219627142Y-105399935D01*
X219722380Y-105447554D01*
X219770000Y-105495173D01*
X219817619Y-105590411D01*
X219817619Y-106542792D02*
X219817619Y-106638030D01*
X219770000Y-106733268D01*
X219722380Y-106780887D01*
X219627142Y-106828506D01*
X219436666Y-106876125D01*
X219198571Y-106876125D01*
X219008095Y-106828506D01*
X218912857Y-106780887D01*
X218865238Y-106733268D01*
X218817619Y-106638030D01*
X218817619Y-106542792D01*
X218865238Y-106447554D01*
X218912857Y-106399935D01*
X219008095Y-106352316D01*
X219198571Y-106304697D01*
X219436666Y-106304697D01*
X219627142Y-106352316D01*
X219722380Y-106399935D01*
X219770000Y-106447554D01*
X219817619Y-106542792D01*
X218817619Y-108066601D02*
X219484285Y-108066601D01*
X219389047Y-108066601D02*
X219436666Y-108114220D01*
X219484285Y-108209459D01*
X219484285Y-108352316D01*
X219436666Y-108447554D01*
X219341428Y-108495173D01*
X218817619Y-108495173D01*
X219341428Y-108495173D02*
X219436666Y-108542792D01*
X219484285Y-108638030D01*
X219484285Y-108780887D01*
X219436666Y-108876125D01*
X219341428Y-108923744D01*
X218817619Y-108923744D01*
X218817619Y-109399935D02*
X219484285Y-109399935D01*
X219389047Y-109399935D02*
X219436666Y-109447554D01*
X219484285Y-109542792D01*
X219484285Y-109685649D01*
X219436666Y-109780887D01*
X219341428Y-109828506D01*
X218817619Y-109828506D01*
X219341428Y-109828506D02*
X219436666Y-109876125D01*
X219484285Y-109971363D01*
X219484285Y-110114220D01*
X219436666Y-110209459D01*
X219341428Y-110257078D01*
X218817619Y-110257078D01*
X217970000Y-79161840D02*
X217970000Y-133161840D01*
X205538580Y-79161840D02*
X218556421Y-79161840D01*
X205538580Y-133161840D02*
X218556421Y-133161840D01*
X217970000Y-133161840D02*
X217383579Y-132035336D01*
X217970000Y-133161840D02*
X218556421Y-132035336D01*
X217970000Y-79161840D02*
X217383579Y-80288344D01*
X217970000Y-79161840D02*
X218556421Y-80288344D01*
X147990900Y-71422380D02*
X147419472Y-71422380D01*
X147705186Y-71422380D02*
X147705186Y-70422380D01*
X147609948Y-70565238D01*
X147514710Y-70660476D01*
X147419472Y-70708095D01*
X148609948Y-70422380D02*
X148705186Y-70422380D01*
X148800424Y-70470000D01*
X148848043Y-70517619D01*
X148895662Y-70612857D01*
X148943281Y-70803333D01*
X148943281Y-71041428D01*
X148895662Y-71231904D01*
X148848043Y-71327142D01*
X148800424Y-71374761D01*
X148705186Y-71422380D01*
X148609948Y-71422380D01*
X148514710Y-71374761D01*
X148467091Y-71327142D01*
X148419472Y-71231904D01*
X148371853Y-71041428D01*
X148371853Y-70803333D01*
X148419472Y-70612857D01*
X148467091Y-70517619D01*
X148514710Y-70470000D01*
X148609948Y-70422380D01*
X149276615Y-70422380D02*
X149943281Y-70422380D01*
X149514710Y-71422380D01*
X150371853Y-71374761D02*
X150371853Y-71422380D01*
X150324234Y-71517619D01*
X150276615Y-71565238D01*
X150990900Y-70422380D02*
X151086139Y-70422380D01*
X151181377Y-70470000D01*
X151228996Y-70517619D01*
X151276615Y-70612857D01*
X151324234Y-70803333D01*
X151324234Y-71041428D01*
X151276615Y-71231904D01*
X151228996Y-71327142D01*
X151181377Y-71374761D01*
X151086139Y-71422380D01*
X150990900Y-71422380D01*
X150895662Y-71374761D01*
X150848043Y-71327142D01*
X150800424Y-71231904D01*
X150752805Y-71041428D01*
X150752805Y-70803333D01*
X150800424Y-70612857D01*
X150848043Y-70517619D01*
X150895662Y-70470000D01*
X150990900Y-70422380D01*
X151943281Y-70422380D02*
X152038520Y-70422380D01*
X152133758Y-70470000D01*
X152181377Y-70517619D01*
X152228996Y-70612857D01*
X152276615Y-70803333D01*
X152276615Y-71041428D01*
X152228996Y-71231904D01*
X152181377Y-71327142D01*
X152133758Y-71374761D01*
X152038520Y-71422380D01*
X151943281Y-71422380D01*
X151848043Y-71374761D01*
X151800424Y-71327142D01*
X151752805Y-71231904D01*
X151705186Y-71041428D01*
X151705186Y-70803333D01*
X151752805Y-70612857D01*
X151800424Y-70517619D01*
X151848043Y-70470000D01*
X151943281Y-70422380D01*
X152895662Y-70422380D02*
X152990900Y-70422380D01*
X153086139Y-70470000D01*
X153133758Y-70517619D01*
X153181377Y-70612857D01*
X153228996Y-70803333D01*
X153228996Y-71041428D01*
X153181377Y-71231904D01*
X153133758Y-71327142D01*
X153086139Y-71374761D01*
X152990900Y-71422380D01*
X152895662Y-71422380D01*
X152800424Y-71374761D01*
X152752805Y-71327142D01*
X152705186Y-71231904D01*
X152657567Y-71041428D01*
X152657567Y-70803333D01*
X152705186Y-70612857D01*
X152752805Y-70517619D01*
X152800424Y-70470000D01*
X152895662Y-70422380D01*
X154419472Y-71422380D02*
X154419472Y-70755714D01*
X154419472Y-70850952D02*
X154467091Y-70803333D01*
X154562329Y-70755714D01*
X154705186Y-70755714D01*
X154800424Y-70803333D01*
X154848043Y-70898571D01*
X154848043Y-71422380D01*
X154848043Y-70898571D02*
X154895662Y-70803333D01*
X154990900Y-70755714D01*
X155133758Y-70755714D01*
X155228996Y-70803333D01*
X155276615Y-70898571D01*
X155276615Y-71422380D01*
X155752805Y-71422380D02*
X155752805Y-70755714D01*
X155752805Y-70850952D02*
X155800424Y-70803333D01*
X155895662Y-70755714D01*
X156038520Y-70755714D01*
X156133758Y-70803333D01*
X156181377Y-70898571D01*
X156181377Y-71422380D01*
X156181377Y-70898571D02*
X156228996Y-70803333D01*
X156324234Y-70755714D01*
X156467091Y-70755714D01*
X156562329Y-70803333D01*
X156609948Y-70898571D01*
X156609948Y-71422380D01*
X98538460Y-72270000D02*
X205538580Y-72270000D01*
X98538460Y-79161840D02*
X98538460Y-71683579D01*
X205538580Y-79161840D02*
X205538580Y-71683579D01*
X205538580Y-72270000D02*
X204412076Y-72856421D01*
X205538580Y-72270000D02*
X204412076Y-71683579D01*
X98538460Y-72270000D02*
X99664964Y-72856421D01*
X98538460Y-72270000D02*
X99664964Y-71683579D01*
M02*
