G04 #@! TF.GenerationSoftware,KiCad,Pcbnew,(5.1.9)-1*
G04 #@! TF.CreationDate,2021-03-29T18:58:07+02:00*
G04 #@! TF.ProjectId,Interface_board_1,496e7465-7266-4616-9365-5f626f617264,4.h.0.01*
G04 #@! TF.SameCoordinates,Original*
G04 #@! TF.FileFunction,Copper,L1,Top*
G04 #@! TF.FilePolarity,Positive*
%FSLAX46Y46*%
G04 Gerber Fmt 4.6, Leading zero omitted, Abs format (unit mm)*
G04 Created by KiCad (PCBNEW (5.1.9)-1) date 2021-03-29 18:58:07*
%MOMM*%
%LPD*%
G01*
G04 APERTURE LIST*
G04 #@! TA.AperFunction,ComponentPad*
%ADD10O,3.600000X1.800000*%
G04 #@! TD*
G04 #@! TA.AperFunction,SMDPad,CuDef*
%ADD11R,0.900000X0.800000*%
G04 #@! TD*
G04 #@! TA.AperFunction,SMDPad,CuDef*
%ADD12R,0.800000X0.900000*%
G04 #@! TD*
G04 #@! TA.AperFunction,ComponentPad*
%ADD13O,1.700000X1.700000*%
G04 #@! TD*
G04 #@! TA.AperFunction,ComponentPad*
%ADD14R,1.700000X1.700000*%
G04 #@! TD*
G04 #@! TA.AperFunction,ComponentPad*
%ADD15O,1.600000X1.600000*%
G04 #@! TD*
G04 #@! TA.AperFunction,ComponentPad*
%ADD16R,1.600000X1.600000*%
G04 #@! TD*
G04 #@! TA.AperFunction,SMDPad,CuDef*
%ADD17R,1.800000X0.800000*%
G04 #@! TD*
G04 #@! TA.AperFunction,SMDPad,CuDef*
%ADD18R,0.800000X1.800000*%
G04 #@! TD*
G04 #@! TA.AperFunction,ComponentPad*
%ADD19O,1.750000X1.200000*%
G04 #@! TD*
G04 #@! TA.AperFunction,ComponentPad*
%ADD20O,1.727200X2.032000*%
G04 #@! TD*
G04 #@! TA.AperFunction,ComponentPad*
%ADD21C,4.064000*%
G04 #@! TD*
G04 #@! TA.AperFunction,ViaPad*
%ADD22C,0.600000*%
G04 #@! TD*
G04 #@! TA.AperFunction,ViaPad*
%ADD23C,1.800000*%
G04 #@! TD*
G04 #@! TA.AperFunction,ViaPad*
%ADD24C,0.762000*%
G04 #@! TD*
G04 #@! TA.AperFunction,Conductor*
%ADD25C,0.635000*%
G04 #@! TD*
G04 #@! TA.AperFunction,Conductor*
%ADD26C,0.406400*%
G04 #@! TD*
G04 #@! TA.AperFunction,Conductor*
%ADD27C,0.250000*%
G04 #@! TD*
G04 #@! TA.AperFunction,Conductor*
%ADD28C,1.270000*%
G04 #@! TD*
G04 APERTURE END LIST*
G04 #@! TA.AperFunction,SMDPad,CuDef*
G36*
G01*
X145833940Y-117109540D02*
X147083940Y-117109540D01*
G75*
G02*
X147333940Y-117359540I0J-250000D01*
G01*
X147333940Y-118109540D01*
G75*
G02*
X147083940Y-118359540I-250000J0D01*
G01*
X145833940Y-118359540D01*
G75*
G02*
X145583940Y-118109540I0J250000D01*
G01*
X145583940Y-117359540D01*
G75*
G02*
X145833940Y-117109540I250000J0D01*
G01*
G37*
G04 #@! TD.AperFunction*
G04 #@! TA.AperFunction,SMDPad,CuDef*
G36*
G01*
X145833940Y-114309540D02*
X147083940Y-114309540D01*
G75*
G02*
X147333940Y-114559540I0J-250000D01*
G01*
X147333940Y-115309540D01*
G75*
G02*
X147083940Y-115559540I-250000J0D01*
G01*
X145833940Y-115559540D01*
G75*
G02*
X145583940Y-115309540I0J250000D01*
G01*
X145583940Y-114559540D01*
G75*
G02*
X145833940Y-114309540I250000J0D01*
G01*
G37*
G04 #@! TD.AperFunction*
G04 #@! TA.AperFunction,SMDPad,CuDef*
G36*
G01*
X147109340Y-123100800D02*
X145859340Y-123100800D01*
G75*
G02*
X145609340Y-122850800I0J250000D01*
G01*
X145609340Y-122100800D01*
G75*
G02*
X145859340Y-121850800I250000J0D01*
G01*
X147109340Y-121850800D01*
G75*
G02*
X147359340Y-122100800I0J-250000D01*
G01*
X147359340Y-122850800D01*
G75*
G02*
X147109340Y-123100800I-250000J0D01*
G01*
G37*
G04 #@! TD.AperFunction*
G04 #@! TA.AperFunction,SMDPad,CuDef*
G36*
G01*
X147109340Y-125900800D02*
X145859340Y-125900800D01*
G75*
G02*
X145609340Y-125650800I0J250000D01*
G01*
X145609340Y-124900800D01*
G75*
G02*
X145859340Y-124650800I250000J0D01*
G01*
X147109340Y-124650800D01*
G75*
G02*
X147359340Y-124900800I0J-250000D01*
G01*
X147359340Y-125650800D01*
G75*
G02*
X147109340Y-125900800I-250000J0D01*
G01*
G37*
G04 #@! TD.AperFunction*
D10*
X102649020Y-127619160D03*
X102649020Y-124119160D03*
X102649020Y-120619160D03*
X102649020Y-117119160D03*
X102649020Y-113619160D03*
G04 #@! TA.AperFunction,ComponentPad*
G36*
G01*
X101099020Y-109219160D02*
X104199020Y-109219160D01*
G75*
G02*
X104449020Y-109469160I0J-250000D01*
G01*
X104449020Y-110769160D01*
G75*
G02*
X104199020Y-111019160I-250000J0D01*
G01*
X101099020Y-111019160D01*
G75*
G02*
X100849020Y-110769160I0J250000D01*
G01*
X100849020Y-109469160D01*
G75*
G02*
X101099020Y-109219160I250000J0D01*
G01*
G37*
G04 #@! TD.AperFunction*
X102656640Y-103801580D03*
X102656640Y-100301580D03*
X102656640Y-96801580D03*
X102656640Y-93301580D03*
X102656640Y-89801580D03*
G04 #@! TA.AperFunction,ComponentPad*
G36*
G01*
X101106640Y-85401580D02*
X104206640Y-85401580D01*
G75*
G02*
X104456640Y-85651580I0J-250000D01*
G01*
X104456640Y-86951580D01*
G75*
G02*
X104206640Y-87201580I-250000J0D01*
G01*
X101106640Y-87201580D01*
G75*
G02*
X100856640Y-86951580I0J250000D01*
G01*
X100856640Y-85651580D01*
G75*
G02*
X101106640Y-85401580I250000J0D01*
G01*
G37*
G04 #@! TD.AperFunction*
D11*
X154275280Y-116047520D03*
X156275280Y-115097520D03*
X156275280Y-116997520D03*
D12*
X177154840Y-124583700D03*
X176204840Y-122583700D03*
X178104840Y-122583700D03*
D13*
X196471540Y-107251500D03*
X196471540Y-104711500D03*
X196471540Y-102171500D03*
X196471540Y-99631500D03*
X196471540Y-97091500D03*
D14*
X196471540Y-94551500D03*
G04 #@! TA.AperFunction,SMDPad,CuDef*
G36*
G01*
X134341740Y-104889160D02*
X134341740Y-105189160D01*
G75*
G02*
X134191740Y-105339160I-150000J0D01*
G01*
X132541740Y-105339160D01*
G75*
G02*
X132391740Y-105189160I0J150000D01*
G01*
X132391740Y-104889160D01*
G75*
G02*
X132541740Y-104739160I150000J0D01*
G01*
X134191740Y-104739160D01*
G75*
G02*
X134341740Y-104889160I0J-150000D01*
G01*
G37*
G04 #@! TD.AperFunction*
G04 #@! TA.AperFunction,SMDPad,CuDef*
G36*
G01*
X134341740Y-103619160D02*
X134341740Y-103919160D01*
G75*
G02*
X134191740Y-104069160I-150000J0D01*
G01*
X132541740Y-104069160D01*
G75*
G02*
X132391740Y-103919160I0J150000D01*
G01*
X132391740Y-103619160D01*
G75*
G02*
X132541740Y-103469160I150000J0D01*
G01*
X134191740Y-103469160D01*
G75*
G02*
X134341740Y-103619160I0J-150000D01*
G01*
G37*
G04 #@! TD.AperFunction*
G04 #@! TA.AperFunction,SMDPad,CuDef*
G36*
G01*
X134341740Y-102349160D02*
X134341740Y-102649160D01*
G75*
G02*
X134191740Y-102799160I-150000J0D01*
G01*
X132541740Y-102799160D01*
G75*
G02*
X132391740Y-102649160I0J150000D01*
G01*
X132391740Y-102349160D01*
G75*
G02*
X132541740Y-102199160I150000J0D01*
G01*
X134191740Y-102199160D01*
G75*
G02*
X134341740Y-102349160I0J-150000D01*
G01*
G37*
G04 #@! TD.AperFunction*
G04 #@! TA.AperFunction,SMDPad,CuDef*
G36*
G01*
X134341740Y-101079160D02*
X134341740Y-101379160D01*
G75*
G02*
X134191740Y-101529160I-150000J0D01*
G01*
X132541740Y-101529160D01*
G75*
G02*
X132391740Y-101379160I0J150000D01*
G01*
X132391740Y-101079160D01*
G75*
G02*
X132541740Y-100929160I150000J0D01*
G01*
X134191740Y-100929160D01*
G75*
G02*
X134341740Y-101079160I0J-150000D01*
G01*
G37*
G04 #@! TD.AperFunction*
G04 #@! TA.AperFunction,SMDPad,CuDef*
G36*
G01*
X134341740Y-99809160D02*
X134341740Y-100109160D01*
G75*
G02*
X134191740Y-100259160I-150000J0D01*
G01*
X132541740Y-100259160D01*
G75*
G02*
X132391740Y-100109160I0J150000D01*
G01*
X132391740Y-99809160D01*
G75*
G02*
X132541740Y-99659160I150000J0D01*
G01*
X134191740Y-99659160D01*
G75*
G02*
X134341740Y-99809160I0J-150000D01*
G01*
G37*
G04 #@! TD.AperFunction*
G04 #@! TA.AperFunction,SMDPad,CuDef*
G36*
G01*
X134341740Y-98539160D02*
X134341740Y-98839160D01*
G75*
G02*
X134191740Y-98989160I-150000J0D01*
G01*
X132541740Y-98989160D01*
G75*
G02*
X132391740Y-98839160I0J150000D01*
G01*
X132391740Y-98539160D01*
G75*
G02*
X132541740Y-98389160I150000J0D01*
G01*
X134191740Y-98389160D01*
G75*
G02*
X134341740Y-98539160I0J-150000D01*
G01*
G37*
G04 #@! TD.AperFunction*
G04 #@! TA.AperFunction,SMDPad,CuDef*
G36*
G01*
X134341740Y-97269160D02*
X134341740Y-97569160D01*
G75*
G02*
X134191740Y-97719160I-150000J0D01*
G01*
X132541740Y-97719160D01*
G75*
G02*
X132391740Y-97569160I0J150000D01*
G01*
X132391740Y-97269160D01*
G75*
G02*
X132541740Y-97119160I150000J0D01*
G01*
X134191740Y-97119160D01*
G75*
G02*
X134341740Y-97269160I0J-150000D01*
G01*
G37*
G04 #@! TD.AperFunction*
G04 #@! TA.AperFunction,SMDPad,CuDef*
G36*
G01*
X134341740Y-95999160D02*
X134341740Y-96299160D01*
G75*
G02*
X134191740Y-96449160I-150000J0D01*
G01*
X132541740Y-96449160D01*
G75*
G02*
X132391740Y-96299160I0J150000D01*
G01*
X132391740Y-95999160D01*
G75*
G02*
X132541740Y-95849160I150000J0D01*
G01*
X134191740Y-95849160D01*
G75*
G02*
X134341740Y-95999160I0J-150000D01*
G01*
G37*
G04 #@! TD.AperFunction*
G04 #@! TA.AperFunction,SMDPad,CuDef*
G36*
G01*
X139291740Y-95999160D02*
X139291740Y-96299160D01*
G75*
G02*
X139141740Y-96449160I-150000J0D01*
G01*
X137491740Y-96449160D01*
G75*
G02*
X137341740Y-96299160I0J150000D01*
G01*
X137341740Y-95999160D01*
G75*
G02*
X137491740Y-95849160I150000J0D01*
G01*
X139141740Y-95849160D01*
G75*
G02*
X139291740Y-95999160I0J-150000D01*
G01*
G37*
G04 #@! TD.AperFunction*
G04 #@! TA.AperFunction,SMDPad,CuDef*
G36*
G01*
X139291740Y-97269160D02*
X139291740Y-97569160D01*
G75*
G02*
X139141740Y-97719160I-150000J0D01*
G01*
X137491740Y-97719160D01*
G75*
G02*
X137341740Y-97569160I0J150000D01*
G01*
X137341740Y-97269160D01*
G75*
G02*
X137491740Y-97119160I150000J0D01*
G01*
X139141740Y-97119160D01*
G75*
G02*
X139291740Y-97269160I0J-150000D01*
G01*
G37*
G04 #@! TD.AperFunction*
G04 #@! TA.AperFunction,SMDPad,CuDef*
G36*
G01*
X139291740Y-98539160D02*
X139291740Y-98839160D01*
G75*
G02*
X139141740Y-98989160I-150000J0D01*
G01*
X137491740Y-98989160D01*
G75*
G02*
X137341740Y-98839160I0J150000D01*
G01*
X137341740Y-98539160D01*
G75*
G02*
X137491740Y-98389160I150000J0D01*
G01*
X139141740Y-98389160D01*
G75*
G02*
X139291740Y-98539160I0J-150000D01*
G01*
G37*
G04 #@! TD.AperFunction*
G04 #@! TA.AperFunction,SMDPad,CuDef*
G36*
G01*
X139291740Y-99809160D02*
X139291740Y-100109160D01*
G75*
G02*
X139141740Y-100259160I-150000J0D01*
G01*
X137491740Y-100259160D01*
G75*
G02*
X137341740Y-100109160I0J150000D01*
G01*
X137341740Y-99809160D01*
G75*
G02*
X137491740Y-99659160I150000J0D01*
G01*
X139141740Y-99659160D01*
G75*
G02*
X139291740Y-99809160I0J-150000D01*
G01*
G37*
G04 #@! TD.AperFunction*
G04 #@! TA.AperFunction,SMDPad,CuDef*
G36*
G01*
X139291740Y-101079160D02*
X139291740Y-101379160D01*
G75*
G02*
X139141740Y-101529160I-150000J0D01*
G01*
X137491740Y-101529160D01*
G75*
G02*
X137341740Y-101379160I0J150000D01*
G01*
X137341740Y-101079160D01*
G75*
G02*
X137491740Y-100929160I150000J0D01*
G01*
X139141740Y-100929160D01*
G75*
G02*
X139291740Y-101079160I0J-150000D01*
G01*
G37*
G04 #@! TD.AperFunction*
G04 #@! TA.AperFunction,SMDPad,CuDef*
G36*
G01*
X139291740Y-102349160D02*
X139291740Y-102649160D01*
G75*
G02*
X139141740Y-102799160I-150000J0D01*
G01*
X137491740Y-102799160D01*
G75*
G02*
X137341740Y-102649160I0J150000D01*
G01*
X137341740Y-102349160D01*
G75*
G02*
X137491740Y-102199160I150000J0D01*
G01*
X139141740Y-102199160D01*
G75*
G02*
X139291740Y-102349160I0J-150000D01*
G01*
G37*
G04 #@! TD.AperFunction*
G04 #@! TA.AperFunction,SMDPad,CuDef*
G36*
G01*
X139291740Y-103619160D02*
X139291740Y-103919160D01*
G75*
G02*
X139141740Y-104069160I-150000J0D01*
G01*
X137491740Y-104069160D01*
G75*
G02*
X137341740Y-103919160I0J150000D01*
G01*
X137341740Y-103619160D01*
G75*
G02*
X137491740Y-103469160I150000J0D01*
G01*
X139141740Y-103469160D01*
G75*
G02*
X139291740Y-103619160I0J-150000D01*
G01*
G37*
G04 #@! TD.AperFunction*
G04 #@! TA.AperFunction,SMDPad,CuDef*
G36*
G01*
X139291740Y-104889160D02*
X139291740Y-105189160D01*
G75*
G02*
X139141740Y-105339160I-150000J0D01*
G01*
X137491740Y-105339160D01*
G75*
G02*
X137341740Y-105189160I0J150000D01*
G01*
X137341740Y-104889160D01*
G75*
G02*
X137491740Y-104739160I150000J0D01*
G01*
X139141740Y-104739160D01*
G75*
G02*
X139291740Y-104889160I0J-150000D01*
G01*
G37*
G04 #@! TD.AperFunction*
G04 #@! TA.AperFunction,SMDPad,CuDef*
G36*
G01*
X163036380Y-119110900D02*
X163036380Y-118810900D01*
G75*
G02*
X163186380Y-118660900I150000J0D01*
G01*
X164836380Y-118660900D01*
G75*
G02*
X164986380Y-118810900I0J-150000D01*
G01*
X164986380Y-119110900D01*
G75*
G02*
X164836380Y-119260900I-150000J0D01*
G01*
X163186380Y-119260900D01*
G75*
G02*
X163036380Y-119110900I0J150000D01*
G01*
G37*
G04 #@! TD.AperFunction*
G04 #@! TA.AperFunction,SMDPad,CuDef*
G36*
G01*
X163036380Y-120380900D02*
X163036380Y-120080900D01*
G75*
G02*
X163186380Y-119930900I150000J0D01*
G01*
X164836380Y-119930900D01*
G75*
G02*
X164986380Y-120080900I0J-150000D01*
G01*
X164986380Y-120380900D01*
G75*
G02*
X164836380Y-120530900I-150000J0D01*
G01*
X163186380Y-120530900D01*
G75*
G02*
X163036380Y-120380900I0J150000D01*
G01*
G37*
G04 #@! TD.AperFunction*
G04 #@! TA.AperFunction,SMDPad,CuDef*
G36*
G01*
X163036380Y-121650900D02*
X163036380Y-121350900D01*
G75*
G02*
X163186380Y-121200900I150000J0D01*
G01*
X164836380Y-121200900D01*
G75*
G02*
X164986380Y-121350900I0J-150000D01*
G01*
X164986380Y-121650900D01*
G75*
G02*
X164836380Y-121800900I-150000J0D01*
G01*
X163186380Y-121800900D01*
G75*
G02*
X163036380Y-121650900I0J150000D01*
G01*
G37*
G04 #@! TD.AperFunction*
G04 #@! TA.AperFunction,SMDPad,CuDef*
G36*
G01*
X163036380Y-122920900D02*
X163036380Y-122620900D01*
G75*
G02*
X163186380Y-122470900I150000J0D01*
G01*
X164836380Y-122470900D01*
G75*
G02*
X164986380Y-122620900I0J-150000D01*
G01*
X164986380Y-122920900D01*
G75*
G02*
X164836380Y-123070900I-150000J0D01*
G01*
X163186380Y-123070900D01*
G75*
G02*
X163036380Y-122920900I0J150000D01*
G01*
G37*
G04 #@! TD.AperFunction*
G04 #@! TA.AperFunction,SMDPad,CuDef*
G36*
G01*
X158086380Y-122920900D02*
X158086380Y-122620900D01*
G75*
G02*
X158236380Y-122470900I150000J0D01*
G01*
X159886380Y-122470900D01*
G75*
G02*
X160036380Y-122620900I0J-150000D01*
G01*
X160036380Y-122920900D01*
G75*
G02*
X159886380Y-123070900I-150000J0D01*
G01*
X158236380Y-123070900D01*
G75*
G02*
X158086380Y-122920900I0J150000D01*
G01*
G37*
G04 #@! TD.AperFunction*
G04 #@! TA.AperFunction,SMDPad,CuDef*
G36*
G01*
X158086380Y-121650900D02*
X158086380Y-121350900D01*
G75*
G02*
X158236380Y-121200900I150000J0D01*
G01*
X159886380Y-121200900D01*
G75*
G02*
X160036380Y-121350900I0J-150000D01*
G01*
X160036380Y-121650900D01*
G75*
G02*
X159886380Y-121800900I-150000J0D01*
G01*
X158236380Y-121800900D01*
G75*
G02*
X158086380Y-121650900I0J150000D01*
G01*
G37*
G04 #@! TD.AperFunction*
G04 #@! TA.AperFunction,SMDPad,CuDef*
G36*
G01*
X158086380Y-120380900D02*
X158086380Y-120080900D01*
G75*
G02*
X158236380Y-119930900I150000J0D01*
G01*
X159886380Y-119930900D01*
G75*
G02*
X160036380Y-120080900I0J-150000D01*
G01*
X160036380Y-120380900D01*
G75*
G02*
X159886380Y-120530900I-150000J0D01*
G01*
X158236380Y-120530900D01*
G75*
G02*
X158086380Y-120380900I0J150000D01*
G01*
G37*
G04 #@! TD.AperFunction*
G04 #@! TA.AperFunction,SMDPad,CuDef*
G36*
G01*
X158086380Y-119110900D02*
X158086380Y-118810900D01*
G75*
G02*
X158236380Y-118660900I150000J0D01*
G01*
X159886380Y-118660900D01*
G75*
G02*
X160036380Y-118810900I0J-150000D01*
G01*
X160036380Y-119110900D01*
G75*
G02*
X159886380Y-119260900I-150000J0D01*
G01*
X158236380Y-119260900D01*
G75*
G02*
X158086380Y-119110900I0J150000D01*
G01*
G37*
G04 #@! TD.AperFunction*
D15*
X183583580Y-119837200D03*
X191203580Y-114757200D03*
X183583580Y-117297200D03*
X191203580Y-117297200D03*
X183583580Y-114757200D03*
D16*
X191203580Y-119837200D03*
G04 #@! TA.AperFunction,SMDPad,CuDef*
G36*
G01*
X166380000Y-86080000D02*
X166380000Y-87680000D01*
G75*
G02*
X166180000Y-87880000I-200000J0D01*
G01*
X165780000Y-87880000D01*
G75*
G02*
X165580000Y-87680000I0J200000D01*
G01*
X165580000Y-86080000D01*
G75*
G02*
X165780000Y-85880000I200000J0D01*
G01*
X166180000Y-85880000D01*
G75*
G02*
X166380000Y-86080000I0J-200000D01*
G01*
G37*
G04 #@! TD.AperFunction*
G04 #@! TA.AperFunction,SMDPad,CuDef*
G36*
G01*
X162180000Y-86080000D02*
X162180000Y-87680000D01*
G75*
G02*
X161980000Y-87880000I-200000J0D01*
G01*
X161580000Y-87880000D01*
G75*
G02*
X161380000Y-87680000I0J200000D01*
G01*
X161380000Y-86080000D01*
G75*
G02*
X161580000Y-85880000I200000J0D01*
G01*
X161980000Y-85880000D01*
G75*
G02*
X162180000Y-86080000I0J-200000D01*
G01*
G37*
G04 #@! TD.AperFunction*
G04 #@! TA.AperFunction,SMDPad,CuDef*
G36*
G01*
X202115000Y-121515000D02*
X200865000Y-121515000D01*
G75*
G02*
X200615000Y-121265000I0J250000D01*
G01*
X200615000Y-120515000D01*
G75*
G02*
X200865000Y-120265000I250000J0D01*
G01*
X202115000Y-120265000D01*
G75*
G02*
X202365000Y-120515000I0J-250000D01*
G01*
X202365000Y-121265000D01*
G75*
G02*
X202115000Y-121515000I-250000J0D01*
G01*
G37*
G04 #@! TD.AperFunction*
G04 #@! TA.AperFunction,SMDPad,CuDef*
G36*
G01*
X202115000Y-124315000D02*
X200865000Y-124315000D01*
G75*
G02*
X200615000Y-124065000I0J250000D01*
G01*
X200615000Y-123315000D01*
G75*
G02*
X200865000Y-123065000I250000J0D01*
G01*
X202115000Y-123065000D01*
G75*
G02*
X202365000Y-123315000I0J-250000D01*
G01*
X202365000Y-124065000D01*
G75*
G02*
X202115000Y-124315000I-250000J0D01*
G01*
G37*
G04 #@! TD.AperFunction*
G04 #@! TA.AperFunction,SMDPad,CuDef*
G36*
G01*
X153251060Y-123100800D02*
X152001060Y-123100800D01*
G75*
G02*
X151751060Y-122850800I0J250000D01*
G01*
X151751060Y-122100800D01*
G75*
G02*
X152001060Y-121850800I250000J0D01*
G01*
X153251060Y-121850800D01*
G75*
G02*
X153501060Y-122100800I0J-250000D01*
G01*
X153501060Y-122850800D01*
G75*
G02*
X153251060Y-123100800I-250000J0D01*
G01*
G37*
G04 #@! TD.AperFunction*
G04 #@! TA.AperFunction,SMDPad,CuDef*
G36*
G01*
X153251060Y-125900800D02*
X152001060Y-125900800D01*
G75*
G02*
X151751060Y-125650800I0J250000D01*
G01*
X151751060Y-124900800D01*
G75*
G02*
X152001060Y-124650800I250000J0D01*
G01*
X153251060Y-124650800D01*
G75*
G02*
X153501060Y-124900800I0J-250000D01*
G01*
X153501060Y-125650800D01*
G75*
G02*
X153251060Y-125900800I-250000J0D01*
G01*
G37*
G04 #@! TD.AperFunction*
G04 #@! TA.AperFunction,SMDPad,CuDef*
G36*
G01*
X196039360Y-123048060D02*
X197289360Y-123048060D01*
G75*
G02*
X197539360Y-123298060I0J-250000D01*
G01*
X197539360Y-124048060D01*
G75*
G02*
X197289360Y-124298060I-250000J0D01*
G01*
X196039360Y-124298060D01*
G75*
G02*
X195789360Y-124048060I0J250000D01*
G01*
X195789360Y-123298060D01*
G75*
G02*
X196039360Y-123048060I250000J0D01*
G01*
G37*
G04 #@! TD.AperFunction*
G04 #@! TA.AperFunction,SMDPad,CuDef*
G36*
G01*
X196039360Y-120248060D02*
X197289360Y-120248060D01*
G75*
G02*
X197539360Y-120498060I0J-250000D01*
G01*
X197539360Y-121248060D01*
G75*
G02*
X197289360Y-121498060I-250000J0D01*
G01*
X196039360Y-121498060D01*
G75*
G02*
X195789360Y-121248060I0J250000D01*
G01*
X195789360Y-120498060D01*
G75*
G02*
X196039360Y-120248060I250000J0D01*
G01*
G37*
G04 #@! TD.AperFunction*
G04 #@! TA.AperFunction,SMDPad,CuDef*
G36*
G01*
X171046440Y-124937680D02*
X171046440Y-123687680D01*
G75*
G02*
X171296440Y-123437680I250000J0D01*
G01*
X172046440Y-123437680D01*
G75*
G02*
X172296440Y-123687680I0J-250000D01*
G01*
X172296440Y-124937680D01*
G75*
G02*
X172046440Y-125187680I-250000J0D01*
G01*
X171296440Y-125187680D01*
G75*
G02*
X171046440Y-124937680I0J250000D01*
G01*
G37*
G04 #@! TD.AperFunction*
G04 #@! TA.AperFunction,SMDPad,CuDef*
G36*
G01*
X168246440Y-124937680D02*
X168246440Y-123687680D01*
G75*
G02*
X168496440Y-123437680I250000J0D01*
G01*
X169246440Y-123437680D01*
G75*
G02*
X169496440Y-123687680I0J-250000D01*
G01*
X169496440Y-124937680D01*
G75*
G02*
X169246440Y-125187680I-250000J0D01*
G01*
X168496440Y-125187680D01*
G75*
G02*
X168246440Y-124937680I0J250000D01*
G01*
G37*
G04 #@! TD.AperFunction*
G04 #@! TA.AperFunction,SMDPad,CuDef*
G36*
G01*
X162192000Y-127150020D02*
X162192000Y-125900020D01*
G75*
G02*
X162442000Y-125650020I250000J0D01*
G01*
X163192000Y-125650020D01*
G75*
G02*
X163442000Y-125900020I0J-250000D01*
G01*
X163442000Y-127150020D01*
G75*
G02*
X163192000Y-127400020I-250000J0D01*
G01*
X162442000Y-127400020D01*
G75*
G02*
X162192000Y-127150020I0J250000D01*
G01*
G37*
G04 #@! TD.AperFunction*
G04 #@! TA.AperFunction,SMDPad,CuDef*
G36*
G01*
X159392000Y-127150020D02*
X159392000Y-125900020D01*
G75*
G02*
X159642000Y-125650020I250000J0D01*
G01*
X160392000Y-125650020D01*
G75*
G02*
X160642000Y-125900020I0J-250000D01*
G01*
X160642000Y-127150020D01*
G75*
G02*
X160392000Y-127400020I-250000J0D01*
G01*
X159642000Y-127400020D01*
G75*
G02*
X159392000Y-127150020I0J250000D01*
G01*
G37*
G04 #@! TD.AperFunction*
G04 #@! TA.AperFunction,SMDPad,CuDef*
G36*
G01*
X195795520Y-116042740D02*
X197045520Y-116042740D01*
G75*
G02*
X197295520Y-116292740I0J-250000D01*
G01*
X197295520Y-117042740D01*
G75*
G02*
X197045520Y-117292740I-250000J0D01*
G01*
X195795520Y-117292740D01*
G75*
G02*
X195545520Y-117042740I0J250000D01*
G01*
X195545520Y-116292740D01*
G75*
G02*
X195795520Y-116042740I250000J0D01*
G01*
G37*
G04 #@! TD.AperFunction*
G04 #@! TA.AperFunction,SMDPad,CuDef*
G36*
G01*
X195795520Y-113242740D02*
X197045520Y-113242740D01*
G75*
G02*
X197295520Y-113492740I0J-250000D01*
G01*
X197295520Y-114242740D01*
G75*
G02*
X197045520Y-114492740I-250000J0D01*
G01*
X195795520Y-114492740D01*
G75*
G02*
X195545520Y-114242740I0J250000D01*
G01*
X195545520Y-113492740D01*
G75*
G02*
X195795520Y-113242740I250000J0D01*
G01*
G37*
G04 #@! TD.AperFunction*
G04 #@! TA.AperFunction,SMDPad,CuDef*
G36*
G01*
X190088280Y-124352820D02*
X190088280Y-123102820D01*
G75*
G02*
X190338280Y-122852820I250000J0D01*
G01*
X191088280Y-122852820D01*
G75*
G02*
X191338280Y-123102820I0J-250000D01*
G01*
X191338280Y-124352820D01*
G75*
G02*
X191088280Y-124602820I-250000J0D01*
G01*
X190338280Y-124602820D01*
G75*
G02*
X190088280Y-124352820I0J250000D01*
G01*
G37*
G04 #@! TD.AperFunction*
G04 #@! TA.AperFunction,SMDPad,CuDef*
G36*
G01*
X187288280Y-124352820D02*
X187288280Y-123102820D01*
G75*
G02*
X187538280Y-122852820I250000J0D01*
G01*
X188288280Y-122852820D01*
G75*
G02*
X188538280Y-123102820I0J-250000D01*
G01*
X188538280Y-124352820D01*
G75*
G02*
X188288280Y-124602820I-250000J0D01*
G01*
X187538280Y-124602820D01*
G75*
G02*
X187288280Y-124352820I0J250000D01*
G01*
G37*
G04 #@! TD.AperFunction*
G04 #@! TA.AperFunction,SMDPad,CuDef*
G36*
G01*
X183031560Y-123062180D02*
X183031560Y-124312180D01*
G75*
G02*
X182781560Y-124562180I-250000J0D01*
G01*
X182031560Y-124562180D01*
G75*
G02*
X181781560Y-124312180I0J250000D01*
G01*
X181781560Y-123062180D01*
G75*
G02*
X182031560Y-122812180I250000J0D01*
G01*
X182781560Y-122812180D01*
G75*
G02*
X183031560Y-123062180I0J-250000D01*
G01*
G37*
G04 #@! TD.AperFunction*
G04 #@! TA.AperFunction,SMDPad,CuDef*
G36*
G01*
X185831560Y-123062180D02*
X185831560Y-124312180D01*
G75*
G02*
X185581560Y-124562180I-250000J0D01*
G01*
X184831560Y-124562180D01*
G75*
G02*
X184581560Y-124312180I0J250000D01*
G01*
X184581560Y-123062180D01*
G75*
G02*
X184831560Y-122812180I250000J0D01*
G01*
X185581560Y-122812180D01*
G75*
G02*
X185831560Y-123062180I0J-250000D01*
G01*
G37*
G04 #@! TD.AperFunction*
G04 #@! TA.AperFunction,SMDPad,CuDef*
G36*
G01*
X126725000Y-96375000D02*
X126725000Y-97625000D01*
G75*
G02*
X126475000Y-97875000I-250000J0D01*
G01*
X125725000Y-97875000D01*
G75*
G02*
X125475000Y-97625000I0J250000D01*
G01*
X125475000Y-96375000D01*
G75*
G02*
X125725000Y-96125000I250000J0D01*
G01*
X126475000Y-96125000D01*
G75*
G02*
X126725000Y-96375000I0J-250000D01*
G01*
G37*
G04 #@! TD.AperFunction*
G04 #@! TA.AperFunction,SMDPad,CuDef*
G36*
G01*
X129525000Y-96375000D02*
X129525000Y-97625000D01*
G75*
G02*
X129275000Y-97875000I-250000J0D01*
G01*
X128525000Y-97875000D01*
G75*
G02*
X128275000Y-97625000I0J250000D01*
G01*
X128275000Y-96375000D01*
G75*
G02*
X128525000Y-96125000I250000J0D01*
G01*
X129275000Y-96125000D01*
G75*
G02*
X129525000Y-96375000I0J-250000D01*
G01*
G37*
G04 #@! TD.AperFunction*
G04 #@! TA.AperFunction,SMDPad,CuDef*
G36*
G01*
X114725000Y-96375000D02*
X114725000Y-97625000D01*
G75*
G02*
X114475000Y-97875000I-250000J0D01*
G01*
X113725000Y-97875000D01*
G75*
G02*
X113475000Y-97625000I0J250000D01*
G01*
X113475000Y-96375000D01*
G75*
G02*
X113725000Y-96125000I250000J0D01*
G01*
X114475000Y-96125000D01*
G75*
G02*
X114725000Y-96375000I0J-250000D01*
G01*
G37*
G04 #@! TD.AperFunction*
G04 #@! TA.AperFunction,SMDPad,CuDef*
G36*
G01*
X117525000Y-96375000D02*
X117525000Y-97625000D01*
G75*
G02*
X117275000Y-97875000I-250000J0D01*
G01*
X116525000Y-97875000D01*
G75*
G02*
X116275000Y-97625000I0J250000D01*
G01*
X116275000Y-96375000D01*
G75*
G02*
X116525000Y-96125000I250000J0D01*
G01*
X117275000Y-96125000D01*
G75*
G02*
X117525000Y-96375000I0J-250000D01*
G01*
G37*
G04 #@! TD.AperFunction*
G04 #@! TA.AperFunction,SMDPad,CuDef*
G36*
G01*
X126725000Y-110375000D02*
X126725000Y-111625000D01*
G75*
G02*
X126475000Y-111875000I-250000J0D01*
G01*
X125725000Y-111875000D01*
G75*
G02*
X125475000Y-111625000I0J250000D01*
G01*
X125475000Y-110375000D01*
G75*
G02*
X125725000Y-110125000I250000J0D01*
G01*
X126475000Y-110125000D01*
G75*
G02*
X126725000Y-110375000I0J-250000D01*
G01*
G37*
G04 #@! TD.AperFunction*
G04 #@! TA.AperFunction,SMDPad,CuDef*
G36*
G01*
X129525000Y-110375000D02*
X129525000Y-111625000D01*
G75*
G02*
X129275000Y-111875000I-250000J0D01*
G01*
X128525000Y-111875000D01*
G75*
G02*
X128275000Y-111625000I0J250000D01*
G01*
X128275000Y-110375000D01*
G75*
G02*
X128525000Y-110125000I250000J0D01*
G01*
X129275000Y-110125000D01*
G75*
G02*
X129525000Y-110375000I0J-250000D01*
G01*
G37*
G04 #@! TD.AperFunction*
G04 #@! TA.AperFunction,SMDPad,CuDef*
G36*
G01*
X114725000Y-110375000D02*
X114725000Y-111625000D01*
G75*
G02*
X114475000Y-111875000I-250000J0D01*
G01*
X113725000Y-111875000D01*
G75*
G02*
X113475000Y-111625000I0J250000D01*
G01*
X113475000Y-110375000D01*
G75*
G02*
X113725000Y-110125000I250000J0D01*
G01*
X114475000Y-110125000D01*
G75*
G02*
X114725000Y-110375000I0J-250000D01*
G01*
G37*
G04 #@! TD.AperFunction*
G04 #@! TA.AperFunction,SMDPad,CuDef*
G36*
G01*
X117525000Y-110375000D02*
X117525000Y-111625000D01*
G75*
G02*
X117275000Y-111875000I-250000J0D01*
G01*
X116525000Y-111875000D01*
G75*
G02*
X116275000Y-111625000I0J250000D01*
G01*
X116275000Y-110375000D01*
G75*
G02*
X116525000Y-110125000I250000J0D01*
G01*
X117275000Y-110125000D01*
G75*
G02*
X117525000Y-110375000I0J-250000D01*
G01*
G37*
G04 #@! TD.AperFunction*
G04 #@! TA.AperFunction,SMDPad,CuDef*
G36*
G01*
X126725000Y-124375000D02*
X126725000Y-125625000D01*
G75*
G02*
X126475000Y-125875000I-250000J0D01*
G01*
X125725000Y-125875000D01*
G75*
G02*
X125475000Y-125625000I0J250000D01*
G01*
X125475000Y-124375000D01*
G75*
G02*
X125725000Y-124125000I250000J0D01*
G01*
X126475000Y-124125000D01*
G75*
G02*
X126725000Y-124375000I0J-250000D01*
G01*
G37*
G04 #@! TD.AperFunction*
G04 #@! TA.AperFunction,SMDPad,CuDef*
G36*
G01*
X129525000Y-124375000D02*
X129525000Y-125625000D01*
G75*
G02*
X129275000Y-125875000I-250000J0D01*
G01*
X128525000Y-125875000D01*
G75*
G02*
X128275000Y-125625000I0J250000D01*
G01*
X128275000Y-124375000D01*
G75*
G02*
X128525000Y-124125000I250000J0D01*
G01*
X129275000Y-124125000D01*
G75*
G02*
X129525000Y-124375000I0J-250000D01*
G01*
G37*
G04 #@! TD.AperFunction*
G04 #@! TA.AperFunction,SMDPad,CuDef*
G36*
G01*
X114725000Y-124375000D02*
X114725000Y-125625000D01*
G75*
G02*
X114475000Y-125875000I-250000J0D01*
G01*
X113725000Y-125875000D01*
G75*
G02*
X113475000Y-125625000I0J250000D01*
G01*
X113475000Y-124375000D01*
G75*
G02*
X113725000Y-124125000I250000J0D01*
G01*
X114475000Y-124125000D01*
G75*
G02*
X114725000Y-124375000I0J-250000D01*
G01*
G37*
G04 #@! TD.AperFunction*
G04 #@! TA.AperFunction,SMDPad,CuDef*
G36*
G01*
X117525000Y-124375000D02*
X117525000Y-125625000D01*
G75*
G02*
X117275000Y-125875000I-250000J0D01*
G01*
X116525000Y-125875000D01*
G75*
G02*
X116275000Y-125625000I0J250000D01*
G01*
X116275000Y-124375000D01*
G75*
G02*
X116525000Y-124125000I250000J0D01*
G01*
X117275000Y-124125000D01*
G75*
G02*
X117525000Y-124375000I0J-250000D01*
G01*
G37*
G04 #@! TD.AperFunction*
D17*
X128500000Y-93800000D03*
X128500000Y-90600000D03*
X128500000Y-88400000D03*
X128500000Y-86200000D03*
X121500000Y-86200000D03*
X121500000Y-88400000D03*
X121500000Y-90600000D03*
X121500000Y-93800000D03*
X116500000Y-93800000D03*
X116500000Y-90600000D03*
X116500000Y-88400000D03*
X116500000Y-86200000D03*
X109500000Y-86200000D03*
X109500000Y-88400000D03*
X109500000Y-90600000D03*
X109500000Y-93800000D03*
X128500000Y-107800000D03*
X128500000Y-104600000D03*
X128500000Y-102400000D03*
X128500000Y-100200000D03*
X121500000Y-100200000D03*
X121500000Y-102400000D03*
X121500000Y-104600000D03*
X121500000Y-107800000D03*
X116500000Y-107800000D03*
X116500000Y-104600000D03*
X116500000Y-102400000D03*
X116500000Y-100200000D03*
X109500000Y-100200000D03*
X109500000Y-102400000D03*
X109500000Y-104600000D03*
X109500000Y-107800000D03*
X128500000Y-121800000D03*
X128500000Y-118600000D03*
X128500000Y-116400000D03*
X128500000Y-114200000D03*
X121500000Y-114200000D03*
X121500000Y-116400000D03*
X121500000Y-118600000D03*
X121500000Y-121800000D03*
X116500000Y-121800000D03*
X116500000Y-118600000D03*
X116500000Y-116400000D03*
X116500000Y-114200000D03*
X109500000Y-114200000D03*
X109500000Y-116400000D03*
X109500000Y-118600000D03*
X109500000Y-121800000D03*
D18*
X140977780Y-119522360D03*
X137777780Y-119522360D03*
X135577780Y-119522360D03*
X133377780Y-119522360D03*
X133377780Y-126522360D03*
X135577780Y-126522360D03*
X137777780Y-126522360D03*
X140977780Y-126522360D03*
D19*
X202646280Y-104691680D03*
X202646280Y-106691680D03*
G04 #@! TA.AperFunction,ComponentPad*
G36*
G01*
X203271281Y-109291680D02*
X202021279Y-109291680D01*
G75*
G02*
X201771280Y-109041681I0J249999D01*
G01*
X201771280Y-108341679D01*
G75*
G02*
X202021279Y-108091680I249999J0D01*
G01*
X203271281Y-108091680D01*
G75*
G02*
X203521280Y-108341679I0J-249999D01*
G01*
X203521280Y-109041681D01*
G75*
G02*
X203271281Y-109291680I-249999J0D01*
G01*
G37*
G04 #@! TD.AperFunction*
X202577700Y-95049840D03*
X202577700Y-97049840D03*
G04 #@! TA.AperFunction,ComponentPad*
G36*
G01*
X203202701Y-99649840D02*
X201952699Y-99649840D01*
G75*
G02*
X201702700Y-99399841I0J249999D01*
G01*
X201702700Y-98699839D01*
G75*
G02*
X201952699Y-98449840I249999J0D01*
G01*
X203202701Y-98449840D01*
G75*
G02*
X203452700Y-98699839I0J-249999D01*
G01*
X203452700Y-99399841D01*
G75*
G02*
X203202701Y-99649840I-249999J0D01*
G01*
G37*
G04 #@! TD.AperFunction*
X202587860Y-82793320D03*
X202587860Y-84793320D03*
X202587860Y-86793320D03*
G04 #@! TA.AperFunction,ComponentPad*
G36*
G01*
X203212861Y-89393320D02*
X201962859Y-89393320D01*
G75*
G02*
X201712860Y-89143321I0J249999D01*
G01*
X201712860Y-88443319D01*
G75*
G02*
X201962859Y-88193320I249999J0D01*
G01*
X203212861Y-88193320D01*
G75*
G02*
X203462860Y-88443319I0J-249999D01*
G01*
X203462860Y-89143321D01*
G75*
G02*
X203212861Y-89393320I-249999J0D01*
G01*
G37*
G04 #@! TD.AperFunction*
G04 #@! TA.AperFunction,SMDPad,CuDef*
G36*
G01*
X177610480Y-113890920D02*
X177610480Y-115140920D01*
G75*
G02*
X177360480Y-115390920I-250000J0D01*
G01*
X176610480Y-115390920D01*
G75*
G02*
X176360480Y-115140920I0J250000D01*
G01*
X176360480Y-113890920D01*
G75*
G02*
X176610480Y-113640920I250000J0D01*
G01*
X177360480Y-113640920D01*
G75*
G02*
X177610480Y-113890920I0J-250000D01*
G01*
G37*
G04 #@! TD.AperFunction*
G04 #@! TA.AperFunction,SMDPad,CuDef*
G36*
G01*
X180410480Y-113890920D02*
X180410480Y-115140920D01*
G75*
G02*
X180160480Y-115390920I-250000J0D01*
G01*
X179410480Y-115390920D01*
G75*
G02*
X179160480Y-115140920I0J250000D01*
G01*
X179160480Y-113890920D01*
G75*
G02*
X179410480Y-113640920I250000J0D01*
G01*
X180160480Y-113640920D01*
G75*
G02*
X180410480Y-113890920I0J-250000D01*
G01*
G37*
G04 #@! TD.AperFunction*
G04 #@! TA.AperFunction,SMDPad,CuDef*
G36*
G01*
X200900040Y-116042740D02*
X202150040Y-116042740D01*
G75*
G02*
X202400040Y-116292740I0J-250000D01*
G01*
X202400040Y-117042740D01*
G75*
G02*
X202150040Y-117292740I-250000J0D01*
G01*
X200900040Y-117292740D01*
G75*
G02*
X200650040Y-117042740I0J250000D01*
G01*
X200650040Y-116292740D01*
G75*
G02*
X200900040Y-116042740I250000J0D01*
G01*
G37*
G04 #@! TD.AperFunction*
G04 #@! TA.AperFunction,SMDPad,CuDef*
G36*
G01*
X200900040Y-113242740D02*
X202150040Y-113242740D01*
G75*
G02*
X202400040Y-113492740I0J-250000D01*
G01*
X202400040Y-114242740D01*
G75*
G02*
X202150040Y-114492740I-250000J0D01*
G01*
X200900040Y-114492740D01*
G75*
G02*
X200650040Y-114242740I0J250000D01*
G01*
X200650040Y-113492740D01*
G75*
G02*
X200900040Y-113242740I250000J0D01*
G01*
G37*
G04 #@! TD.AperFunction*
G04 #@! TA.AperFunction,SMDPad,CuDef*
G36*
G01*
X149778560Y-117178120D02*
X151028560Y-117178120D01*
G75*
G02*
X151278560Y-117428120I0J-250000D01*
G01*
X151278560Y-118178120D01*
G75*
G02*
X151028560Y-118428120I-250000J0D01*
G01*
X149778560Y-118428120D01*
G75*
G02*
X149528560Y-118178120I0J250000D01*
G01*
X149528560Y-117428120D01*
G75*
G02*
X149778560Y-117178120I250000J0D01*
G01*
G37*
G04 #@! TD.AperFunction*
G04 #@! TA.AperFunction,SMDPad,CuDef*
G36*
G01*
X149778560Y-114378120D02*
X151028560Y-114378120D01*
G75*
G02*
X151278560Y-114628120I0J-250000D01*
G01*
X151278560Y-115378120D01*
G75*
G02*
X151028560Y-115628120I-250000J0D01*
G01*
X149778560Y-115628120D01*
G75*
G02*
X149528560Y-115378120I0J250000D01*
G01*
X149528560Y-114628120D01*
G75*
G02*
X149778560Y-114378120I250000J0D01*
G01*
G37*
G04 #@! TD.AperFunction*
G04 #@! TA.AperFunction,SMDPad,CuDef*
G36*
G01*
X123275000Y-97625000D02*
X123275000Y-96375000D01*
G75*
G02*
X123525000Y-96125000I250000J0D01*
G01*
X124275000Y-96125000D01*
G75*
G02*
X124525000Y-96375000I0J-250000D01*
G01*
X124525000Y-97625000D01*
G75*
G02*
X124275000Y-97875000I-250000J0D01*
G01*
X123525000Y-97875000D01*
G75*
G02*
X123275000Y-97625000I0J250000D01*
G01*
G37*
G04 #@! TD.AperFunction*
G04 #@! TA.AperFunction,SMDPad,CuDef*
G36*
G01*
X120475000Y-97625000D02*
X120475000Y-96375000D01*
G75*
G02*
X120725000Y-96125000I250000J0D01*
G01*
X121475000Y-96125000D01*
G75*
G02*
X121725000Y-96375000I0J-250000D01*
G01*
X121725000Y-97625000D01*
G75*
G02*
X121475000Y-97875000I-250000J0D01*
G01*
X120725000Y-97875000D01*
G75*
G02*
X120475000Y-97625000I0J250000D01*
G01*
G37*
G04 #@! TD.AperFunction*
G04 #@! TA.AperFunction,SMDPad,CuDef*
G36*
G01*
X111275000Y-97625000D02*
X111275000Y-96375000D01*
G75*
G02*
X111525000Y-96125000I250000J0D01*
G01*
X112275000Y-96125000D01*
G75*
G02*
X112525000Y-96375000I0J-250000D01*
G01*
X112525000Y-97625000D01*
G75*
G02*
X112275000Y-97875000I-250000J0D01*
G01*
X111525000Y-97875000D01*
G75*
G02*
X111275000Y-97625000I0J250000D01*
G01*
G37*
G04 #@! TD.AperFunction*
G04 #@! TA.AperFunction,SMDPad,CuDef*
G36*
G01*
X108475000Y-97625000D02*
X108475000Y-96375000D01*
G75*
G02*
X108725000Y-96125000I250000J0D01*
G01*
X109475000Y-96125000D01*
G75*
G02*
X109725000Y-96375000I0J-250000D01*
G01*
X109725000Y-97625000D01*
G75*
G02*
X109475000Y-97875000I-250000J0D01*
G01*
X108725000Y-97875000D01*
G75*
G02*
X108475000Y-97625000I0J250000D01*
G01*
G37*
G04 #@! TD.AperFunction*
G04 #@! TA.AperFunction,SMDPad,CuDef*
G36*
G01*
X123275000Y-111625000D02*
X123275000Y-110375000D01*
G75*
G02*
X123525000Y-110125000I250000J0D01*
G01*
X124275000Y-110125000D01*
G75*
G02*
X124525000Y-110375000I0J-250000D01*
G01*
X124525000Y-111625000D01*
G75*
G02*
X124275000Y-111875000I-250000J0D01*
G01*
X123525000Y-111875000D01*
G75*
G02*
X123275000Y-111625000I0J250000D01*
G01*
G37*
G04 #@! TD.AperFunction*
G04 #@! TA.AperFunction,SMDPad,CuDef*
G36*
G01*
X120475000Y-111625000D02*
X120475000Y-110375000D01*
G75*
G02*
X120725000Y-110125000I250000J0D01*
G01*
X121475000Y-110125000D01*
G75*
G02*
X121725000Y-110375000I0J-250000D01*
G01*
X121725000Y-111625000D01*
G75*
G02*
X121475000Y-111875000I-250000J0D01*
G01*
X120725000Y-111875000D01*
G75*
G02*
X120475000Y-111625000I0J250000D01*
G01*
G37*
G04 #@! TD.AperFunction*
G04 #@! TA.AperFunction,SMDPad,CuDef*
G36*
G01*
X111275000Y-111625000D02*
X111275000Y-110375000D01*
G75*
G02*
X111525000Y-110125000I250000J0D01*
G01*
X112275000Y-110125000D01*
G75*
G02*
X112525000Y-110375000I0J-250000D01*
G01*
X112525000Y-111625000D01*
G75*
G02*
X112275000Y-111875000I-250000J0D01*
G01*
X111525000Y-111875000D01*
G75*
G02*
X111275000Y-111625000I0J250000D01*
G01*
G37*
G04 #@! TD.AperFunction*
G04 #@! TA.AperFunction,SMDPad,CuDef*
G36*
G01*
X108475000Y-111625000D02*
X108475000Y-110375000D01*
G75*
G02*
X108725000Y-110125000I250000J0D01*
G01*
X109475000Y-110125000D01*
G75*
G02*
X109725000Y-110375000I0J-250000D01*
G01*
X109725000Y-111625000D01*
G75*
G02*
X109475000Y-111875000I-250000J0D01*
G01*
X108725000Y-111875000D01*
G75*
G02*
X108475000Y-111625000I0J250000D01*
G01*
G37*
G04 #@! TD.AperFunction*
G04 #@! TA.AperFunction,SMDPad,CuDef*
G36*
G01*
X123275000Y-125625000D02*
X123275000Y-124375000D01*
G75*
G02*
X123525000Y-124125000I250000J0D01*
G01*
X124275000Y-124125000D01*
G75*
G02*
X124525000Y-124375000I0J-250000D01*
G01*
X124525000Y-125625000D01*
G75*
G02*
X124275000Y-125875000I-250000J0D01*
G01*
X123525000Y-125875000D01*
G75*
G02*
X123275000Y-125625000I0J250000D01*
G01*
G37*
G04 #@! TD.AperFunction*
G04 #@! TA.AperFunction,SMDPad,CuDef*
G36*
G01*
X120475000Y-125625000D02*
X120475000Y-124375000D01*
G75*
G02*
X120725000Y-124125000I250000J0D01*
G01*
X121475000Y-124125000D01*
G75*
G02*
X121725000Y-124375000I0J-250000D01*
G01*
X121725000Y-125625000D01*
G75*
G02*
X121475000Y-125875000I-250000J0D01*
G01*
X120725000Y-125875000D01*
G75*
G02*
X120475000Y-125625000I0J250000D01*
G01*
G37*
G04 #@! TD.AperFunction*
G04 #@! TA.AperFunction,SMDPad,CuDef*
G36*
G01*
X111275000Y-125625000D02*
X111275000Y-124375000D01*
G75*
G02*
X111525000Y-124125000I250000J0D01*
G01*
X112275000Y-124125000D01*
G75*
G02*
X112525000Y-124375000I0J-250000D01*
G01*
X112525000Y-125625000D01*
G75*
G02*
X112275000Y-125875000I-250000J0D01*
G01*
X111525000Y-125875000D01*
G75*
G02*
X111275000Y-125625000I0J250000D01*
G01*
G37*
G04 #@! TD.AperFunction*
G04 #@! TA.AperFunction,SMDPad,CuDef*
G36*
G01*
X108475000Y-125625000D02*
X108475000Y-124375000D01*
G75*
G02*
X108725000Y-124125000I250000J0D01*
G01*
X109475000Y-124125000D01*
G75*
G02*
X109725000Y-124375000I0J-250000D01*
G01*
X109725000Y-125625000D01*
G75*
G02*
X109475000Y-125875000I-250000J0D01*
G01*
X108725000Y-125875000D01*
G75*
G02*
X108475000Y-125625000I0J250000D01*
G01*
G37*
G04 #@! TD.AperFunction*
G04 #@! TA.AperFunction,SMDPad,CuDef*
G36*
G01*
X160941720Y-114820540D02*
X160941720Y-116070540D01*
G75*
G02*
X160691720Y-116320540I-250000J0D01*
G01*
X159941720Y-116320540D01*
G75*
G02*
X159691720Y-116070540I0J250000D01*
G01*
X159691720Y-114820540D01*
G75*
G02*
X159941720Y-114570540I250000J0D01*
G01*
X160691720Y-114570540D01*
G75*
G02*
X160941720Y-114820540I0J-250000D01*
G01*
G37*
G04 #@! TD.AperFunction*
G04 #@! TA.AperFunction,SMDPad,CuDef*
G36*
G01*
X163741720Y-114820540D02*
X163741720Y-116070540D01*
G75*
G02*
X163491720Y-116320540I-250000J0D01*
G01*
X162741720Y-116320540D01*
G75*
G02*
X162491720Y-116070540I0J250000D01*
G01*
X162491720Y-114820540D01*
G75*
G02*
X162741720Y-114570540I250000J0D01*
G01*
X163491720Y-114570540D01*
G75*
G02*
X163741720Y-114820540I0J-250000D01*
G01*
G37*
G04 #@! TD.AperFunction*
G04 #@! TA.AperFunction,SMDPad,CuDef*
G36*
G01*
X170755400Y-116784080D02*
X169655400Y-116784080D01*
G75*
G02*
X169405400Y-116534080I0J250000D01*
G01*
X169405400Y-113534080D01*
G75*
G02*
X169655400Y-113284080I250000J0D01*
G01*
X170755400Y-113284080D01*
G75*
G02*
X171005400Y-113534080I0J-250000D01*
G01*
X171005400Y-116534080D01*
G75*
G02*
X170755400Y-116784080I-250000J0D01*
G01*
G37*
G04 #@! TD.AperFunction*
G04 #@! TA.AperFunction,SMDPad,CuDef*
G36*
G01*
X170755400Y-122184080D02*
X169655400Y-122184080D01*
G75*
G02*
X169405400Y-121934080I0J250000D01*
G01*
X169405400Y-118934080D01*
G75*
G02*
X169655400Y-118684080I250000J0D01*
G01*
X170755400Y-118684080D01*
G75*
G02*
X171005400Y-118934080I0J-250000D01*
G01*
X171005400Y-121934080D01*
G75*
G02*
X170755400Y-122184080I-250000J0D01*
G01*
G37*
G04 #@! TD.AperFunction*
G04 #@! TA.AperFunction,SMDPad,CuDef*
G36*
G01*
X180410480Y-117899040D02*
X180410480Y-119149040D01*
G75*
G02*
X180160480Y-119399040I-250000J0D01*
G01*
X179410480Y-119399040D01*
G75*
G02*
X179160480Y-119149040I0J250000D01*
G01*
X179160480Y-117899040D01*
G75*
G02*
X179410480Y-117649040I250000J0D01*
G01*
X180160480Y-117649040D01*
G75*
G02*
X180410480Y-117899040I0J-250000D01*
G01*
G37*
G04 #@! TD.AperFunction*
G04 #@! TA.AperFunction,SMDPad,CuDef*
G36*
G01*
X177610480Y-117899040D02*
X177610480Y-119149040D01*
G75*
G02*
X177360480Y-119399040I-250000J0D01*
G01*
X176610480Y-119399040D01*
G75*
G02*
X176360480Y-119149040I0J250000D01*
G01*
X176360480Y-117899040D01*
G75*
G02*
X176610480Y-117649040I250000J0D01*
G01*
X177360480Y-117649040D01*
G75*
G02*
X177610480Y-117899040I0J-250000D01*
G01*
G37*
G04 #@! TD.AperFunction*
G04 #@! TA.AperFunction,SMDPad,CuDef*
G36*
G01*
X147735000Y-87435000D02*
X147735000Y-86185000D01*
G75*
G02*
X147985000Y-85935000I250000J0D01*
G01*
X148735000Y-85935000D01*
G75*
G02*
X148985000Y-86185000I0J-250000D01*
G01*
X148985000Y-87435000D01*
G75*
G02*
X148735000Y-87685000I-250000J0D01*
G01*
X147985000Y-87685000D01*
G75*
G02*
X147735000Y-87435000I0J250000D01*
G01*
G37*
G04 #@! TD.AperFunction*
G04 #@! TA.AperFunction,SMDPad,CuDef*
G36*
G01*
X144935000Y-87435000D02*
X144935000Y-86185000D01*
G75*
G02*
X145185000Y-85935000I250000J0D01*
G01*
X145935000Y-85935000D01*
G75*
G02*
X146185000Y-86185000I0J-250000D01*
G01*
X146185000Y-87435000D01*
G75*
G02*
X145935000Y-87685000I-250000J0D01*
G01*
X145185000Y-87685000D01*
G75*
G02*
X144935000Y-87435000I0J250000D01*
G01*
G37*
G04 #@! TD.AperFunction*
G04 #@! TA.AperFunction,SMDPad,CuDef*
G36*
G01*
X152615000Y-86265000D02*
X152615000Y-87515000D01*
G75*
G02*
X152365000Y-87765000I-250000J0D01*
G01*
X151615000Y-87765000D01*
G75*
G02*
X151365000Y-87515000I0J250000D01*
G01*
X151365000Y-86265000D01*
G75*
G02*
X151615000Y-86015000I250000J0D01*
G01*
X152365000Y-86015000D01*
G75*
G02*
X152615000Y-86265000I0J-250000D01*
G01*
G37*
G04 #@! TD.AperFunction*
G04 #@! TA.AperFunction,SMDPad,CuDef*
G36*
G01*
X155415000Y-86265000D02*
X155415000Y-87515000D01*
G75*
G02*
X155165000Y-87765000I-250000J0D01*
G01*
X154415000Y-87765000D01*
G75*
G02*
X154165000Y-87515000I0J250000D01*
G01*
X154165000Y-86265000D01*
G75*
G02*
X154415000Y-86015000I250000J0D01*
G01*
X155165000Y-86015000D01*
G75*
G02*
X155415000Y-86265000I0J-250000D01*
G01*
G37*
G04 #@! TD.AperFunction*
G04 #@! TA.AperFunction,SMDPad,CuDef*
G36*
G01*
X188239320Y-85233420D02*
X188239320Y-86333420D01*
G75*
G02*
X187989320Y-86583420I-250000J0D01*
G01*
X184989320Y-86583420D01*
G75*
G02*
X184739320Y-86333420I0J250000D01*
G01*
X184739320Y-85233420D01*
G75*
G02*
X184989320Y-84983420I250000J0D01*
G01*
X187989320Y-84983420D01*
G75*
G02*
X188239320Y-85233420I0J-250000D01*
G01*
G37*
G04 #@! TD.AperFunction*
G04 #@! TA.AperFunction,SMDPad,CuDef*
G36*
G01*
X182839320Y-85233420D02*
X182839320Y-86333420D01*
G75*
G02*
X182589320Y-86583420I-250000J0D01*
G01*
X179589320Y-86583420D01*
G75*
G02*
X179339320Y-86333420I0J250000D01*
G01*
X179339320Y-85233420D01*
G75*
G02*
X179589320Y-84983420I250000J0D01*
G01*
X182589320Y-84983420D01*
G75*
G02*
X182839320Y-85233420I0J-250000D01*
G01*
G37*
G04 #@! TD.AperFunction*
G04 #@! TA.AperFunction,SMDPad,CuDef*
G36*
G01*
X171510000Y-87690000D02*
X171510000Y-86090000D01*
G75*
G02*
X171710000Y-85890000I200000J0D01*
G01*
X172110000Y-85890000D01*
G75*
G02*
X172310000Y-86090000I0J-200000D01*
G01*
X172310000Y-87690000D01*
G75*
G02*
X172110000Y-87890000I-200000J0D01*
G01*
X171710000Y-87890000D01*
G75*
G02*
X171510000Y-87690000I0J200000D01*
G01*
G37*
G04 #@! TD.AperFunction*
G04 #@! TA.AperFunction,SMDPad,CuDef*
G36*
G01*
X175710000Y-87690000D02*
X175710000Y-86090000D01*
G75*
G02*
X175910000Y-85890000I200000J0D01*
G01*
X176310000Y-85890000D01*
G75*
G02*
X176510000Y-86090000I0J-200000D01*
G01*
X176510000Y-87690000D01*
G75*
G02*
X176310000Y-87890000I-200000J0D01*
G01*
X175910000Y-87890000D01*
G75*
G02*
X175710000Y-87690000I0J200000D01*
G01*
G37*
G04 #@! TD.AperFunction*
D20*
X176598580Y-82031840D03*
X174058580Y-82031840D03*
X171518580Y-82031840D03*
X168978580Y-82031840D03*
X166438580Y-82031840D03*
X163898580Y-82031840D03*
X161358580Y-82031840D03*
X158818580Y-82031840D03*
X153738580Y-82031840D03*
X151198580Y-82031840D03*
X148658580Y-82031840D03*
X146118580Y-82031840D03*
X143578580Y-82031840D03*
X141038580Y-82031840D03*
X138498580Y-82031840D03*
X135958580Y-82031840D03*
X130878580Y-82031840D03*
X128338580Y-82031840D03*
X125798580Y-82031840D03*
X123258580Y-82031840D03*
X120718580Y-82031840D03*
X118178580Y-82031840D03*
X115638580Y-82031840D03*
X113098580Y-82031840D03*
X185742580Y-130291840D03*
X183202580Y-130291840D03*
X180662580Y-130291840D03*
X178122580Y-130291840D03*
X175582580Y-130291840D03*
X173042580Y-130291840D03*
X170502580Y-130291840D03*
X167962580Y-130291840D03*
X165422580Y-130291840D03*
X162882580Y-130291840D03*
X158818580Y-130291840D03*
X156278580Y-130291840D03*
X153738580Y-130291840D03*
X151198580Y-130291840D03*
X148658580Y-130291840D03*
X146118580Y-130291840D03*
X143578580Y-130291840D03*
X141038580Y-130291840D03*
X135958580Y-130291840D03*
X133418580Y-130291840D03*
X130878580Y-130291840D03*
X128338580Y-130291840D03*
X125798580Y-130291840D03*
X123258580Y-130291840D03*
X120718580Y-130291840D03*
X118178580Y-130291840D03*
D21*
X190568580Y-82031840D03*
X138498580Y-87111840D03*
X108018580Y-82031840D03*
X189298580Y-130291840D03*
X138498580Y-115051840D03*
X114368580Y-130291840D03*
D22*
X167800000Y-89220000D03*
X178150000Y-86890000D03*
X197520000Y-111900000D03*
X166630000Y-118480000D03*
X193950000Y-116680000D03*
X156542740Y-120103900D03*
X165272720Y-125943360D03*
X166357300Y-123654820D03*
X165031420Y-115465860D03*
X158810000Y-86280000D03*
X200590000Y-92050000D03*
X190240000Y-88390000D03*
X197280000Y-110000000D03*
X161060000Y-90910000D03*
X167949880Y-126570740D03*
D23*
X119159020Y-102466140D03*
X119118380Y-100195380D03*
X113129060Y-90261440D03*
X119171720Y-88371680D03*
X119138700Y-86177120D03*
X135630920Y-121724420D03*
X131411980Y-120520460D03*
X125023880Y-114147600D03*
X113002060Y-104475280D03*
D22*
X173060000Y-127280000D03*
X173070000Y-122290000D03*
X173070000Y-112360000D03*
X178250000Y-107050000D03*
X196710000Y-126660000D03*
X154891740Y-97442020D03*
X153446480Y-98706940D03*
X152123140Y-99969320D03*
X150677880Y-101234240D03*
X149293580Y-102499160D03*
X147909280Y-103764080D03*
X146583400Y-105029000D03*
X186550000Y-121190000D03*
X133261100Y-106563160D03*
X111760000Y-120650000D03*
X131069080Y-102539800D03*
X112014000Y-108204000D03*
X135488680Y-101208840D03*
X123698000Y-107950000D03*
X131064000Y-100076000D03*
X111760000Y-93726000D03*
X130810000Y-94996000D03*
X123952000Y-93726000D03*
X133314440Y-94251780D03*
X136316720Y-124322840D03*
D24*
X134642860Y-109212380D03*
D25*
X138316740Y-92175560D02*
X138316740Y-96149160D01*
X138333480Y-92158820D02*
X138316740Y-92175560D01*
D26*
X159968700Y-115097520D02*
X160316720Y-115445540D01*
X156275280Y-115097520D02*
X159968700Y-115097520D01*
X160316720Y-115445540D02*
X160316720Y-115679680D01*
X159061380Y-116935020D02*
X159061380Y-118960900D01*
X160316720Y-115679680D02*
X159061380Y-116935020D01*
X160316720Y-115445540D02*
X160316720Y-112859360D01*
X160316720Y-112859360D02*
X160417860Y-112758220D01*
X160417860Y-112758220D02*
X170030140Y-112758220D01*
X170205400Y-112933480D02*
X170205400Y-115034080D01*
X170030140Y-112758220D02*
X170205400Y-112933480D01*
D27*
X170563560Y-114675920D02*
X170205400Y-115034080D01*
D26*
X183625000Y-114715780D02*
X183583580Y-114757200D01*
X183583580Y-114757200D02*
X185582200Y-114757200D01*
X188122200Y-117297200D02*
X191203580Y-117297200D01*
X185582200Y-114757200D02*
X188122200Y-117297200D01*
X190713280Y-123727820D02*
X190713280Y-122963280D01*
X188122200Y-120372200D02*
X188122200Y-117297200D01*
X190713280Y-122963280D02*
X188122200Y-120372200D01*
X191203580Y-117297200D02*
X192157200Y-117297200D01*
X192157200Y-117297200D02*
X193370000Y-118510000D01*
X193370000Y-118510000D02*
X199170000Y-118510000D01*
X199170000Y-118510000D02*
X199180000Y-118500000D01*
X199180000Y-118500000D02*
X199180000Y-114010000D01*
X201382780Y-114010000D02*
X201525040Y-113867740D01*
X199180000Y-114010000D02*
X201382780Y-114010000D01*
X201525040Y-113867740D02*
X201525040Y-113675040D01*
X183583580Y-111996420D02*
X183583580Y-114757200D01*
X183620000Y-111960000D02*
X183583580Y-111996420D01*
X175796300Y-122583700D02*
X175796300Y-122286300D01*
X175796300Y-122583700D02*
X176204840Y-122583700D01*
D25*
X178122580Y-130291840D02*
X178122580Y-127917420D01*
X178122580Y-127917420D02*
X178310000Y-127730000D01*
X178310000Y-127730000D02*
X185640000Y-127730000D01*
X185640000Y-127730000D02*
X187270000Y-126100000D01*
X187270000Y-126100000D02*
X190590000Y-126100000D01*
X190713280Y-125976720D02*
X190713280Y-123727820D01*
X190590000Y-126100000D02*
X190713280Y-125976720D01*
D26*
X176204840Y-122583700D02*
X176204840Y-122364840D01*
X176204840Y-122583700D02*
X176204840Y-122404840D01*
X176204840Y-122404840D02*
X174930000Y-121130000D01*
X174930000Y-121130000D02*
X174930000Y-114600000D01*
X175014080Y-114515920D02*
X176985480Y-114515920D01*
X174930000Y-114600000D02*
X175014080Y-114515920D01*
X170205400Y-115034080D02*
X170205400Y-111004600D01*
X170205400Y-111004600D02*
X170510000Y-110700000D01*
X170510000Y-110700000D02*
X177150000Y-110700000D01*
X177150000Y-114351400D02*
X176985480Y-114515920D01*
X177150000Y-110700000D02*
X177150000Y-114351400D01*
X182360000Y-110700000D02*
X183620000Y-111960000D01*
X177150000Y-110700000D02*
X182360000Y-110700000D01*
X201525040Y-113867740D02*
X201525040Y-111865040D01*
X201525040Y-111865040D02*
X200590000Y-110930000D01*
X200698320Y-104691680D02*
X202646280Y-104691680D01*
X200590000Y-104800000D02*
X200698320Y-104691680D01*
X200590000Y-110660000D02*
X200590000Y-104800000D01*
X200590000Y-110930000D02*
X200590000Y-110660000D01*
X202577700Y-95049840D02*
X200890160Y-95049840D01*
X200890160Y-95049840D02*
X199430000Y-96510000D01*
X199430000Y-96510000D02*
X199430000Y-99550000D01*
X199348500Y-99631500D02*
X196471540Y-99631500D01*
X199430000Y-99550000D02*
X199348500Y-99631500D01*
X151910000Y-86810000D02*
X151990000Y-86890000D01*
X148360000Y-86810000D02*
X151910000Y-86810000D01*
X148360000Y-86810000D02*
X148360000Y-89850000D01*
X146051180Y-92158820D02*
X138333480Y-92158820D01*
X148360000Y-89850000D02*
X146051180Y-92158820D01*
X151990000Y-86890000D02*
X151990000Y-89120000D01*
X151990000Y-89120000D02*
X152180000Y-89310000D01*
X152180000Y-89310000D02*
X155970000Y-89310000D01*
X155970000Y-89310000D02*
X157160000Y-88120000D01*
X157160000Y-88120000D02*
X157160000Y-84980000D01*
X163760000Y-82170420D02*
X163898580Y-82031840D01*
X157160000Y-84980000D02*
X161720000Y-84980000D01*
X161720000Y-86820000D02*
X161780000Y-86880000D01*
X161720000Y-84980000D02*
X161720000Y-86820000D01*
X161358580Y-84618580D02*
X161720000Y-84980000D01*
X161358580Y-82031840D02*
X161358580Y-84618580D01*
X181089320Y-85783420D02*
X179256580Y-85783420D01*
X178150000Y-86890000D02*
X176110000Y-86890000D01*
X179256580Y-85783420D02*
X178150000Y-86890000D01*
X167800000Y-89220000D02*
X167800000Y-97710000D01*
X169721500Y-99631500D02*
X196471540Y-99631500D01*
X167800000Y-97710000D02*
X169721500Y-99631500D01*
X171790000Y-82303260D02*
X171518580Y-82031840D01*
X171518580Y-86498580D02*
X171910000Y-86890000D01*
X171518580Y-82031840D02*
X171518580Y-86498580D01*
X159061380Y-122770900D02*
X161462720Y-122770900D01*
X161462720Y-122770900D02*
X161599880Y-122633740D01*
X161599880Y-122633740D02*
X161599880Y-119019320D01*
X163952960Y-119019320D02*
X164011380Y-118960900D01*
X161599880Y-119019320D02*
X163952960Y-119019320D01*
X159061380Y-122770900D02*
X159061380Y-126353800D01*
X159232600Y-126525020D02*
X160017000Y-126525020D01*
X159061380Y-126353800D02*
X159232600Y-126525020D01*
X196420520Y-112999480D02*
X197520000Y-111900000D01*
X196420520Y-113867740D02*
X196420520Y-112999480D01*
X166149100Y-118960900D02*
X166630000Y-118480000D01*
X164011380Y-118960900D02*
X166149100Y-118960900D01*
X197520000Y-111900000D02*
X198910000Y-110510000D01*
X198910000Y-110510000D02*
X198910000Y-103550000D01*
X198910000Y-103550000D02*
X201010000Y-101450000D01*
X201010000Y-100617540D02*
X202577700Y-99049840D01*
X201010000Y-101450000D02*
X201010000Y-100617540D01*
X186489320Y-85783420D02*
X199156580Y-85783420D01*
X199156580Y-85783420D02*
X200320000Y-86946840D01*
X200320000Y-86946840D02*
X200320000Y-88590000D01*
X200523320Y-88793320D02*
X202587860Y-88793320D01*
X200320000Y-88590000D02*
X200523320Y-88793320D01*
X166438580Y-82031840D02*
X166438580Y-83138580D01*
X185930000Y-86342740D02*
X186489320Y-85783420D01*
X185930000Y-90280000D02*
X185930000Y-86342740D01*
X185930000Y-90280000D02*
X170990000Y-90280000D01*
X170990000Y-90280000D02*
X169740000Y-89030000D01*
X169740000Y-89030000D02*
X169740000Y-84950000D01*
X169740000Y-84950000D02*
X168180000Y-84950000D01*
X166438580Y-83208580D02*
X166438580Y-82031840D01*
X168180000Y-84950000D02*
X166438580Y-83208580D01*
X178104840Y-122583700D02*
X178104840Y-120834840D01*
X176985480Y-119715480D02*
X176985480Y-118524040D01*
X178104840Y-120834840D02*
X176985480Y-119715480D01*
X176985480Y-118524040D02*
X176985480Y-117854520D01*
X176985480Y-117854520D02*
X178290000Y-116550000D01*
X178290000Y-116550000D02*
X178660000Y-116550000D01*
X179785480Y-115424520D02*
X179785480Y-114515920D01*
X178660000Y-116550000D02*
X179785480Y-115424520D01*
X193962260Y-116667740D02*
X193950000Y-116680000D01*
X196420520Y-116667740D02*
X193962260Y-116667740D01*
X179785480Y-118524040D02*
X180545960Y-118524040D01*
X181772800Y-117297200D02*
X183583580Y-117297200D01*
X180545960Y-118524040D02*
X181772800Y-117297200D01*
X156669740Y-120230900D02*
X156542740Y-120103900D01*
X159061380Y-120230900D02*
X156669740Y-120230900D01*
X165272720Y-125943360D02*
X164609780Y-126606300D01*
X162898280Y-126606300D02*
X162817000Y-126525020D01*
X164609780Y-126606300D02*
X162898280Y-126606300D01*
X165272720Y-125943360D02*
X166019480Y-125196600D01*
X167987520Y-125196600D02*
X168871440Y-124312680D01*
X166019480Y-125196600D02*
X167987520Y-125196600D01*
D27*
X169138580Y-121500900D02*
X170205400Y-120434080D01*
D26*
X164011380Y-121500900D02*
X169138580Y-121500900D01*
D27*
X170205400Y-120434080D02*
X168854120Y-121785360D01*
X168854120Y-124295360D02*
X168871440Y-124312680D01*
D26*
X168854120Y-121785360D02*
X168854120Y-124295360D01*
X165473380Y-122770900D02*
X166357300Y-123654820D01*
X164011380Y-122770900D02*
X165473380Y-122770900D01*
X163137040Y-115465860D02*
X163116720Y-115445540D01*
X165031420Y-115465860D02*
X163137040Y-115465860D01*
X111900000Y-125000000D02*
X114100000Y-125000000D01*
X123900000Y-125000000D02*
X126100000Y-125000000D01*
X111900000Y-111000000D02*
X114100000Y-111000000D01*
X123900000Y-111000000D02*
X126100000Y-111000000D01*
X111900000Y-97000000D02*
X114100000Y-97000000D01*
X123900000Y-97000000D02*
X126100000Y-97000000D01*
X133377780Y-126522360D02*
X133377780Y-124254420D01*
X133377780Y-124254420D02*
X134404100Y-123228100D01*
X134404100Y-123228100D02*
X140822680Y-123228100D01*
X140977780Y-123073000D02*
X140977780Y-119522360D01*
X140822680Y-123228100D02*
X140977780Y-123073000D01*
X140977780Y-119522360D02*
X140977780Y-118650860D01*
X144694100Y-114934540D02*
X146458940Y-114934540D01*
X140977780Y-118650860D02*
X144694100Y-114934540D01*
X150334980Y-114934540D02*
X150403560Y-115003120D01*
X146458940Y-114934540D02*
X150334980Y-114934540D01*
X150403560Y-105836440D02*
X150403560Y-115003120D01*
X158800000Y-97440000D02*
X150403560Y-105836440D01*
X158810000Y-86280000D02*
X158800000Y-97440000D01*
X200800000Y-120890000D02*
X200916320Y-120751140D01*
X201490000Y-116702780D02*
X201525040Y-116667740D01*
X201490000Y-120890000D02*
X201490000Y-116702780D01*
X154790000Y-83083260D02*
X153738580Y-82031840D01*
X154790000Y-86890000D02*
X154790000Y-83083260D01*
X190240000Y-88390000D02*
X196060000Y-88390000D01*
X199720000Y-92050000D02*
X200590000Y-92050000D01*
X196060000Y-88390000D02*
X199720000Y-92050000D01*
X197280000Y-110000000D02*
X184920000Y-110000000D01*
X151198580Y-82031840D02*
X151198580Y-83961420D01*
X151198580Y-83961420D02*
X150730000Y-84430000D01*
X150730000Y-84430000D02*
X145640000Y-84430000D01*
X145560000Y-84510000D02*
X145560000Y-86810000D01*
X145640000Y-84430000D02*
X145560000Y-84510000D01*
X161060000Y-90910000D02*
X161060000Y-108210000D01*
X161060000Y-108210000D02*
X161780000Y-108930000D01*
X183850000Y-108930000D02*
X184920000Y-110000000D01*
X161780000Y-108930000D02*
X183850000Y-108930000D01*
X167949880Y-126570740D02*
X167962580Y-130291840D01*
D28*
X128500000Y-102400000D02*
X121500000Y-102400000D01*
X119225160Y-102400000D02*
X119159020Y-102466140D01*
X121500000Y-102400000D02*
X119225160Y-102400000D01*
X128500000Y-100200000D02*
X121500000Y-100200000D01*
X119123000Y-100200000D02*
X119118380Y-100195380D01*
X121500000Y-100200000D02*
X119123000Y-100200000D01*
X113129060Y-88503760D02*
X113232820Y-88400000D01*
X113129060Y-90261440D02*
X113129060Y-88503760D01*
X116500000Y-88400000D02*
X113232820Y-88400000D01*
X113232820Y-88400000D02*
X109500000Y-88400000D01*
X116500000Y-86200000D02*
X109500000Y-86200000D01*
X109500000Y-86200000D02*
X106047520Y-86200000D01*
X106047520Y-86200000D02*
X105968800Y-86278720D01*
X102656640Y-93301580D02*
X103202980Y-93301580D01*
X106047520Y-90457040D02*
X106047520Y-86200000D01*
X103202980Y-93301580D02*
X106047520Y-90457040D01*
X121500000Y-88400000D02*
X128500000Y-88400000D01*
X119171720Y-88371680D02*
X121471680Y-88371680D01*
X121471680Y-88371680D02*
X121500000Y-88400000D01*
X121500000Y-86200000D02*
X128500000Y-86200000D01*
X121477120Y-86177120D02*
X121500000Y-86200000D01*
X119138700Y-86177120D02*
X121477120Y-86177120D01*
X135630920Y-119575500D02*
X135577780Y-119522360D01*
X135630920Y-121724420D02*
X135630920Y-119575500D01*
X133377780Y-119522360D02*
X133377780Y-120406000D01*
X133263320Y-120520460D02*
X131411980Y-120520460D01*
X133377780Y-120406000D02*
X133263320Y-120520460D01*
X116500000Y-116400000D02*
X109500000Y-116400000D01*
X109500000Y-116400000D02*
X106885160Y-116400000D01*
X106885160Y-116400000D02*
X106580940Y-116704220D01*
X106580940Y-116704220D02*
X106580940Y-120616980D01*
X102651200Y-120616980D02*
X102649020Y-120619160D01*
X106580940Y-120616980D02*
X102651200Y-120616980D01*
X128500000Y-114200000D02*
X121500000Y-114200000D01*
X113002060Y-102999540D02*
X112402520Y-102400000D01*
X113002060Y-104475280D02*
X113002060Y-102999540D01*
X109500000Y-102400000D02*
X112402520Y-102400000D01*
X112402520Y-102400000D02*
X116500000Y-102400000D01*
X109500000Y-100200000D02*
X106784600Y-100200000D01*
X106784600Y-100200000D02*
X106334560Y-100650040D01*
X106334560Y-100650040D02*
X106334560Y-108780580D01*
X104995980Y-110119160D02*
X102649020Y-110119160D01*
X106334560Y-108780580D02*
X104995980Y-110119160D01*
X109500000Y-100200000D02*
X116500000Y-100200000D01*
X128500000Y-116400000D02*
X121500000Y-116400000D01*
X121500000Y-116400000D02*
X120207460Y-116400000D01*
X118007460Y-114200000D02*
X116500000Y-114200000D01*
X120207460Y-116400000D02*
X118007460Y-114200000D01*
X116500000Y-114200000D02*
X109500000Y-114200000D01*
D26*
X173042580Y-127297420D02*
X173060000Y-127280000D01*
X173042580Y-130291840D02*
X173042580Y-127297420D01*
X173070000Y-122290000D02*
X173070000Y-112360000D01*
X165980000Y-86880000D02*
X165980000Y-88400000D01*
X165980000Y-88400000D02*
X163050000Y-91330000D01*
X163050000Y-91330000D02*
X163050000Y-106090000D01*
X164010000Y-107050000D02*
X178250000Y-107050000D01*
X163050000Y-106090000D02*
X164010000Y-107050000D01*
X170502580Y-130291840D02*
X170502580Y-126267420D01*
X170502580Y-126267420D02*
X170530000Y-126240000D01*
X170530000Y-126240000D02*
X180810000Y-126240000D01*
X180810000Y-126240000D02*
X180810000Y-123820000D01*
X180942820Y-123687180D02*
X182406560Y-123687180D01*
X180810000Y-123820000D02*
X180942820Y-123687180D01*
X196710000Y-123718700D02*
X196664360Y-123673060D01*
X196710000Y-126660000D02*
X196710000Y-123718700D01*
X201490000Y-123690000D02*
X200800000Y-123690000D01*
X196664360Y-123673060D02*
X201490000Y-123690000D01*
X138339600Y-97442020D02*
X138316740Y-97419160D01*
X154891740Y-97442020D02*
X138339600Y-97442020D01*
X138334520Y-98706940D02*
X138316740Y-98689160D01*
X153446480Y-98706940D02*
X138334520Y-98706940D01*
X138326900Y-99969320D02*
X138316740Y-99959160D01*
X152123140Y-99969320D02*
X138326900Y-99969320D01*
X138321820Y-101234240D02*
X138316740Y-101229160D01*
X150677880Y-101234240D02*
X138321820Y-101234240D01*
X149293580Y-102499160D02*
X138316740Y-102499160D01*
X138321820Y-103764080D02*
X138316740Y-103769160D01*
X147909280Y-103764080D02*
X138321820Y-103764080D01*
X138326900Y-105029000D02*
X138316740Y-105039160D01*
X146583400Y-105029000D02*
X138326900Y-105029000D01*
X192987200Y-119837200D02*
X191203580Y-119837200D01*
X194023060Y-120873060D02*
X192987200Y-119837200D01*
X196664360Y-120873060D02*
X194023060Y-120873060D01*
X152626060Y-125275800D02*
X155541520Y-125275800D01*
X155541520Y-125275800D02*
X156029660Y-124787660D01*
X156029660Y-124787660D02*
X156029660Y-121699020D01*
X156227780Y-121500900D02*
X159061380Y-121500900D01*
X156029660Y-121699020D02*
X156227780Y-121500900D01*
X186487180Y-121252820D02*
X186550000Y-121190000D01*
X186487180Y-123687180D02*
X186487180Y-121252820D01*
X185206560Y-123687180D02*
X186487180Y-123687180D01*
X186487180Y-123687180D02*
X187872640Y-123687180D01*
X152626060Y-122475800D02*
X152626060Y-119395240D01*
X152626060Y-119395240D02*
X153789380Y-118231920D01*
X155040880Y-118231920D02*
X156275280Y-116997520D01*
X153789380Y-118231920D02*
X155040880Y-118231920D01*
D27*
X176883820Y-124312680D02*
X177154840Y-124583700D01*
D26*
X171671440Y-124312680D02*
X176883820Y-124312680D01*
X146458940Y-122450400D02*
X146484340Y-122475800D01*
X146458940Y-117734540D02*
X146458940Y-122450400D01*
X140977780Y-126522360D02*
X141028300Y-126522360D01*
X145237780Y-126522360D02*
X146484340Y-125275800D01*
X140977780Y-126522360D02*
X145237780Y-126522360D01*
X146484340Y-125275800D02*
X149069600Y-125275800D01*
X149069600Y-125275800D02*
X149517100Y-124828300D01*
X149517100Y-118689580D02*
X150403560Y-117803120D01*
X149517100Y-124828300D02*
X149517100Y-118689580D01*
X150403560Y-117803120D02*
X151386080Y-117803120D01*
X153141680Y-116047520D02*
X154275280Y-116047520D01*
X151386080Y-117803120D02*
X153141680Y-116047520D01*
D25*
X109500000Y-124600000D02*
X109100000Y-125000000D01*
X109500000Y-121800000D02*
X109500000Y-124600000D01*
X109500000Y-121800000D02*
X109911500Y-121800000D01*
D26*
X133261100Y-105144800D02*
X133366740Y-105039160D01*
X133261100Y-106563160D02*
X133261100Y-105144800D01*
X110610000Y-121800000D02*
X109500000Y-121800000D01*
X111760000Y-120650000D02*
X110610000Y-121800000D01*
D25*
X121500000Y-124600000D02*
X121100000Y-125000000D01*
X121500000Y-121800000D02*
X121500000Y-124600000D01*
D26*
X133366740Y-103769160D02*
X135519160Y-103769160D01*
X135519160Y-103769160D02*
X135636000Y-103886000D01*
X135636000Y-103886000D02*
X135636000Y-107950000D01*
X135636000Y-107950000D02*
X137160000Y-109474000D01*
X137160000Y-109474000D02*
X137160000Y-110490000D01*
X137160000Y-110490000D02*
X131064000Y-116586000D01*
X131064000Y-116586000D02*
X131064000Y-118618000D01*
X131064000Y-118618000D02*
X129540000Y-120142000D01*
X123158000Y-120142000D02*
X121500000Y-121800000D01*
X129540000Y-120142000D02*
X123158000Y-120142000D01*
D25*
X109500000Y-110600000D02*
X109100000Y-111000000D01*
X109500000Y-107800000D02*
X109500000Y-110600000D01*
D26*
X131109720Y-102499160D02*
X131069080Y-102539800D01*
X133366740Y-102499160D02*
X131109720Y-102499160D01*
X109904000Y-108204000D02*
X109500000Y-107800000D01*
X112014000Y-108204000D02*
X109904000Y-108204000D01*
D25*
X121500000Y-110600000D02*
X121100000Y-111000000D01*
X121500000Y-107800000D02*
X121500000Y-110600000D01*
D26*
X135468360Y-101229160D02*
X135488680Y-101208840D01*
X133366740Y-101229160D02*
X135468360Y-101229160D01*
X121650000Y-107950000D02*
X121500000Y-107800000D01*
X123698000Y-107950000D02*
X121650000Y-107950000D01*
D25*
X109100000Y-94200000D02*
X109500000Y-93800000D01*
X109100000Y-97000000D02*
X109100000Y-94200000D01*
D26*
X131180840Y-99959160D02*
X131064000Y-100076000D01*
X133366740Y-99959160D02*
X131180840Y-99959160D01*
X109574000Y-93726000D02*
X109500000Y-93800000D01*
X111760000Y-93726000D02*
X109574000Y-93726000D01*
D25*
X121500000Y-96600000D02*
X121100000Y-97000000D01*
X121500000Y-93800000D02*
X121500000Y-96600000D01*
X121413980Y-93886020D02*
X121500000Y-93800000D01*
D26*
X131224020Y-98689160D02*
X133366740Y-98689160D01*
X130967480Y-98432620D02*
X131224020Y-98689160D01*
X130967480Y-95153480D02*
X130810000Y-94996000D01*
X130967480Y-98432620D02*
X130967480Y-95153480D01*
X121574000Y-93726000D02*
X121500000Y-93800000D01*
X123952000Y-93726000D02*
X121574000Y-93726000D01*
D25*
X135577780Y-125061780D02*
X136316720Y-124322840D01*
X135577780Y-126522360D02*
X135577780Y-125061780D01*
X133314440Y-96096860D02*
X133366740Y-96149160D01*
X133314440Y-94251780D02*
X133314440Y-96096860D01*
D26*
X116500000Y-124600000D02*
X116900000Y-125000000D01*
X116500000Y-121800000D02*
X116500000Y-124600000D01*
X116500000Y-121800000D02*
X116937140Y-121800000D01*
X128500000Y-124600000D02*
X128900000Y-125000000D01*
X128500000Y-121800000D02*
X128500000Y-124600000D01*
X116900000Y-108200000D02*
X116500000Y-107800000D01*
X116900000Y-111000000D02*
X116900000Y-108200000D01*
X128900000Y-108200000D02*
X128500000Y-107800000D01*
X128900000Y-111000000D02*
X128900000Y-108200000D01*
X128441720Y-107741720D02*
X128500000Y-107800000D01*
X116500000Y-96600000D02*
X116900000Y-97000000D01*
X116500000Y-93800000D02*
X116500000Y-96600000D01*
X128500000Y-96600000D02*
X128900000Y-97000000D01*
X128500000Y-93800000D02*
X128500000Y-96600000D01*
X133314440Y-94251780D02*
X132842000Y-93779340D01*
X128520660Y-93779340D02*
X128500000Y-93800000D01*
X132842000Y-93779340D02*
X128520660Y-93779340D01*
X117782000Y-93800000D02*
X116500000Y-93800000D01*
X119380000Y-92202000D02*
X117782000Y-93800000D01*
X126746000Y-92202000D02*
X119380000Y-92202000D01*
X128344000Y-93800000D02*
X126746000Y-92202000D01*
X128500000Y-93800000D02*
X128344000Y-93800000D01*
X135577780Y-126522360D02*
X135577780Y-127820220D01*
X135577780Y-127820220D02*
X135128000Y-128270000D01*
X135128000Y-128270000D02*
X129032000Y-128270000D01*
X129032000Y-128270000D02*
X128900000Y-128138000D01*
X119276000Y-127376000D02*
X116900000Y-125000000D01*
X128900000Y-127376000D02*
X119276000Y-127376000D01*
X128900000Y-128138000D02*
X128900000Y-127376000D01*
X128900000Y-127376000D02*
X128900000Y-125000000D01*
X116500000Y-107800000D02*
X116990000Y-107800000D01*
X116990000Y-107800000D02*
X118618000Y-106172000D01*
X118618000Y-106172000D02*
X125476000Y-106172000D01*
X127104000Y-107800000D02*
X128500000Y-107800000D01*
X125476000Y-106172000D02*
X127104000Y-107800000D01*
X128500000Y-107800000D02*
X129898000Y-107800000D01*
X131310380Y-109212380D02*
X134642860Y-109212380D01*
X129898000Y-107800000D02*
X131310380Y-109212380D01*
M02*
