G04 #@! TF.GenerationSoftware,KiCad,Pcbnew,(5.1.9)-1*
G04 #@! TF.CreationDate,2021-03-29T18:58:07+02:00*
G04 #@! TF.ProjectId,Interface_board_1,496e7465-7266-4616-9365-5f626f617264,4.h.0.01*
G04 #@! TF.SameCoordinates,Original*
G04 #@! TF.FileFunction,Soldermask,Bot*
G04 #@! TF.FilePolarity,Negative*
%FSLAX46Y46*%
G04 Gerber Fmt 4.6, Leading zero omitted, Abs format (unit mm)*
G04 Created by KiCad (PCBNEW (5.1.9)-1) date 2021-03-29 18:58:07*
%MOMM*%
%LPD*%
G01*
G04 APERTURE LIST*
%ADD10O,3.600000X1.800000*%
%ADD11O,1.700000X1.700000*%
%ADD12R,1.700000X1.700000*%
%ADD13O,1.600000X1.600000*%
%ADD14R,1.600000X1.600000*%
%ADD15O,1.750000X1.200000*%
%ADD16O,1.727200X2.032000*%
%ADD17C,4.064000*%
G04 APERTURE END LIST*
D10*
X102649020Y-127619160D03*
X102649020Y-124119160D03*
X102649020Y-120619160D03*
X102649020Y-117119160D03*
X102649020Y-113619160D03*
G36*
G01*
X101099020Y-109219160D02*
X104199020Y-109219160D01*
G75*
G02*
X104449020Y-109469160I0J-250000D01*
G01*
X104449020Y-110769160D01*
G75*
G02*
X104199020Y-111019160I-250000J0D01*
G01*
X101099020Y-111019160D01*
G75*
G02*
X100849020Y-110769160I0J250000D01*
G01*
X100849020Y-109469160D01*
G75*
G02*
X101099020Y-109219160I250000J0D01*
G01*
G37*
X102656640Y-103801580D03*
X102656640Y-100301580D03*
X102656640Y-96801580D03*
X102656640Y-93301580D03*
X102656640Y-89801580D03*
G36*
G01*
X101106640Y-85401580D02*
X104206640Y-85401580D01*
G75*
G02*
X104456640Y-85651580I0J-250000D01*
G01*
X104456640Y-86951580D01*
G75*
G02*
X104206640Y-87201580I-250000J0D01*
G01*
X101106640Y-87201580D01*
G75*
G02*
X100856640Y-86951580I0J250000D01*
G01*
X100856640Y-85651580D01*
G75*
G02*
X101106640Y-85401580I250000J0D01*
G01*
G37*
D11*
X196471540Y-107251500D03*
X196471540Y-104711500D03*
X196471540Y-102171500D03*
X196471540Y-99631500D03*
X196471540Y-97091500D03*
D12*
X196471540Y-94551500D03*
D13*
X183583580Y-119837200D03*
X191203580Y-114757200D03*
X183583580Y-117297200D03*
X191203580Y-117297200D03*
X183583580Y-114757200D03*
D14*
X191203580Y-119837200D03*
D15*
X202646280Y-104691680D03*
X202646280Y-106691680D03*
G36*
G01*
X203271281Y-109291680D02*
X202021279Y-109291680D01*
G75*
G02*
X201771280Y-109041681I0J249999D01*
G01*
X201771280Y-108341679D01*
G75*
G02*
X202021279Y-108091680I249999J0D01*
G01*
X203271281Y-108091680D01*
G75*
G02*
X203521280Y-108341679I0J-249999D01*
G01*
X203521280Y-109041681D01*
G75*
G02*
X203271281Y-109291680I-249999J0D01*
G01*
G37*
X202577700Y-95049840D03*
X202577700Y-97049840D03*
G36*
G01*
X203202701Y-99649840D02*
X201952699Y-99649840D01*
G75*
G02*
X201702700Y-99399841I0J249999D01*
G01*
X201702700Y-98699839D01*
G75*
G02*
X201952699Y-98449840I249999J0D01*
G01*
X203202701Y-98449840D01*
G75*
G02*
X203452700Y-98699839I0J-249999D01*
G01*
X203452700Y-99399841D01*
G75*
G02*
X203202701Y-99649840I-249999J0D01*
G01*
G37*
X202587860Y-82793320D03*
X202587860Y-84793320D03*
X202587860Y-86793320D03*
G36*
G01*
X203212861Y-89393320D02*
X201962859Y-89393320D01*
G75*
G02*
X201712860Y-89143321I0J249999D01*
G01*
X201712860Y-88443319D01*
G75*
G02*
X201962859Y-88193320I249999J0D01*
G01*
X203212861Y-88193320D01*
G75*
G02*
X203462860Y-88443319I0J-249999D01*
G01*
X203462860Y-89143321D01*
G75*
G02*
X203212861Y-89393320I-249999J0D01*
G01*
G37*
D16*
X176598580Y-82031840D03*
X174058580Y-82031840D03*
X171518580Y-82031840D03*
X168978580Y-82031840D03*
X166438580Y-82031840D03*
X163898580Y-82031840D03*
X161358580Y-82031840D03*
X158818580Y-82031840D03*
X153738580Y-82031840D03*
X151198580Y-82031840D03*
X148658580Y-82031840D03*
X146118580Y-82031840D03*
X143578580Y-82031840D03*
X141038580Y-82031840D03*
X138498580Y-82031840D03*
X135958580Y-82031840D03*
X130878580Y-82031840D03*
X128338580Y-82031840D03*
X125798580Y-82031840D03*
X123258580Y-82031840D03*
X120718580Y-82031840D03*
X118178580Y-82031840D03*
X115638580Y-82031840D03*
X113098580Y-82031840D03*
X185742580Y-130291840D03*
X183202580Y-130291840D03*
X180662580Y-130291840D03*
X178122580Y-130291840D03*
X175582580Y-130291840D03*
X173042580Y-130291840D03*
X170502580Y-130291840D03*
X167962580Y-130291840D03*
X165422580Y-130291840D03*
X162882580Y-130291840D03*
X158818580Y-130291840D03*
X156278580Y-130291840D03*
X153738580Y-130291840D03*
X151198580Y-130291840D03*
X148658580Y-130291840D03*
X146118580Y-130291840D03*
X143578580Y-130291840D03*
X141038580Y-130291840D03*
X135958580Y-130291840D03*
X133418580Y-130291840D03*
X130878580Y-130291840D03*
X128338580Y-130291840D03*
X125798580Y-130291840D03*
X123258580Y-130291840D03*
X120718580Y-130291840D03*
X118178580Y-130291840D03*
D17*
X190568580Y-82031840D03*
X138498580Y-87111840D03*
X108018580Y-82031840D03*
X189298580Y-130291840D03*
X138498580Y-115051840D03*
X114368580Y-130291840D03*
M02*
