M48
; DRILL file {KiCad (5.1.9)-1} date 03/29/21 18:59:23
; FORMAT={-:-/ absolute / metric / decimal}
; #@! TF.CreationDate,2021-03-29T18:59:23+02:00
; #@! TF.GenerationSoftware,Kicad,Pcbnew,(5.1.9)-1
; #@! TF.FileFunction,Plated,1,2,PTH
FMAT,2
METRIC
T1C0.305
T2C0.400
T3C0.750
T4C0.800
T5C0.900
T6C1.000
T7C1.016
T8C1.200
T9C3.048
%
G90
G05
T1
X134.643Y-109.212
T2
X111.76Y-93.726
X111.76Y-120.65
X112.014Y-108.204
X123.698Y-107.95
X123.952Y-93.726
X130.81Y-94.996
X131.064Y-100.076
X131.069Y-102.54
X133.261Y-106.563
X133.314Y-94.252
X135.489Y-101.209
X136.317Y-124.323
X146.583Y-105.029
X147.909Y-103.764
X149.294Y-102.499
X150.678Y-101.234
X152.123Y-99.969
X153.446Y-98.707
X154.892Y-97.442
X156.543Y-120.104
X158.81Y-86.28
X161.06Y-90.91
X165.031Y-115.466
X165.273Y-125.943
X166.357Y-123.655
X166.63Y-118.48
X167.8Y-89.22
X167.95Y-126.571
X173.06Y-127.28
X173.07Y-112.36
X173.07Y-122.29
X178.15Y-86.89
X178.25Y-107.05
X186.55Y-121.19
X190.24Y-88.39
X193.95Y-116.68
X196.71Y-126.66
X197.28Y-110.0
X197.52Y-111.9
X200.59Y-92.05
T3
X202.578Y-95.05
X202.578Y-97.05
X202.578Y-99.05
X202.588Y-82.793
X202.588Y-84.793
X202.588Y-86.793
X202.588Y-88.793
X202.646Y-104.692
X202.646Y-106.692
X202.646Y-108.692
T4
X183.584Y-114.757
X183.584Y-117.297
X183.584Y-119.837
X191.204Y-114.757
X191.204Y-117.297
X191.204Y-119.837
T5
X113.002Y-104.475
X113.129Y-90.261
X119.118Y-100.195
X119.139Y-86.177
X119.159Y-102.466
X119.172Y-88.372
X125.024Y-114.148
X131.412Y-120.52
X135.631Y-121.724
T6
X196.472Y-94.551
X196.472Y-97.091
X196.472Y-99.631
X196.472Y-102.171
X196.472Y-104.712
X196.472Y-107.251
T7
X113.099Y-82.032
X115.639Y-82.032
X118.179Y-82.032
X118.179Y-130.292
X120.719Y-82.032
X120.719Y-130.292
X123.259Y-82.032
X123.259Y-130.292
X125.799Y-82.032
X125.799Y-130.292
X128.339Y-82.032
X128.339Y-130.292
X130.879Y-82.032
X130.879Y-130.292
X133.419Y-130.292
X135.959Y-82.032
X135.959Y-130.292
X138.499Y-82.032
X141.039Y-82.032
X141.039Y-130.292
X143.579Y-82.032
X143.579Y-130.292
X146.119Y-82.032
X146.119Y-130.292
X148.659Y-82.032
X148.659Y-130.292
X151.199Y-82.032
X151.199Y-130.292
X153.739Y-82.032
X153.739Y-130.292
X156.279Y-130.292
X158.819Y-82.032
X158.819Y-130.292
X161.359Y-82.032
X162.883Y-130.292
X163.899Y-82.032
X165.423Y-130.292
X166.439Y-82.032
X167.963Y-130.292
X168.979Y-82.032
X170.503Y-130.292
X171.519Y-82.032
X173.043Y-130.292
X174.059Y-82.032
X175.583Y-130.292
X176.599Y-82.032
X178.123Y-130.292
X180.663Y-130.292
X183.203Y-130.292
X185.743Y-130.292
T8
X102.649Y-110.119
X102.649Y-113.619
X102.649Y-117.119
X102.649Y-120.619
X102.649Y-124.119
X102.649Y-127.619
X102.657Y-86.302
X102.657Y-89.802
X102.657Y-93.302
X102.657Y-96.802
X102.657Y-100.302
X102.657Y-103.802
T9
X108.019Y-82.032
X114.369Y-130.292
X138.499Y-87.112
X138.499Y-115.052
X189.299Y-130.292
X190.569Y-82.032
T0
M30
